<?xml version="1.0" encoding="utf-8"?>
<!-- Generator: Adobe Illustrator 23.0.4, SVG Export Plug-In . SVG Version: 6.00 Build 0)  -->
<svg version="1.1" id="Capa_1" xmlns="http://www.w3.org/2000/svg" xmlns:xlink="http://www.w3.org/1999/xlink" x="0px" y="0px"
	 viewBox="0 0 110 118" style="enable-background:new 0 0 110 118;" xml:space="preserve">
<style type="text/css">
	.st0{fill:#FFFFFF;}
</style>
<title>enes-leon-alterno</title>
<path class="st0" d="M74.4,45.6V28.9c0,0,0-0.1-0.1-0.1c0,0,0,0,0,0h-35c0,0-0.1,0-0.1,0.1c0,0,0,0,0,0v16.7l0,0
	c0.1,5.7,1.9,11.1,5.2,15.8c3,4.3,7.4,7.4,12.4,8.7 M56.8,70.1c5-1.4,9.4-4.4,12.4-8.7c3.3-4.6,5.1-10.1,5.2-15.8l0,0 M73.7,45.6
	C73.7,45.6,73.7,45.6,73.7,45.6c-0.3,11.5-7.2,21.3-16.9,23.9C47.2,66.9,40.2,57.1,40,45.6c0,0,0-0.1,0-0.1v-16h33.7L73.7,45.6"/>
<path class="st0" d="M56.8,65.5C56.8,65.5,56.8,65.5,56.8,65.5c7.6-2.6,12.9-10.8,13.2-20c0-0.1,0-0.1,0-0.2V33.2
	c0-0.1,0-0.1-0.1-0.1H43.8c-0.1,0-0.1,0-0.1,0.1v12.1c0,0,0,0.1,0,0.2C43.9,54.7,49.3,62.9,56.8,65.5 M56.8,64.8
	c-7-2.6-12.1-10.5-12.4-19.3c0-0.1,0-0.2,0-0.2V34.1c0.1,0.1,0.1,0.3,0.2,0.4c0.2,0.3,0.7,1.1,0.7,1.1s0,0.4-0.1,0.4
	s0.2,0.2,0.3,0.4s0.3,0.5,0.5,0.6s0.2-0.2,0.1-0.4s-0.4-0.8-0.4-0.8c-0.1-0.2-0.1-0.4-0.2-0.7c-0.2-0.3-0.3-0.7-0.3-0.7
	s0.8,0.2,0.9,0.6c0.1,0.6,0.3,1.3,0.6,1.9c0.2,0.4,0.4,0.7,0.7,1c0.4,0.5,0.9,0.8,1.5,1c0.7,0.2,1.5-0.2,1.8,0
	c0.4,0.4,0.9,0.7,1.4,1c0.5,0.1,1.7,0.4,1.9,0.8s0.8,0.5,1.2,0.5s1.3,0.4,1.3,1.2l-0.8,1.5c-0.3,0.3-0.6,0.7-0.7,1.1
	c-0.1,0.5-0.4,0.9,0.2,1.7c0.5,0.8,0.9,1.6,1,2.6c0,0.7,0.8,0.8,1.3,1.2s0,0.6-0.3,1.3s-0.1,2.1-0.5,3s-0.6,1.2-0.6,2
	c0.1,0.7,0,1.5-0.2,2.2c-0.2,0.6-0.2,1.3-0.2,1.9c-0.1,0.8,0.2,1.5,0.7,2.1c0.5,0.6,1.7,0.9,1.5,0c-0.2-1,0-1.9,0.7-2.7l0.6-0.6
	c-0.1-0.5,0.1-0.9,0.5-1.2c0.6-0.4,1-0.7,0.7-0.8s0-0.5,0.3-0.5s0.5,0.1,1.3-0.7c0.5-0.6,1.1-1.1,1.8-1.5c0.8-0.4,1.1-1.2,1.6-1.7
	c0.6-0.5,1.3-0.8,2-1c0.5-0.1,0.9-0.6,0.8-1.2c0-0.6-0.2-1,0.2-1.7s0.2-0.8,0.6-1.1C67.9,55.9,63.2,62.5,56.8,64.8 M69.3,45.3
	c0,0.1,0,0.1,0,0.2c0,0.4,0,0.7-0.1,1.1c-0.4-0.3-1-0.6-1.3-0.9c-0.3-0.3-0.7-0.6-1.2-0.8c-0.2-0.2-0.6-0.3-0.8-0.2
	c-0.6,0.1-1,0-1.1-0.5s0-1-0.6-1.3c-0.5-0.3-0.9-0.5-1.3-0.9c-0.4-0.3-0.8-0.8-1-0.8c-0.4,0-0.8,0-1.2,0c-0.4-0.3-1-0.4-1.5-0.3
	c0,0-0.5-0.8-1.2-0.4s-1.1,0.7-1.4,0.3s-1-0.2-1.3-0.2s-0.8-0.6-0.8-0.9s0-0.7-0.2-0.7s-0.8,0.2-1.2-0.1s-0.2-0.5,0-0.8
	c0.2-0.4,0.3-0.9,0.2-1.3h-0.5c0,0-0.5-0.1-0.7,0.3c-0.3,0.5-0.8,0.7-1.3,0.6c-0.5-0.1-1-0.5-1.2-1c-0.1-0.4-0.1-0.7,0-1.1
	c0.1-0.3-0.3-0.8-0.5-0.9s-0.2,0.1-0.5-0.4c-0.2-0.2-0.3-0.4-0.6-0.6h21V45.3"/>
<path class="st0" d="M47.1,15.6c-0.5-0.3-1.2-0.2-1.7,0.1c-0.1,0.1-0.2,0.2-0.3,0.3c-0.6-0.1-1.1,0.1-1.6,0.5c-0.2,0.3-0.2,0.7,0,1
	c0.6,1.5,0.7,1.8,0.7,1.8v0c0,0,1.1,1,0.6,1.9s-0.4,1.2,0.2,1.5s0.7,0.5,0.7,1.5v0.1c0,0.7,0,1.2,0.3,1.6c0.2,0.2,0.5,0.3,0.8,0.2
	c0.2,0,0.4-0.1,0.6-0.3c0.4-0.8,0.4-1.6,0.2-2.4c-0.1-0.5-0.4-1.7,0-2s0.7-0.4,0.9-0.1c0,0,0.1,0,0.1,0c0.2,0,0.6-0.2,0.6-0.6
	c0-0.1,0-0.3-0.1-0.4l0,0h0.2c0.3,0.1,0.5,0,0.7-0.2c0.2-0.2,0.2-0.5,0.1-0.7c-0.4-0.7-0.9-1.4-1.5-2l-0.2-0.1
	c-0.3-0.3-0.3-0.3-0.3-0.5C48.1,16.2,47.8,15.8,47.1,15.6 M48.5,20.4v0.1c-0.5-0.1-1,0-1.3,0.4c-0.7,0.5-0.5,1.6-0.2,2.6
	c0.2,0.6,0.2,1.3-0.1,2c0,0-0.1,0-0.1,0c-0.1,0-0.2,0-0.3-0.1c-0.2-0.2-0.2-0.7-0.2-1.2V24c0-1.1-0.2-1.6-1-2L45.1,22
	c0-0.2,0.1-0.5,0.3-0.7c0.3-0.9,0-1.8-0.7-2.4c-0.1-0.2-0.2-0.7-0.7-1.7C44,17,44,16.8,44,16.7s0.8-0.3,1-0.2h0.1
	c0.3-0.1,0.5-0.2,0.7-0.5c0.3-0.2,0.7-0.2,1,0c0.5,0.2,0.7,0.5,0.6,0.5c0,0.5,0.1,0.6,0.5,1l0.2,0.1c0.5,0.5,1,1.2,1.3,1.8
	c0,0,0,0.1,0,0.1c0,0-0.1,0-0.1,0c-0.3-0.1-0.6-0.1-0.8,0.1C48.4,19.9,48.4,20.1,48.5,20.4"/>
<path class="st0" d="M45.9,17.7c-0.3,0-0.5,0.2-0.5,0.5s0.2,0.5,0.5,0.5s0.5-0.2,0.5-0.5S46.2,17.7,45.9,17.7"/>
<path class="st0" d="M40.3,17.9c-0.1,0-2.4,0.6-2.4,2c0,0.8,0.7,1.5,1.5,1.5c0,0,0.1,0,0.1,0c0,0,0-0.1,0-0.1
	c-0.2-0.2-0.3-0.4-0.3-0.6c0-0.2,0.2-0.3,0.5-0.4s0.6-0.3,0.5-0.6c0-0.5,0-1,0.2-1.5c0,0,0-0.1,0-0.1C40.4,18,40.4,18,40.3,17.9
	 M38.7,20.4c-0.1-0.1-0.1-0.3-0.1-0.5c0-0.5,0.6-0.9,1.1-1.1c0,0.3,0,0.5,0,0.8c-0.1,0.1-0.1,0.1-0.2,0.1
	C39.1,19.8,38.8,20.1,38.7,20.4"/>
<path class="st0" d="M41.5,20.4c-1,0.5-1.6,0.8-1.6,0.8c0,0,0,0.1,0,0.1c0,0,0,0.1,0.1,0.1c1.1,0.3,2.3,0.4,3.4,0.5
	c0.4-0.1,0.8-0.3,1-0.7c0.2-0.6,0-1.2-0.4-1.6c-0.8-1.4-1.2-2.4-1.2-2.4c0,0-0.1-0.1-0.1-0.1c0,0-2.5,0.5-2.1,2.7c0,0,0,0.1,0.1,0.1
	h0.9c0.1,0,0.3,0.1,0.3,0.2S41.9,20.2,41.5,20.4 M42.6,20c-0.1-0.5-0.6-0.6-0.8-0.7h-0.5c0.1-0.7,0.6-1.3,1.3-1.5
	c0.2,0.4,0.6,1.1,1.1,2v0c0.2,0.3,0.5,0.8,0.3,1.1c-0.1,0.2-0.3,0.4-0.6,0.4c-0.6-0.1-1.3-0.1-1.9-0.3l0.4-0.2
	C42,20.8,42.6,20.5,42.6,20"/>
<path class="st0" d="M45.8,26.2c0-0.1-0.1-0.2-0.2-0.2L45,25.7l0,0c-0.2,0-0.5,0.1-0.6,0.2l-2.6,1.8c-0.1,0-0.3,0.2-0.2,0.4
	s0.1,0.1,0.2,0.2c0.4,0.1,1.5,0.2,1.6,0.2c0.3,0,0.6-0.1,0.8-0.2c0.2-0.2,1.4-1.5,1.5-1.6S45.8,26.4,45.8,26.2 M43.7,27.8
	c-0.1,0-0.2,0.1-0.3,0l-0.7-0.1l2.1-1.4l0.1,0c0,0,0,0,0.1,0l0.2,0.1C44.6,26.9,43.9,27.7,43.7,27.8"/>
<path class="st0" d="M44.7,28.5c0.4,0,1,0.1,1,0.1s0.4,0,0.7-0.4l0.7-1.2c0.1-0.1,0.1-0.2,0.1-0.4c0-0.1-0.1-0.2-0.3-0.2l-0.5-0.1
	c-0.2-0.1-0.5,0-0.6,0.1c-0.2,0.2-1.3,1.5-1.3,1.5s-0.2,0.2-0.1,0.4C44.4,28.4,44.5,28.5,44.7,28.5 M45.7,28l-0.5,0
	c0.3-0.3,0.8-0.9,1-1.2l0.2,0l-0.6,1C45.9,27.9,45.8,28,45.7,28"/>
<path class="st0" d="M47.3,28.6h0.8c0.3,0,0.5-0.2,0.5-0.5c0,0,0,0,0,0v-1.3l0,0c-0.1-0.1-0.3-0.2-0.5-0.2c-0.2,0-0.3,0-0.5,0
	c-0.2,0-0.4,0.1-0.4,0.3C47.2,27,46.7,28,46.7,28c-0.1,0.1-0.1,0.3,0,0.4C46.9,28.6,47.1,28.7,47.3,28.6 M48.1,28.1h-0.8
	c0.1-0.2,0.4-0.8,0.5-1h0.3V28.1"/>
<path class="st0" d="M51.2,28.5l0.7-0.1c0.1,0,0.2,0,0.2-0.1c0.1-0.1,0.1-0.3,0-0.4c-0.2-0.4-1.1-2.1-1.2-2.1l0,0
	c0,0-0.2-0.2-0.4-0.1l0,0L50.1,26C50,26,49.9,26.3,50,26.4c0,0,0,0,0,0c0.1,0.3,0.6,1.8,0.6,1.8l0,0C50.6,28.4,50.8,28.6,51.2,28.5
	 M50.6,26.4l0.8,1.6h-0.3l0,0C51.1,27.7,50.8,26.8,50.6,26.4L50.6,26.4"/>
<path class="st0" d="M49.2,28.6h1c0.1,0,0.2,0,0.3-0.1c0.1-0.1,0.1-0.2,0-0.3l-0.6-1.7l0,0c-0.1-0.2-0.3-0.2-0.5-0.2
	c-0.2,0.1-0.3,0.1-0.5,0.1l0,0c0,0-0.1,0.1-0.1,0.3s0.1,1.5,0.1,1.6S48.9,28.7,49.2,28.6 M49.4,28.1c0-0.5,0-1-0.1-1.2l0,0l0.4,1.2
	L49.4,28.1"/>
<path class="st0" d="M52.8,28.4l0.8-0.1c0.1,0,0.3-0.1,0.4-0.2c0.1-0.1,0.1-0.3-0.1-0.6c-0.3-0.6-1.6-2.5-1.7-2.6
	c0-0.1-0.1-0.1-0.2-0.2c-0.1,0-0.2,0-0.3,0.1l-0.5,0.4c-0.2,0.1-0.2,0.4-0.1,0.6l1.2,2.3l0,0C52.3,28.3,52.5,28.4,52.8,28.4
	 M51.6,25.7l0.2-0.1c0.3,0.5,1.2,1.8,1.5,2.2l-0.5,0.1C52.6,27.6,51.8,26.1,51.6,25.7"/>
<path class="st0" d="M36.8,48.4c-1.3-0.6-2.6-0.1-2.6,1c0,2.5,5.6,2.1,4.7-2.2c-0.5-2.5-2.2-5.7-2.6-10.3s2.3-6.2,2.3-6.2v-1.2
	c-4.3,1.9-3.5,10.4-2.2,14.4S36.8,48.4,36.8,48.4"/>
<path class="st0" d="M79.5,49.4c0-1.1-1.2-1.5-2.6-1c0,0-1-0.6,0.3-4.6s2.1-12.4-2.2-14.4v1.2c0,0,2.7,1.5,2.3,6.2s-2,7.8-2.6,10.3
	C73.9,51.5,79.5,51.8,79.5,49.4"/>
<path class="st0" d="M35.1,51.9l-2.6,2c-3-2.2-4.4,0.4-4.4,0.4c0.7-0.1,1.3-0.1,2,0.1c-2.4,0.6-1.8,2-1.8,2s2.4-1.3,3.4,0.2
	c0.7,1.1,0.6,2.5-0.3,3.4c4,0,2.7-4.9,2.7-4.9l3.5-3.2L35.1,51.9"/>
<path class="st0" d="M85,54.3c0,0-1.3-2.6-4.4-0.4l-2.6-2h-2.6l3.6,3.2c0,0-1.3,4.9,2.7,4.9c-0.9-0.9-1.1-2.4-0.3-3.5
	c1-1.5,3.4-0.2,3.4-0.2s0.6-1.4-1.8-2C83.6,54.1,84.3,54.1,85,54.3"/>
<path class="st0" d="M38.6,33.5v-2c-0.1,0.4-0.4,0.7-0.8,0.9c-0.4,0.2-0.2,0.5-0.2,0.5C38,32.8,38.5,33,38.6,33.5"/>
<path class="st0" d="M38.1,38.5c0.2,1.3,0.5,0.8,0.5,0.8s-0.1-2.2-0.2-2.6S37,36.5,37,37c0,0.8,0.1,1.6,0.3,2.3l0.4-0.1l-0.1-1.7
	C37.6,37.6,38,37.2,38.1,38.5"/>
<path class="st0" d="M38.4,43.1c0.3,0.4,0.4-1.8,0.3-2.2c0,0-1.1-0.3-1,0.2C37.8,41.9,38,42.6,38.4,43.1"/>
<path class="st0" d="M37.1,34.6c0,0.4,1.4,0.3,1.4,0.3v-0.7C38.5,34.2,37.1,34,37.1,34.6"/>
<path class="st0" d="M38.5,36v-0.7c0,0-1.4-0.2-1.4,0.4C37.1,36.2,38.5,36,38.5,36"/>
<path class="st0" d="M42.4,60.1c0-0.2-0.2-0.4-0.4-0.4c0,0,0,0,0,0c-0.2,0-0.4,0.1-0.5,0.3c0,0.2,0.1,0.4,0.3,0.5c0,0,0.1,0,0.1,0
	C42.2,60.5,42.4,60.3,42.4,60.1"/>
<path class="st0" d="M76.2,55.7c-0.2,0-0.4,0.2-0.4,0.4s0.2,0.4,0.4,0.4c0.2,0,0.4-0.2,0.4-0.4C76.7,55.8,76.5,55.6,76.2,55.7
	C76.2,55.6,76.2,55.6,76.2,55.7"/>
<path class="st0" d="M75.2,56.2c0-0.2-0.2-0.4-0.4-0.4c-0.2,0-0.4,0.2-0.4,0.4c0,0.2,0.2,0.4,0.4,0.4C75,56.7,75.2,56.5,75.2,56.2"
	/>
<path class="st0" d="M73.8,56.5c0-0.2-0.2-0.5-0.4-0.5c-0.2,0-0.5,0.2-0.5,0.4c0,0.2,0.2,0.5,0.4,0.5c0,0,0,0,0,0
	C73.6,56.9,73.8,56.7,73.8,56.5"/>
<path class="st0" d="M37.9,63.6l0.2-2.4c0,0-0.2-0.5-1-0.1L37,62.9c0,0-0.5,0.7-1.4-0.1l0.1-1.9c-0.2-0.3-0.6-0.3-0.9-0.1l-0.2,2.5
	C35.5,64.2,36.9,64.4,37.9,63.6"/>
<path class="st0" d="M36.3,62.6c0.1,0,0.3-0.1,0.3-0.2c0,0,0,0,0,0l0.1-0.8c0-0.2-0.2-0.3-0.3-0.2c-0.1,0-0.2,0.1-0.2,0.2l0,0.8
	C36,62.5,36.2,62.6,36.3,62.6C36.3,62.7,36.3,62.7,36.3,62.6"/>
<path class="st0" d="M41.6,64.1l0.2-2.3c0,0-0.2-0.5-1-0.1l-0.1,1.8c0,0-0.4,0.7-1.4-0.1l0.1-1.8c-0.2-0.2-0.6-0.3-0.9-0.1l-0.2,2.4
	C39.2,64.7,40.6,64.9,41.6,64.1"/>
<path class="st0" d="M40.1,63.2c0.1,0,0.3-0.1,0.3-0.2v-0.8c0-0.1-0.1-0.2-0.2-0.3c-0.1,0-0.3,0.1-0.3,0.2v0.8
	C39.8,63.1,40,63.2,40.1,63.2"/>
<path class="st0" d="M44.9,64.4l0.1-1.2c0,0-0.1-0.6-0.8-0.2l-0.1,0.5c0,0-0.4,0.4-0.3-0.3l0.1-0.8c0,0-0.2-0.2-0.4,0.1v1
	c0,0-0.2,0.2-0.5,0l0.1-1.4c0,0-0.2-0.6-0.8-0.1l-0.1,2.1C42.2,64.1,43.1,65.6,44.9,64.4"/>
<path class="st0" d="M36.3,59.2c0-0.2-0.3-0.4-0.5-0.4c-0.2,0-0.3,0.2-0.4,0.4c0,0.2,0.3,0.4,0.5,0.4C36.2,59.5,36.3,59.4,36.3,59.2
	"/>
<path class="st0" d="M38.5,59.5c0-0.2-0.2-0.4-0.4-0.4c0,0,0,0,0,0c-0.2,0-0.4,0.1-0.5,0.3c0,0.2,0.1,0.4,0.3,0.5c0,0,0.1,0,0.1,0
	C38.3,59.9,38.5,59.7,38.5,59.5"/>
<path class="st0" d="M40.2,59.8c0-0.2-0.2-0.4-0.4-0.4c-0.2,0-0.4,0.2-0.4,0.4s0.2,0.4,0.4,0.4C40.1,60.2,40.2,60,40.2,59.8"/>
<path class="st0" d="M38.1,52.7v1.4l1,0.8C39.1,55,39.6,53.2,38.1,52.7"/>
<path class="st0" d="M39.6,56.5c-0.1,0.1-0.3,0.4-0.4-0.1s-0.6-0.4-0.8-0.4s-0.6,0.9-0.8,0.3s-0.3-1-1.2-0.8v1.5l4.1,0.8
	c0,0,0-1-0.2-1.2S39.7,56.3,39.6,56.5"/>
<path class="st0" d="M40.7,58.4c-1.4-0.4-2.8-0.7-4.2-0.9v0.6l4.3,0.9C40.8,59,40.9,58.9,40.7,58.4"/>
<path class="st0" d="M78.8,63.3l-0.2-2.5c-0.3-0.2-0.7-0.1-0.9,0.1l0.1,1.9c-1,0.8-1.4,0.1-1.4,0.1l-0.1-1.8c-0.8-0.4-1,0.1-1,0.1
	l0.2,2.4C76.5,64.4,78,64.3,78.8,63.3"/>
<path class="st0" d="M76.8,62.4c0,0.2,0.2,0.3,0.3,0.2c0.1,0,0.2-0.1,0.2-0.2v-0.8c0-0.1-0.2-0.3-0.3-0.2c-0.1,0-0.3,0.1-0.3,0.3
	c0,0,0,0,0,0V62.4"/>
<path class="st0" d="M74.9,63.8l-0.2-2.4c-0.3-0.2-0.7-0.1-0.9,0.1l0.1,1.8c-0.9,0.8-1.3,0.1-1.3,0.1l-0.1-1.8c-0.7-0.3-1,0.1-1,0.1
	l0.2,2.3C72.7,64.9,74.1,64.7,74.9,63.8"/>
<path class="st0" d="M73.2,61.9c-0.1,0-0.2,0.1-0.2,0.3L73,63c0,0.1,0.1,0.3,0.3,0.3c0.1,0,0.3-0.1,0.3-0.3v-0.8
	C73.5,62.1,73.4,62,73.2,61.9C73.2,62,73.2,62,73.2,61.9"/>
<path class="st0" d="M69.2,63.5L69.1,63c-0.7-0.4-0.8,0.2-0.8,0.2l0.1,1.2c1.9,1.2,2.8-0.3,2.8-0.3L71.1,62
	c-0.6-0.4-0.8,0.1-0.8,0.1l0.1,1.4c-0.3,0.2-0.5,0-0.5,0v-1c-0.2-0.3-0.4-0.1-0.4-0.1l0.1,0.8C69.6,63.9,69.2,63.5,69.2,63.5"/>
<path class="st0" d="M24.5,16.1c0.3-0.1,0.6-0.4,0.4-0.7l-1.3-3.1l-0.4,0.1l1.3,3c0.1,0.3,0.1,0.4-0.1,0.4s-0.3,0-0.4-0.2l-1.3-3
	l-0.4,0.1l1.3,3.1C23.7,16.2,24.1,16.3,24.5,16.1C24.4,16.2,24.4,16.2,24.5,16.1"/>
<polyline class="st0" points="26,15.6 24.9,12.3 24.9,12.3 26.5,15.5 27,15.3 25.8,11.6 25.5,11.7 26.5,14.9 26.5,14.9 25,11.9 
	24.5,12 25.7,15.7 26,15.6 "/>
<polyline class="st0" points="28,15.1 27,11.4 26.6,11.4 27.6,15.2 28,15.1 "/>
<polyline class="st0" points="29.5,14.8 29,10.9 28.7,11 29.1,14.5 29.1,14.5 27.9,11.1 27.5,11.2 28.9,14.9 29.5,14.8 "/>
<polyline class="st0" points="31.4,14.4 31.3,14.1 30.7,14.2 30.4,12.7 31,12.6 30.9,12.3 30.3,12.4 30,11 30.7,10.9 30.6,10.6 
	29.6,10.8 30.4,14.6 31.4,14.4 "/>
<path class="st0" d="M32.4,14.2L32,12.4h0.2c0.2,0,0.3,0,0.3,0.2l0.3,1.6l0.4-0.1L33,12.5c0-0.3-0.2-0.3-0.5-0.3l0,0
	c0.3-0.1,0.4-0.2,0.3-0.5l-0.2-1c-0.1-0.4-0.3-0.4-0.7-0.3l-0.7,0.1l0.7,3.8L32.4,14.2 M31.7,10.7h0.2c0.2,0,0.3,0,0.4,0.2l0.2,0.9
	c0,0.2,0,0.3-0.2,0.3H32L31.7,10.7"/>
<path class="st0" d="M33.5,11.2c0,0.2,0.1,0.3,0.2,0.5l0.7,0.8c0.1,0.1,0.2,0.2,0.2,0.4l0.1,0.5c0,0.2,0,0.3-0.2,0.3
	s-0.3-0.1-0.3-0.2l-0.1-0.5L33.8,13l0.1,0.5c0.1,0.4,0.3,0.5,0.7,0.5c0.3,0,0.5-0.2,0.5-0.5c0,0,0-0.1,0-0.1L35,12.7
	c0-0.2-0.1-0.3-0.2-0.4L34,11.4c-0.1-0.1-0.1-0.2-0.1-0.3l-0.1-0.4c0-0.1,0-0.3,0.2-0.3s0.2,0.1,0.3,0.2l0.1,0.5l0.4-0.1l-0.1-0.5
	c-0.1-0.4-0.3-0.5-0.7-0.4s-0.6,0.3-0.5,0.6L33.5,11.2"/>
<polyline class="st0" points="36.2,13.7 35.6,9.9 35.2,9.9 35.8,13.8 36.2,13.7 "/>
<path class="st0" d="M37.5,13.5c0.5-0.1,0.6-0.3,0.6-0.7l-0.3-2.6c0-0.4-0.2-0.6-0.7-0.6l-0.7,0.1l0.5,3.8L37.5,13.5 M37,10
	c0.2,0,0.3,0,0.4,0.3l0.4,2.6c0,0.2,0,0.3-0.3,0.3h-0.2L36.8,10H37"/>
<path class="st0" d="M39.1,12.3l0.7-0.1l0.3,1h0.4l-1.1-3.8h-0.5l-0.2,3.9H39L39.1,12.3 M39,9.8L39,9.8l0.5,2.2L39,12L39,9.8"/>
<path class="st0" d="M41.6,13.1c0.5,0,0.6-0.3,0.6-0.7l-0.3-2.6c0-0.4-0.2-0.6-0.7-0.6l-0.7,0.1l0.4,3.8L41.6,13.1 M41.2,9.6
	c0.2,0,0.3,0,0.4,0.3l0.3,2.6c0,0.2,0,0.3-0.3,0.3h-0.2L41,9.6L41.2,9.6"/>
<polyline class="st0" points="44.2,12.9 44,9.5 44,9.5 44.7,12.9 45.3,12.9 45,9 44.6,9 44.9,12.3 44.9,12.3 44.2,9.1 43.6,9.1 
	43.9,12.9 44.2,12.9 "/>
<path class="st0" d="M46.2,11.7h0.7l0.2,1.1h0.4L46.7,9h-0.5l-0.4,3.9h0.4L46.2,11.7 M46.4,9.2L46.4,9.2l0.4,2.2h-0.6L46.4,9.2"/>
<path class="st0" d="M48.6,12.7c0.4,0,0.6-0.2,0.6-0.6v-0.6h-0.4v0.5c0,0.2,0,0.2-0.2,0.3s-0.2-0.1-0.2-0.2l-0.1-2.8
	c0-0.2,0-0.2,0.2-0.2s0.2,0.1,0.2,0.2v0.5H49V9.3c0-0.3-0.2-0.5-0.5-0.5c0,0-0.1,0-0.1,0c-0.4,0-0.6,0.2-0.6,0.6l0.2,2.8
	C48,12.5,48.2,12.7,48.6,12.7"/>
<polyline class="st0" points="50.1,12.6 50,8.8 49.6,8.8 49.8,12.6 50.1,12.6 "/>
<path class="st0" d="M51.5,12.6c0.5,0,0.7-0.3,0.7-0.7l-0.1-2.6c0-0.4-0.2-0.6-0.7-0.6S50.7,9,50.8,9.4l0.1,2.6
	c0,0.3,0.2,0.6,0.5,0.6C51.4,12.7,51.5,12.7,51.5,12.6 M51.4,9c0.2,0,0.3,0.1,0.3,0.4l0.1,2.6c0,0.2,0,0.4-0.3,0.4s-0.3-0.1-0.3-0.4
	l-0.1-2.6C51.1,9.2,51.1,9,51.4,9"/>
<polyline class="st0" points="53.3,12.5 53.2,9.1 53.2,9.1 53.8,12.5 54.3,12.5 54.2,8.6 53.9,8.6 54,11.9 53.9,11.9 53.4,8.7 
	52.8,8.7 52.9,12.5 53.3,12.5 "/>
<path class="st0" d="M55.3,11.4H56l0.2,1.1h0.4l-0.7-3.9h-0.5l-0.6,3.9h0.4L55.3,11.4 M55.6,8.9L55.6,8.9l0.4,2.2h-0.6L55.6,8.9"/>
<polyline class="st0" points="58.1,12.2 57.5,12.2 57.5,8.6 57.1,8.6 57.1,12.5 58.1,12.5 58.1,12.2 "/>
<path class="st0" d="M59.9,11.4h0.7l0.1,1.1h0.4l-0.5-3.9H60l-0.7,3.8h0.4L59.9,11.4 M60.2,8.9L60.2,8.9l0.2,2.2h-0.6L60.2,8.9"/>
<path class="st0" d="M62.2,12.6c0.3,0,0.7-0.1,0.7-0.5L63,8.7h-0.4l-0.1,3.2c0,0.3-0.1,0.4-0.3,0.4s-0.3-0.1-0.3-0.4L62,8.7h-0.4
	L61.5,12C61.5,12.4,61.9,12.6,62.2,12.6"/>
<polyline class="st0" points="63.9,12.6 64.2,12.6 64.4,9.1 64.8,9.1 64.9,8.8 63.6,8.8 63.6,9.1 64,9.1 63.9,12.6 "/>
<path class="st0" d="M65.9,12.8c0.3,0.1,0.6-0.1,0.7-0.4c0-0.1,0-0.1,0-0.2l0.2-2.6c0-0.4-0.1-0.7-0.6-0.7s-0.7,0.2-0.7,0.6
	l-0.2,2.6C65.3,12.4,65.4,12.7,65.9,12.8 M65.7,12.1l0.2-2.6c0-0.2,0.1-0.4,0.3-0.4s0.3,0.2,0.3,0.4l-0.2,2.6c0,0.2-0.1,0.4-0.3,0.3
	S65.7,12.3,65.7,12.1"/>
<polyline class="st0" points="67.9,9.4 67.9,9.4 68.1,12.8 68.7,12.9 68.9,9 68.6,9 68.4,12.3 68.3,12.3 68.1,9 67.6,8.9 67.3,12.8 
	67.6,12.8 67.9,9.4 "/>
<path class="st0" d="M70,13c0.3,0.1,0.6-0.1,0.7-0.4c0-0.1,0-0.1,0-0.2L71,9.8c0.1-0.3-0.1-0.6-0.4-0.7c-0.1,0-0.1,0-0.2,0
	c-0.5,0-0.7,0.2-0.7,0.6l-0.2,2.6C69.4,12.7,69.5,13,70,13 M69.8,12.3L70,9.7c0-0.2,0.1-0.4,0.3-0.3s0.3,0.2,0.2,0.4l-0.2,2.6
	c0,0.2-0.1,0.4-0.3,0.3S69.8,12.5,69.8,12.3"/>
<polyline class="st0" points="72.1,9.6 72.1,9.6 72.2,13.1 72.7,13.2 73.5,9.7 73.5,9.7 73.1,13.2 73.4,13.3 73.8,9.4 73.2,9.4 
	72.4,12.8 72.4,12.8 72.4,9.3 71.8,9.2 71.4,13.1 71.7,13.1 72.1,9.6 "/>
<path class="st0" d="M74.6,12.3l0.7,0.1v1.1h0.4l-0.1-3.8L75,9.5l-1.1,3.8h0.4L74.6,12.3 M75.2,9.8L75.2,9.8v2.2L74.7,12L75.2,9.8"
	/>
<polyline class="st0" points="81,10.6 81,10.6 80.8,14.2 81.2,14.3 82.3,10.8 82.4,10.8 81.7,14.3 82,14.4 82.8,10.6 82.2,10.5 
	81.1,13.8 81.1,13.8 81.3,10.4 80.7,10.3 80,14.1 80.3,14.1 81,10.6 "/>
<polyline class="st0" points="83.7,14.7 83.8,14.4 83.1,14.3 83.5,12.8 84.1,12.9 84.1,12.6 83.5,12.5 83.8,11.1 84.5,11.2 
	84.5,10.9 83.5,10.7 82.7,14.5 83.7,14.7 "/>
<polyline class="st0" points="84.1,14.8 84.4,14.8 85.2,13.3 85.2,13.3 85.2,15 85.5,15.1 85.5,13.1 86.4,11.3 86.1,11.2 85.4,12.7 
	85.3,12.7 85.4,11.1 85,11 85.1,13 84.1,14.8 "/>
<polyline class="st0" points="86.3,15.3 87.4,11.6 87.1,11.5 86,15.2 86.3,15.3 "/>
<path class="st0" d="M87.6,15.6c0.3,0.1,0.6,0,0.7-0.3c0,0,0-0.1,0-0.1l0.2-0.5l-0.4-0.1L88,15.2c-0.1,0.2-0.1,0.2-0.3,0.2
	s-0.2-0.1-0.1-0.3l0.9-2.7c0.1-0.2,0.1-0.2,0.3-0.2s0.2,0.1,0.1,0.3l-0.2,0.5l0.4,0.1l0.2-0.5c0.1-0.3,0-0.6-0.4-0.7
	c-0.3-0.1-0.6,0-0.7,0.3c0,0,0,0.1,0,0.1L87.2,15C87.1,15.3,87.2,15.6,87.6,15.6"/>
<path class="st0" d="M89.2,16.2c0.3,0.2,0.7,0.1,0.8-0.2c0,0,0-0.1,0-0.1l1.1-2.4c0.2-0.2,0.1-0.6-0.2-0.7c-0.1,0-0.1-0.1-0.2-0.1
	c-0.3-0.2-0.7-0.1-0.8,0.2c0,0,0,0.1,0,0.1l-1.1,2.4c-0.2,0.2-0.1,0.6,0.1,0.8C89.1,16.1,89.2,16.2,89.2,16.2 M89.2,15.5l1.1-2.4
	c0.1-0.2,0.2-0.3,0.4-0.2s0.2,0.2,0.1,0.4l-1.1,2.4c-0.1,0.2-0.2,0.3-0.4,0.2S89.2,15.7,89.2,15.5"/>
<path class="st0" d="M20.4,15.2c0.7,0.9,0.9,1.2,0.9,2v0.2c-0.1,0.6,0.1,1.2,0.5,1.7c0.6,0.4,1.3,0.6,2.1,0.6c1-0.1,2-0.2,2.9-0.4
	c2-0.4,4.1-0.6,6.1-0.5c-0.5,0.4-2,1.6-5.2,1.3s-6.5-0.4-7.6,1.1c-0.6,0.8-0.5,2,0.3,3.6c0,0,0.1,0.1,0.1,0c1.4-0.4,2.2-1.8,1.9-3.2
	c1,0.1,1.9,0.3,2.8,0.6l0.6,0.2c-2,0.5-3.5,1.3-3.5,2.1c0,0.5,0.6,0.7,2,1.3s2.9,1.1,4.1,1.7c3.6,1.6,6.2,3.1,6.6,2.7
	s-8.1-3.7-6.1-6.4c1.1-1.5,3,0.5,1.5,0.8s2.2,3.9,6.7,5.1c0.4-0.4,0.9-0.8,1.4-1.1c0,0,0.7-0.5-0.3-0.7s-7.1-2-4.6-4.1
	c0.8-0.6,0.8-1.1,0.5-1.4c0.8-0.3,1.5-0.7,2.1-1.2c0.5-0.4,0.8-0.9,0.8-1.5c0-1.5-2-3.5-2.8-4.2c7.4-1,14.9-1.5,22.5-1.4
	c7.7,0,15.4,0.5,23,1.5c-0.7,0.7-2.8,2.7-2.8,4.2c0,0.6,0.3,1.2,0.8,1.5c0.4,0.4,0.9,0.7,1.4,0.9c-0.6,0.4-1,0.7-1,1
	c0,0.8,0.5,1.4,1.2,1.7c0.2,1.5-3.6,3-4.6,3.4c0.4,0.2,0.9,0.4,1.3,0.6c2.2-0.5,4.1-1.7,5.3-3.6c0.8-1-1.3-0.5-1.3-1.4
	s3.1-1.7,2.5,1c-0.6,2.4-4.3,3.9-5.9,4.4c0.2,0.2,0.4,0.4,0.6,0.5c0.1,0.1,0.3,0.4,0.4,0.4s0-0.6,0.3-0.5s0.5,0.2,0.7-0.1
	s0.1-0.6,0.4-0.4s0.3,0.3,0.6,0.2s-0.2-0.7,0.3-0.6s0.7-0.1,0.5-0.4s0.2-0.1,0.6,0.1s0.4-0.2,0.2-0.5s0-0.5,0.4-0.2s0.9,0.2,0.5-0.2
	s0.1-0.8,0.5-0.5s0.4,0.1,0.2-0.3s-0.1-0.6,0.6-0.2s1,0.2,0.3-0.2s-0.4-0.8,0.3-0.4s1.5,0.5,0.7-0.1s-1-1-0.1-0.6s1.6,0.3,0.2-0.4
	s0.7-0.1,1.2,0.3s0.6-0.2-0.3-0.7s-0.4-0.6,0.8-0.1s1.2,0,0.2-0.3s-1.4-1-0.2-0.5s2.5,0.7,1.2,0.1c-0.4-0.2-0.8-0.4-1.1-0.6
	c0.4-0.1,0.8,0,1.7,0.5c1.6,1.1,0.1,2.2-1.3,2.7c-2.1,0.7-2.9,1.5-5.1,3c-1.3,0.7-2.7,1.1-4.2,1.2c0.1,0.2,0.2,0.4,0.3,0.7
	c1.9-0.1,3.8-0.6,5.5-1.4c2.2-1.3,4.5-2.4,7-3.1c1.7-0.4,3.3-1.2,0.7-2.9c-0.8-0.6-1.7-1-2.7-1.4l0.2,0c0.9-0.3,1.9-0.5,2.8-0.6
	c-0.3,1.4,0.5,2.8,1.9,3.2c0,0,0.1,0,0.1,0c0.8-1.6,0.9-2.8,0.3-3.6c-1.2-1.5-4.5-1.4-7.6-1.1c-3.5,0.4-5-1.1-5.3-1.4
	c0.4,0,0.9,0,1.3,0c1,0.1,2.1,0.2,3.2,0.4c2.6,0.4,5.2,0.8,6.4,0c0.4-0.3,0.6-0.7,0.7-1.1c0.2-1,0.6-1.9,1.2-2.7
	c0.5-0.8,1-1.5,0.8-2.2c-0.1-0.4-0.6-0.8-1.4-1.1c-4.8-1.7-9.7-3-14.7-3.7C71.2,7.5,63.9,7,56.5,7C42,7,28.5,8.7,21.2,11.4
	c0,0-1.4,0.5-1.8,1.4c-0.2,0.5,0,1,0.3,1.4C20,14.6,20.2,14.9,20.4,15.2 M21.4,12L21.4,12C28.6,9.3,42,7.6,56.5,7.6
	c17.8,0,30.8,2.7,36.5,4.9c0.6,0.2,0.9,0.5,1,0.8s-0.2,1-0.7,1.7c-0.7,0.9-1.1,1.9-1.3,2.9c0,0.3-0.2,0.6-0.4,0.8l0,0
	c-0.1-0.2-0.2-0.4-0.4-0.5c-2.4-2.2-17.2-4.7-34.5-4.7c-8.2,0-16.5,0.6-24.6,1.8c-2.5,0.4-5,1-7.5,1.7c-1,0.2-2,0.7-2.7,1.5
	c-0.1-0.3-0.2-0.7-0.1-1v-0.2c0-0.9-0.3-1.3-1-2.3l-0.7-0.9C20,13.7,19.9,13.3,20,13C20.2,12.4,21.1,12.1,21.4,12 M85.8,18.6
	c-1.1-0.2-2.2-0.4-3.2-0.4c-1.7-0.2-3.5,0.3-4.8,1.4c0.2-1.1,1.9-2.9,2.9-3.9c5.6,0.9,9.2,2,10.2,2.9c0.1,0.1,0.2,0.2,0.2,0.3
	c0,0,0,0.1,0,0.1C89.3,19.1,87.5,18.9,85.8,18.6 M80.5,18.9l0.2,0.1c0.3,0.4,2,2,5.8,1.6c1.6-0.2,5.1-0.5,6.6,0.5
	c-1.5-0.1-3,0.1-4.4,0.6L88,22c-2.6-1-5.4-1.1-8-0.2c-0.6-0.2-1.1-0.5-1.6-1c-0.2-0.2-0.4-0.4-0.5-0.6c0.7-0.7,1.6-1.2,2.6-1.4
	C80.4,18.9,80.4,18.9,80.5,18.9 M92.4,21.6c0.5,0,0.9,0.1,1.3,0.2c0.2,0.8,0.1,1.6-0.3,2.3C92.5,23.6,92.1,22.6,92.4,21.6
	 M36.3,19.1c-2.8-1.6-6.8-0.9-9.7-0.4c-0.9,0.2-1.9,0.3-2.8,0.4c-0.4,0-0.8,0-1.2-0.2c0-0.1-0.1-0.1-0.1-0.1s0-0.1,0.2-0.3
	c1-0.9,4.8-2.1,10.8-3C34.7,16.5,35.6,17.7,36.3,19.1 M33.4,22c-1.5-0.3-3.1-0.4-4.6-0.2c-0.6,0.1-1.3,0.2-1.9,0.3
	c-0.6-0.1-1.1-0.3-1.6-0.5C24,21.1,22.5,20.9,21,21c1.5-1,5-0.6,6.6-0.5c3.8,0.4,5.5-1.2,5.8-1.6l0.2-0.1l0,0c1,0.1,1.9,0.5,2.7,1
	C36.3,20.7,35.2,21.5,33.4,22 M20.7,24c-0.4-0.7-0.5-1.6-0.3-2.4c0.4-0.1,0.9-0.2,1.4-0.2C22.1,22.4,21.6,23.5,20.7,24"/>
<path class="st0" d="M59,26.5C59,26.5,58.9,26.5,59,26.5C58.9,26.5,58.9,26.6,59,26.5c0.1,1.3,1.2,2.1,2.4,1.9
	c1.6-0.1,3-0.8,4.2-1.9c0.3,0.4,1.3,1.9,2.3,1.8c0.4,0,0.7-0.4,1-0.9c0.6,0.6,1.3,0.9,2.1,0.9c1-0.1,1.8-0.7,2.2-1.6
	c0,0,0-0.1,0-0.1c0,0-0.1,0-0.1,0c-1,0.3-2.1,0.2-3.1-0.3c-0.7-0.5-1.1-1.3-1-2.2c-0.1-1,0-2,0.3-3c0.6,0.3,1.3,0.5,1.9,0.5
	c2.1,0,2.5-1.1,2.5-1.2c0,0,0-0.1,0-0.1c0,0-0.1,0-0.1,0c-0.5,0.1-1,0.1-1.5,0c1-0.3,1.7-0.3,2,0c0.2,0.2,0.3,0.6,0.3,0.9
	c0,0,0,0.1,0,0.1c0,0,0.1,0,0.1,0c0.8-0.8,1-1.4,0.8-1.9c-0.3-0.9-2-1.3-3.5-1.6c-1.4-0.3-2.5-1.3-3-2.6c0.1,0,0.1,0,0.1-0.1
	c0-0.1,0-0.1-0.1-0.1c0,0-0.1,0-0.1,0c-0.5,0.2-0.9,0.5-1.2,0.9l-1.5-1.5c0,0,0,0-0.1,0c0,0-0.1,0-0.1,0c-0.4,0.5-0.5,1.2-0.3,1.8
	c-0.4-0.3-0.6-0.7-0.7-1.2c0,0,0-0.1-0.1-0.1c0,0-0.1,0-0.1,0C64,15.8,64,17.2,64.8,18c0,0,0,0,0.1,0.1c-1.2,0.3-2.6,0.2-3.8-0.2
	c0,0-0.1,0-0.1,0l0,0c-0.1,0.5,0,1,0.3,1.3c0.6,0.6,1.5,0.9,2.3,0.9c-0.4,0.2-1.4,0.7-3.4,0.2c0,0-0.1,0-0.1,0c0,0,0,0.1,0,0.1
	c0,0,0.6,2.3,3.7,1.9c-1.3,1.1-3,1.5-4.7,1.1c0,0-0.1,0-0.1,0c0,0,0,0.1,0,0.1c0,0.8,0.4,1.4,1.1,1.8c0.9,0.5,2.2,0.2,4-0.7
	c-0.2,0.6-1.2,2.2-5.1,1.9 M64.4,20.3c0.1-0.1,0.1-0.3,0.1-0.5c-0.1-0.2-0.3-0.3-0.5-0.3c-0.8,0.2-1.6,0-2.2-0.5
	c-0.1-0.1-0.2-0.2-0.2-0.4c2.5,0.5,3.6,0,3.7-0.1c0.1-0.1,0.2-0.2,0.2-0.3c0-0.1,0-0.3-0.1-0.4c-0.5-0.5-0.7-1.1-0.6-1.8
	c0.2,0.3,0.5,0.6,0.8,0.9c0.2,0.1,0.4,0.1,0.6,0c0.2-0.1,0.3-0.4,0.2-0.6c-0.2-0.3-0.2-0.7-0.2-1l1,1.1c0,0.1-0.1,0.2-0.1,0.3
	c-0.1,0.4,0,0.9,0.2,1.3c-1.7,1-1.8,2-1.7,2.4c-0.5,0.7-1.3,1.2-2.1,1.3c-0.9,0.2-1.8-0.1-2.4-0.7c2.2,0.3,3.1-0.7,3.1-0.7
	 M68.7,15.8c0.2,0.4,0.4,0.7,0.7,1.1L68.6,17L68,16.4C68.2,16.2,68.4,16,68.7,15.8 M74.8,20.1c-0.1-0.1-0.1-0.2-0.2-0.2
	c-0.6-0.5-1.6-0.5-2.9,0c-0.2,0.1-0.3,0.2-0.3,0.4c0,0.2,0.1,0.4,0.3,0.5c0.3,0.1,0.5,0.2,0.8,0.2c-0.4,0.1-0.8,0.2-1.2,0.1
	c-0.6,0-1.2-0.2-1.7-0.5c0.2-0.3,0.4-0.5,0.7-0.6l0.3-0.2c0.5-0.4,0.9-1,1.2-1.6h0.2c0.8,0.2,2.8,0.5,3,1.2
	C74.9,19.6,74.8,19.8,74.8,20.1 M71.7,27.4c-0.3,0.2-0.6,0.4-1,0.4c-0.6-0.1-1.2-0.3-1.6-0.8c-0.1-0.1-0.2-0.1-0.3-0.2
	c-0.2-0.4-0.3-0.8-0.4-1.2h0.2c0.2,0.5,0.6,0.9,1,1.2c0.7,0.4,1.5,0.6,2.2,0.5 M67.8,17l0.4,0.4c0.1,0.1,0.2,0.2,0.4,0.2h0.7
	c0,0.2-0.2,0.3-0.3,0.4c-0.3,0.1-0.6,0.1-0.9,0c0,0,0-0.1,0-0.1C67.8,17.6,67.8,17.3,67.8,17 M70.2,19.4l-0.3,0.2
	c-0.3,0.2-0.6,0.5-0.9,0.8l-0.3-0.2c0.3-0.4,0.7-0.8,1.2-1c0.5-0.3,0.8-0.8,0.7-1.4c0.1,0.1,0.3,0.1,0.4,0.2
	C70.9,18.6,70.6,19,70.2,19.4 M66.2,26.4c-0.2,0-0.4-0.3-0.3-1.4c0.4-0.2,0.7-0.5,1-0.8c-0.1,0.4,0,0.9,0.4,1.2
	c0.1,0.1,0.1,0.1,0.2,0.1C67.1,26,66.5,26.5,66.2,26.4 M66.1,22.8L66.1,22.8c0.4-0.1,0.7-0.3,1-0.6c0,0.2,0,0.3,0.1,0.5
	c-0.8,1.4-1.6,1.9-2,1.9C65.4,23.9,65.7,23.3,66.1,22.8 M68.4,25c-0.2,0.1-0.5,0-0.7-0.1c-0.4-0.4-0.2-1.3,0-1.9
	c0.2-0.1,0.4-0.1,0.6-0.2c0,0.4,0,0.9,0,1.4C68.4,24.5,68.4,24.7,68.4,25 M67.8,18.5c0.4,0.2,0.9,0.2,1.3,0c0.4-0.2,0.7-0.6,0.8-1
	H70v0.1l0,0l0,0c0,0,0.2,0.9-0.3,1.1c-0.5,0.2-1,0.6-1.4,1.1L68,19.5c-0.1-0.2-0.4-0.2-0.6-0.1c-0.2,0-0.3,0.2-0.3,0.3
	c-0.2,0.2-0.5,0.3-0.8,0.4C66.4,19.7,66.7,19.2,67.8,18.5L67.8,18.5 M67.9,26c0.1,0.3,0.3,0.7,0.4,1c0,0-0.1,0.1-0.1,0.1
	c-0.2,0.4-0.3,0.7-0.5,0.7s-0.8-0.4-1.3-1C67,26.7,67.5,26.4,67.9,26 M67.8,22.3c-0.1-0.5-0.2-1-0.1-1.5c0,0,0-0.1-0.1-0.1
	c0,0-0.1,0-0.1,0c-0.4,0.3-0.7,0.6-1.1,0.9c-0.2-0.3-0.2-0.7-0.2-1v-0.1c1-0.2,1.3-0.5,1.4-0.7c0.3,0.3,0.7,0.6,1.1,0.9
	c-0.1,0.4-0.2,0.8-0.3,1.2C68.2,22.1,68,22.2,67.8,22.3 M64.5,22.5c0.1-0.1,0.1-0.2,0.1-0.3c0.3-0.1,0.6-0.3,0.9-0.6
	c0,0.1,0.1,0.3,0.2,0.5c-0.4,0.7-0.9,1.3-1.4,1.9c-0.1,0-0.2,0-0.2,0.1c-1.6,0.9-2.8,1.2-3.6,0.8c-0.3-0.2-0.5-0.4-0.6-0.7
	C61.5,24.3,63.2,23.7,64.5,22.5 M64.6,25c0.2,0.1,0.4,0.1,0.6,0.1c0,0.3,0.1,0.6,0.2,0.9c-0.1,0-0.1,0.1-0.2,0.1
	c-1.1,1-2.4,1.6-3.9,1.8c-0.7,0.1-1.3-0.2-1.7-0.8C63,27.2,64.2,25.8,64.6,25"/>
<path class="st0" d="M25.5,62c0-0.3,0.1-0.6-0.1-0.7s-0.4,0.1-0.4,0.2l0,0l0,0c-0.3,0.4-0.7,0.5-1.1,0.5c-0.5,0-1.1,0.2-1.4,0.6
	c-0.2,0.2-0.2,0.5-0.1,0.8c0.2,0.5,0.6,0.7,0.8,0.7c0,0,0.2-0.1,0.1-0.3v-0.1c0-0.1-0.1-0.2-0.1-0.3c0.1,0,0.1,0,0.2,0.1
	c0.2,0.1,0.5,0.1,0.8,0c0.1-0.1,0.2-0.3,0.1-0.4c0-0.1-0.1-0.2-0.1-0.3c0-0.1-0.1-0.1-0.1-0.2s0.1,0,0.4-0.1
	C25.3,62.6,25.5,62.5,25.5,62 M23.4,62.8h-0.1H23.4C23.4,62.7,23.4,62.8,23.4,62.8"/>
<path class="st0" d="M95.3,61.3c-0.2,0-0.3-0.1-0.4-0.2c-0.2-0.2-0.6-0.3-0.9-0.3c-0.2,0-0.4,0.1-0.5,0.2c-0.2,0.2-0.1,0.7,0.2,1.3
	c0.1,0.1,0.1,0.2,0.1,0.3c-0.3-0.1-0.7-0.2-1-0.3c-0.2-0.1-0.4-0.1-0.6,0c-0.4,0.2-0.4,1-0.4,1.8c-0.9,0.1-1.7,0.5-2.3,1.2
	c0-0.3,0-0.6-0.2-0.9c-0.2-0.1-0.5-0.2-0.7-0.2c-0.4,0-0.8,0.2-1.1,0.3c0-0.2,0-0.4-0.1-0.5c-0.1-0.2-0.2-0.3-0.4-0.3
	c-0.4-0.1-0.7,0-1,0.2c-0.1,0.1-0.2,0.3-0.2,0.5c0.2,0.4,0.4,0.6,0.8,0.8l-0.1,0.2c-0.2,0.2-0.2,0.5-0.2,0.7
	c0.2,0.4,0.8,0.7,1.4,0.9C87,67.7,86,68.1,84.9,68c-0.9-0.8-2.2-1.1-3.3-0.7h-0.2c-2.1,0.5-3.7,0.8-4.5,2.7
	c-0.2,0.4-0.4,0.8-0.7,1.1c-0.5,0.6-0.9,1-1.2,4.6c-1,0.3-1.9,0.7-2.8,1.2c-0.2,0.1-0.4,0.1-0.7,0.1c-0.7,0-1.4,0.3-1.9,0.9
	c-0.3,0.2-0.7,0.3-1,0.2c-0.3-0.1-0.7,0-1,0.2c-0.2,0.1-0.5,0.2-0.8,0.2c0.2-0.6,0.7-1.1,1.4-1.3c1.3-0.3,2.6-0.9,3.6-1.7l0,0
	c0.3-0.5,0.6-0.8,1.1-1.1c0.4-0.3,0.8-0.6,0.5-1.1c-0.1-0.4,0-0.9,0.2-1.3c0.2-0.4,0.3-0.9,0.1-1.2c0.5-0.1,1-0.3,1.3-0.7
	c0.1-0.1,0.1-0.2,0.1-0.3c0-0.3,0-0.5,0.1-0.8c0.1-0.5,0.2-1,0-1.3c-0.1-0.1-0.3-0.2-0.6-0.2c-0.1-0.3-0.4-0.5-0.6-0.5
	c-0.3,0-0.7,0.1-0.9,0.3c-0.3-0.2-0.7-0.2-1,0c-0.2,0.2-0.3,0.4-0.3,0.7l-0.6,0.9c-0.8-0.1-1.7,0.2-2.3,0.7l-0.5,0.3
	c-1.3,0.8-2.4,1.4-2.7,2.8c-0.1,0.5-0.2,0.9-0.4,1.3c-0.1-0.1-0.2-0.1-0.3-0.2c-0.3-0.2-0.7-0.3-1-0.4c-0.5-0.2-1-0.4-1.4-0.8
	c-0.7-0.8-1.7-0.9-2.9-0.2c-1.2,0.7-2.7,0.8-4,0.1l-0.9-0.3c-1.6-0.6-3.8-1.3-4.6-2.4l-0.4-0.6c-0.7-1-1.2-1.7-2.7-1.8
	c-0.7-0.2-1.5-0.1-2.1,0.3l0,0c0,0-0.1,0-0.1,0c-0.1,0-0.1,0-0.2-0.1c-0.3-0.3-0.7-0.4-1.4,0.1c-0.7,0.4-1.2,1-1.7,1.7
	c-0.1,0-0.1-0.1-0.1-0.1c-0.5-1.1-1.1-1.8-1.8-2c-0.5-0.2-1-0.5-1.3-1c-0.3-0.3-0.5-0.6-0.8-0.8c-0.2-0.2-0.5-0.3-0.7-0.3
	c-0.5,0-0.8,0.5-1.2,0.9l-0.1,0.1c-0.5,0.5-1.1,1-1.7,1.4c-0.3,0.2-0.5,0.3-0.7,0.5l0,0c-0.2-0.1-0.4-0.3-0.5-0.5
	c-0.4-0.8-0.8-1.5-1.4-2.2c0.1-0.5,0-1-0.3-1.4c0.4,0,0.7-0.2,1-0.8c0.1-0.2,0.1-0.4,0-0.6c-0.2-0.3-0.6-0.4-1.5-0.5
	c-0.6,0.1-1.1,0.3-1.5,0.8c-0.5,0-0.9,0.1-1.4,0.2c0.1-0.3,0-0.5-0.2-0.7c-0.9-0.7-2.3,0.6-3,1.2c-0.4,0.3-0.6,0.8-0.5,1.3l0,0h-0.1
	h-0.2c-0.2,0-0.5-0.1-0.8-0.1c-0.1-0.5-0.5-1.5-1.3-1.4c-0.1,0-0.2,0-0.3,0c0-0.1,0-0.1,0-0.2c0-0.2-0.1-0.5-0.3-0.6
	c-0.2-0.2-0.4-0.3-0.7-0.3c-0.5,0-1,0.3-1,0.8c0,0,0,0,0,0c0,0.2,0.1,0.5,0.3,0.6c0.1,0.1,0.1,0.1,0.2,0.1c-0.2,0.1-0.3,0.3-0.4,0.5
	c-0.1,0.3,0,0.6,0.2,0.7l1,0.8c-0.1,0.3-0.2,0.6-0.2,0.8c0,0,0,0,0,0.1c-0.2,0.1-0.5,0.2-0.5,0.5s0.2,0.4,0.4,0.6
	c0,0.4,0,0.9,0.1,1.3c-0.1,0.2-0.2,0.4-0.1,0.5c0.1,0.1,0.2,0.1,0.3,0.2c0,0.1,0.1,0.1,0.1,0.2c0.2,0.2,0.4,0.4,0.6,0.6l0.1,0.1
	c-0.1,0.3-0.1,0.7,0.2,0.8c0.2,0,0.4,0,0.7,0c0.2,0.1,0.4,0.3,0.6,0.4c0.2,0.1,0.5,0.3,0.8,0.5c0,0.3,0,0.7,0.3,0.6l0.5-0.1
	c0.7,0.5,1.2,1,1.2,1.1c-0.2,0.3-1.1,1.1-1.5,1.1c-0.2,0-0.3,0.1-0.4,0.2c-0.2,0.4-0.2,0.8,0,1.2c-0.2,0.2-0.8,0.6-0.5,1
	c0.1,0.1,0.2,0.3,0.3,0.4c0.1,0.2,0.3,0.3,0.3,0.4s-0.1,0.1-0.3,0.2c-0.5,0.2-1.1,0.4-1.3,1c-0.1,0.4,0.1,0.8,0.5,1.3l0,0L22,81.2
	c0,0-0.9,0.2-0.6,0.8s1.4,0.6,1.2-0.3l0.2-0.2c0.4,0.3,0.9,0.4,1.4,0.3c0.5-0.2,0.8-0.6,0.8-1.1c1.2,0.5,2.5,0.7,3.8,0.7
	c0.2,0.2,0.5,0.3,0.8,0.3c0.2-0.1,0.3-0.2,0.4-0.4c0.7,0,1.3,0,2,0c0.1,0.2,0.4,0.3,0.6,0.3c0.3,0,0.4-0.2,0.3-0.4
	c0.2,0,0.3-0.1,0.5-0.2c0.8-0.2,1.6-0.3,2.5-0.2c0,0.1,0.1,0.1,0.1,0.2c0.2,0.3,0.4,0.6,0.7,0.9c0.1,0.1,0.1,0.1,0,0.2
	c-0.1,0.2-0.1,0.3,0,0.5c0.2,0.2,0.4,0.3,0.7,0.3l0,0c0.7,0.1,1.1,0.1,1.4,0.6v0.1c0.2,0.2,0.3,0.4,0.5,0.4s0.4,0,0.9-0.3
	c0.5-0.3,1.1-0.3,1.6,0c0.1,0.1,0.4,0.6,0.8,0.6c0.2,0,0.4-0.2,0.5-0.6c0.2-0.1,0.4-0.1,0.6-0.1c0.5,0,1.1-0.1,1.6-0.4
	c0,0,1.6-0.9,2.5-1.4c0.1,0.2,0.2,0.5,0.2,0.7c0.1,0.8-3.3,2.2-2,4.1c0.2,0.2,0.3,0.2,0.3,0.2c-0.2-0.4-0.1-0.8,0.2-1.1
	c0.4-0.4,2.2,0.1,3.1-0.9c0.2,0.7,0.9,1.1,1.6,1.2c0,0,0.1,0,0.1-0.1c0,0,0,0,0,0L52,83c0.1,0.3,0.4,0.6,0.7,0.8
	c0.3,0.1,0.6,0.2,0.9,0.1c0.5,0.8,1.5,1.3,2.4,1c0.6,0,0.9-0.1,0.9-0.3s0.1-0.3-0.9-0.9c-0.1-0.1-0.1-0.1-0.1-0.1s0.1-0.1,0.2-0.1
	c0.4-0.1,1.2,0.2,1.9,1.3c0.6,1,1.7,1.4,2.8,1.2c0,0,0.1,0,0.1-0.1c0,0,0-0.1-0.1-0.1c-0.3-0.1-0.6-0.5-0.6-0.8c0.9,0.7,2,1.1,3.1,1
	c0.6-0.1,1.2-0.3,1.6-0.8c0,0,0-0.1,0-0.1c0,0-0.1,0-0.1,0c-0.8,0.3-1.8,0-2.3-0.7c1-0.3,1.8-0.9,2.4-1.7c1.1-0.3,2.2-0.3,3.3,0
	l0.5,0.2c1.9,0.6,5.8,1.8,8.4-0.1c1.7-1.2,2.2-2.1,2.2-2.5c0-0.1,0-0.2,0-0.3c0.2,0,0.4,0.1,0.6,0.1l0,0c0.7,0.1,1.3,0.3,2,0.5
	l0.5,0.2c-0.1,0.2-0.4,0.6,0,0.8s1.7-0.5,1.7,0.2s0.6,0.6,1.6,0.2c0,0,0.5-0.1,0.5,0.1c0.1,0.3,0.4,0.5,0.7,0.5
	c0.2,0,0.4-0.3,0.7-0.6c0.3,0,0.7,0,1-0.1c0.3,0.2,0.6,0.3,0.9,0.1c0.1-0.1,0.2-0.3,0.2-0.5c0.4-0.2,0.8-0.5,1-0.9
	c0.3-0.5,0.3-1,0.2-1.5c0.2-0.2,0.3-0.4,0.4-0.7c0.1-0.4-0.5-0.4-0.8-0.8c-0.1-0.3-0.3-0.5-0.5-0.7c-0.1-0.2-0.2-0.4-0.2-0.6
	c-0.1-0.7-0.8-0.9-1-0.2c-1.9-0.7-4.1-0.8-6.1-0.3c-0.5,0.1-1,0.2-1.4,0.4c-1.5,0.4-2.9,0.8-3.5,0.2c0.1-0.2,0.5-1.2,2.6-1.9
	c1.5-0.5,5-1.8,5.7-3.9c0.7,0,5.8,0.2,7-1.4c1.1-1.4,2-2.7,1-3.9c0.4-0.3,0.8-0.7,1.2-1.1c0.2-0.2,0.2-0.5,0.2-0.7
	c-0.1-0.2-0.3-0.4-0.6-0.5c0.2-0.2,0.5-0.4,0.8-0.4c0.4-0.1,0.5-0.3,0.5-0.4C96.1,61.8,95.7,61.4,95.3,61.3 M30.2,63.1
	c0.3,0,0.6,0,0.8,0.1c-0.3,0.5-0.3,0.5-0.9,0.3l-0.5-0.2C29.8,63.2,30,63.1,30.2,63.1 M86.7,64.5c-0.1,0-0.1-0.1-0.2-0.2
	c0.1,0,0.1,0,0.2,0C86.7,64.4,86.7,64.5,86.7,64.5 M90.1,78.7c0,0.1,0,0.2,0,0.2c0.2,0.4,0.2,0.8,0,1.2c-0.3,0.4-0.7,0.7-1.2,0.8
	c-2,0.5-4.7-0.4-6.2-1l-0.6-0.2c-1-0.3-2-0.5-3-0.6c-0.1,0-0.1,0-0.2,0c-1-0.2-1.1-0.5-1.1-1.2c0-0.4,0.3-0.8,0.7-0.9
	c1,0,2-0.2,3-0.5c0.5-0.1,0.9-0.3,1.4-0.4c1.7-0.4,4.3-0.5,5.9,0.5C89.6,77.1,90.1,77.9,90.1,78.7 M78.6,80c0,0.1,0,0.8-1.9,2.1
	c-2.3,1.7-5.9,0.6-7.8,0l0,0L68.3,82c-1.2-0.3-2.4-0.3-3.6,0c0.1-0.5,0-1-0.1-1.5c-0.2-0.4,0.3-0.9,0.7-1.1c0.5,0,0.9-0.1,1.3-0.3
	c0.3,0,0.7-0.1,1-0.2c-0.2,0.3-0.4,0.8-0.1,0.9s1.3,0.3,1-1c0.5,0,0.9-0.1,1.3-0.4l0.1-0.1c0.3-0.4,0.9-0.7,1.4-0.7
	c0.3,0,0.6-0.1,0.9-0.2l0,0c0.9-0.4,1.8-0.8,2.8-1l0,0c0.6,0.4,1.4,0.5,2.1,0.2l0,0c0.1,0.1,0.3,0.3,0.5,0.3
	c-0.3,0.3-0.5,0.7-0.6,1.2c-0.1,0.4,0.1,0.7,0.3,1c0.3,0.3,0.6,0.5,1,0.6c0,0.1,0,0.2,0.1,0.3 M59.6,84.4c-0.2,0.1-0.3,0.3-0.3,0.5
	c0,0.2,0,0.4,0.1,0.6c-0.4-0.1-0.8-0.4-1-0.8c-0.4-1-1.3-1.8-2.4-1.9c-0.1,0-0.3,0.1-0.4,0.1c0.1-0.2,0.2-0.4,0.2-0.6
	c0.6,0.1,1.3,0,1.8-0.3c0.1,0,0.1,0.1,0.2,0.1H58c1.1,0.5,2.2,1.2,3.2,1.9c0.2,0.2,0.3,0.3,0.5,0.5c0.2,0.3,0.5,0.5,0.8,0.8
	c-0.8-0.1-1.5-0.5-2.2-1c-0.2-0.1-0.4-0.2-0.6-0.1 M49.4,84.3L49.4,84.3 M49.5,84.1L49.5,84.1 M50.5,84.3c0-0.1,0-0.2-0.1-0.2
	c0.2-0.6,0.3-1.3,0.3-1.9c0-0.2-0.1-0.4-0.3-0.4c-0.2-0.1-0.3,0-0.5,0.1c0,0,0.3,2.2-1.1,2.7c-0.5,0.1-1,0.2-1.5,0.2
	c-0.3,0.1-0.7,0.2-0.7,0.2c0.2-1.1,2.2-1.5,2.2-2.6c-0.1-0.8-0.6-1.5-1.2-2c-0.7-0.7-1.2-1.5-1.5-2.5c0,0,0-0.1,0-0.1s0-0.2-0.1-0.3
	c0-0.1,0-0.3,0-0.4c0.3-1.3,1.3-2.7,3-2.3c0.3,0.1,0.6,0.3,0.9,0.5c0.1,0.2,0.2,0.4,0.3,0.6c0.1,0.6-0.9,0.8-0.9,0.8s0-1.2-0.7-1.2
	c-0.7,0.1-1.2,0.5-1.5,1.2c-0.2,0.7,0.2,1.2,1,1.5c0.3,0.1,0.5,0.2,0.7,0.3c0.4,0.1,0.7,0.3,1.1,0.4h0c0,0-0.1,0-0.1,0.1
	c0,0.1,0,0.2,0.1,0.3c0.2,0.2,0.5,0.4,1.1,0.4c1.2,0.2,2.5,0.4,2.5,1.6c0,0.6-0.2,1.1-0.7,1.4c-0.4-1-1.3-1.8-2.3-2.2
	c-2-0.7-2.8-1.3-3.1-2.7c0,0,0,0,0-0.1c-0.2-0.1-0.4-0.1-0.6,0c-0.1,0.1-0.2,0.2-0.1,0.5c0.3,0.9,1,1.7,1.9,2.2l0.8,0.3
	c1,0.2,1.8,0.8,2.4,1.6c-0.2,0.1-0.3,0.2-0.3,0.4L51,85.1C50.7,84.9,50.6,84.7,50.5,84.3 M42.6,83.4C42.6,83.4,42.6,83.4,42.6,83.4
	c-0.1-0.2-0.2-0.2-0.2-0.3c-0.7-0.5-1.6-0.5-2.4-0.1l-0.3,0.2l-0.1-0.1v-0.1c-0.5-0.6-1.2-0.9-1.9-0.9h-0.1c0.1-0.3,0-0.6-0.2-0.8
	c-0.2-0.2-0.4-0.5-0.6-0.8c-0.6-0.9,0.3-2.2,0.6-2.7c1-0.9,2.3-1.4,3.6-1.4c1.6,0.2,3.1,0.6,4.6,1.1c0.2,1.2,0.9,2.3,1.8,3.2
	c0,0,0.1,0.1,0.3,0.3c-0.9,0.4-2.2,1.2-2.4,1.4c-0.4,0.2-0.8,0.3-1.2,0.3c-0.3,0-0.7,0.1-1,0.2C42.8,83.1,42.7,83.3,42.6,83.4
	L42.6,83.4 M29.8,80.8c-1.9,0.5-4.5-0.6-4.5-0.6c-0.2-0.1-0.4-0.1-0.6,0c-0.2,0.1-0.3,0.3-0.3,0.4c0,0.2-0.1,0.5-0.3,0.6
	s-0.8-0.1-1.3-0.6c-0.3-0.3-0.4-0.6-0.4-0.7s0.2-0.3,0.8-0.5c0.3-0.1,0.6-0.3,0.7-0.6c0-0.4-0.1-0.8-0.5-1c0,0-0.1-0.1-0.1-0.1
	c0.1-0.1,0.2-0.2,0.3-0.3c0.2-0.1,0.3-0.4,0.2-0.6c-0.1-0.2-0.1-0.4-0.1-0.6c0.7-0.3,1.4-0.8,1.9-1.4c0.1-0.1,0.1-0.3,0.1-0.5
	c-0.2-0.8-3.1-2.5-3.1-2.5c-0.5-0.3-1-0.7-1.4-1.1c-0.2-0.2-0.4-0.4-0.6-0.6c-0.3-0.9-0.4-1.9-0.2-2.8c0-0.5,0.3-0.9,0.6-1.2
	c0.6-0.2,1.2-0.2,1.8,0c0.2,0,0.3,0,0.5,0h0.2l0.2-0.1l0,0c0.1,0.1,0.2,0.2,0.2,0.3c0.1,0.2,0.1,0.3,0.2,0.5c0.3,0.5,0.6,0.9,1,1.3
	c0.3,0.4,0.7,0.8,0.9,1.1c0.6,1,1.2,2,1.7,3c0.1,0.7,0,1.4-0.2,2c0,0.1,0,0.2,0,0.3c-0.1,0.3-0.2,0.8-0.1,0.9s0.5,0.1,0.9-0.6
	c0.1,0,0.2-0.1,0.2-0.2l0,0c0,0,0.2-0.2,1.6,0.1h0.1c0.6,0.1,1.3,0.4,1.8,0.7c0.1,0.1,0.4,0.3,0.6,0.6c0.7,0.6,1.4,1.2,2.1,1.8
	c0.4,0.3,0.8,0.5,1.3,0.6c-0.3,0.6-0.5,1.2-0.5,1.9c-0.9,0-1.8,0.1-2.6,0.4c-1,0.3-2.1,0.3-3.2,0.2L29.8,80.8 M21.6,65.1
	c-0.3,0-0.6,0.1-0.9,0.3c-0.1,0.1-0.2,0.2-0.4,0.3c-0.3-0.3-0.6-0.5-0.9-0.7l0,0c0.4-0.4,1-0.6,1.6-0.6
	C21.3,64.3,21.5,64.7,21.6,65.1 M24.5,64.4c1.5-1.3,1.9-1.3,2.1-1.2s0,0.3-0.5,1c-0.3,0.3-0.5,0.8-0.5,1.2c-0.4,0.1-0.7,0.2-0.9,0.3
	c-0.1-0.1-0.1-0.2-0.2-0.4c-0.1-0.1-0.2-0.2-0.3-0.2C24.2,64.9,24.3,64.6,24.5,64.4 M35.9,66.9l0.1-0.1c0.2-0.3,0.6-0.7,0.7-0.7
	c0.1,0,0.2,0.1,0.2,0.1c0.3,0.2,0.5,0.5,0.7,0.7c0.4,0.6,1,1,1.7,1.3c0.1,0,0.6,0.2,1.3,1.6c0.1,0.3,0.4,0.5,0.6,0.5
	c0,0.2,0.1,0.4,0.3,0.5c0.6,0.4,1.3,0.7,2,0.7c0.4,0,0.8,0.1,1.2,0.4c0.7,0.7,1.5,1.2,2.4,1.6c0.4,0.2,0.8,0.4,1.2,0.7
	c-1.5,0.2-2.7,1.3-2.9,2.8c0,0,0,0,0,0.1c-0.5-0.2-1.2-0.4-1.9-0.6c0-0.2-0.1-0.4-0.2-0.6c-0.2-0.5-1-1.1-0.8-0.6c0,0.2,0,0.4,0,0.6
	c0,0.1,0,0.3,0.1,0.4c-0.5-0.1-1-0.2-1.5-0.2c0-0.1-0.1-0.3-0.2-0.4c-0.3-0.4-0.4-0.3-0.4-0.1c-0.1,0.2-0.1,0.4,0,0.5
	c-0.7,0.1-1.4,0.2-2,0.5c0-0.2,0-0.5-0.1-0.7c-0.1-0.3-0.1-0.7-0.3-0.4c-0.2,0.2-0.3,0.5-0.3,0.8c0,0.3,0.1,0.5,0.3,0.5
	c-0.6,0.2-1.1,0.6-1.5,1l0,0c-0.4-0.1-0.9-0.3-1.2-0.5c-0.5-0.4-1-0.8-1.5-1.3c0.1-0.3,0.2-0.9,0-1s-0.5,0-0.6,0.5
	c-0.2-0.2-0.5-0.4-0.6-0.5c-0.1-0.1-0.2-0.2-0.3-0.2c0-0.3,0-0.7-0.1-0.7s-0.3,0.2-0.4,0.4c-0.4-0.2-0.9-0.3-1.3-0.4h-0.1h-0.2
	c0.1-0.3,0.2-0.7,0.1-0.6c-0.3,0.1-0.5,0.3-0.6,0.5c-0.4-0.1-0.9,0-1.3,0.1c0.1-0.5,0.2-1.1,0.2-1.7h0.1c0.9-0.7,4-2.9,4.6-3.3
	c0.2-0.2,0.4-0.3,0.7-0.5C34.7,68,35.3,67.5,35.9,66.9 M42.1,69.9C42.1,69.9,42.1,69.8,42.1,69.9L42.1,69.9c0.4-0.6,0.9-1.1,1.4-1.4
	c0.1-0.1,0.2-0.1,0.4-0.2l0.1,0.1c0.2,0.2,0.5,0.3,0.8,0.3c0.2,0,0.4-0.1,0.5-0.2c0.4-0.3,0.9-0.4,1.4-0.2c0.1,0,0.2,0,0.2,0
	c1.1,0,1.5,0.5,2.1,1.5l0.4,0.6c1,1,2.3,1.8,3.7,2.2l0,0c0,0-0.2,0.2,0,0.5s0.9,1.1,1,0.9c0-0.4-0.1-0.8-0.3-1.1l0.5,0.2
	c0.3,0.1,0.6,0.2,0.8,0.3c1.5,0.7,3.2,0.7,4.6-0.1c1.2-0.7,1.7-0.4,2,0c0.5,0.5,1.1,0.8,1.7,1c0.3,0.1,0.6,0.2,0.9,0.4
	s0.4,0.3,0.4,0.3l0,0v0.1c0,0-0.3,1-0.8,2.4c-0.1,0.5-0.5,0.8-1,0.8c-1.8-0.7-3.9-0.4-5.4,0.9c-0.3,0.3-0.7,0.5-1.1,0.6
	c-0.2,0-0.4,0-0.5-0.2l-0.1-0.2l-0.3-0.4l-0.2-0.3c-0.2-0.4-0.4-0.7-0.7-1.1c-0.7-0.9-3-2.1-4.2-2.7c-0.3-0.3-0.6-0.5-1-0.6
	c-0.6-0.6-1.3-1.1-2-1.4c-0.8-0.3-1.6-0.8-2.2-1.5c-0.3-0.2-0.6-0.4-0.9-0.5c-0.1-0.4-0.2-0.9-0.4-0.9s-0.4,0.5-0.5,0.8
	c-0.5,0-1-0.2-1.4-0.5C42,70.2,42,70.1,42,70C42,70,42,69.9,42.1,69.9L42.1,69.9 M70.8,69.5L70.8,69.5h0.1c-0.1,0.2-0.2,0.5,0.2,0.5
	s1-0.3,0.5-0.9l0.6-0.8c0.1-0.1,0.1-0.1,0.1-0.2c0-0.1,0-0.1,0-0.2c0.1,0,0.2,0,0.3,0.1c0.2,0.1,0.5,0,0.7-0.1
	c0.1-0.1,0.2-0.2,0.3-0.2c0.1,0,0.1,0.1,0.2,0.2c0.1,0.2,0.3,0.4,0.6,0.3h0.1c0,0.2-0.1,0.5-0.1,0.7c-0.1,0.3-0.1,0.6-0.1,0.9
	c-0.3,0.2-0.6,0.3-1,0.4c-0.2,0-0.4,0.2-0.4,0.4c0,0.2,0.1,0.4,0.2,0.5c0,0.2-0.1,0.4-0.2,0.6c-0.3,0.5-0.4,1.2-0.2,1.8
	c0,0.1,0,0.1-0.3,0.4c-0.5,0.3-0.9,0.8-1.2,1.3c-0.9,0.8-2,1.3-3.2,1.5c-0.9,0.3-1.6,1-1.9,1.9c0,0.1,0,0.2,0,0.4
	c-0.6,0.2-1.9,0.5-2.2-0.3c0.4-0.2,0.7-0.6,0.8-1.1c0.4-1.3,0.7-2.3,0.8-2.4c0-0.1,0.1-0.2,0.1-0.3c0.3-0.6,0.5-1.2,0.6-1.8
	c0.3-1.2,1.1-1.7,2.4-2.4l0.6-0.3C70.2,69.4,70.8,69.5,70.8,69.5L70.8,69.5 M51,75.8c0,0,0-0.1,0-0.1c1.2,0.5,2.2,1.2,3.2,2.1l0,0
	c-0.5-0.1-1-0.1-1.5,0.1c-1.1,0.5-2.4,0.4-3.5-0.1l-0.8-0.3c-0.5-0.2-0.7-0.4-0.5-0.8s0.5-0.7,0.7-0.7s0.4,0.2,0.2,0.9
	c-0.1,0.3,1.1,0.3,1.5,0C50.8,76.7,51,76.3,51,75.8 M26.8,68.7c-0.2-0.3-0.6-0.7-0.9-1.1s-0.7-0.9-0.9-1.2c1-0.5,2-0.7,3.1-0.7l0,0
	c0.5,0.2,0.8,0.4,0.8,0.6S28.8,67.2,26.8,68.7L26.8,68.7 M52.9,78.5c0.8-0.3,1.7,0,2.1,0.7c0.1,0.2,0.3,0.4,0.5,0.6
	c0.3,0.6,0.9,0.9,1.5,1.1c0.2,0,0.4,0.1,0.6,0.1c0,0,0,0.1,0,0.2c0,0,0,0,0,0.1v0.1c-0.8,0.4-1.7,0.4-2.5,0.1c0,0-0.1,0-0.1,0
	c0,0-0.3,0.2-0.1,0.7c0,0.1,0,0.2,0,0.3c-0.1,0.1-0.4,0.2-0.7,0.2h-0.4c0.4-0.4,0.5-1,0.5-1.5c0-1.5-1.1-2.1-2.8-2.3
	c0.5-0.1,1-0.2,1.5-0.3 M28.6,71.5c-0.4-0.7-0.8-1.6-1.2-2.2c0.6-0.5,1.1-1,1.6-1.6c0.6,0.1,1.2-0.2,1.4-0.7l0.2-0.5
	c0.4,0.5,0.7,1,1,1.6c0.1,0.3,0.4,0.6,0.6,0.7l-3.9,2.8 M29.8,66.7c-0.1,0.2-0.2,0.3-0.4,0.3c0.1-0.2,0.2-0.5,0.1-0.7
	c-0.1-0.6-0.7-0.9-1.1-1.1l0,0c-0.7-0.2-1.4-0.2-2.1,0.1c0.1-0.2,0.2-0.4,0.4-0.6c0.1-0.1,0.1-0.2,0.2-0.3l0.3-0.1
	c1.7-0.6,2-0.2,2.8,0.4C30.4,64.9,30.3,65.6,29.8,66.7 M55.2,83.3c0,0,0,0.1,0,0.1c-0.1,0.3,0.1,0.7,0.5,0.8l0,0
	c-0.2,0-0.9,0.2-1.5-0.7C54.5,83.6,54.9,83.5,55.2,83.3 M62.1,83.7L62.1,83.7l-0.4-0.1c-0.6-0.5-1.2-0.9-1.9-1.2
	c0.1-0.2,0.1-0.4,0-0.6c-0.1-0.2-0.6,0-0.9,0.1l-0.8-0.4l0,0c0,0,0,0,0-0.1c0.1-0.2,0.1-0.5,0-0.7c-0.2-0.2-0.5-0.4-1.1-0.4
	c-0.1,0-0.2,0-0.3-0.1c0.5-0.2,0.9-0.4,1.2-0.7c1.3-1.2,3.2-1.5,4.8-0.8l0,0c0.1,0,0.2,0,0.3,0c0.2,0.5,0.7,0.8,1.2,0.8
	c-0.3,0.3-0.5,0.9-0.4,1.3c0,0.4,0.1,1.1,0.1,1.6C62.9,83.9,62.2,83.7,62.1,83.7 M77.2,76c-0.6,0.1-1.1,0-1.7-0.2
	c0.3-3.3,0.7-3.7,1.1-4.2c0.3-0.4,0.6-0.8,0.8-1.2c0.7-1.6,2-1.9,4.1-2.3l0.2-0.1c0.9-0.3,1.8-0.1,2.5,0.4c-0.3,0.4-0.4,1-0.3,1.5
	c0.2,0.5,0.7,0.9,1.2,0.9c-0.7,1.1-2.5,2.1-5,2.9C78,74.5,77.3,75.6,77.2,76 M85.4,70.2c-0.5-0.1-0.8-0.3-0.9-0.6
	c-0.1-0.3,0-0.7,0.2-1c1.9,0.4,3.4-1.2,4.5-2.3c0.2-0.2,0.4-0.4,0.6-0.6c1.1-0.9,2-1.6,3.2-0.6s0.9,1.7-0.6,3.5
	c-0.7,1-4.2,1.2-6.5,1.1C85.7,69.8,85.5,70,85.4,70.2 M87,65.7c0.4-0.6,1-0.9,1.7-0.9c0.1,0.3,0.1,0.6,0,0.8c0,0.1,0,0.2,0,0.3
	l-0.4,0.5c-1-0.3-1.3-0.5-1.3-0.6C87,65.8,87,65.8,87,65.7 M93.5,64.7c-0.3-0.2-0.6-0.4-1-0.5c0-0.4,0-0.9,0.1-1.3
	c0.3,0.1,0.7,0.2,1.1,0.3c0.4,0.1,0.7,0.2,1.1,0.4c0,0.1-0.1,0.1-0.1,0.1C94.3,64.1,94,64.5,93.5,64.7L93.5,64.7 M94.4,62
	c-0.1-0.2-0.2-0.4-0.2-0.6c0.1,0,0.2,0.1,0.3,0.2c0.2,0.2,0.4,0.3,0.7,0.3l0,0c-0.3,0.1-0.5,0.2-0.7,0.3
	C94.5,62.2,94.4,62.1,94.4,62 M19.6,63.3c0.1,0,0.1-0.1,0.2-0.1c0.1,0,0.1,0,0.2,0.1c0,0,0.1,0.1,0.1,0.2c0,0.1-0.1,0.3-0.3,0.2
	c-0.1,0-0.1,0-0.2-0.1c-0.1,0-0.1-0.1-0.1-0.2C19.5,63.4,19.6,63.3,19.6,63.3"/>
<path class="st0" d="M33.5,69.4c-0.4,0.1-1,1-0.6,1c0.4-0.2,0.7-0.4,1.1-0.7C34.2,69.4,33.8,69.3,33.5,69.4"/>
<path class="st0" d="M34.3,70.7c0.4,0.1,0.6-0.2,0.8-0.5s0-0.8-0.3-0.4C34.8,69.7,33.9,70.6,34.3,70.7"/>
<path class="st0" d="M35.9,71.2c0.3-0.3,0.4-0.7,0.4-1.1c-0.1-0.3-0.3-0.2-0.3-0.2s-0.7,0.8-0.7,1S35.6,71.5,35.9,71.2"/>
<path class="st0" d="M37.8,71.6c0.4-0.1,0.2-0.5,0.1-0.9s-0.2-0.7-0.4-0.5c-0.2,0.2-0.2,0.4-0.2,0.7C37.2,71.2,37.3,71.6,37.8,71.6"
	/>
<path class="st0" d="M48,22.1c-0.3,0.1-0.4,0.3-0.3,0.6c0.1,0.5,0.2,0.8,0.9,0.7s0.2-1.2,0.1-1.3S48,22.1,48,22.1 M48.2,22.9
	c0-0.1-0.1-0.2-0.1-0.3c0-0.1,0-0.1,0-0.1h0.1c0.1,0.1,0.1,0.3,0.1,0.5C48.3,23,48.2,23,48.2,22.9"/>
<path class="st0" d="M48,23.7c-0.2,0.1-0.2,0.3-0.2,0.5c0,0.3,0,0.7,0.6,0.7s0.6-0.4,0.6-0.8c-0.1-0.3-0.4-0.6-0.8-0.5
	C48.1,23.6,48.1,23.6,48,23.7 M48.5,24.4h-0.1c0,0,0-0.1,0-0.1c0,0,0-0.1,0-0.1c0,0,0-0.1,0-0.1c0,0,0.1,0,0.1,0c0,0,0,0,0,0.1
	C48.5,24.2,48.5,24.3,48.5,24.4"/>
<path class="st0" d="M48,25.1c0,0-0.6,0.7-0.2,0.9s0.8,0.3,1-0.3S48.5,24.7,48,25.1 M48.3,25.6c0,0,0,0.1,0,0.1h-0.1
	C48.2,25.6,48.3,25.6,48.3,25.6L48.3,25.6C48.4,25.5,48.4,25.6,48.3,25.6"/>
<path class="st0" d="M49.1,21.4c-0.2,0-0.3,0.2-0.3,0.4c0,0,0,0,0,0.1c0.1,0.4,0.3,1,0.9,0.8s0.4-0.5,0.2-1.1S49.4,21.3,49.1,21.4
	 M49.5,22.3L49.5,22.3c-0.1-0.1-0.2-0.3-0.2-0.5h0.1c0,0,0,0,0.1,0l0,0C49.5,22,49.6,22.2,49.5,22.3L49.5,22.3"/>
<path class="st0" d="M49.1,23.4c0,0-0.2,0.9,0.3,0.9s0.9-0.1,0.8-0.7C50.3,22.7,49.2,22.5,49.1,23.4 M49.8,23.8h-0.2
	c0-0.1,0-0.2,0-0.4l0,0c0,0,0-0.1,0.1-0.1l0,0c0.1,0.1,0.1,0.1,0.1,0.2C49.8,23.6,49.8,23.7,49.8,23.8"/>
<path class="st0" d="M49.6,24.5c0,0-0.5,0.1-0.5,0.5s-0.2,1,0.3,0.9s1-0.2,0.9-0.9S50,24.3,49.6,24.5 M49.9,25.2
	c-0.1,0.1-0.2,0.1-0.3,0.1c0,0,0-0.1,0-0.1c0-0.1,0-0.2,0-0.3l0.1,0h0.1c0,0,0,0.1,0,0.1C49.9,25.1,49.9,25.2,49.9,25.2"/>
<path class="st0" d="M50.2,20.3c-0.3,0.2-0.4,0.6-0.3,0.9c0.2,0.6,0.6,0.7,0.9,0.5s0.5-0.3,0.3-0.9S50.5,20,50.2,20.3 M50.5,20.7
	L50.5,20.7 M50.7,21.3L50.7,21.3L50.7,21.3c-0.2,0-0.2-0.1-0.2-0.2c-0.1-0.2,0-0.4,0.1-0.4C50.6,20.9,50.7,21.1,50.7,21.3"/>
<path class="st0" d="M50.4,22.6c0.1,0.5,0,1,0.6,0.8s0.6-0.5,0.5-1C51.3,21.6,50.3,22.2,50.4,22.6 M51,22.8L51,22.8
	c-0.1,0-0.1-0.1-0.1-0.3c0,0,0-0.1,0.1-0.1C51,22.6,51,22.7,51,22.8"/>
<path class="st0" d="M50.6,24.1c0,0.5,0,1,0.5,0.9s0.7-0.4,0.6-1C51.6,23.1,50.6,23.6,50.6,24.1 M51.1,24.6c0-0.1,0-0.3,0-0.5
	s0,0,0.1-0.1c0,0,0.1-0.1,0.1-0.1c0,0,0,0.1,0,0.1C51.3,24.4,51.3,24.5,51.1,24.6"/>
<path class="st0" d="M65.5,26.9c-0.2,0-0.3,0.1-0.6,0.3l-0.2,0.2c-0.4,0.4-0.8,0.8-1.3,1.1c0,0-0.1,0-0.1,0.1c0,0,0,0,0,0
	c0,0,0.1,0.1,0.1,0.1h3.2c0,0,0.1,0,0.1,0c0,0,0-0.1,0-0.1c0,0,0,0,0,0c-0.4-0.5-0.7-0.9-1-1.4C65.8,27,65.7,26.9,65.5,26.9
	 M65.1,28l0.2-0.2l0.1-0.1l0.2,0.2H65.1"/>
<path class="st0" d="M21.4,56c2,5.9,3.3,7,2.9,3.6s-1.1-6-0.7-6.5s0.1-1.4,0-2.3s0.3-1-0.4-3.2s0.1-1.6,0-2.7s-0.5-1-0.3-2.3
	s0.2-3.2,0.2-3.2s-1.2,0-1.4,0.7c-0.2,4.3-0.1,8.6,0.4,12.8c0.6,3.2-1.1,0.1-1.4-3.8s-0.1-8.3-0.1-8.3s0.2-1-1.2-1.3
	C19.5,39.6,19.4,50.1,21.4,56"/>
<path class="st0" d="M27,53.3c0-2.2-0.9-3.2-0.5-4.5s0.6-1.9-0.1-2.9s-0.5-1-0.2-2.3s-0.2-3.3,0-4.4c0,0-0.7-0.5-0.8,0.1
	c0,3.6,0.2,7.3,0.6,10.9c0.5,2.9-0.4,1.7-0.7-0.8c-0.2-1.7-0.7-9.8-0.7-9.8s-0.9-0.6-1.1,0c0,0-0.2,9.8,1.8,13.6S27,55.5,27,53.3"/>
<path class="st0" d="M29.7,51c-0.3-0.8-0.4-1.6-0.2-2.4c0.1-1-0.4-1.9-0.6-3.3c-0.2-2.2-0.3-4.4-0.3-6.6c0,0-0.3-0.3-0.8,0
	c0,0,0,4.9,0.3,6.7s-0.8-0.1-0.8-3.3s0-3.8-0.6-3.2c0,0-0.2,9.5,2.7,12.5C29.3,51.5,30.1,52.1,29.7,51"/>
<path class="st0" d="M29.2,38c0,0-0.3,8.8,2.3,11.2s0.6,0.1,0.6-2.7c0-3.3-0.7-2.5-0.8-3.3c0,0-0.1-3.3-0.3-4.3s-0.9-1.4-0.7,0.1
	s0.7,5.7,0.1,5.8s-0.5-2.6-0.6-4.2S30.1,38.1,29.2,38"/>
<path class="st0" d="M32.9,37.7c0,0-0.5-0.4-0.3,1.2s0.5,3-0.1,3s-0.3-2-0.4-2.7s-0.2-1.7-0.6-1.1c0,0,0.1,5.9,1.9,8.4
	c1.8,2.4,1.8,0.6,0.9-0.8c-0.7-1.4-1.1-3-1-4.6C33.2,39.9,33.1,38.8,32.9,37.7"/>
<path class="st0" d="M34.6,43.5c1.1,1.5,0.8,0.2,0.5-1.3c-0.2-1.6-0.3-3.3-0.2-4.9c-0.2-0.2-0.5-0.2-0.6,0c0,0,0.3,2.7,0,2.6
	s-0.4-1-0.5-1.9s-0.2-0.7-0.5-0.5C33.4,37.5,33.5,42,34.6,43.5"/>
<path class="st0" d="M20.2,30.4c-0.2,1.5-0.4,3.1-0.5,4.6c-0.1,2.8,0.1,3.2,1.2,3.3c1.5,0.1,1.8-0.9,2-3.1c0.3-2.4,0.3-3.6,0.3-3.9
	s-0.8-1.3-1,0.1s-0.1,6-1.1,5.8s-0.7-2.5-0.5-4.1s0.7-3.5,0.1-3.6S20.1,30.4,20.2,30.4"/>
<path class="st0" d="M23.9,31.3c0,0-1.3,6.7,0,6.7c2,0.1,1.7-1.8,1.9-4s0.4-2.7-0.1-2.7s-0.6,2-0.7,3.1s0,2.5-0.6,2.4
	s-0.5-1.6-0.3-2.9C24.6,31,24.4,30.6,23.9,31.3"/>
<path class="st0" d="M26.9,32c0,0-0.2-0.3-0.4-0.3c0,0-0.2,2.3-0.3,3.7s0.2,2,1.2,2s0.9-1.6,0.9-2.9s0.4-2.5,0-2.6s-0.5,0.9-0.5,1.7
	s-0.1,2.8-0.5,2.8s-0.6-0.5-0.6-1.8S26.9,32,26.9,32"/>
<path class="st0" d="M55.3,37.6c0.3-0.1,0.3-0.3,0.5,0s0.3,0.3,0.7,0.3c0.4-0.1,0.7,0.1,1,0.3c0.2,0.2,0.5,0.2,0.5,0.3
	s-0.4,0.4,0.4,0.5s1.1,0.2,1.3,0s0.6-0.2-0.1-0.6c-0.5-0.2-1-0.4-1.4-0.8c-0.5-0.5-0.5-0.5-0.8-0.6c-0.4-0.2-0.8-0.2-1.3-0.2
	C55.8,37,55.4,37,54.9,37c0,0-0.2,0.2-0.1,0.3S55,37.7,55.3,37.6"/>
<path class="st0" d="M58.8,39.4c-0.3,0-0.4-0.2-0.7-0.2c0,0-0.4,0-0.2,0.3s0.4,0.4,0.7,0.3S59,39.5,58.8,39.4"/>
<path class="st0" d="M60.6,39.7c0.3,0,0.5-0.1,0.8-0.2c0.3-0.1,0.5,0.1,0.8,0.1c0.2,0.1,0.5,0,0.6-0.2c0.2-0.3,0-0.5-0.3-0.7
	c-0.2-0.2-0.6-0.2-0.8-0.1c-0.3,0.1-0.2,0.2-0.5,0.2S60.3,39.6,60.6,39.7"/>
<path class="st0" d="M63.7,39.8c0.1,0,0.4,0.1,0.6,0s0.3,0,0.1-0.4s-0.1-0.4-0.5-0.4s-0.3,0.2-0.3,0.2S63.6,39.8,63.7,39.8"/>
<path class="st0" d="M65.3,44.2c0.1,0.1,0.3,0.2,0.3,0s0.1-0.6-0.5-0.5c0,0-0.2,0.1-0.1,0.3C65.2,44.1,65.2,44.2,65.3,44.2"/>
<path class="st0" d="M33.7,33.4c-0.6,4.1,1.2,2.6,1.2,2.6c0.1-1,0.3-2.4,0.3-2.4c-0.2-0.2-0.4-0.1-0.4,0.4s-0.1,1.7-0.5,1.6
	s-0.1-2.2-0.3-2.3S33.7,33.4,33.7,33.4"/>
<path class="st0" d="M31.6,32.9c0,0-0.3,2-0.3,2.6s0.4,1.1,1.2,1c0.9-0.1,0.7-1.1,0.8-2s0.2-1.4,0.2-1.4c-0.4-0.1-0.4,0-0.6,1.1
	s-0.1,1.6-0.7,1.7s-0.3-2.1-0.2-2.6S31.6,32.9,31.6,32.9"/>
<path class="st0" d="M29.1,32.4c-0.2,1.2-0.3,2.3-0.4,3.5c0,1.5,1.9,1.1,2,0s0.4-3.1,0.4-3.1c-0.6-0.4-0.7,0.7-0.8,1.8
	s-0.2,1.6-0.8,1.5s-0.2-2.9-0.2-3.3S29.1,32.5,29.1,32.4"/>
<path class="st0" d="M28.3,68.6c-0.3,0.5-0.1,0.7,0.2,0.7s0.4-0.8,0.4-0.8C28.8,68.1,28.6,68.1,28.3,68.6"/>
<path class="st0" d="M29.5,68.4c0,0-0.4-0.1-0.4,0.6s0.4,0.7,0.6,0.6s0.1-0.7,0.1-0.8S29.7,68.2,29.5,68.4"/>
<path class="st0" d="M30.4,68.2c0,0.3,0,0.6,0.2,0.8c0.2,0.3,0.7,0.5,0.6-0.2S30.9,68,30.4,68.2"/>
<path class="st0" d="M23.5,67.1C23.3,67,23.1,67,23,67.2c0,0-0.1,0.4,0.3,0.4c0.1,0,0.3-0.1,0.3-0.2C23.6,67.3,23.6,67.2,23.5,67.1"
	/>
<path class="st0" d="M21.7,68.1L21.7,68.1c0,0,0,0.3,0.2,0.3s0.3-0.1,0.3-0.2S21.8,67.8,21.7,68.1"/>
<path class="st0" d="M22.3,70.1c-0.1,0.1-0.1,0.3,0,0.4c0,0,0.1,0,0.1,0.1c0.3,0.2,0.4,0.1,0.3-0.2S22.5,70,22.3,70.1"/>
<path class="st0" d="M24.3,70.1c0,0,0.2,0.1,0.3,0s-0.1-0.2-0.1-0.2S24.1,69.7,24.3,70.1"/>
<path class="st0" d="M24.6,71.6c0,0-0.1,0.4,0.2,0.4c0.1,0,0.2,0,0.3-0.2c0-0.1,0-0.2-0.1-0.2C24.9,71.5,24.6,71.5,24.6,71.6"/>
<path class="st0" d="M26.3,72.1c0,0,0.3,0.1,0.3,0s0-0.2-0.1-0.3S26.2,71.8,26.3,72.1"/>
<path class="st0" d="M26,77.7c0,0,0.6-1.3-0.2-1.1c-0.3,0.2-0.4,0.6-0.3,0.9c0,0-0.4-0.2-0.1,0.4s0.5,1,1.1,0.5S26,77.7,26,77.7"/>
<path class="st0" d="M28.1,78.6c0,0-0.5,0.4-0.4,0.5s0.8,0.2,0.9,0S28.3,78.4,28.1,78.6"/>
<path class="st0" d="M30.3,79c0,0-0.6,0.2-0.3,0.4c0.2,0.2,0.5,0.3,0.8,0.2C30.8,79.7,31.1,78.8,30.3,79"/>
<path class="st0" d="M28.6,76.7c0,0-0.6,0.3-0.4,0.6s0.7-0.2,0.7-0.2S29,76.6,28.6,76.7"/>
<path class="st0" d="M30.5,76.1c0.2,0.1,0.5,0,0.6-0.2c0,0-0.3-0.7-0.7-0.5C30.5,75.4,30.1,75.9,30.5,76.1"/>
<path class="st0" d="M33.2,78.7c0.2,0.1,0.5,0.1,0.7,0c0,0,0.3-0.4-0.8-0.6C32.9,78.2,32.9,78.5,33.2,78.7
	C33.1,78.6,33.2,78.6,33.2,78.7"/>
<path class="st0" d="M39.4,78.4c0-0.4-0.5-0.3-0.5-0.3s-0.3,0.1-0.3,0.3s0.4,0.2,0.4,0.2S39.4,78.8,39.4,78.4"/>
<path class="st0" d="M39.5,80.7c-0.2-0.1-0.5,0.2-0.5,0.2c-0.1,0.2,0,0.4,0.2,0.5c0.1,0,0.1,0,0.2,0c0.6,0,0.5-0.3,0.5-0.3
	S40,81,39.5,80.7"/>
<path class="st0" d="M42.4,80c0-0.3-0.3-0.5-0.6-0.5c0,0,0,0,0,0c0,0-0.5,0-0.7,0.5s0.8,0.4,0.8,0.4S42.4,80.3,42.4,80"/>
<path class="st0" d="M41.7,81.6c0,0,0,0.4,0.5,0.4s0.4-0.3,0.4-0.3S41.8,81.2,41.7,81.6"/>
<path class="st0" d="M44.6,80.1c0.5,0,0.4-0.4,0.4-0.4c-0.1-0.1-0.3-0.2-0.5-0.2c-0.4,0-0.4,0-0.5,0.3
	C44.1,79.8,44.1,80.1,44.6,80.1"/>
<path class="st0" d="M39.3,71.7c0.3,0,0.1-1,0.1-1s-0.2-0.6-0.4-0.5c0,0-0.5,0-0.3,0.7S39,71.7,39.3,71.7"/>
<path class="st0" d="M40.5,71.3c0.1,0.2,0.4,0.3,0.6,0.2c0,0,0,0,0.1,0c0.3-0.1-0.5-1.2-0.5-1.2s-0.7-0.4-0.7,0
	C40.2,70.6,40.3,71,40.5,71.3"/>
<path class="st0" d="M31.2,71.1c-0.2,0-1,0.5-0.7,0.7c0.2,0.1,0.5,0,0.7-0.2C31.4,71.3,31.4,71.1,31.2,71.1"/>
<path class="st0" d="M32.5,71.7c0,0-0.9,0.8-0.6,1c0.4,0.2,0.7-0.3,0.8-0.7S32.7,71.5,32.5,71.7"/>
<path class="st0" d="M33.4,73c0.1,0.3,0.4,0.6,0.6,0s0.1-0.7-0.1-0.5C33.9,72.5,33.3,72.8,33.4,73"/>
<path class="st0" d="M35.7,73.3c0.2-0.8,0-0.7-0.2-0.5c0,0-0.6,0.4-0.4,0.7S35.5,74.1,35.7,73.3"/>
<path class="st0" d="M37.4,74.4c0.5,0,0.3-0.6,0.2-1.1s-0.3-0.5-0.4-0.5s-0.3,0-0.3,0.5S36.9,74.4,37.4,74.4"/>
<path class="st0" d="M39,73.1c0,0-0.5,0.9,0.2,1.3s0.4-0.3,0.3-0.7S39.1,72.8,39,73.1"/>
<path class="st0" d="M40.9,72.9c0,0-0.3,0-0.2,0.5s0.3,1,0.8,0.8S41.2,73.1,40.9,72.9"/>
<path class="st0" d="M43.8,74.1c0.3-0.5-1.1-1.5-1.3-1.3c0,0-0.4,0.2,0,0.6S43.5,74.6,43.8,74.1"/>
<path class="st0" d="M45.5,73.9c0.3-0.2-0.5-1-0.5-1s-0.6-0.6-0.8-0.5c0,0-0.3,0.4,0.1,0.8S45.2,74,45.5,73.9"/>
<path class="st0" d="M36,75.2c0,0-0.9,1.2-0.3,1.4s0.6-0.8,0.6-1.3S36,75.2,36,75.2"/>
<path class="st0" d="M44.4,75c0.1,0.3,0.3,0.6,0.4,0.8c0.1,0.2,0.3,0.7,0.6,0.3s0.1-0.5-0.2-0.9S44.3,74.7,44.4,75"/>
<path class="st0" d="M25.6,27.8c-0.5-0.1-1.1,0.2-1.3,0.7c-0.3,0.9-0.1,1.3,0.1,1.2s0.3-0.9,0.6-0.8s-0.3,0.9,0.1,1s0.5-0.9,0.7-0.8
	s-0.3,0.9,0.1,1S26.9,28.2,25.6,27.8"/>
<path class="st0" d="M28.2,28.6c-0.5-0.1-1,0.2-1.1,0.7c-0.3,0.9-0.1,1.2,0.1,1.1s0.3-0.9,0.5-0.8s-0.2,0.8,0.1,0.9s0.4-0.8,0.6-0.7
	s-0.2,0.8,0.1,0.9S29.4,28.9,28.2,28.6"/>
<path class="st0" d="M23,29.1c0.5,0.2,1.4-2.2-0.2-2.8c-0.7-0.2-1.4,0.2-1.7,0.8c-0.5,1.1-0.3,1.5,0,1.5s0.5-1.1,0.8-1s-0.5,1,0,1.1
	s0.7-1,1-0.9S22.5,28.9,23,29.1"/>
<path class="st0" d="M30.7,29.5c-0.4-0.1-0.9,0.2-1,0.6c-0.3,0.7-0.1,1,0.1,1s0.2-0.7,0.5-0.7s-0.2,0.7,0,0.8s0.4-0.7,0.6-0.6
	s-0.2,0.7,0.1,0.8S31.7,29.8,30.7,29.5"/>
<path class="st0" d="M33,31.7c0.3,0.1,0.6-1.3-0.2-1.5c-0.4-0.1-0.7,0.1-0.8,0.5c-0.2,0.6-0.1,0.8,0.1,0.8s0.2-0.6,0.4-0.5
	s-0.2,0.6,0,0.6s0.3-0.6,0.5-0.5S32.7,31.6,33,31.7"/>
<path class="st0" d="M35.1,32.1c0.3,0,0.4-1.3-0.5-1.5c-0.4,0-0.7,0.2-0.8,0.6c-0.1,0.6,0.1,0.8,0.2,0.8s0.1-0.6,0.3-0.6
	s-0.1,0.6,0.1,0.6s0.2-0.6,0.4-0.6S34.8,32.1,35.1,32.1"/>
<path class="st0" d="M21.6,30.8c-0.1,0.8-0.8,5.4-0.4,5.5s0.4-2,0.5-3.1s0.3-2.7,0.3-2.7S21.8,30,21.6,30.8"/>
<path class="st0" d="M24.7,31.8c-0.1,0.6-0.6,4.2-0.3,4.3s0.3-1.6,0.4-2.4s0.2-2.1,0.2-2.1S24.8,31.2,24.7,31.8"/>
<path class="st0" d="M27.3,32.4c-0.1,0.5-0.4,3.4-0.1,3.4s0.2-1.3,0.3-1.9s0.1-1.7,0.1-1.7S27.3,32,27.3,32.4"/>
<path class="st0" d="M29.9,32.8c-0.1,0.4-0.5,2.6-0.1,2.6s0.2-1,0.3-1.5s0.2-1.3,0.2-1.3S30,32.4,29.9,32.8"/>
<path class="st0" d="M32.6,33.2c0,0-0.2-0.2-0.3,0.1s-0.3,2,0,2s0.2-0.8,0.2-1.2S32.6,33.2,32.6,33.2"/>
<path class="st0" d="M34.6,33.4c0,0-0.2-0.1-0.2,0.1s-0.3,1.7,0,1.7s0.1-0.6,0.2-1S34.6,33.4,34.6,33.4"/>
<path class="st0" d="M75.2,31.6V33c0,0,0.8,0,0.8-0.2s0.3,0.1,0.3,0.1C76.2,32.3,75.8,31.8,75.2,31.6"/>
<path class="st0" d="M76.3,35.6c-0.3,0-0.6,0.1-0.5-0.6s0.1-1.2-0.6-1v2.2c0,0,1.1,0.7,1.7,0c0.1-0.8,0.1-1.6-0.2-2.3
	c0,0-0.1-0.1-0.4,0.2C76.4,34.1,76.6,35.6,76.3,35.6"/>
<path class="st0" d="M75.2,37.3c0,0-0.1,1.7,0,1.7s0.7,0,0.7-1.1S75.5,37,75.2,37.3"/>
<path class="st0" d="M76.6,37c0,0-0.2,0-0.2,0.7s-0.2,1.2,0,1.2s0.4-0.6,0.6-1.2S76.8,36.8,76.6,37"/>
<path class="st0" d="M75.4,40.4c0.4,0,1,0,1.2-0.7s-0.7-0.5-1.3,0.1C75.2,39.8,75,40.4,75.4,40.4"/>
<path class="st0" d="M75.2,41.3c0,0-0.1,1.9,0,1.8c0.4-0.5,0.7-1.1,0.9-1.7C76.3,40.9,75.3,40.9,75.2,41.3"/>
<path class="st0" d="M74.9,53.4c0.3,1.1,0.1,1-0.2,1s-0.6-1.6-1-0.5c-0.2,0.6-0.6,1.5,0.2,1.4s2.8,0.1,2.2-1.3S74.7,52.3,74.9,53.4"
	/>
<path class="st0" d="M76.7,58c0.2-0.2,0.2-0.4,0.1-0.6c-0.1-0.4-1.4-0.1-1.4-0.1l-2.9,0.1c0,0-0.3,0.6-0.2,0.7S76.4,58.1,76.7,58"/>
<path class="st0" d="M74,60.3c0-1-0.2-1.9-1.1-1.9c0,0-1.2-0.1-1.3,0.7s-0.1,1.9,0.2,1.9s0.1-1.3,0.4-1.4s0.3,0.5,0.3,0.9
	s0.5,0.5,0.5,0s-0.3-1,0-0.9s0.4,0.1,0.3,0.7S74,61.4,74,60.3"/>
<path class="st0" d="M75.2,59.4c0.3,0,0.3,0.5,0.3,0.8s0.5,0.5,0.5,0s-0.3-0.9,0-0.8s0.4,0.1,0.3,0.6s0.6,1,0.6,0.1s-0.2-1.8-1-1.8
	c0,0-1.1-0.1-1.2,0.6s-0.1,1.7,0.2,1.7S75,59.5,75.2,59.4"/>
<path class="st0" d="M45.8,71.5c0.5,0,0.2-2-0.3-1.7c-0.2,0.2-0.3,0.4-0.3,0.7C45.2,71,45.3,71.5,45.8,71.5"/>
<path class="st0" d="M47.6,71.3c-0.1-0.8-0.5-1.1-0.5-0.8c-0.1,0.3-0.1,0.7,0,1C47.2,72,47.7,72.1,47.6,71.3"/>
<path class="st0" d="M49.4,71.5c0.1-0.1-0.6-1.3-0.8-1c0,0-0.3,0.1,0,0.6S49.3,71.6,49.4,71.5"/>
<path class="st0" d="M51.2,73.9c0-0.2-0.4-0.4-0.5-0.4c-0.1,0-0.2,0.2-0.2,0.3c0,0.1,0.1,0.1,0.1,0.1C51,74.2,51.3,74.1,51.2,73.9"
	/>
<path class="st0" d="M52.8,74c0.4-0.2-0.4-0.9-0.9-0.8c0,0-0.3,0,0,0.4S52.4,74.2,52.8,74"/>
<path class="st0" d="M54.7,76.3c0.5,0.4,0.8,0.4,0.6-0.1s-0.5-0.8-0.7-0.6C54.5,75.7,54.2,76,54.7,76.3"/>
<path class="st0" d="M57,75.9c0.1-0.3-0.7-1.3-1-1.3c0,0-0.4,0,0,0.7S56.9,76.2,57,75.9"/>
<path class="st0" d="M58.2,75.6c0-0.3-0.6-1.4-0.7-1.1c-0.1,0.4-0.1,0.8,0.1,1.1C58,76,58.2,75.8,58.2,75.6"/>
<path class="st0" d="M59.9,75.1c-0.1-0.4-0.5-1.1-0.7-1c0,0-0.4,0.2,0,0.7S59.9,75.5,59.9,75.1"/>
<path class="st0" d="M61,74.5c0.8,0-0.2-0.6-0.3-0.7s-0.4-0.2-0.4,0C60.3,73.8,60.2,74.5,61,74.5"/>
<path class="st0" d="M61,77c0-0.2-0.2-0.4-0.5-0.4c0,0-0.5,0-0.2,0.4S61,77.3,61,77"/>
<path class="st0" d="M62.5,76.8c-0.3-0.7-0.5-1.1-0.8-0.9c0,0-0.2,0.3,0.1,0.8S62.8,77.4,62.5,76.8"/>
<path class="st0" d="M63.5,75.8c-0.1-0.6-1.2-2-1.2-1.4c0,0.3,0,0.6,0.3,0.9C62.9,75.7,63.6,76.4,63.5,75.8"/>
<path class="st0" d="M60.2,78.8c-0.2,0.2-0.4,0.9,0.1,0.7c0,0,0.8-0.4,0.6-0.6S60.3,78.6,60.2,78.8"/>
<path class="st0" d="M61.6,80.3c-0.4,0.1-0.8,0.4-0.6,0.7c0,0,0.2,0.4,0.7,0S62,80.2,61.6,80.3"/>
<path class="st0" d="M68.2,81c0,0-0.9,0.7-0.2,0.7s0.9-0.2,0.7-0.5S68.4,80.9,68.2,81"/>
<path class="st0" d="M73.1,81.6c-0.2,0-0.9,0.4-0.6,0.7c0,0,0.6,0.2,0.9-0.2S73.3,81.6,73.1,81.6"/>
<path class="st0" d="M75.1,80.2c-0.4,0.1-0.6,0.4,0,0.7c0.2,0,0.5-0.1,0.6-0.3C76,80.2,75.5,80.1,75.1,80.2"/>
<path class="st0" d="M71.8,79.9c0,0-0.8,0.9,0,0.9s0.4-0.6,0.4-0.6S71.9,79.7,71.8,79.9"/>
<path class="st0" d="M71.9,78.4c-0.2-0.2-0.5-0.2-0.7-0.1c0,0-0.1,0.1-0.1,0.1c0,0-0.5,0.8,0.1,0.8S72.2,78.7,71.9,78.4"/>
<path class="st0" d="M74.8,78.2c-0.1-0.3-0.2-0.4-0.5-0.3c0,0-0.6,0.4-0.2,0.6S74.9,78.5,74.8,78.2"/>
<path class="st0" d="M65.9,76.3c0,0-0.2,0.4,0.2,0.4s0.5-0.2,0.5-0.4C66.5,76.2,66.2,76.1,65.9,76.3C66,76.3,66,76.3,65.9,76.3"/>
<path class="st0" d="M66.6,73.6c-0.1,0.3,0.1,0.6,0.4,0.7c0.5,0.1,0.3-0.3,0.3-0.4S66.6,73.3,66.6,73.6"/>
<path class="st0" d="M69.1,74.7c0,0-0.4,0.4-0.2,0.5S69.8,74.8,69.1,74.7"/>
<path class="st0" d="M71,73.6c0.4,0,0.7-0.4,0.1-0.5C71.1,73.1,70.6,73.5,71,73.6"/>
<path class="st0" d="M68.7,73.4c0,0-0.6,0-0.2,0.3s0.4,0.3,0.6-0.1S69,73.3,68.7,73.4"/>
<path class="st0" d="M69.7,71.6c-0.1,0.2,0,0.4,0.2,0.6c0.3,0.2,0.3,0,0.4-0.2S69.7,71.3,69.7,71.6"/>
<path class="st0" d="M69,70.8c0.2,0.1,0.4,0,0.5-0.1C69.7,70.6,68.9,70.4,69,70.8"/>
<path class="st0" d="M73.6,68.7c0.2-0.2-0.3-0.4-0.5-0.1C73.2,68.5,73.4,68.9,73.6,68.7"/>
<path class="st0" d="M88.4,80.3c0.6-0.2,1-1.1,0-0.8c0,0-0.5,0.4-0.5,0.6S87.9,80.5,88.4,80.3"/>
<path class="st0" d="M84.6,78.8c0,0-0.2,0.6,0.1,0.5s0.8-0.2,0.4-0.4S84.7,78.7,84.6,78.8"/>
<path class="st0" d="M82.8,78.1c0,0-0.5,0.2-0.5,0.4s0,0.5,0.5,0.2S83.5,77.8,82.8,78.1"/>
<path class="st0" d="M80.8,77.4c0,0-0.6,0.2-0.4,0.4s0.7,0.6,0.8,0.2S81.2,77.2,80.8,77.4"/>
<path class="st0" d="M85.2,76.7c0,0-0.5,0.2-0.4,0.4c0.1,0.2,0.3,0.3,0.5,0.2c0,0,0.1,0,0.1-0.1C85.6,76.9,85.7,76.5,85.2,76.7"/>
<path class="st0" d="M86.7,78.5c0.4-0.1,0.9-1,0.1-0.9c-0.2,0.1-0.3,0.2-0.4,0.4C86.2,78.3,86.4,78.6,86.7,78.5"/>
<path class="st0" d="M77.6,71.2c0,0,0,0.6,0.4,0.5c0.2,0,0.3-0.2,0.3-0.4c0,0,0-0.1,0-0.1C78.2,71.2,77.4,70.8,77.6,71.2"/>
<path class="st0" d="M77.5,73.9c-0.4-0.2-0.4-0.2-0.5-0.1c0,0-0.3,0.6,0,0.6S77.8,74.1,77.5,73.9"/>
<path class="st0" d="M79.2,72.2c0.1-0.2-1.3,0.3-0.8,0.5c0,0,0.4,0.2,0.7,0.1S79.1,72.4,79.2,72.2"/>
<path class="st0" d="M80.5,69.7c0.4,0,0.3-0.3,0.2-0.5S80,69,80.1,69.4C80.1,69.6,80.3,69.7,80.5,69.7"/>
<path class="st0" d="M80.7,70.8c0.8,0.4,0.5-0.8,0.1-0.6C80.8,70.2,80.3,70.6,80.7,70.8"/>
<path class="st0" d="M82,69.9c0.8,0,0.4-0.8,0.1-0.6c-0.2,0.1-0.3,0.2-0.4,0.4C81.6,69.7,81.3,69.9,82,69.9"/>
<path class="st0" d="M81,72.1c0,0.2,0.2,0.3,0.6,0.2s0.3-0.5-0.1-0.4C81.5,71.8,81,71.9,81,72.1"/>
<path class="st0" d="M82.9,71.6c0.2,0,0.1-0.4,0.1-0.6s-0.1-0.4-0.4-0.2c-0.1,0-0.2,0.2-0.2,0.3C82.4,71.3,82.7,71.6,82.9,71.6"/>
<path class="st0" d="M90,67.6c0.3-0.2,0.5-0.7,0-0.7c-0.2,0-0.3,0.1-0.4,0.3c0,0,0,0,0,0C89.7,67.6,89.8,67.9,90,67.6"/>
<path class="st0" d="M90.9,68c0.2,0.1,0.4,0.1,0.6,0.1c0.2,0,0.1-0.4-0.1-0.5S90.6,67.9,90.9,68"/>
<path class="st0" d="M92.3,66.5c0.6,0.1,0.8-0.6,0.5-0.5C92.8,66,91.7,66.4,92.3,66.5"/>
<path class="st0" d="M91,66.3c0.3,0,0.6-0.1,0.3-0.3s-0.5-0.4-0.5-0.3C90.8,65.8,90.7,66.3,91,66.3"/>
<path class="st0" d="M88.8,29.2c-0.1-0.6-0.2-0.8-0.2-0.7s-0.2,1.7,0,1.7S88.8,29.8,88.8,29.2"/>
<path class="st0" d="M79.9,33c-0.4,0-0.5-0.5-0.5-0.8s-0.3-0.5-0.5-0.1c0,0,0.1,1.4,0.8,1.4c0.9-0.1,1.2-0.5,0.8-1.6
	c-0.1-0.2-0.3-0.2-0.4-0.1c0,0,0,0-0.1,0C79.7,32,80.2,33,79.9,33"/>
<path class="st0" d="M81,31.4c0,0-0.1,1.6,0.6,1.6c0.9,0,1.2-0.4,1-1.6c0-0.2-0.2-0.3-0.4-0.2c0,0-0.1,0-0.1,0
	c-0.3,0.2,0.1,1.4-0.3,1.4s-0.4-0.6-0.4-0.9S81.2,31,81,31.4"/>
<path class="st0" d="M83.2,30.9c0,0-0.2,1.6,0.5,1.6c0.9,0,1.2-0.4,1-1.7c0,0-0.1-0.4-0.4-0.1s0.1,1.4-0.3,1.4s-0.4-0.6-0.3-1
	S83.4,30.4,83.2,30.9"/>
<path class="st0" d="M85.3,30v1.4c0,0-0.1,0.9,1,1s0.8-1.3,0.8-1.8s-0.1-1.4-0.3-1.3s-0.3,0.3-0.3,0.9s0.2,1.3-0.2,1.3
	s-0.3-0.5-0.3-1S85.4,29.5,85.3,30"/>
<path class="st0" d="M88.2,28.7c0,0-0.6-0.5-0.6,0.3s-0.2,3.1,1.2,3.1s1.3-1.6,1.3-2.7s0.2-2.2-0.2-1.9s-0.5,0.6-0.6,1.4
	s0.2,2-0.2,2.1s-0.7-0.1-0.6-1.2c0.1-0.3,0.1-0.7,0-1.1"/>
<path class="st0" d="M91.3,29.5c-0.1-1.2,0-2.1-0.3-2.1c0,0-0.5,0-0.5,0.6s-0.3,3.1,0.6,3.5s2.2,0.2,2.2-0.8s0-3,0-3.5
	s-0.6-0.8-0.7,0s0.4,3.8-0.4,3.7S91.4,30.7,91.3,29.5"/>
<path class="st0" d="M91.9,27.5c0,0-0.3,2.2,0.1,2.4s0.2-1.5,0.2-2S92,27.2,91.9,27.5"/>
<path class="st0" d="M88.3,62.5c0.6,0.1,2.4-3.8,2.9-6.3c0.2-1.4,0.5-2.8,1.2-4.2c0.8-2.6,1.2-5.2,1.2-7.9c0-2.3,0.1-4.4,0-4.7
	S93.4,39,93,39.2s-0.9,0.1-0.9,1.2s0.1,7.4-0.2,8.4s-0.8,2.6-1.1,3.7s-0.7,2.2-0.4,0.1s0.7-2.2,0.8-3.6s0.4-2.9,0.3-4.8
	s0.1-4.3,0.1-4.3s-1-1.3-1.1-0.1s0.1,7.1,0,7.9c-0.2,0.9-0.3,1.9-0.3,2.8c0.1,0.8-0.3,1.1-0.4,2.4s-0.4,6.3-1.1,7.6
	S87.8,62.4,88.3,62.5"/>
<path class="st0" d="M87.4,56.5c0.5-0.3,2.2-4.1,2.3-10s0.3-6.5,0.1-7s-0.9-0.6-0.8,0.6s-0.2,9.7-0.7,9.8c-0.4,0.3,0.3-7.3,0.2-10.2
	v-0.1c0,0-0.6-1.4-0.6-0.3s-0.1,5.7-0.2,6.1c-0.4,1.2-0.6,2.5-0.5,3.8c0.2,2,0.3,4,0.1,5.9C87.1,56,87,56.8,87.4,56.5"/>
<path class="st0" d="M87,43.2c0.2-1.5,0.3-2.9,0.3-4.4c0,0-0.8-0.2-0.8,0.5c0,0.5-0.1,2.4-0.2,3.1s-0.1,3.6-0.6,3.6
	s-0.2-1.4-0.1-2.7c0.3-1.4,0.4-2.9,0.2-4.3c0,0-0.6-0.6-0.7-0.1c0,0.8,0,1.6-0.1,2.3c-0.3,0.6-0.4,1.3-0.3,2c0,0.9,0.2,2.4-0.2,3
	s-0.2,1.3-0.4,2.1c-0.1,1.3-0.5,2.5-1.1,3.6c-0.7,1.1,0.8,1.4,2.4-2.7S86.9,44.4,87,43.2"/>
<path class="st0" d="M82.8,39c0,0.7-0.1,4.8-0.4,5.5S82,46.6,81.7,47s-1,2.2-1.4,2.8s-0.3,1.3,0.4,0.8c1.6-1.4,2.7-3.2,3.2-5.3
	c0.3-2.2,0.7-3.7,0.8-4.3s0.3-2.2,0.1-2.4s-0.6-0.2-0.6,0.3c0,1.3-0.2,2.5-0.6,3.8c-0.3,1-0.4,1.4-0.4,0.1s0.3-3.8,0.1-4.4
	C83.3,38.5,82.8,38.4,82.8,39"/>
<path class="st0" d="M80.5,38.3c0,0-0.1,0.6-0.1,2.4c0,2.2-1.2,4.5-2,5.9s0.2,1,0.8,0.6c0.8-0.9,1.6-2,2.1-3.1c0.5-1,1-5.7,1-5.7
	c-0.2-0.2-0.5-0.2-0.7,0c0,0,0,0,0,0c-0.2,0.3-0.4,0.4-0.5,0.1S80.5,38.4,80.5,38.3"/>
<path class="st0" d="M79.6,42.7c0.2-1.4,0.4-2.8,0.4-4.2c0-0.5-0.3-0.9-0.3,0.1s-0.4,0.5-0.6-0.3s-0.5,1.6-0.4,2.5s-0.8,3.1-1.1,4.5
	S79.3,43.5,79.6,42.7"/>
<path class="st0" d="M80,34.5c-0.1,1.1,0,1.5-0.3,1.4s0-1.8-0.3-1.8s-0.3,0.7-0.3,1.1S78.9,37,79.7,37c1.2,0,1-2.2,1-2.6
	S80.2,33.4,80,34.5"/>
<path class="st0" d="M82.5,33.8c-0.3,0-0.4,0.1-0.4,0.7s0.1,1.2-0.2,1.2s-0.2-0.8-0.2-1.4s-0.2-0.5-0.2-0.5s-0.3-0.1-0.3,0.5
	s-0.1,2.6,0.5,2.7s1-0.5,1.1-1.8S82.8,33.8,82.5,33.8"/>
<path class="st0" d="M84,37.4c1.2,0.1,0.9-1.8,1-2.3s0.1-1.6-0.1-1.6s-0.2,0.3-0.2,0.8s-0.1,1.8-0.4,1.8s-0.4-0.6-0.3-1.5
	s0.1-1-0.1-1c0,0-0.4,0-0.4,0.7S82.9,37.3,84,37.4"/>
<path class="st0" d="M87.2,33.3c-0.3-0.1-0.6,0-0.6,0.6s0.1,2.6-0.3,2.6S85.8,36,85.8,35s0.3-1.6,0.1-1.6c0,0-0.6-0.3-0.6,0.7
	s-0.2,3.6,0.7,3.7s1.4-0.9,1.3-2.1S87.6,33.4,87.2,33.3"/>
<path class="st0" d="M88.4,33.1c0,0-0.5-0.1-0.5,0.7s0,2.2,0,2.9s0.1,1.3,0.8,1.4s1.3-1,1.3-2.2s0.3-3-0.2-3.1s-0.4,0.3-0.3,0.8
	s0,3.3-0.6,3.3s-0.7-1.3-0.5-2.6C88.6,32.9,88.4,33.1,88.4,33.1"/>
<path class="st0" d="M88.9,33.6c0,0-0.2-0.1-0.2,0.6s-0.2,2,0.1,2s0.1-0.7,0.2-1.3S89.2,33.5,88.9,33.6"/>
<path class="st0" d="M93.5,32.5c-0.4-0.1-0.6-0.1-0.6,0.7s-0.1,3.3-0.1,3.3s0.1,1-0.7,1s-0.7-0.4-0.7-1.3s0.3-3.3-0.4-3.4
	c0,0-0.5,0-0.5,0.8s0,3.2,0,3.6c0,0.8,0.6,1.5,1.5,1.6c1.2,0.2,1.6-1.5,1.6-3S94,32.6,93.5,32.5"/>
<path class="st0" d="M92.2,33.4c0,0-0.3-0.1-0.3,0.6s-0.2,2.9,0.1,2.9s0.3-0.1,0.3-0.7C92.2,34.4,92.4,33.4,92.2,33.4"/>
<path class="st0" d="M78.5,13.2l0.4-2.6c0.1-0.4,0-0.6-0.6-0.7l-0.7-0.1l-0.6,3.8l0.6,0.1C78.2,13.8,78.4,13.6,78.5,13.2 M77.5,13.4
	l0.3-1.4l0.4,0.1l0.1-0.4h-0.4l0.2-1.5h0.2c0.3,0,0.3,0.1,0.3,0.3l-0.4,2.6c0,0.2-0.1,0.3-0.4,0.2L77.5,13.4"/>
<path class="st0" d="M45.4,32.3c0,0-0.6,0-0.6-0.5v-0.5h1.1c0.4,0.1,0.8-0.2,0.8-0.6s-0.2-0.8-0.6-0.8c-0.1,0-0.2,0-0.2,0h-2.1v0.4
	c0.1,0,0.3,0.1,0.3,0.2c0,0,0,0.1,0,0.1v1.5c0,0.2-0.2,0.3-0.4,0.3v0.3h1.6L45.4,32.3 M45.5,30.2c0.2,0,0.4,0.1,0.4,0.3
	c0,0.2-0.1,0.4-0.3,0.4c0,0-0.1,0-0.1,0h-0.8v-0.7H45.5"/>
<path class="st0" d="M41,48.4h1.6c0.2,0,0.3,0.2,0.3,0.3h0.3v-1.4h-0.3c0,0.3-0.2,0.5-0.4,0.5c0,0-0.1,0-0.1,0h-0.5v-1
	c0-0.4-0.3-0.8-0.8-0.8s-0.8,0.3-0.8,0.8v1.9h0.4C40.7,48.8,40.6,48.5,41,48.4 M40.6,47.2c0-0.2,0.2-0.4,0.4-0.4
	c0.2,0,0.4,0.2,0.4,0.4v0.7h-0.8V47.2"/>
<path class="st0" d="M68.5,60c-0.1,0.1-0.2,0.2-0.4,0.1c0,0-0.1,0-0.1-0.1l-1.3-0.9c-0.1-0.1-0.1-0.3,0-0.5l-0.2-0.2l-1,1.3l0,0
	l-0.4,0.5c-0.3,0.3-0.2,0.8,0.1,1.1c0,0,0,0,0,0c0.3,0.1,0.6,0.1,0.9,0c0,0.2,0.1,0.4,0.3,0.5c0.4,0.2,0.9,0.1,1.1-0.2l0.6-0.8
	l0.1-0.1l0.2-0.2l0.3-0.4L68.5,60 M65.8,60.9c-0.2-0.1-0.2-0.3-0.1-0.5c0,0,0,0,0,0l0.4-0.5c0.1,0,0.2,0,0.3,0.1l0.4,0.3l-0.5,0.6
	C66.3,61,66,61,65.8,60.9 M67.5,61.4c-0.1,0.2-0.4,0.2-0.6,0.1c-0.2-0.1-0.2-0.3-0.1-0.5c0,0,0,0,0,0l0.4-0.5l0.7,0.4L67.5,61.4"/>
<path class="st0" d="M49.3,29.9c-0.8,0.1-1.2,0.9-1.1,1.6c0.1,0.8,0.9,1.2,1.6,1.1c0.6-0.1,1.1-0.7,1.1-1.4
	C50.9,30.5,50.2,29.9,49.3,29.9 M49.4,32.3c-0.3,0-0.7-0.5-0.7-1s0.4-1,0.7-1s0.7,0.5,0.7,1S49.7,32.3,49.4,32.3"/>
<path class="st0" d="M53.7,32.3c0,0-0.6,0-0.6-0.5v-0.5h0.5l0.8,1.2c0.3,0.1,0.7-0.1,0.9-0.3l-0.1-0.2c0,0-0.4,0.2-0.5,0
	s-0.3-0.5-0.4-0.7c0.4,0.1,0.8-0.2,0.8-0.6S54.9,30,54.5,30c-0.1,0-0.2,0-0.2,0h-2.1v0.4c0,0,0.3-0.1,0.3,0.3v1.5
	c0,0.2-0.2,0.3-0.4,0.3v0.3h1.6L53.7,32.3 M53.9,30.3c0.2,0,0.4,0.1,0.4,0.3c0,0.2-0.1,0.4-0.3,0.4c0,0-0.1,0-0.1,0h-0.8v-0.7H53.9"
	/>
<path class="st0" d="M41,43.3h1.6c0.2,0,0.3,0.2,0.3,0.3h0.3v-1.4h-0.3c0,0.3-0.2,0.5-0.4,0.5c0,0-0.1,0-0.1,0h-0.5v-0.4l1.3-0.8
	c0.1-0.3-0.1-0.7-0.3-0.9l-0.2,0.1c0,0,0.2,0.3,0,0.5l-0.7,0.4c0-0.4-0.4-0.7-0.9-0.7c-0.4,0-0.6,0.3-0.7,0.7v1.9h0.4
	C40.8,43.5,40.7,43.2,41,43.3 M40.6,42c0-0.2,0.2-0.4,0.4-0.4c0,0,0,0,0,0c0.2,0,0.4,0.1,0.4,0.4c0,0,0,0,0,0v0.7h-0.8V42"/>
<path class="st0" d="M56,66.1c0,0,0.6,0.1,0.4,0.6l-0.2,0.5l-0.5-0.1l-0.4-1.4c-0.3-0.1-0.7-0.1-1,0.1l0.1,0.2c0,0,0.4-0.1,0.5,0.2
	s0.2,0.6,0.2,0.8c-0.4-0.1-0.8,0.1-1,0.5c-0.1,0.4,0.1,0.8,0.5,0.9c0,0,0,0,0,0l1.5,0.4l0.5,0.1l0.1-0.3c0,0-0.3,0-0.2-0.4
	s0.4-1.4,0.4-1.4c0.1-0.1,0.3-0.2,0.4-0.2l0.1-0.3L56,65.9L56,66.1 M55,67.7c0.1-0.2,0.3-0.3,0.5-0.3l0.7,0.2L56,68.3l-0.7-0.2
	C55.1,68.1,55,67.9,55,67.7C55,67.7,55,67.7,55,67.7"/>
<path class="st0" d="M73,33.2c0,0,0.1,0.3-0.3,0.3h-1.6c-0.2,0-0.3-0.2-0.3-0.3h-0.3v1.5h0.3c0-0.3,0.2-0.5,0.4-0.5c0,0,0.1,0,0.1,0
	h0.5v0.5l-1.3,0.8c-0.1,0.3,0.1,0.7,0.3,0.9L71,36c0,0-0.2-0.3,0-0.5l0.7-0.4c0,0.4,0.4,0.7,0.9,0.7c0.4,0,0.6-0.3,0.7-0.7v-2H73
	 M73.1,34.7c0,0.2-0.2,0.4-0.4,0.4s-0.4-0.2-0.4-0.4V34h0.8V34.7"/>
<polyline class="st0" points="61.4,32.4 61,32.4 62.1,30.9 63.6,32.6 65,31.2 65.8,32.4 65.3,32.4 65.3,32.6 67.3,32.6 67.3,32.4 
	67,32.4 65.7,30.6 65.7,30.5 65.7,30 65.1,30 65.1,30.4 64,31.5 62.7,30 61.3,30 61.3,30.4 61.7,30.4 61.7,30.4 60.2,32.4 60,32.4 
	60,32.6 61.4,32.6 61.4,32.4 "/>
<polyline class="st0" points="69.8,32.2 69.6,32.2 69.6,30.4 69.8,30.4 69.8,30 68.4,30 68.4,30.4 68.7,30.4 68.7,32.2 68.4,32.2 
	68.4,32.6 69.8,32.6 69.8,32.2 "/>
<polyline class="st0" points="40.8,39.8 42.7,39.8 42.7,40 43.1,40 43.1,38.8 42.7,38.8 42.7,39 40.8,39 40.8,38.8 40.3,38.8 
	40.3,40 40.8,40 40.8,39.8 "/>
<polyline class="st0" points="40.8,34.9 43.2,33.4 40.8,31.7 40.8,31.2 40.4,31.2 40.4,32.5 40.8,32.5 40.8,32.1 42.2,33.1 
	40.8,33.9 40.8,33.8 40.4,33.8 40.4,35.2 40.8,35.2 40.8,34.9 "/>
<polyline class="st0" points="40.6,38.2 41.2,38.2 41.2,38 40.9,38 40.9,37.3 42.7,37.3 42.7,37.7 43.1,37.7 43.1,36 42.7,36 
	42.7,36.4 40.9,36.4 40.9,35.7 41.2,35.7 41.2,35.5 40.9,35.5 40.9,35.5 40.3,35.5 40.3,38.2 40.6,38.2 40.6,38.2 "/>
<polyline class="st0" points="40.8,45.5 42.7,45.5 42.7,45.7 43.1,45.7 43.1,44.5 42.7,44.5 42.7,44.7 40.8,44.7 40.8,44.5 
	40.3,44.5 40.3,45.7 40.8,45.7 40.8,45.5 "/>
<path class="st0" d="M65.7,63.2c0,0-0.1-0.1-0.2-0.1l-1.2-1.1c-0.1,0-0.1-0.1-0.1-0.1c0.1-0.1,0.1-0.2,0.2-0.2l-0.2-0.2l-2.1,1.8
	l0.4,0.7l0.3-0.2c-0.1-0.1,0-0.4,0-0.4c0-0.1,0-0.1,0.1-0.1l0.9-0.8l1.2,1.2c0.1,0,0.1,0.1,0.1,0.2c-0.2,0.2-0.3,0.3-0.5,0.4
	l0.3,0.2l1.3-1.2L65.9,63C65.8,63.1,65.7,63.1,65.7,63.2"/>
<path class="st0" d="M45.7,60l1.5-0.8c0,0,0.1,0,0.1,0l0.2,0.2l0.3-0.2L46.2,57l-0.8,0.2l0.2,0.3c0.1,0,0.3,0,0.4,0.1
	c0.1,0,0.1,0,0.1,0.1l0.6,0.9l-1.5,0.9c-0.1,0-0.1,0.1-0.2,0.1c-0.1-0.2-0.3-0.3-0.4-0.5l-0.3,0.2l1,1.4l0.3-0.2
	c-0.1-0.1-0.1-0.2-0.2-0.3C45.5,60.2,45.6,60.1,45.7,60"/>
<path class="st0" d="M47.2,60l0.3,0.3l0.2-0.1h0.1c0,0,0.2,0.2,0.2,0.2l0.5,0.6l-0.7,0.5l-0.7-0.8L46.9,61l0.7,0.8L47,62.2l-0.6-0.7
	l0,0c0,0,0-0.1,0-0.1c0,0,0,0,0-0.1l0.1-0.2l-0.2-0.3l-0.5,0.6l1.6,1.8l0.3-0.2l-0.1-0.1c0,0,0-0.1,0-0.1l0.1-0.1l1.5-1.2
	c0,0,0.1,0,0.1,0c0.1,0.1,0.1,0.1,0.2,0.2l0.3-0.2L48,59.6L47.2,60"/>
<path class="st0" d="M42.6,54.8l1.8-0.5c0.1,0,0.1,0,0.1,0c0,0.1,0.1,0.2,0.1,0.2l0.3-0.1l-0.8-2.3l-0.8,0.1l0.1,0.4h0.2
	c0,0,0.1,0,0.1,0c0.1,0.1,0.1,0.2,0.2,0.3l0.3,0.7l-0.9,0.3l-0.3-1l-0.4,0.1l0.3,1l-0.7,0.2L42,53.3l0,0c0,0,0-0.1,0-0.1
	c0,0,0,0,0.1-0.1l0.2-0.1l-0.1-0.3L41.5,53l0.8,2.2l0.3-0.1L42.5,55c0,0,0-0.1,0-0.1c0,0,0,0,0.1,0"/>
<path class="st0" d="M41.7,52c0.3,0,0.6-0.3,0.7-0.9c0-0.2,0.1-0.4,0.1-0.5c0-0.2,0.1-0.3,0.2-0.5C42.8,50,42.9,50,43,50
	c0.1,0,0.2,0,0.2,0.1c0.1,0.1,0.1,0.2,0.1,0.3c0,0.2,0,0.4,0,0.6c-0.2,0.2-0.4,0.3-0.6,0.4l0.2,0.5c0.3-0.1,0.5-0.2,0.8-0.3
	c0.1-0.3,0.1-0.7,0.1-1c0-0.4-0.2-0.8-0.4-1.1c-0.1-0.2-0.4-0.4-0.7-0.3c-0.2,0-0.4,0.1-0.5,0.3c-0.1,0.2-0.2,0.5-0.3,0.7
	c0,0.1,0,0.2-0.1,0.5c0,0.2-0.1,0.3-0.2,0.5c0,0,0,0.1-0.1,0.1c-0.1,0-0.3-0.1-0.3-0.4c0-0.3,0-0.6,0-0.9c0.2-0.1,0.3-0.2,0.5-0.3
	l-0.1-0.4c-0.3,0.1-0.5,0.2-0.8,0.2c-0.1,0.7-0.1,1.4,0.3,2.1C41.3,51.8,41.5,52,41.7,52"/>
<path class="st0" d="M72.5,41.2C72.7,41.2,72.6,41.2,72.5,41.2c0.1,0.1,0.2,0.1,0.2,0.1c0,0.1,0,0.1,0,0.2v1l-2-1.7
	c0,0-0.3-0.3-0.3,0.2v2.6l0.8,0.2v-0.5c-0.2-0.1-0.1-0.1-0.2-0.2S71,43,71,42.9v-0.8l2,1.6c0,0,0.3,0.2,0.3-0.2v-2.6l-0.8-0.2
	L72.5,41.2"/>
<path class="st0" d="M71,36.6c0,0,0-0.1,0-0.2h-0.5v1.1H71v-0.2l0,0l0.5,0.2v1.2L71,38.8c0,0,0-0.5,0-0.5h-0.5v1.7H71
	c0-0.1,0-0.2,0-0.2c0,0,0.1-0.1,0.1-0.1l2.2-1.2v-0.8L71,36.6C71,36.6,71,36.6,71,36.6 M71.9,37.7l0.6,0.3l-0.6,0.3V37.7"/>
<path class="st0" d="M71,44.4c0,0,0-0.1,0-0.2h-0.5v1.1H71V45l0,0l0.5,0.2v1.2L71,46.6c0,0,0-0.4,0-0.5h-0.5v1.8H71
	c0-0.1,0-0.2,0-0.2c0,0,0.1-0.1,0.1-0.1l2.2-1.2v-0.8L71,44.4C71,44.5,70.9,44.4,71,44.4 M71.8,45.5l0.6,0.3l-0.6,0.3V45.5"/>
<path class="st0" d="M61.8,64.1l-0.3-0.4l-1,0.6l0.3,0.4l0.2-0.1l0,0V65l-1,0.6l-0.5-0.2l0.4-0.2l-0.2-0.4l-1.6,0.9l0.3,0.4l0.2-0.1
	c0.1,0,0.1,0,0.2,0l2.3,1.1l0.7-0.4l-0.2-2.4c0,0,0-0.1,0-0.1C61.6,64.1,61.7,64.1,61.8,64.1 M60.4,65.8l0.6-0.3l0.1,0.6L60.4,65.8"
	/>
<path class="st0" d="M53.4,64.5l-0.3,0.4l0.2,0.1l0,0l-0.5,0.2l-1-0.7c0-0.4,0.1-0.5,0.1-0.5l0.4,0.3l0.3-0.4L51,63l-0.3,0.4
	c0.1,0,0.1,0.1,0.2,0.2c0,0,0,0.1,0,0.2L50.8,66l0.7,0.4l2.3-1c0,0,0.1,0,0.1,0c0.1,0,0.1,0.1,0.2,0.1l0.3-0.4L53.4,64.5 M51.7,65.7
	l0.1-0.7l0.5,0.4L51.7,65.7"/>
<path class="st0" d="M69,55.1l0.1-0.2l-0.4-0.2l-0.5,1l0.4,0.2l0.1-0.2l0,0l0.3,0.4l-0.5,1c-0.2,0-0.4,0-0.6,0l0.2-0.4l-0.4-0.2
	L67,58.1l0.4,0.2c0-0.1,0.1-0.2,0.1-0.2c0.1,0,0.1,0,0.2,0l2.6-0.3l0.3-0.7L69,55.1C69,55.1,69,55.1,69,55.1 M69.7,56.9L69,57
	l0.3-0.6L69.7,56.9"/>
<path class="st0" d="M72.3,51.4C72.3,51.4,72.3,51.5,72.3,51.4c-0.1,0.1-0.1,0.1-0.2,0.1L70.3,51c-0.1,0-0.1,0-0.1-0.1
	c0-0.1,0-0.2,0.1-0.3l-0.3,0l-0.4,1.3L70,52c0-0.1,0-0.1,0-0.2c0,0,0-0.1,0-0.1c0,0,0,0,0.1,0l0.7,0.2l-0.3,1.1l-0.7-0.2
	c-0.1,0-0.1,0-0.1,0c0-0.1,0-0.2,0-0.2l-0.3-0.1L69,53.8l0.3,0.1l0.1-0.2c0,0,0-0.1,0-0.1h0.1l1.7,0.4c0.1,0,0.1,0,0.2,0.1
	c0,0.1,0,0.2-0.1,0.3l0.4,0.1l0.4-1.3l-0.4-0.1v0.2c0,0,0,0,0,0.1c-0.1,0-0.1,0-0.2,0l-0.6-0.1l0.3-1.1l0.6,0.1c0.1,0,0.1,0,0.2,0.1
	c0,0.1,0,0.2,0,0.2l0.4,0.1l0.4-1.3l-0.4-0.1L72.3,51.4"/>
<rect x="16.3" y="87.8" class="st0" width="25.7" height="1.4"/>
<rect x="67" y="87.8" class="st0" width="27.1" height="1.4"/>
<path class="st0" d="M14.6,101.8h0.5c0.2,0,0.4-0.2,0.4-0.4V95c0-0.2-0.2-0.4-0.4-0.4h-0.5v-0.8h6.9v2.4h-0.9l-0.2-1.5H17v3h1.8
	l0.1-1.1h0.9v3h-0.9l-0.1-1.1H17v3.2h3.6l0.1-1.6h1v2.5h-7.1V101.8z"/>
<path class="st0" d="M23.4,101.8H24c0.2,0,0.4-0.2,0.4-0.4V95c0-0.2-0.2-0.4-0.4-0.4h-0.5v-0.8H26l4,6.5l0,0v-5.7h-1v-0.8h3.2v0.8
	h-0.5c-0.2,0-0.4,0.2-0.4,0.4v7.7h-1.3l-4.4-7h0v6.2h1.2v0.8h-3.2V101.8z"/>
<path class="st0" d="M33.6,101.8h0.5c0.2,0,0.4-0.2,0.4-0.4V95c0-0.2-0.2-0.4-0.4-0.4h-0.5v-0.8h6.9v2.4h-0.9l-0.2-1.5H36v3h1.8
	l0.1-1.1h0.9v3h-0.9l-0.1-1.1H36v3.2h3.6l0.2-1.6h1v2.5h-7.1V101.8z"/>
<path class="st0" d="M43.5,102.3c-0.1,0-0.2,0.1-0.2,0.3h-1V100h1l0.1,1.1c0.5,0.5,1.2,0.7,1.9,0.7c1,0,1.7-0.5,1.7-1.5
	c0-1.2-0.9-1.3-2.2-1.7c-1.6-0.4-2.4-1.1-2.4-2.6s1.2-2.4,2.8-2.4c0.6,0,1.2,0.1,1.7,0.4c0.1,0,0.2-0.2,0.2-0.3h0.9v2.4h-1L47,95.2
	c-0.4-0.4-1-0.7-1.6-0.6c-0.9,0-1.6,0.4-1.6,1.3s0.8,1.2,2,1.6c1.7,0.5,2.6,1,2.6,2.7s-1,2.6-3,2.6
	C44.7,102.8,44.1,102.6,43.5,102.3z"/>
<path class="st0" d="M53.9,99.4V95c0-0.2-0.2-0.4-0.4-0.4h-0.5v-0.8h3.5v0.8h-1.1v4.9c0,1.8,0.9,2.2,2.2,2.2s2.2-0.4,2.2-2.2v-5
	h-1.1v-0.8h3.1v0.8h-0.5c-0.2,0-0.4,0.2-0.4,0.4v4.4c0,2.3-1.2,3.3-3.4,3.3S53.9,101.7,53.9,99.4z"/>
<path class="st0" d="M63,101.8h0.5c0.2,0,0.4-0.2,0.4-0.4V95c0-0.2-0.2-0.4-0.4-0.4H63v-0.8h2.5l4.1,6.6l0,0v-5.7h-1.1v-0.8h3.2v0.8
	h-0.5c-0.2,0-0.4,0.2-0.4,0.4v7.7h-1.3l-4.4-7l0,0v6.2h1.2v0.8H63V101.8z"/>
<path class="st0" d="M78.5,99.8H75l-0.3,1c-0.2,0.6-0.2,1,0.4,1h0.6v0.8h-3.2v-0.8h0.3c0.3,0,0.5-0.2,0.6-0.4l2.3-6.4
	c0.1-0.2,0-0.4-0.3-0.4h-0.7v-0.8H78l2.6,7.7c0.1,0.2,0.3,0.4,0.5,0.4h0.3v0.8H78v-0.8h1.3L78.5,99.8z M75.3,99h2.9l-1.4-4.2h-0.1
	L75.3,99z"/>
<path class="st0" d="M82.7,101.8h0.5c0.2,0,0.4-0.2,0.4-0.4V95c0-0.2-0.2-0.4-0.4-0.4h-0.5v-0.8H86l2.1,6.7l0,0l2.1-6.7h3.2v0.8H93
	c-0.2,0-0.4,0.2-0.4,0.4v6.5c0,0.2,0.2,0.4,0.4,0.4h0.5v0.8h-3.5v-0.8h1v-7.2H91l-2.6,8h-1l-2.5-8h-0.1v7.2h1v0.8h-3.1V101.8z"/>
<path class="st0" d="M25.1,110v-3.4h0.7v3.4c0.2,0.9-0.5,1.8-1.4,2c-0.2,0-0.4,0-0.5,0c-1,0.1-1.9-0.6-2-1.6c0-0.1,0-0.2,0-0.4v-3.3
	h0.8v3.3c0,1,0.5,1.3,1.3,1.3S25.1,111.1,25.1,110z"/>
<path class="st0" d="M28.7,106.7h0.9l2.3,3.9l0,0v-3.9h0.7v5.3h-0.8l-2.5-4.2l0,0v4.2h-0.7V106.7z"/>
<path class="st0" d="M35.5,112v-5.3h0.8v5.3H35.5z"/>
<path class="st0" d="M39.2,106.7h1.5c1.3-0.2,2.4,0.7,2.6,1.9c0,0.2,0,0.5,0,0.7c0.2,1.3-0.6,2.5-1.9,2.7c-0.2,0-0.5,0-0.7,0h-1.5
	V106.7z M40.7,111.3c1.2,0,1.8-0.6,1.8-2s-0.6-2-1.8-2H40v4H40.7z"/>
<path class="st0" d="M45.3,111.7l1.7-5H48l1.7,5v0.3H49l-0.5-1.5h-2L46,112h-0.7L45.3,111.7z M46.7,109.9h1.5l-0.8-2.3l0,0
	L46.7,109.9z"/>
<path class="st0" d="M52.1,106.7h1.5c1.3-0.2,2.4,0.7,2.6,1.9c0,0.2,0,0.5,0,0.7c0.2,1.3-0.6,2.5-1.9,2.7c-0.2,0-0.5,0-0.7,0h-1.5
	V106.7z M53.6,111.3c1.2,0,1.8-0.6,1.8-2s-0.6-2-1.8-2h-0.7v4H53.6z"/>
<path class="st0" d="M62.6,112v-5.3h0.8v4.7h2.3v0.6H62.6z"/>
<path class="st0" d="M68.2,106.7h3.2v0.6H69v1.7h1.8v0.6H69v1.8h2.5v0.6h-3.3V106.7z"/>
<path class="st0" d="M73.5,109.3c0.2-1.3,1.4-2.3,2.7-2.1c1.3,0.2,2.3,1.4,2.1,2.7c-0.1,1.2-1.2,2.1-2.4,2.1c-1.3,0-2.4-1.1-2.4-2.4
	C73.5,109.5,73.5,109.4,73.5,109.3z M77.5,109.3c0-1.4-0.7-2.1-1.5-2.1s-1.6,0.7-1.6,2.1s0.7,2.1,1.6,2.1S77.5,110.7,77.5,109.3
	L77.5,109.3z M75.7,106.3l0.3-0.7h0.8v0.2l-0.7,0.7h-0.4V106.3z"/>
<path class="st0" d="M80.9,106.7h0.9l2.3,3.9l0,0v-3.9h0.7v5.3h-0.8l-2.5-4.2l0,0v4.2h-0.7L80.9,106.7z"/>
</svg>
