<svg id="Capa_1" data-name="Capa 1" xmlns="http://www.w3.org/2000/svg" viewBox="0 0 110 118"><defs><style>.cls-1{fill:#1a1f43;}.cls-2{fill:#c99b1d;}</style></defs><title>enes-leon-alterno</title><path class="cls-1" d="M74.42,45.63V28.94a.09.09,0,0,0-.1-.08h-35a.09.09,0,0,0-.1.08V45.63a.05.05,0,0,0,0,0,27.9,27.9,0,0,0,5.19,15.75A22.35,22.35,0,0,0,56.8,70.11a0,0,0,0,0,.05,0,22.35,22.35,0,0,0,12.36-8.69A27.9,27.9,0,0,0,74.4,45.67a.05.05,0,0,0,0,0m-.72-.1s0,.06,0,.09c-.29,11.46-7.22,21.25-16.87,23.82C47.18,66.87,40.25,57.08,40,45.62c0,0,0-.06,0-.09v-16H73.7v16"/><path class="cls-1" d="M56.79,65.5a.09.09,0,0,0,.07,0c7.48-2.58,12.87-10.79,13.11-20a.81.81,0,0,1,0-.17V33.22a.1.1,0,0,0-.1-.09H43.77a.1.1,0,0,0-.1.09V45.33c0,.05,0,.1,0,.18.23,9.2,5.62,17.41,13.1,20m0-.69C49.74,62.24,44.63,54.31,44.4,45.5c0-.09,0-.15,0-.2V34.06a2.51,2.51,0,0,0,.23.39c.2.28.65,1.06.65,1.06s0,.36-.11.4.21.25.31.38.34.55.55.6.24-.18.09-.41-.42-.82-.42-.82a4.48,4.48,0,0,0-.22-.65c-.15-.33-.31-.74-.31-.74s.83.19.94.61a14.52,14.52,0,0,0,.56,1.87,3.87,3.87,0,0,0,.65,1,3.11,3.11,0,0,0,1.55,1c.7.18,1.5-.23,1.85,0a8,8,0,0,0,1.44,1c.45.14,1.65.37,1.9.83s.85.51,1.15.55,1.3.41,1.3,1.24l-.8,1.52A2.73,2.73,0,0,0,55,45c-.1.55-.4.87.2,1.7a5.42,5.42,0,0,1,1,2.57c0,.73.8.83,1.3,1.15s0,.64-.31,1.33-.14,2.11-.45,3-.64,1.25-.64,2a5.17,5.17,0,0,1-.25,2.16,5,5,0,0,0-.15,1.93,3,3,0,0,0,.65,2.11c.5.6,1.65.88,1.5,0a3.29,3.29,0,0,1,.65-2.71l.59-.6a1.38,1.38,0,0,1,.5-1.24c.6-.37,1-.65.65-.79s0-.45.35-.45.5.14,1.3-.74a5.37,5.37,0,0,1,1.84-1.47c.8-.41,1.1-1.24,1.6-1.7a4.51,4.51,0,0,1,2-1,1.11,1.11,0,0,0,.85-1.2c0-.59-.2-1,.25-1.65s.18-.76.58-1.09c-1.11,7.64-5.86,14.22-12.19,16.51M69.26,45.3a1.64,1.64,0,0,1,0,.2c0,.36,0,.73-.06,1.09-.37-.34-1-.56-1.31-.92a4.19,4.19,0,0,0-1.15-.79,1,1,0,0,0-.85-.18c-.55.09-1,0-1.1-.5s0-1-.59-1.29a9.43,9.43,0,0,1-1.3-.87c-.4-.28-.8-.79-1-.83a8.68,8.68,0,0,0-1.2,0,1.88,1.88,0,0,0-1.5-.32s-.55-.78-1.15-.36-1.1.68-1.44.27-.95-.23-1.35-.18-.75-.6-.85-.88,0-.69-.15-.69-.75.19-1.15-.09-.2-.55,0-.78a2.6,2.6,0,0,0,.25-1.33l-.45,0s-.55-.09-.65.28a1.21,1.21,0,0,1-1.34.59,1.55,1.55,0,0,1-1.15-1,1.42,1.42,0,0,1,0-1.1c.1-.28-.34-.77-.5-.91s-.15.09-.45-.38a2.83,2.83,0,0,0-.56-.58H69.26V45.3"/><path class="cls-1" d="M47.14,15.64a1.57,1.57,0,0,0-1.7.14.82.82,0,0,1-.31.26,2.13,2.13,0,0,0-1.56.47,1,1,0,0,0,0,1c.59,1.49.66,1.75.66,1.76l0,.05s1.07,1,.62,1.85-.4,1.22.18,1.5.68.49.68,1.45v.08c0,.67,0,1.25.34,1.58a1.07,1.07,0,0,0,.75.23.72.72,0,0,0,.58-.26,3.22,3.22,0,0,0,.18-2.42c-.12-.51-.42-1.71,0-2s.69-.4.94-.15a.11.11,0,0,0,.08,0c.22,0,.63-.17.6-.59a1.35,1.35,0,0,0-.1-.4h0l.18,0a.75.75,0,0,0,.74-.2.6.6,0,0,0,.07-.67,9,9,0,0,0-1.47-2l-.16-.14c-.32-.26-.32-.26-.3-.52,0-.42-.31-.81-1-1.1m1.37,4.82,0,.1a1.5,1.5,0,0,0-1.35.35c-.69.47-.49,1.58-.24,2.59a2.94,2.94,0,0,1-.07,1.95.12.12,0,0,1-.1,0,.58.58,0,0,1-.32-.07c-.17-.16-.17-.7-.17-1.18v-.08c0-1.08-.25-1.59-1-1.95l-.17-.09a1.93,1.93,0,0,1,.26-.67,2.17,2.17,0,0,0-.65-2.4c-.07-.21-.24-.69-.65-1.69-.09-.24-.1-.42,0-.51s.76-.26,1-.25h.14a1.33,1.33,0,0,0,.67-.46,1,1,0,0,1,1,0c.52.24.65.46.64.55,0,.51.09.64.49,1l.16.13a8.22,8.22,0,0,1,1.33,1.84s0,.06,0,.07a.17.17,0,0,1-.12,0,.79.79,0,0,0-.82.11.54.54,0,0,0-.06.62"/><path class="cls-1" d="M45.89,17.72a.49.49,0,1,0,0,1,.49.49,0,1,0,0-1"/><path class="cls-1" d="M40.31,17.94c-.1,0-2.38.58-2.38,2a1.5,1.5,0,0,0,1.49,1.47.12.12,0,0,0,.1-.05.08.08,0,0,0,0-.1.79.79,0,0,1-.26-.6c0-.19.25-.31.48-.44s.58-.31.53-.63a4,4,0,0,1,.18-1.5.1.1,0,0,0,0-.09.12.12,0,0,0-.1,0M38.67,20.4a.91.91,0,0,1-.13-.49c0-.51.57-.88,1.1-1.12a4.12,4.12,0,0,0,0,.78,2,2,0,0,1-.22.14,1.41,1.41,0,0,0-.74.69"/><path class="cls-1" d="M41.55,20.37c-.95.47-1.58.84-1.59.84a.08.08,0,0,0,0,.09s0,.06.07.08a24.79,24.79,0,0,0,3.42.52,1.44,1.44,0,0,0,1-.73,1.61,1.61,0,0,0-.37-1.62c-.76-1.39-1.22-2.4-1.23-2.41a.1.1,0,0,0-.11-.06s-2.47.54-2.11,2.7a.1.1,0,0,0,.09.08h.87c.14,0,.33.12.35.2s0,.14-.38.31m1-.38c-.07-.47-.64-.65-.82-.69H41.2a1.8,1.8,0,0,1,1.27-1.53c.19.41.56,1.14,1.06,2l0,.05c.23.32.47.77.32,1.1a.86.86,0,0,1-.57.4,15.52,15.52,0,0,1-1.88-.27l.41-.21c.19-.09.76-.37.7-.88"/><path class="cls-1" d="M45.78,26.18A.25.25,0,0,0,45.6,26L45,25.72l0,0a.75.75,0,0,0-.63.22l-2.63,1.76c-.07.05-.29.23-.24.39s.07.13.23.16c.39.06,1.55.19,1.6.19a1.34,1.34,0,0,0,.83-.22c.22-.22,1.41-1.51,1.46-1.56s.21-.27.16-.46m-2.07,1.63a.9.9,0,0,1-.34.05l-.73-.08,2.09-1.4.07-.05a.15.15,0,0,1,.07,0l.19.09c-.44.48-1.18,1.27-1.35,1.44"/><path class="cls-1" d="M44.69,28.51c.41,0,1,.1,1,.1s.42.05.7-.43l.7-1.22a.42.42,0,0,0,.08-.36c0-.07-.09-.16-.27-.19l-.51-.12a.55.55,0,0,0-.62.15c-.16.23-1.28,1.48-1.29,1.49s-.2.24-.13.41a.35.35,0,0,0,.3.17m1.09-.46L45.25,28c.3-.34.81-.91,1-1.17l.22.05-.59,1a.49.49,0,0,1-.11.14"/><path class="cls-1" d="M47.35,28.64h.83a.53.53,0,0,0,.53-.57V26.74a.09.09,0,0,0,0,0,.64.64,0,0,0-.53-.21,5,5,0,0,1-.51,0,.43.43,0,0,0-.41.31C47.17,27,46.7,28,46.7,28a.46.46,0,0,0,0,.44.74.74,0,0,0,.64.22m.75-.57h-.77c.11-.24.37-.76.47-1h.3v1"/><path class="cls-1" d="M51.2,28.54l.74-.06a.27.27,0,0,0,.21-.1.38.38,0,0,0,0-.4C52,27.6,51.06,25.91,51,25.84a0,0,0,0,0,0,0s-.18-.21-.38-.15h0l-.49.27a.35.35,0,0,0-.16.48c.13.32.62,1.8.63,1.81h0c0,.12.18.35.62.31m-.59-2.2L51.45,28l-.3,0h0c-.1-.31-.4-1.22-.56-1.62l0,0"/><path class="cls-1" d="M49.16,28.65l1.05,0a.34.34,0,0,0,.26-.12.34.34,0,0,0,0-.34l-.62-1.72h0a.38.38,0,0,0-.46-.19,5.09,5.09,0,0,1-.5.14s0,0,0,0-.13.09-.14.32.08,1.52.08,1.58.09.37.34.36m.26-.58c0-.46-.05-1-.06-1.22h0l.44,1.21h-.38"/><path class="cls-1" d="M52.75,28.41l.8-.11a.49.49,0,0,0,.38-.19c.09-.13.07-.33-.07-.58-.35-.62-1.63-2.46-1.71-2.58a.31.31,0,0,0-.22-.16.33.33,0,0,0-.28.1l-.48.41a.44.44,0,0,0-.12.56l1.18,2.26h0a.5.5,0,0,0,.52.29m-1.12-2.74.18-.15c.35.5,1.2,1.75,1.48,2.24l-.53.08c-.14-.28-.93-1.78-1.13-2.17"/><path class="cls-1" d="M36.83,48.38c-1.33-.57-2.58-.1-2.58,1,0,2.5,5.58,2.13,4.66-2.2-.52-2.48-2.16-5.66-2.56-10.33s2.31-6.17,2.31-6.17V29.47c-4.29,1.93-3.45,10.4-2.17,14.35s.34,4.56.34,4.56"/><path class="cls-1" d="M79.47,49.36c0-1.08-1.25-1.55-2.57-1,0,0-1-.61.34-4.56s2.12-12.42-2.17-14.35v1.19s2.71,1.51,2.31,6.17-2,7.85-2.57,10.33c-.91,4.33,4.66,4.7,4.66,2.2"/><path class="cls-1" d="M35.14,51.92l-2.62,2c-3-2.16-4.38.4-4.38.4a4.72,4.72,0,0,1,2,.09c-2.35.59-1.77,2-1.77,2s2.41-1.33,3.42.2A2.7,2.7,0,0,1,31.51,60c4,0,2.67-4.92,2.67-4.92l3.52-3.19H35.14"/><path class="cls-1" d="M85,54.28s-1.34-2.56-4.39-.4l-2.61-2H75.45L79,55.11S77.65,60,81.65,60a2.7,2.7,0,0,1-.32-3.49c1-1.53,3.42-.2,3.42-.2s.59-1.38-1.76-2a4.63,4.63,0,0,1,2-.09"/><path class="cls-1" d="M38.57,33.46l0-1.95a1.42,1.42,0,0,1-.8.87c-.38.21-.19.46-.19.46a.86.86,0,0,1,1,.62"/><path class="cls-1" d="M38.12,38.53c.15,1.33.53.84.53.84s-.11-2.2-.15-2.62-1.45-.2-1.48.25a23.13,23.13,0,0,0,.26,2.34l.42-.07-.08-1.65s.35-.42.5.91"/><path class="cls-1" d="M38.43,43.11c.35.44.39-1.75.28-2.17,0,0-1.07-.3-1,.22a4.44,4.44,0,0,0,.68,2"/><path class="cls-1" d="M37.07,34.64c0,.43,1.43.26,1.43.26v-.7s-1.43-.21-1.43.44"/><path class="cls-1" d="M38.5,36v-.69s-1.43-.22-1.43.43c0,.43,1.43.26,1.43.26"/><path class="cls-1" d="M42.43,60.09a.42.42,0,0,0-.44-.4.41.41,0,1,0,0,.81.43.43,0,0,0,.44-.41"/><path class="cls-1" d="M76.23,55.65a.41.41,0,1,0,.45.4.42.42,0,0,0-.45-.4"/><path class="cls-1" d="M75.19,56.25a.44.44,0,0,0-.88,0,.44.44,0,0,0,.88,0"/><path class="cls-1" d="M73.85,56.45a.45.45,0,1,0-.45.4.43.43,0,0,0,.45-.4"/><path class="cls-1" d="M37.88,63.62l.23-2.44s-.23-.49-1-.13L37,62.9s-.46.7-1.43-.08l.14-1.9a.76.76,0,0,0-.94-.12l-.16,2.5a2.45,2.45,0,0,0,3.3.32"/><path class="cls-1" d="M36.31,62.62a.25.25,0,0,0,.28-.23l.06-.8a.28.28,0,0,0-.55,0l-.05.8a.25.25,0,0,0,.26.26"/><path class="cls-1" d="M41.61,64.13l.22-2.34s-.22-.46-1-.12l-.13,1.77s-.44.67-1.36-.08l.13-1.81a.72.72,0,0,0-.89-.12l-.16,2.4a2.35,2.35,0,0,0,3.16.3"/><path class="cls-1" d="M40.1,63.18a.26.26,0,0,0,.28-.23l0-.76a.27.27,0,0,0-.25-.26.26.26,0,0,0-.28.23l0,.76a.26.26,0,0,0,.25.26"/><path class="cls-1" d="M44.93,64.38,45,63.15s-.12-.62-.76-.18l-.09.54s-.36.43-.3-.33l.06-.76s-.2-.24-.41.09l0,1s-.18.16-.5,0l.12-1.38s-.21-.56-.83-.13l-.11,2.14s.91,1.49,2.76.3"/><path class="cls-1" d="M36.34,59.2a.45.45,0,0,0-.89,0,.45.45,0,0,0,.89,0"/><path class="cls-1" d="M38.51,59.5a.42.42,0,0,0-.43-.41.41.41,0,1,0,0,.81.42.42,0,0,0,.43-.4"/><path class="cls-1" d="M40.25,59.77a.44.44,0,0,0-.88,0,.44.44,0,0,0,.88,0"/><path class="cls-1" d="M38.1,52.72l0,1.44,1,.79s.53-1.79-1-2.23"/><path class="cls-1" d="M39.57,56.46c-.11.14-.32.41-.44-.08s-.56-.43-.79-.43-.56.89-.77.27-.32-.95-1.15-.81V56.9l4.09.84s0-1-.17-1.17-.65-.24-.77-.11"/><path class="cls-1" d="M40.67,58.39a28.43,28.43,0,0,0-4.16-.87l0,.6,4.27.92s.15-.14-.08-.65"/><path class="cls-1" d="M78.8,63.3l-.16-2.5a.76.76,0,0,0-.94.12l.14,1.9c-1,.78-1.42.08-1.42.08l-.14-1.85c-.78-.36-1,.13-1,.13l.23,2.44a2.44,2.44,0,0,0,3.3-.32"/><path class="cls-1" d="M76.79,62.39a.28.28,0,0,0,.55,0l0-.8a.28.28,0,0,0-.3-.24.26.26,0,0,0-.25.27l.05.8"/><path class="cls-1" d="M74.93,63.83l-.16-2.4a.72.72,0,0,0-.89.12L74,63.36c-.92.75-1.35.08-1.35.08l-.14-1.77c-.74-.34-1,.12-1,.12l.22,2.34a2.34,2.34,0,0,0,3.15-.3"/><path class="cls-1" d="M73.2,61.93a.27.27,0,0,0-.25.26L73,63a.26.26,0,0,0,.52,0l0-.76a.25.25,0,0,0-.28-.23"/><path class="cls-1" d="M69.22,63.51,69.13,63c-.65-.44-.77.18-.77.18l.09,1.23c1.86,1.19,2.77-.3,2.77-.3l-.12-2.14c-.62-.43-.82.13-.82.13l.11,1.38c-.32.19-.5,0-.5,0l0-1c-.2-.33-.41-.09-.41-.09l.06.76c.06.76-.29.33-.29.33"/><path class="cls-1" d="M24.45,16.14c.3-.11.57-.35.4-.74l-1.33-3.1-.36.13,1.29,3c.11.26.06.37-.12.44s-.3,0-.42-.24l-1.28-3-.36.13,1.33,3.1a.61.61,0,0,0,.85.29"/><polyline class="cls-1" points="25.99 15.61 24.92 12.32 24.93 12.32 26.46 15.48 26.98 15.34 25.79 11.64 25.46 11.73 26.49 14.89 26.48 14.9 25 11.86 24.47 12 25.67 15.7 25.99 15.61"/><polyline class="cls-1" points="28.02 15.1 26.98 11.36 26.62 11.44 27.64 15.18 28.02 15.1"/><polyline class="cls-1" points="29.48 14.78 29.04 10.91 28.66 11 29.13 14.49 29.12 14.49 27.91 11.15 27.54 11.22 28.94 14.89 29.48 14.78"/><polyline class="cls-1" points="31.4 14.42 31.34 14.12 30.72 14.23 30.39 12.71 30.99 12.6 30.92 12.31 30.33 12.41 30.04 11.04 30.66 10.93 30.59 10.63 29.59 10.81 30.41 14.6 31.4 14.42"/><path class="cls-1" d="M32.38,14.25,32,12.43l.25,0c.18,0,.31,0,.35.19l.29,1.59.38-.06L33,12.47c0-.26-.23-.31-.5-.27v0c.28-.06.39-.18.33-.47l-.18-1c-.07-.37-.31-.4-.67-.34l-.7.11.72,3.8.37-.06m-.66-3.5.22,0c.19,0,.32,0,.37.21l.15.85c0,.23,0,.29-.23.32l-.24,0-.27-1.38"/><path class="cls-1" d="M33.49,11.18a.89.89,0,0,0,.24.47l.7.81a.61.61,0,0,1,.17.35l.09.53c0,.18,0,.3-.18.32s-.26-.07-.29-.25l-.08-.51-.38.06.09.52c.06.39.29.53.71.48a.53.53,0,0,0,.51-.65L35,12.7a.9.9,0,0,0-.21-.44L34,11.4a.73.73,0,0,1-.13-.34l-.07-.4c0-.14,0-.26.17-.29s.24.08.26.23l.08.47.38-.05-.08-.49c-.06-.35-.26-.51-.68-.45s-.57.27-.51.64l.08.46"/><polyline class="cls-1" points="36.15 13.71 35.57 9.89 35.2 9.94 35.77 13.76 36.15 13.71"/><path class="cls-1" d="M37.54,13.54c.52-.06.62-.32.56-.7l-.35-2.58c0-.38-.21-.61-.73-.55l-.65.08.52,3.83.65-.08M37,10c.25,0,.35,0,.38.26l.36,2.64c0,.22,0,.3-.3.33l-.2,0L36.79,10l.2,0"/><path class="cls-1" d="M39.07,12.3l.68-.07.28,1,.38,0L39.34,9.47l-.52,0-.16,3.89.38,0,0-1.07m0-2.54h0l.55,2.18-.59.06,0-2.24"/><path class="cls-1" d="M41.59,13.13c.52,0,.62-.3.59-.68l-.27-2.6c0-.37-.19-.6-.71-.56l-.66.06.4,3.84.65-.06M41.16,9.6c.25,0,.34,0,.37.26l.27,2.65c0,.23,0,.31-.31.33l-.2,0L41,9.61h.2"/><polyline class="cls-1" points="44.24 12.92 43.97 9.5 43.98 9.5 44.73 12.89 45.28 12.85 44.97 9.01 44.63 9.03 44.9 12.32 44.89 12.32 44.15 9.06 43.6 9.1 43.91 12.95 44.24 12.92"/><path class="cls-1" d="M46.25,11.72l.67,0,.23,1.05.38,0-.87-3.81-.52,0-.36,3.88.39,0,.08-1.08m.16-2.53h0l.44,2.2-.59,0,.14-2.23"/><path class="cls-1" d="M48.6,12.7c.39,0,.58-.23.56-.56l0-.55-.38,0,0,.54c0,.16-.05.25-.2.26s-.22-.08-.23-.24L48.2,9.34c0-.16,0-.25.2-.25s.22.07.22.23l0,.5.39,0,0-.51a.52.52,0,0,0-.62-.5c-.4,0-.59.23-.57.56L48,12.2c0,.32.23.52.63.5"/><polyline class="cls-1" points="50.13 12.61 49.96 8.75 49.58 8.77 49.75 12.63 50.13 12.61"/><path class="cls-1" d="M51.54,12.6c.52,0,.66-.29.65-.67L52.1,9.31c0-.38-.18-.65-.7-.63s-.66.29-.64.67L50.84,12a.59.59,0,0,0,.7.64M51.42,9c.24,0,.29.14.3.35l.09,2.6c0,.21,0,.36-.28.37s-.29-.15-.3-.36l-.09-2.59c0-.22,0-.36.28-.37"/><polyline class="cls-1" points="53.26 12.52 53.19 9.09 53.2 9.09 53.76 12.51 54.3 12.51 54.22 8.65 53.88 8.65 53.95 11.95 53.94 11.95 53.4 8.66 52.85 8.67 52.92 12.53 53.26 12.52"/><path class="cls-1" d="M55.33,11.42H56l.16,1.07h.39l-.65-3.86h-.52l-.58,3.86h.38l.14-1.07m.32-2.52h0L56,11.12h-.6l.28-2.22"/><polyline class="cls-1" points="58.1 12.2 57.47 12.2 57.48 8.63 57.1 8.63 57.08 12.49 58.1 12.49 58.1 12.2"/><path class="cls-1" d="M59.88,11.45h.68l.13,1.07h.38l-.53-3.87H60l-.7,3.84h.39l.17-1.06m.39-2.52h0l.24,2.23h-.59l.34-2.22"/><path class="cls-1" d="M62.2,12.6c.33,0,.68-.1.69-.53L63,8.73h-.38l-.11,3.22c0,.28-.11.37-.31.36s-.28-.09-.27-.37l.11-3.22h-.38L61.55,12c0,.43.33.56.65.57"/><polyline class="cls-1" points="63.87 12.63 64.25 12.64 64.42 9.09 64.85 9.1 64.86 8.8 63.62 8.75 63.61 9.05 64.03 9.07 63.87 12.63"/><path class="cls-1" d="M65.91,12.75a.59.59,0,0,0,.72-.62l.15-2.61c0-.38-.12-.66-.64-.69s-.68.24-.7.62l-.16,2.61c0,.38.12.66.63.69m-.25-.68.16-2.59c0-.22.07-.36.31-.35s.28.17.27.38l-.16,2.6c0,.2-.07.35-.31.34s-.28-.17-.27-.38"/><polyline class="cls-1" points="67.87 9.39 67.89 9.39 68.12 12.84 68.66 12.87 68.94 9.03 68.6 9.01 68.36 12.3 68.35 12.3 68.12 8.98 67.57 8.95 67.28 12.79 67.62 12.81 67.87 9.39"/><path class="cls-1" d="M70,13a.59.59,0,0,0,.73-.59L71,9.8a.57.57,0,0,0-.61-.7c-.52,0-.7.22-.73.6l-.23,2.61c0,.37.09.66.61.69m-.23-.68L70,9.73c0-.21.07-.35.32-.34s.27.18.25.39l-.22,2.58c0,.21-.08.37-.32.34s-.28-.16-.26-.38"/><polyline class="cls-1" points="72.09 9.57 72.1 9.57 72.17 13.15 72.65 13.19 73.46 9.69 73.47 9.69 73.09 13.23 73.43 13.26 73.83 9.42 73.25 9.37 72.45 12.77 72.44 12.77 72.38 9.29 71.79 9.24 71.38 13.07 71.72 13.11 72.09 9.57"/><path class="cls-1" d="M74.57,12.3l.67.07,0,1.08.38,0L75.52,9.6,75,9.54,73.91,13.3l.38,0,.28-1m.65-2.47h0v2.24L74.65,12l.57-2.18"/><polyline class="cls-1" points="81 10.61 81.02 10.61 80.78 14.19 81.25 14.26 82.35 10.83 82.36 10.83 81.7 14.33 82.03 14.38 82.76 10.59 82.17 10.49 81.1 13.82 81.09 13.82 81.31 10.36 80.73 10.26 80.01 14.06 80.34 14.12 81 10.61"/><polyline class="cls-1" points="83.69 14.7 83.76 14.4 83.14 14.29 83.47 12.77 84.07 12.87 84.13 12.58 83.54 12.47 83.85 11.09 84.46 11.21 84.53 10.91 83.54 10.73 82.7 14.51 83.69 14.7"/><polyline class="cls-1" points="84.05 14.76 84.42 14.84 85.18 13.34 85.19 13.34 85.16 15 85.53 15.08 85.48 13.08 86.44 11.31 86.06 11.24 85.36 12.69 85.35 12.69 85.41 11.09 85.04 11.02 85.06 12.99 84.05 14.76"/><polyline class="cls-1" points="86.35 15.28 87.42 11.55 87.05 11.46 85.98 15.19 86.35 15.28"/><path class="cls-1" d="M87.59,15.64a.53.53,0,0,0,.74-.35l.18-.52-.37-.1-.17.51c-.06.16-.14.22-.28.17s-.18-.13-.13-.28l.9-2.71c.05-.16.14-.22.29-.18s.17.14.12.29l-.15.48.36.1.16-.48c.11-.31,0-.57-.4-.67a.53.53,0,0,0-.74.35L87.19,15c-.11.31,0,.56.4.66"/><path class="cls-1" d="M89.25,16.18a.62.62,0,0,0,.89-.37l1.07-2.43a.54.54,0,0,0-.36-.83.62.62,0,0,0-.89.37l-1.07,2.42a.54.54,0,0,0,.36.84m0-.71,1.06-2.41c.08-.2.19-.32.42-.23s.21.24.12.43l-1.06,2.41c-.09.19-.19.32-.42.24s-.21-.24-.12-.44"/><path class="cls-1" d="M20.4,15.18c.7.94.89,1.19.89,2v.23a2.14,2.14,0,0,0,.48,1.72,3,3,0,0,0,2.06.56,20.27,20.27,0,0,0,2.93-.38,25.19,25.19,0,0,1,6.11-.55c-.47.44-2,1.57-5.19,1.26s-6.48-.43-7.63,1.08c-.63.82-.53,2.05.31,3.64a.11.11,0,0,0,.12.05,2.78,2.78,0,0,0,1.88-3.24,14.55,14.55,0,0,1,2.83.65l.62.19c-1.95.51-3.52,1.26-3.52,2.06,0,.49.59.67,2,1.26s2.87,1.09,4.15,1.67c3.62,1.65,6.25,3.08,6.63,2.73S26.92,26.43,29,23.7c1.15-1.54,3,.5,1.48.82s2.25,3.88,6.72,5.09a6.87,6.87,0,0,1,1.41-1.06s.67-.47-.32-.7-7.12-2-4.59-4.13c.75-.64.82-1.09.5-1.39a6.25,6.25,0,0,0,2.1-1.18,2.13,2.13,0,0,0,.79-1.53c0-1.48-2-3.51-2.75-4.21A161.37,161.37,0,0,1,56.79,14a158.31,158.31,0,0,1,23,1.54c-.72.68-2.77,2.74-2.77,4.23a2.12,2.12,0,0,0,.78,1.53,6,6,0,0,0,1.38.89c-.63.35-1,.74-1,1.05a1.81,1.81,0,0,0,1.24,1.66c.16,1.46-3.6,3-4.64,3.41a8,8,0,0,1,1.29.62,8.47,8.47,0,0,0,5.31-3.58c.8-1-1.27-.45-1.27-1.42s3.1-1.67,2.47,1c-.56,2.39-4.29,3.89-5.9,4.43a6.53,6.53,0,0,1,.63.55c.08.14.3.43.45.39s0-.57.35-.51.53.18.67-.1.11-.56.37-.4.3.31.55.22-.21-.74.35-.57.65-.14.53-.4.24-.12.6.09.4-.21.21-.47,0-.47.38-.18.94.21.5-.22.07-.79.54-.45.43.13.16-.28-.05-.56.55-.21,1,.22.35-.25-.39-.8.28-.44,1.48.51.74-.09-1-1-.09-.6,1.59.33.25-.42.7-.07,1.18.3.56-.22-.35-.69-.37-.61.85-.06,1.21.05.2-.3-1.41-1-.17-.45,2.48.67,1.23.06a6.39,6.39,0,0,1-1.14-.64c.36-.11.84,0,1.69.54,1.64,1.06.07,2.2-1.34,2.69-2.07.73-2.9,1.49-5.13,2.95a9.17,9.17,0,0,1-4.21,1.2,3.11,3.11,0,0,1,.3.67,13.22,13.22,0,0,0,5.48-1.42,30.81,30.81,0,0,1,7-3.1c1.73-.37,3.33-1.2.72-2.93a16.73,16.73,0,0,0-2.67-1.44l.15-.05a13.86,13.86,0,0,1,2.83-.65,2.78,2.78,0,0,0,1.88,3.23.09.09,0,0,0,.12,0c.84-1.6.94-2.82.32-3.64-1.17-1.51-4.52-1.4-7.64-1.09-3.52.35-5-1.08-5.31-1.37a7.32,7.32,0,0,1,1.33,0c1,.07,2.1.24,3.18.41,2.57.4,5.22.81,6.42,0a1.55,1.55,0,0,0,.65-1.14,6.42,6.42,0,0,1,1.19-2.7c.53-.82,1-1.52.76-2.16-.14-.42-.6-.78-1.37-1.09A70.26,70.26,0,0,0,78.47,8.5,155.76,155.76,0,0,0,56.55,7C42,7,28.45,8.7,21.2,11.42c-.05,0-1.44.47-1.79,1.4a1.47,1.47,0,0,0,.28,1.4c.28.39.52.71.71,1m1-3.23h0c7.18-2.7,20.64-4.37,35.12-4.37,17.77,0,30.76,2.66,36.5,4.94.58.23.94.49,1,.75s-.25,1-.7,1.69a6.84,6.84,0,0,0-1.28,2.94,1,1,0,0,1-.42.75l0,0a1.09,1.09,0,0,0-.36-.55c-2.43-2.23-17.19-4.73-34.5-4.73a156.72,156.72,0,0,0-24.61,1.8,49.37,49.37,0,0,0-7.47,1.72A5.26,5.26,0,0,0,22,18.43a2.56,2.56,0,0,1-.12-1.05v-.24c0-.94-.26-1.28-1-2.28l-.69-.95A1,1,0,0,1,20,13c.21-.55,1.12-.95,1.42-1.05m64.34,6.61c-1.1-.18-2.25-.35-3.25-.42a6.23,6.23,0,0,0-4.8,1.36c.2-1.14,1.88-2.92,2.94-3.88,5.61.89,9.24,2,10.22,2.89.14.13.19.23.19.28a.19.19,0,0,1,0,.11,17.54,17.54,0,0,1-5.26-.34m-5.34.37.25.14c.33.35,2,1.95,5.84,1.57,1.6-.16,5.11-.51,6.63.45a10.18,10.18,0,0,0-4.39.64l-.83.25a11.71,11.71,0,0,0-8-.17,5.08,5.08,0,0,1-1.62-.95,2.08,2.08,0,0,1-.49-.63,4.72,4.72,0,0,1,2.57-1.41.08.08,0,0,0,0,.11m12,2.67a5.42,5.42,0,0,1,1.35.19,3,3,0,0,1-.32,2.34,2.1,2.1,0,0,1-1-2.53M36.33,19.09c-2.84-1.57-6.78-.88-9.69-.37a19.1,19.1,0,0,1-2.82.36,3.57,3.57,0,0,1-1.21-.16c-.05-.06-.08-.1-.08-.13s0-.15.19-.28c1-.93,4.84-2.07,10.77-3a11.84,11.84,0,0,1,2.84,3.56M33.44,22a14.71,14.71,0,0,0-4.58-.18c-.62.07-1.26.17-1.88.29-.56-.13-1.09-.29-1.61-.45A10,10,0,0,0,21,21c1.52-1,5-.61,6.62-.45,3.83.38,5.52-1.21,5.85-1.57l.25-.13h0a6.7,6.7,0,0,1,2.71,1c-.16.83-1.25,1.66-3,2.16M20.69,24a3,3,0,0,1-.32-2.35,5.85,5.85,0,0,1,1.35-.19,2.1,2.1,0,0,1-1,2.54"/><path class="cls-1" d="M59,26.52a.11.11,0,0,0-.08,0,.09.09,0,0,0,0,.07,2.19,2.19,0,0,0,2.45,1.86,7.14,7.14,0,0,0,4.2-1.85c.28.41,1.35,1.89,2.3,1.79.41,0,.72-.36,1-.94a3,3,0,0,0,2.12.9,3.05,3.05,0,0,0,2.25-1.59.08.08,0,0,0,0-.1.09.09,0,0,0-.1,0,4.34,4.34,0,0,1-3.09-.26,2.47,2.47,0,0,1-1-2.21,10,10,0,0,1,.3-3,4.71,4.71,0,0,0,1.94.5c2.12,0,2.52-1.14,2.54-1.19a.1.1,0,0,0,0-.09.09.09,0,0,0-.09,0,4.28,4.28,0,0,1-1.51,0c1-.3,1.68-.32,2,0a1,1,0,0,1,.28.87.1.1,0,0,0,0,.1.11.11,0,0,0,.12,0c.75-.77,1-1.4.84-1.93-.32-.92-2-1.3-3.48-1.59a4.34,4.34,0,0,1-3-2.62A.06.06,0,0,0,69,15a.08.08,0,0,0-.08,0,3.73,3.73,0,0,0-1.23.92l-1.47-1.51a.09.09,0,0,0-.07,0,.12.12,0,0,0-.08,0,1.92,1.92,0,0,0-.26,1.79A2.18,2.18,0,0,1,65.07,15,.11.11,0,0,0,65,14.9a.14.14,0,0,0-.11,0,2.22,2.22,0,0,0,0,3.19,6.67,6.67,0,0,1-3.77-.18.08.08,0,0,0-.08,0s0,0,0,0a1.54,1.54,0,0,0,.34,1.33,3.1,3.1,0,0,0,2.32.85c-.37.25-1.4.71-3.43.18a.12.12,0,0,0-.1,0,.08.08,0,0,0,0,.08s.62,2.27,3.74,1.89a5.23,5.23,0,0,1-4.66,1.11.12.12,0,0,0-.08,0,.09.09,0,0,0,0,.08,2.23,2.23,0,0,0,1.08,1.83c.9.45,2.23.2,4-.73-.24.6-1.25,2.22-5.13,1.87m5.32-6.14a.44.44,0,0,0,.07-.49.53.53,0,0,0-.46-.27A2.83,2.83,0,0,1,61.81,19a.82.82,0,0,1-.2-.35c2.46.51,3.55,0,3.67-.08a.47.47,0,0,0,.24-.31.44.44,0,0,0-.09-.38,2,2,0,0,1-.56-1.76,4.23,4.23,0,0,0,.81.86.56.56,0,0,0,.64,0,.44.44,0,0,0,.15-.57,1.71,1.71,0,0,1-.19-1l1,1.07c0,.09-.07.19-.11.29a1.77,1.77,0,0,0,.18,1.31c-1.7,1-1.76,2-1.67,2.39a3.4,3.4,0,0,1-2.1,1.33,2.88,2.88,0,0,1-2.43-.68c2.22.27,3.09-.68,3.12-.73m4.4-4.56a5.16,5.16,0,0,0,.74,1.06l-.84.07-.53-.56a2.36,2.36,0,0,1,.63-.57m6.08,4.24a.8.8,0,0,0-.2-.21c-.59-.47-1.55-.46-2.92,0a.48.48,0,0,0-.34.42.47.47,0,0,0,.28.45,3.93,3.93,0,0,0,.8.2,3.43,3.43,0,0,1-1.17.15,3.9,3.9,0,0,1-1.7-.45,2.56,2.56,0,0,1,.72-.63l.28-.19a4.28,4.28,0,0,0,1.18-1.59l.16,0c.83.16,2.78.53,3,1.21a.76.76,0,0,1-.11.59m-3,7.34a1.81,1.81,0,0,1-1,.42A2.56,2.56,0,0,1,69.12,27a.46.46,0,0,0-.28-.16,4.36,4.36,0,0,1-.4-1.17l.17,0a2.55,2.55,0,0,0,1,1.19,3.8,3.8,0,0,0,2.25.55M67.78,17l.39.4a.53.53,0,0,0,.38.16l.67,0a.7.7,0,0,1-.33.43,1.17,1.17,0,0,1-.9,0,.41.41,0,0,1,0-.09,1.14,1.14,0,0,1-.16-.88m2.37,2.41-.26.17a3.1,3.1,0,0,0-.89.79l-.26-.17A3,3,0,0,1,70,19.22a1.32,1.32,0,0,0,.71-1.38,4.68,4.68,0,0,0,.45.2,3.57,3.57,0,0,1-1,1.33m-4,7c-.15,0-.37-.29-.3-1.38a3.43,3.43,0,0,0,1-.8,1.34,1.34,0,0,0,.36,1.21,1.7,1.7,0,0,0,.22.15c-.37.43-.94.93-1.24.82m-.09-3.62h0a2.69,2.69,0,0,0,1-.56,2.25,2.25,0,0,0,.06.49c-.84,1.35-1.61,1.87-2,1.9a6.71,6.71,0,0,1,1-1.83M68.42,25a.74.74,0,0,1-.7-.11c-.36-.36-.16-1.28,0-1.88a4.65,4.65,0,0,0,.64-.2c0,.4,0,.86,0,1.38a5.13,5.13,0,0,0,.06.81m-.6-6.52a1.85,1.85,0,0,0,1.29,0,1.34,1.34,0,0,0,.75-1H70l0,.15v0h0s.21.85-.34,1.11a3.62,3.62,0,0,0-1.4,1.07L68,19.52a.54.54,0,0,0-.57-.13.45.45,0,0,0-.31.33,1.8,1.8,0,0,1-.81.35c.06-.34.36-.91,1.48-1.57l0,0M67.88,26a6.28,6.28,0,0,0,.42,1,.24.24,0,0,0-.06.11c-.15.42-.33.68-.5.7s-.83-.42-1.3-1A3.22,3.22,0,0,0,67.88,26m-.12-3.67a3.67,3.67,0,0,1-.11-1.48.09.09,0,0,0-.05-.1.11.11,0,0,0-.12,0,10.48,10.48,0,0,1-1.13.93,1.76,1.76,0,0,1-.19-1l0-.06c1-.21,1.32-.5,1.44-.68a6,6,0,0,0,1.09.86,4.68,4.68,0,0,0-.27,1.19,2.88,2.88,0,0,1-.7.29m-3.26.18a.45.45,0,0,0,.14-.32,2.51,2.51,0,0,0,.86-.57c0,.15.09.33.16.52A9.85,9.85,0,0,1,64.22,24a.57.57,0,0,0-.22.07c-1.61.9-2.85,1.19-3.57.83a1.38,1.38,0,0,1-.63-.73,6,6,0,0,0,4.7-1.63M64.58,25a1.46,1.46,0,0,0,.58.11,5,5,0,0,0,.17.9.62.62,0,0,0-.16.1,6.76,6.76,0,0,1-3.86,1.77,1.74,1.74,0,0,1-1.65-.79c3.34.1,4.52-1.31,4.92-2.09"/><path class="cls-1" d="M25.55,62c.05-.26.07-.57-.12-.65s-.35.14-.41.2v0h0a1.17,1.17,0,0,1-1.12.47,1.77,1.77,0,0,0-1.42.62.76.76,0,0,0-.11.8c.22.48.62.74.83.68,0,0,.18-.08.12-.3l0-.1a1.11,1.11,0,0,1-.06-.27.54.54,0,0,1,.16.06.82.82,0,0,0,.78,0,.35.35,0,0,0,.1-.41,1.49,1.49,0,0,0-.13-.28c0-.06-.07-.13-.06-.15s.06-.05.38-.08c.77,0,1-.09,1.08-.66m-2.15.85-.12,0,.11-.06a.25.25,0,0,1,0,.08"/><path class="cls-1" d="M95.32,61.33a1.34,1.34,0,0,1-.43-.23,1.27,1.27,0,0,0-.9-.32.58.58,0,0,0-.51.21c-.17.23-.1.65.22,1.27a1,1,0,0,1,.1.32,6.88,6.88,0,0,1-1-.33.63.63,0,0,0-.6,0c-.38.25-.45,1-.43,1.81a4,4,0,0,0-2.31,1.16,1.23,1.23,0,0,0-.23-.89,1,1,0,0,0-.7-.17,2.76,2.76,0,0,0-1.1.34,2,2,0,0,0-.06-.54.51.51,0,0,0-.39-.28,1.15,1.15,0,0,0-1,.25.44.44,0,0,0-.15.46,1.44,1.44,0,0,0,.8.77l-.14.16a.71.71,0,0,0-.16.7c.16.42.78.7,1.42.91a3.4,3.4,0,0,1-2.87,1.11,3.42,3.42,0,0,0-3.34-.73l-.22,0c-2.08.46-3.73.82-4.54,2.7a4.18,4.18,0,0,1-.7,1.1c-.5.58-.9,1-1.24,4.59A17.09,17.09,0,0,0,72,76.87a2,2,0,0,1-.66.12,2.38,2.38,0,0,0-1.87.88,1.11,1.11,0,0,1-1,.22,1.16,1.16,0,0,0-1,.22,1.86,1.86,0,0,1-.76.18,2.23,2.23,0,0,1,1.37-1.34,7.8,7.8,0,0,0,3.59-1.74h0a3.15,3.15,0,0,1,1.08-1.12c.42-.3.79-.56.53-1.12a1.75,1.75,0,0,1,.18-1.3c.17-.43.34-.88.06-1.16a2.62,2.62,0,0,0,1.32-.7.36.36,0,0,0,.06-.31,2,2,0,0,1,.08-.76c.12-.48.23-1,0-1.26a.75.75,0,0,0-.55-.21,1,1,0,0,0-.63-.54,1.12,1.12,0,0,0-.94.33,1.16,1.16,0,0,0-1,0,.73.73,0,0,0-.28.71l-.64.93a3.42,3.42,0,0,0-2.32.68l-.54.31c-1.33.77-2.39,1.37-2.72,2.82A8.49,8.49,0,0,1,65,74.05a2.45,2.45,0,0,0-.29-.18,10.27,10.27,0,0,0-1-.43,3.45,3.45,0,0,1-1.43-.83c-.68-.83-1.65-.89-2.89-.17a4.13,4.13,0,0,1-4,.1l-.86-.3c-1.6-.56-3.8-1.33-4.58-2.36l-.41-.57c-.69-1-1.24-1.74-2.69-1.78a2.28,2.28,0,0,0-2.1.32l0,0a.11.11,0,0,1-.09,0c-.06,0-.13,0-.21-.1-.35-.32-.65-.4-1.36.07a5.87,5.87,0,0,0-1.66,1.68.33.33,0,0,1-.13-.13c-.53-1.14-1.14-1.83-1.75-2a2.93,2.93,0,0,1-1.34-1,6.35,6.35,0,0,0-.83-.81,1,1,0,0,0-.74-.27c-.46,0-.82.48-1.2.94l-.11.14a10.15,10.15,0,0,1-1.73,1.41c-.26.17-.5.34-.7.5l0,0a1.19,1.19,0,0,1-.53-.52,7.51,7.51,0,0,0-1.44-2.15,1.64,1.64,0,0,0-.29-1.44c.42,0,.74-.24,1-.76a.57.57,0,0,0,0-.6c-.18-.28-.65-.42-1.46-.45a2.36,2.36,0,0,0-1.54.79,4.24,4.24,0,0,0-1.39.23.65.65,0,0,0-.22-.7c-.91-.7-2.34.56-3,1.18a1.41,1.41,0,0,0-.52,1.27h0l-.11,0-.21,0c-.19,0-.49-.1-.83-.14-.13-.52-.48-1.47-1.27-1.44a1.32,1.32,0,0,0-.34,0,1.64,1.64,0,0,0,0-.22.88.88,0,0,0-.27-.62,1,1,0,0,0-.68-.26.92.92,0,0,0-1,.88.86.86,0,0,0,.28.63.83.83,0,0,0,.18.13,1.09,1.09,0,0,0-.44.47.6.6,0,0,0,.23.72l1,.82a3.52,3.52,0,0,0-.24.85.43.43,0,0,0,0,.05c-.17.06-.51.22-.51.5s.25.45.44.59a6,6,0,0,0,.09,1.27c-.13.17-.25.39-.08.53a1.22,1.22,0,0,0,.32.18,1,1,0,0,0,.15.19c.21.2.4.4.58.59l.12.13c-.06.27-.11.69.19.77a2.46,2.46,0,0,0,.67,0,5.46,5.46,0,0,0,.56.36c.25.13.51.29.77.46,0,.27,0,.69.31.64l.5-.09c.7.51,1.24,1,1.23,1.1-.24.29-1.14,1.13-1.53,1.13a.46.46,0,0,0-.39.2,1.32,1.32,0,0,0,0,1.19c-.19.15-.76.64-.55,1a1.49,1.49,0,0,0,.31.36c.15.15.31.31.29.41s-.1.12-.26.17c-.47.16-1.11.43-1.27,1-.11.37.06.79.49,1.28l0,0-.25.27s-.87.2-.58.81,1.4.64,1.2-.31l.25-.25a1.74,1.74,0,0,0,1.44.28,1.15,1.15,0,0,0,.78-1.07,10.66,10.66,0,0,0,3.83.71.9.9,0,0,0,.79.26.67.67,0,0,0,.42-.4,15.69,15.69,0,0,0,2,0,.64.64,0,0,0,.61.27c.33,0,.38-.22.35-.4a1.79,1.79,0,0,0,.45-.16A6.43,6.43,0,0,1,36,80.78a1.74,1.74,0,0,0,.1.19,4.72,4.72,0,0,0,.7.9c.07.07.07.07,0,.2a.58.58,0,0,0,0,.51,1,1,0,0,0,.66.26h0c.66.08,1.1.14,1.42.59l0,.07c.16.23.27.39.47.43s.43,0,.9-.31a1.52,1.52,0,0,1,1.56,0c.08.12.41.6.79.56.23,0,.42-.22.55-.61a1.3,1.3,0,0,1,.64-.11,3.13,3.13,0,0,0,1.57-.38s1.57-.94,2.48-1.4a2.07,2.07,0,0,1,.25.72c.13.75-3.26,2.2-1.95,4.09.16.24.33.17.33.17a1,1,0,0,1,.16-1.07c.37-.37,2.18.12,3.13-.93a1.78,1.78,0,0,0,1.57,1.18.09.09,0,0,0,.1-.08L52,83a1.56,1.56,0,0,0,.71.78,1.38,1.38,0,0,0,.89.11,2.08,2.08,0,0,0,2.38,1c.58,0,.87-.1.93-.29s.1-.33-.9-.87c-.11-.06-.14-.12-.13-.14s.08-.09.21-.1c.38-.06,1.21.17,1.88,1.34A2.58,2.58,0,0,0,60.78,86a.09.09,0,0,0,.07-.09.09.09,0,0,0-.07-.08,1,1,0,0,1-.61-.85,4.48,4.48,0,0,0,3.07,1,2.45,2.45,0,0,0,1.59-.79.11.11,0,0,0,0-.11.09.09,0,0,0-.11,0,2,2,0,0,1-2.27-.72,4.08,4.08,0,0,0,2.35-1.69,6.7,6.7,0,0,1,3.29,0l.53.17c1.88.58,5.8,1.78,8.43-.11,1.74-1.25,2.16-2.06,2.22-2.52a.71.71,0,0,0,0-.26,3.93,3.93,0,0,0,.58.07h0a12.05,12.05,0,0,1,2,.46l.47.17c-.14.18-.43.62,0,.8s1.73-.47,1.73.17.6.56,1.61.15c0,0,.49-.11.54.14a.63.63,0,0,0,.71.49c.19,0,.45-.31.73-.56a5.77,5.77,0,0,0,1-.09c.34.24.64.31.86.14a.73.73,0,0,0,.21-.47,2.13,2.13,0,0,0,1-.91A2.07,2.07,0,0,0,90.93,79a1.36,1.36,0,0,0,.39-.69c.08-.44-.46-.37-.82-.84a3.15,3.15,0,0,0-.54-.68,1.13,1.13,0,0,1-.17-.57c-.06-.69-.82-.94-1-.15a10.45,10.45,0,0,0-6.06-.34c-.48.1-1,.23-1.44.36-1.47.4-2.87.79-3.54.15.07-.22.48-1.21,2.56-1.9,1.5-.49,5-1.84,5.69-3.86.71,0,5.78.24,7-1.37,1.09-1.42,2-2.68,1-3.92a4.79,4.79,0,0,0,1.16-1.12.74.74,0,0,0,.17-.7,1,1,0,0,0-.56-.47,1.27,1.27,0,0,1,.83-.39c.42-.09.49-.3.5-.41,0-.32-.41-.67-.8-.77M30.18,63.09a2.73,2.73,0,0,1,.82.12c-.26.48-.34.51-.86.28l-.49-.21a1,1,0,0,1,.53-.19M86.7,64.5a1,1,0,0,1-.18-.15.38.38,0,0,1,.17,0,1,1,0,0,1,0,.18m3.45,14.19a.64.64,0,0,0,0,.24,1.69,1.69,0,0,1,0,1.24,2,2,0,0,1-1.25.81c-2,.54-4.74-.44-6.19-1l-.57-.2a16.3,16.3,0,0,0-3-.6.55.55,0,0,0-.18,0c-1-.22-1.12-.48-1.12-1.15a.9.9,0,0,1,.69-.86,9.35,9.35,0,0,0,3-.5c.46-.13.94-.26,1.4-.36,1.69-.38,4.26-.48,5.94.46a2.15,2.15,0,0,1,1.28,1.88M78.57,80c0,.09,0,.75-1.95,2.14-2.33,1.68-5.88.58-7.78,0h0L68.31,82a7.37,7.37,0,0,0-3.63,0,4.26,4.26,0,0,0-.08-1.47c-.15-.44.35-.86.66-1.07a5.85,5.85,0,0,0,1.35-.3,2.43,2.43,0,0,0,1-.2c-.15.26-.4.78-.1.87s1.31.3,1-1a1.86,1.86,0,0,0,1.3-.37l.1-.08a1.69,1.69,0,0,1,1.4-.67,2.71,2.71,0,0,0,.91-.18l0,0a15.6,15.6,0,0,1,2.75-1l0,0a2.7,2.7,0,0,0,2.13.24s0,0,0,0a1.75,1.75,0,0,0,.46.35,1.63,1.63,0,0,0-.56,1.16,1.17,1.17,0,0,0,.31,1,2.78,2.78,0,0,0,1,.61.53.53,0,0,0,.08.32m-18.78,4.2a.54.54,0,0,0-.34.5,2.15,2.15,0,0,0,.1.59,1.64,1.64,0,0,1-1-.81A2.8,2.8,0,0,0,56,82.82a1.34,1.34,0,0,0-.37.11,1.59,1.59,0,0,0,.22-.6A2.67,2.67,0,0,0,57.68,82a.76.76,0,0,0,.18.09l.19,0a18,18,0,0,1,3.22,1.92c.17.16.33.33.49.49a5.15,5.15,0,0,0,.83.77,4.82,4.82,0,0,1-2.17-1,.64.64,0,0,0-.63-.07m-10.39.1h0m.06-.16h0m1,.2a.44.44,0,0,0-.07-.22,6.75,6.75,0,0,0,.29-1.9c0-.22-.12-.36-.27-.41a.43.43,0,0,0-.45.1s.35,2.23-1.13,2.71a11.8,11.8,0,0,1-1.45.22c-.34.07-.68.22-.71.21.16-1.11,2.17-1.46,2.17-2.63a3.23,3.23,0,0,0-1.19-2,5.61,5.61,0,0,1-1.53-2.49s0-.06,0-.08,0-.21-.07-.32a2,2,0,0,1,.05-.42c.31-1.29,1.29-2.65,3-2.31a2.57,2.57,0,0,1,.87.48,1.57,1.57,0,0,1,.3.61c.08.63-.88.82-.91.81s0-1.25-.73-1.25a1.65,1.65,0,0,0-1.45,1.15c-.18.66.18,1.23,1,1.51.27.09.5.19.72.28a10.64,10.64,0,0,0,1.08.37H50a.09.09,0,0,0-.1.06.35.35,0,0,0,.06.3c.15.23.52.37,1.09.45,1.22.15,2.46.44,2.46,1.55a1.47,1.47,0,0,1-.73,1.37,3.52,3.52,0,0,0-2.34-2.15c-2-.69-2.81-1.33-3.11-2.65,0,0,0,0,0-.06a.66.66,0,0,0-.57,0c-.11.08-.15.23-.11.46a3.51,3.51,0,0,0,1.87,2.15l.82.34a4.54,4.54,0,0,1,2.41,1.56.54.54,0,0,0-.32.41L51,85.07a.87.87,0,0,1-.45-.7m-7.92-.94a.86.86,0,0,0-.07-.1.58.58,0,0,0-.17-.18A2.32,2.32,0,0,0,40,83.08l-.33.18-.07-.11,0-.06a2.41,2.41,0,0,0-1.92-.89h-.13a.7.7,0,0,0-.21-.76,3.69,3.69,0,0,1-.61-.79c-.57-.89.33-2.22.63-2.66a5.55,5.55,0,0,1,3.57-1.39,19.12,19.12,0,0,1,4.57,1.12,5.7,5.7,0,0,0,1.78,3.17s.14.13.32.32c-.89.45-2.23,1.25-2.41,1.36a2.57,2.57,0,0,1-1.24.3,1.93,1.93,0,0,0-1,.21.54.54,0,0,0-.27.32s0,0,0,0M29.8,80.78c-1.86.51-4.5-.56-4.53-.58a.65.65,0,0,0-.56,0,.54.54,0,0,0-.28.45c0,.19-.06.53-.33.61s-.82-.07-1.33-.64c-.27-.3-.4-.56-.35-.71s.2-.3.83-.51a.93.93,0,0,0,.69-.62,1.1,1.1,0,0,0-.45-1,1.59,1.59,0,0,1-.13-.13,1.81,1.81,0,0,1,.34-.35.51.51,0,0,0,.19-.63,1.16,1.16,0,0,1-.1-.59,4.79,4.79,0,0,0,1.93-1.39.6.6,0,0,0,.11-.5c-.19-.84-3.11-2.51-3.14-2.53a5.23,5.23,0,0,1-1.36-1.14c-.19-.21-.39-.42-.62-.63a5.15,5.15,0,0,1-.2-2.78,1.7,1.7,0,0,1,.65-1.25A2.61,2.61,0,0,1,23,65.84a1.24,1.24,0,0,0,.49,0l.21,0,.22-.06h0a.9.9,0,0,1,.19.33,3.17,3.17,0,0,0,.23.48,15.21,15.21,0,0,0,1,1.32c.33.41.67.82.88,1.12a29.66,29.66,0,0,1,1.68,3,4.8,4.8,0,0,1-.2,2,.47.47,0,0,0,0,.31c-.12.34-.25.82-.07.93s.55.06.87-.61a.67.67,0,0,0,.25-.19h0s.19-.17,1.63.1h.07a5,5,0,0,1,1.82.74c.13.11.37.33.64.59A21.47,21.47,0,0,0,35,77.69a4.1,4.1,0,0,0,1.29.58,3.52,3.52,0,0,0-.52,1.87,6.53,6.53,0,0,0-2.59.4,9.18,9.18,0,0,1-3.18.22l-.21,0M21.62,65.09a2,2,0,0,0-.85.28,1.93,1.93,0,0,0-.35.29c-.33-.27-.62-.51-.86-.73l0,0a2.54,2.54,0,0,1,1.57-.62c.17,0,.4.36.54.82m2.88-.68c1.45-1.28,1.93-1.27,2.1-1.15s0,.28-.48,1a2.32,2.32,0,0,0-.51,1.19c-.36.12-.67.25-.89.33a2,2,0,0,0-.23-.36.75.75,0,0,0-.3-.22.8.8,0,0,1,.31-.77m11.38,2.41.12-.14c.21-.26.56-.68.73-.69a.51.51,0,0,1,.22.11,8.38,8.38,0,0,1,.73.73,3.62,3.62,0,0,0,1.7,1.26c.1,0,.64.21,1.29,1.6a1,1,0,0,0,.64.53.74.74,0,0,0,.3.47,3.59,3.59,0,0,0,2,.71,1.92,1.92,0,0,1,1.18.38,7.62,7.62,0,0,0,2.42,1.61,5.66,5.66,0,0,1,1.16.72A3.42,3.42,0,0,0,45.49,77a.15.15,0,0,0,0,.07c-.51-.18-1.2-.4-1.94-.6a1.25,1.25,0,0,0-.16-.62c-.21-.49-1-1.07-.82-.57a1.59,1.59,0,0,1,0,.56.6.6,0,0,0,.06.4A12.25,12.25,0,0,0,41.11,76a.7.7,0,0,0-.19-.39c-.29-.37-.38-.3-.42-.13a.73.73,0,0,0,0,.52,6.4,6.4,0,0,0-2,.5,1.27,1.27,0,0,0-.07-.68c-.08-.33-.14-.67-.27-.44a1,1,0,0,0-.28.76c0,.29.13.46.27.51a4,4,0,0,0-1.47,1l0,0a3.31,3.31,0,0,1-1.23-.51,14.53,14.53,0,0,1-1.49-1.26c.07-.31.17-.87,0-1s-.46,0-.62.47c-.25-.24-.46-.43-.59-.54a2,2,0,0,0-.32-.22c0-.26,0-.65-.13-.69s-.32.2-.38.43a6.65,6.65,0,0,0-1.32-.42h-.07l-.21,0c.09-.26.21-.65.07-.63a1.65,1.65,0,0,0-.65.54,2.64,2.64,0,0,0-1.31.1,6.45,6.45,0,0,0,.19-1.67l.08,0c.94-.67,4-2.88,4.65-3.35.19-.15.42-.31.67-.48a9.79,9.79,0,0,0,1.85-1.53m6.2,3a.1.1,0,0,0,.05-.08v0a5.53,5.53,0,0,1,1.39-1.33,1.31,1.31,0,0,1,.37-.19l.08.07a1,1,0,0,0,.77.28.82.82,0,0,0,.49-.22,1.6,1.6,0,0,1,1.39-.22.64.64,0,0,0,.23,0c1.11,0,1.47.54,2.14,1.48l.43.6a8.92,8.92,0,0,0,3.74,2.17l0,0s-.25.17,0,.47.92,1.1,1,.89a2.32,2.32,0,0,0-.27-1.13l.45.16c.29.1.59.2.84.3A4.81,4.81,0,0,0,59.79,73c1.17-.68,1.65-.37,2,0a4,4,0,0,0,1.7,1c.3.12.61.25.91.4s.37.29.37.32h0l0,.06s-.33,1-.75,2.4A1,1,0,0,1,63,78a5.16,5.16,0,0,0-5.36.95,2.78,2.78,0,0,1-1.08.6.82.82,0,0,1-.55-.17l-.11-.15-.29-.37-.19-.35a8.36,8.36,0,0,0-.69-1.09c-.69-.88-3-2.07-4.24-2.69a2,2,0,0,0-1-.55,7.87,7.87,0,0,0-2-1.42,7,7,0,0,1-2.19-1.47,2,2,0,0,0-.92-.47c-.06-.37-.18-.92-.39-.92s-.43.54-.51.8a2.77,2.77,0,0,1-1.43-.54c-.06,0-.07-.08-.07-.12a.74.74,0,0,1,.07-.21h0m28.72-.33a0,0,0,0,1,0,0l.11,0c-.07.17-.19.52.23.49s1-.34.49-.92l.58-.84A.54.54,0,0,0,72.3,68a.62.62,0,0,1,0-.16.88.88,0,0,1,.32.06.66.66,0,0,0,.65-.11.86.86,0,0,1,.34-.21.44.44,0,0,1,.17.2.61.61,0,0,0,.56.35h.07a3,3,0,0,1-.12.71,2.68,2.68,0,0,0-.1.92,3.47,3.47,0,0,1-1,.4.55.55,0,0,0-.44.45.5.5,0,0,0,.25.53,3.92,3.92,0,0,1-.18.55,2.17,2.17,0,0,0-.15,1.76c0,.1,0,.1-.33.36a3.79,3.79,0,0,0-1.23,1.28,7,7,0,0,1-3.2,1.48A3,3,0,0,0,66,78.42a.5.5,0,0,0,0,.36c-.57.17-1.92.47-2.21-.3a1.67,1.67,0,0,0,.84-1.09c.4-1.29.72-2.29.75-2.38a.61.61,0,0,0,.05-.34,4.9,4.9,0,0,0,.64-1.82c.28-1.18,1.12-1.66,2.41-2.4l.55-.31c1.21-.73,1.77-.61,1.77-.61h0M51,75.85a.41.41,0,0,1,0-.11,12.27,12.27,0,0,1,3.2,2.1l0,0a2.7,2.7,0,0,0-1.5.07,4.21,4.21,0,0,1-3.46-.13l-.75-.29c-.45-.16-.65-.42-.55-.75s.53-.69.69-.67.44.18.25.93c-.08.3,1.08.31,1.55,0A1.27,1.27,0,0,0,51,75.85M26.8,68.67c-.22-.3-.57-.73-.9-1.14s-.74-.92-.91-1.18a6,6,0,0,1,3.1-.69l0,0c.45.22.76.41.79.64s-.13.9-2,2.46l-.07-.11m26.13,9.87a1.74,1.74,0,0,1,2.11.69,2.67,2.67,0,0,0,.47.61,2.33,2.33,0,0,0,1.54,1.07,1.74,1.74,0,0,1,.56.13s0,.08,0,.16a.36.36,0,0,0,0,.07l0,.1a3,3,0,0,1-2.5.12.08.08,0,0,0-.08,0s-.27.17-.13.67a.33.33,0,0,1,0,.3c-.09.13-.39.16-.69.19l-.39,0a2.25,2.25,0,0,0,.52-1.53c0-1.54-1.07-2.12-2.77-2.32a8.23,8.23,0,0,0,1.48-.3m-24.5-7c-.38-.74-.83-1.59-1.2-2.22A12,12,0,0,0,29,67.63a1.38,1.38,0,0,0,1.43-.71l.21-.46a6.2,6.2,0,0,1,1,1.59,1.64,1.64,0,0,0,.63.74l-3.87,2.78m1.38-4.91a.56.56,0,0,1-.37.31,1.32,1.32,0,0,0,.15-.72c-.06-.58-.66-.89-1.14-1.13h0a3.24,3.24,0,0,0-2.07.08,5.62,5.62,0,0,1,.36-.63c.06-.08.12-.18.18-.28l.29-.11c1.66-.58,2-.25,2.78.41.41.36.36,1-.16,2.08m25.4,16.65a.25.25,0,0,0,0,.13.73.73,0,0,0,.46.81l0,0c-.17,0-.87.19-1.5-.74a1.84,1.84,0,0,0,1.05-.22m6.92.36h-.05l-.32-.07a11.87,11.87,0,0,0-1.87-1.24.93.93,0,0,0,0-.56c-.13-.22-.64,0-.87.07l-.77-.38a0,0,0,0,1,0,0,.14.14,0,0,1,0-.06.72.72,0,0,0,0-.68c-.15-.24-.51-.38-1.06-.43a2,2,0,0,1-.29-.08,4,4,0,0,0,1.24-.71,4.43,4.43,0,0,1,4.76-.82h0a1.29,1.29,0,0,0,.34,0,1.32,1.32,0,0,0,1.23.78,1.39,1.39,0,0,0-.36,1.33c0,.43.06,1.12.07,1.56-1.25,1.49-2,1.35-2,1.34m15-7.69a2.94,2.94,0,0,1-1.66-.18c.32-3.33.68-3.74,1.08-4.22a4.41,4.41,0,0,0,.8-1.25c.68-1.57,2-1.87,4.06-2.32l.23-.05a2.84,2.84,0,0,1,2.5.41,1.77,1.77,0,0,0-.29,1.49,1.68,1.68,0,0,0,1.25.94c-.7,1.06-2.5,2.12-5,2.94-2.2.72-2.81,1.79-3,2.24m8.25-5.77c-.49-.13-.78-.31-.87-.55a1.24,1.24,0,0,1,.22-1c1.89.38,3.45-1.25,4.49-2.33a7.29,7.29,0,0,1,.56-.56c1.06-.94,2-1.57,3.25-.62s.86,1.68-.57,3.54c-.74,1-4.23,1.23-6.47,1.1a.61.61,0,0,0-.61.37M87,65.73a2.09,2.09,0,0,1,1.69-.9,2.36,2.36,0,0,1,0,.85,1.45,1.45,0,0,0,0,.3l-.45.47c-1-.3-1.26-.5-1.3-.6a.25.25,0,0,1,.07-.12m6.48-1a3.24,3.24,0,0,0-1-.53,3.55,3.55,0,0,1,.11-1.31,10.85,10.85,0,0,0,1.06.34,5.12,5.12,0,0,1,1.07.38.56.56,0,0,1-.09.14,4.33,4.33,0,0,1-1.06,1s0,0,0,0m.84-2.7a2.29,2.29,0,0,1-.22-.56.66.66,0,0,1,.34.15,1.76,1.76,0,0,0,.68.35l0,0a1.88,1.88,0,0,0-.71.34,1.39,1.39,0,0,0-.12-.3M19.6,63.28a.32.32,0,0,1,.19-.07.31.31,0,0,1,.18.07.25.25,0,0,1,.08.17.26.26,0,0,1-.26.25.32.32,0,0,1-.19-.07.25.25,0,0,1-.08-.18.25.25,0,0,1,.08-.17"/><path class="cls-1" d="M33.49,69.37c-.37.08-1.05,1-.56,1A4.52,4.52,0,0,0,34,69.69c.16-.27-.15-.4-.52-.32"/><path class="cls-1" d="M34.26,70.67c.4.12.62-.17.84-.5s0-.83-.34-.43c0,0-.9.82-.5.93"/><path class="cls-1" d="M35.87,71.22a1.44,1.44,0,0,0,.39-1.14c-.08-.34-.3-.17-.3-.17s-.74.76-.68,1,.31.63.59.29"/><path class="cls-1" d="M37.75,71.56c.4-.09.25-.54.12-.94s-.21-.68-.4-.51a1.11,1.11,0,0,0-.25.68c0,.4.13.85.53.77"/><path class="cls-1" d="M48,22.08a.53.53,0,0,0-.35.61c.06.49.17.79.88.7s.2-1.21.06-1.34-.59,0-.59,0m.22.86a.74.74,0,0,1-.08-.31c0-.09,0-.11,0-.12l.11,0a1.35,1.35,0,0,1,.12.47.58.58,0,0,1-.18,0"/><path class="cls-1" d="M48,23.67a.59.59,0,0,0-.2.54c0,.34,0,.69.57.66s.64-.38.57-.8a.64.64,0,0,0-.94-.4m.46.74h-.14a.57.57,0,0,1,0-.13s0-.09,0-.14a.15.15,0,0,1,0-.1.18.18,0,0,1,.09,0,.08.08,0,0,1,.05.06.9.9,0,0,1,0,.28"/><path class="cls-1" d="M48,25.14s-.64.67-.2.87.81.31,1-.28-.27-1-.82-.59m.34.45a.61.61,0,0,1,0,.11l-.1,0c0-.06.09-.13.15-.19h0a.3.3,0,0,1,0,.12"/><path class="cls-1" d="M49.08,21.43a.35.35,0,0,0-.29.46c.11.41.31,1,.86.84s.44-.55.24-1.09-.53-.33-.81-.21m.42.86h0a1.22,1.22,0,0,1-.19-.45l.07,0s0,0,.06,0h0a2,2,0,0,1,.14.48l-.06,0"/><path class="cls-1" d="M49.12,23.35s-.2.9.33.9.86-.1.84-.73c0-.84-1.06-1-1.17-.17m.65.41-.18,0a1.42,1.42,0,0,1,0-.35v0a.18.18,0,0,1,.06-.13,0,0,0,0,1,0,0,.26.26,0,0,1,.09.23.48.48,0,0,1,0,.23"/><path class="cls-1" d="M49.63,24.45s-.47.12-.47.47-.22,1,.34.89,1-.2.92-.94-.42-.52-.79-.42m.29.76a.57.57,0,0,1-.29.11.34.34,0,0,1,0-.1,2.64,2.64,0,0,0,0-.28l.11-.05.14,0a.87.87,0,0,1,0,.1.37.37,0,0,1,0,.26"/><path class="cls-1" d="M50.24,20.33a.76.76,0,0,0-.26.89c.17.64.59.67.86.53s.46-.28.26-.91-.57-.85-.86-.51m.28.38h0m.17.58-.1.06h0a.6.6,0,0,1-.12-.25c-.07-.24,0-.36.06-.39a1.77,1.77,0,0,1,.17.58"/><path class="cls-1" d="M50.4,22.58c.13.45,0,1,.57.76s.61-.48.49-1c-.18-.77-1.19-.16-1.06.28m.62.19-.07.06c0-.1,0-.21-.06-.32a.3.3,0,0,1,.08-.08.79.79,0,0,1,.05.34"/><path class="cls-1" d="M50.6,24.13c0,.54,0,1,.55.91s.71-.39.61-1.05c-.13-.88-1.19-.41-1.16.14m.53.44c0-.13,0-.33,0-.46s0,0,.06-.08a.46.46,0,0,1,.1-.07.24.24,0,0,1,0,.09c.06.38,0,.47-.14.52"/><path class="cls-1" d="M65.53,26.88c-.16,0-.31.11-.55.33l-.18.16a6.43,6.43,0,0,1-1.34,1.1.08.08,0,0,0-.08.09.1.1,0,0,0,.1.08H66.7a.11.11,0,0,0,.09-.05.06.06,0,0,0,0-.09,15.49,15.49,0,0,1-1-1.42c0-.07-.1-.18-.21-.2M65.11,28l.19-.18.06-.07.18.25h-.43"/><path class="cls-1" d="M21.38,56c2,5.88,3.34,7,2.85,3.61s-1.13-6-.74-6.5.15-1.41,0-2.27.34-1-.39-3.16.1-1.58.05-2.66-.45-1-.3-2.35.2-3.21.2-3.21-1.23,0-1.38.72A79.69,79.69,0,0,0,22.11,53c.64,3.16-1.12.09-1.37-3.8s-.1-8.32-.1-8.32.2-1-1.18-1.31c0,0-.05,10.53,1.92,16.41"/><path class="cls-1" d="M27,53.33c0-2.17-.88-3.17-.49-4.48S27.12,47,26.39,46s-.45-1-.25-2.35-.2-3.34-.05-4.43c0,0-.69-.5-.79.09a98.64,98.64,0,0,0,.64,10.89c.45,2.94-.39,1.72-.68-.77-.2-1.71-.69-9.85-.69-9.85s-.88-.63-1.08,0c0,0-.2,9.85,1.81,13.6S27,55.5,27,53.33"/><path class="cls-1" d="M29.73,51a4.66,4.66,0,0,1-.25-2.43c.1-1-.39-1.86-.59-3.26a54.45,54.45,0,0,1-.3-6.64s-.29-.32-.83,0c0,0,0,4.93.3,6.74s-.79-.14-.84-3.26,0-3.75-.64-3.16c0,0-.19,9.54,2.7,12.52,0,0,.79.63.45-.55"/><path class="cls-1" d="M29.23,38s-.34,8.78,2.26,11.17.64.14.64-2.66c0-3.26-.74-2.54-.79-3.35,0,0-.14-3.3-.29-4.3s-.93-1.44-.69.14.74,5.74.1,5.78-.54-2.62-.59-4.2.2-2.48-.64-2.58"/><path class="cls-1" d="M32.92,37.69s-.45-.36-.3,1.17.49,3-.1,3-.34-2-.44-2.71-.24-1.72-.59-1.14c0,0,.1,5.92,1.87,8.36s1.77.59.93-.85a9.43,9.43,0,0,1-1-4.57,21.08,21.08,0,0,0-.39-3.25"/><path class="cls-1" d="M34.63,43.47c1.13,1.45.79.23.54-1.26A29.28,29.28,0,0,1,35,37.29a.48.48,0,0,0-.64,0s.34,2.66,0,2.61-.4-1-.49-1.94-.2-.67-.49-.5c0,0,.1,4.57,1.22,6"/><path class="cls-1" d="M20.2,30.37A39.65,39.65,0,0,0,19.75,35c-.12,2.78.08,3.22,1.23,3.27,1.51.08,1.8-.87,2-3.08.26-2.38.29-3.62.33-3.94s-.82-1.31-1,.15-.08,6-1.06,5.82-.74-2.48-.53-4.06.73-3.45.08-3.6-.65.79-.65.79"/><path class="cls-1" d="M23.86,31.27S22.6,38,23.91,38c2,.08,1.66-1.85,1.87-3.95s.41-2.71-.08-2.71-.61,2-.69,3.12,0,2.51-.58,2.44-.52-1.62-.32-2.93c.45-3,.25-3.38-.25-2.74"/><path class="cls-1" d="M26.88,32s-.16-.3-.41-.26c0,0-.23,2.34-.31,3.73s.19,2,1.17,2,.9-1.62.94-2.92.41-2.48,0-2.59-.45.86-.49,1.72-.13,2.78-.53,2.78-.65-.45-.57-1.84.2-2.63.2-2.63"/><path class="cls-1" d="M55.3,37.63c.34-.08.27-.28.55,0s.33.32.68.26a1.23,1.23,0,0,1,1,.3c.19.2.5.16.46.34s-.37.37.41.51,1.08.24,1.3,0,.56-.25-.09-.59a4.72,4.72,0,0,1-1.39-.78c-.51-.48-.45-.48-.8-.6a2,2,0,0,0-1.27-.16,5.57,5.57,0,0,1-1.2.14s-.23.16-.06.34.09.34.44.26"/><path class="cls-1" d="M58.76,39.44c-.26,0-.42-.2-.65-.2,0,0-.39,0-.18.28s.41.36.66.3.43-.36.17-.38"/><path class="cls-1" d="M60.62,39.66a2.5,2.5,0,0,0,.8-.16c.28-.14.5.06.76.1a.52.52,0,0,0,.63-.24c.17-.28-.05-.46-.26-.65a.76.76,0,0,0-.82-.07c-.27.13-.2.2-.46.24s-1,.7-.65.78"/><path class="cls-1" d="M63.74,39.84c.11,0,.43.06.56,0s.34,0,.13-.36-.13-.42-.54-.36-.35.2-.35.2.09.5.2.48"/><path class="cls-1" d="M65.31,44.21c.07.06.26.19.33,0s.07-.62-.5-.48c0,0-.19.14-.06.26a2,2,0,0,1,.23.26"/><path class="cls-1" d="M33.71,33.41C33.12,37.49,34.86,36,34.86,36c.08-1,.28-2.41.28-2.41-.16-.22-.36-.1-.4.41s-.08,1.7-.51,1.59-.08-2.22-.28-2.29-.24.07-.24.07"/><path class="cls-1" d="M31.58,32.94s-.32,2-.32,2.62.36,1.1,1.23,1,.67-1.13.75-2,.16-1.38.16-1.38c-.43-.14-.4,0-.56,1.08s-.12,1.61-.71,1.65-.27-2.11-.2-2.62-.35-.37-.35-.37"/><path class="cls-1" d="M29.12,32.43a24.27,24.27,0,0,0-.35,3.5c0,1.53,1.9,1.09,2,0s.43-3.13.43-3.13c-.63-.44-.67.73-.79,1.75s-.16,1.64-.75,1.53-.2-2.88-.16-3.35-.36-.26-.36-.26"/><path class="cls-1" d="M28.26,68.61c-.29.49-.15.65.18.69s.42-.85.42-.85c-.1-.36-.31-.34-.6.16"/><path class="cls-1" d="M29.55,68.36s-.44-.06-.36.55.44.69.61.58.1-.67.1-.81-.16-.51-.35-.32"/><path class="cls-1" d="M30.44,68.22a1.23,1.23,0,0,0,.17.83c.25.33.71.49.56-.19s-.31-.88-.73-.64"/><path class="cls-1" d="M23.47,67.11c-.17-.08-.33-.13-.46.11,0,0-.15.39.27.39a.27.27,0,0,0,.19-.5"/><path class="cls-1" d="M21.72,68.07v0s0,.31.2.31.26-.1.28-.25-.36-.33-.48-.1"/><path class="cls-1" d="M22.3,70.13a.26.26,0,0,0,.06.43c.32.19.4.14.32-.23s-.21-.34-.38-.2"/><path class="cls-1" d="M24.26,70.06s.25.14.29,0-.06-.23-.06-.23-.4-.09-.23.19"/><path class="cls-1" d="M24.59,71.6s-.12.36.19.4a.23.23,0,0,0,.23-.38c-.12-.12-.42-.1-.42,0"/><path class="cls-1" d="M26.3,72.06s.29.06.29,0,0-.19-.06-.27-.37,0-.23.27"/><path class="cls-1" d="M26,77.7s.61-1.31-.25-1.06a.85.85,0,0,0-.32.9s-.43-.15-.14.39.5,1,1.06.53S26,77.7,26,77.7"/><path class="cls-1" d="M28.09,78.59s-.49.37-.36.54.8.25.86,0-.27-.72-.5-.56"/><path class="cls-1" d="M30.26,79s-.56.15-.29.42a1,1,0,0,0,.83.25s.29-.82-.54-.67"/><path class="cls-1" d="M28.59,76.66s-.62.33-.37.56.71-.2.71-.2.12-.44-.34-.36"/><path class="cls-1" d="M30.55,76.05a.52.52,0,0,0,.64-.18s-.31-.73-.7-.46c0,0-.38.48.06.64"/><path class="cls-1" d="M33.18,78.66a.65.65,0,0,0,.66,0s.29-.42-.85-.63a.42.42,0,0,0,.19.62"/><path class="cls-1" d="M39.44,78.43c0-.41-.5-.26-.5-.26s-.29.08-.31.26.37.23.37.23.44.17.44-.23"/><path class="cls-1" d="M39.48,80.74c-.22-.11-.5.16-.5.16a.37.37,0,0,0,.4.51c.56,0,.52-.34.52-.34s.05-.09-.42-.33"/><path class="cls-1" d="M42.38,80a.53.53,0,0,0-.6-.45s-.55,0-.65.46.75.43.75.43.52-.14.5-.44"/><path class="cls-1" d="M41.73,81.57s0,.38.5.38.44-.28.44-.28-.82-.43-.94-.1"/><path class="cls-1" d="M44.63,80.07c.54,0,.4-.38.4-.38a.66.66,0,0,0-.52-.2c-.36,0-.43,0-.45.27,0,0,0,.33.57.31"/><path class="cls-1" d="M39.33,71.73c.32,0,.07-1,.07-1s-.22-.55-.4-.51c0,0-.49,0-.3.71s.32.79.63.75"/><path class="cls-1" d="M40.52,71.33a.44.44,0,0,0,.65.16c.26-.14-.49-1.19-.49-1.19s-.72-.36-.65,0a5.62,5.62,0,0,0,.49,1"/><path class="cls-1" d="M31.17,71.1c-.23,0-1,.52-.73.65a.77.77,0,0,0,.7-.18c.28-.29.26-.45,0-.47"/><path class="cls-1" d="M32.45,71.67s-.94.84-.58,1,.67-.31.81-.66,0-.52-.23-.35"/><path class="cls-1" d="M33.36,73c.11.26.37.63.63,0s.14-.73-.07-.53c0,0-.66.3-.56.56"/><path class="cls-1" d="M35.69,73.28c.16-.81,0-.73-.21-.53,0,0-.59.45-.44.66s.49.68.65-.13"/><path class="cls-1" d="M37.37,74.39c.48,0,.33-.64.21-1.13s-.26-.5-.4-.5-.28,0-.26.54,0,1.06.45,1.09"/><path class="cls-1" d="M39,73.07s-.47.93.16,1.31.41-.31.28-.73-.29-.84-.44-.58"/><path class="cls-1" d="M40.89,72.92s-.35,0-.22.46.29,1,.83.85-.28-1.11-.61-1.31"/><path class="cls-1" d="M43.78,74.14c.28-.51-1.12-1.47-1.35-1.34,0,0-.42.19,0,.61s1.07,1.23,1.35.73"/><path class="cls-1" d="M45.5,73.86c.33-.19-.53-1-.53-1s-.63-.63-.77-.47c0,0-.35.36.14.82s.82.79,1.16.6"/><path class="cls-1" d="M36,75.25s-.91,1.17-.35,1.38.61-.84.59-1.27-.24-.11-.24-.11"/><path class="cls-1" d="M44.43,75a7.74,7.74,0,0,1,.38.84c.07.24.34.66.61.28s.11-.52-.17-.86-1-.59-.82-.26"/><path class="cls-1" d="M25.63,27.82a1.11,1.11,0,0,0-1.26.73c-.34.93-.11,1.29.1,1.24s.32-.91.57-.83-.29.87.07,1,.47-.88.74-.79-.27.88.13,1,.95-1.94-.35-2.28"/><path class="cls-1" d="M28.25,28.65a1,1,0,0,0-1.12.7c-.28.85-.06,1.18.13,1.13s.26-.85.49-.78-.22.8.1.87.4-.82.65-.74-.22.8.15.88.8-1.8-.4-2.06"/><path class="cls-1" d="M23.05,29.1c.5.16,1.4-2.24-.24-2.76a1.48,1.48,0,0,0-1.68.77c-.53,1.07-.26,1.53,0,1.5s.49-1.08.81-.95-.45,1,0,1.14.7-1,1-.88-.43,1,.07,1.18"/><path class="cls-1" d="M30.66,29.48a.87.87,0,0,0-1,.58c-.28.73-.09,1,.08,1s.25-.74.45-.67-.23.69,0,.76.38-.7.6-.63-.22.7.1.78.76-1.54-.28-1.81"/><path class="cls-1" d="M33,31.69c.26.06.62-1.28-.23-1.5a.74.74,0,0,0-.83.48c-.22.61-.06.84.07.82s.21-.61.37-.55-.18.57,0,.62.32-.57.5-.51-.18.57.08.64"/><path class="cls-1" d="M35.09,32.13c.27,0,.42-1.33-.45-1.45a.73.73,0,0,0-.75.59c-.13.62.06.84.19.79s.11-.62.29-.58-.1.58.13.6.23-.6.41-.57-.09.59.18.62"/><path class="cls-1" d="M21.6,30.84c-.15.79-.82,5.39-.38,5.47s.38-2,.5-3.06.32-2.68.32-2.68-.29-.52-.44.27"/><path class="cls-1" d="M24.71,31.81c-.11.62-.63,4.25-.29,4.31s.29-1.58.38-2.41S25,31.6,25,31.6s-.22-.41-.33.21"/><path class="cls-1" d="M27.26,32.44c-.08.5-.41,3.39-.08,3.42s.21-1.26.26-1.92.15-1.68.15-1.68-.25-.31-.33.18"/><path class="cls-1" d="M29.87,32.75c-.08.38-.46,2.58-.12,2.6s.22-1,.28-1.47.17-1.27.17-1.27-.24-.23-.33.14"/><path class="cls-1" d="M32.61,33.18s-.22-.17-.28.13-.32,2,0,2,.17-.76.21-1.15.09-1,.09-1"/><path class="cls-1" d="M34.6,33.44s-.19-.14-.25.11-.27,1.72,0,1.72.14-.64.17-1,.09-.85.09-.85"/><path class="cls-1" d="M75.17,31.56V33S76,33,76,32.76s.33.1.33.1a2,2,0,0,0-1.12-1.3"/><path class="cls-1" d="M76.35,35.62c-.3,0-.56.1-.52-.6s.13-1.2-.59-1v2.23s1.08.69,1.7,0a4.29,4.29,0,0,0-.2-2.29s-.1-.09-.36.15c0,0,.26,1.47,0,1.47"/><path class="cls-1" d="M75.24,37.28s-.14,1.66,0,1.66.68,0,.65-1.06-.43-.9-.65-.6"/><path class="cls-1" d="M76.55,37s-.23,0-.23.67-.2,1.17,0,1.17.42-.6.59-1.21-.07-.78-.39-.63"/><path class="cls-1" d="M75.4,40.44c.43,0,1,0,1.15-.66s-.72-.48-1.35.06c0,0-.23.57.2.6"/><path class="cls-1" d="M75.2,41.26s-.1,1.9,0,1.8a8.65,8.65,0,0,0,.91-1.71c.17-.45-.78-.42-1-.09"/><path class="cls-1" d="M74.89,53.43c.28,1.11.07,1-.22,1s-.56-1.56-1-.52c-.24.6-.63,1.5.15,1.43S76.59,55.45,76,54s-1.35-1.7-1.06-.59"/><path class="cls-1" d="M76.66,58a.6.6,0,0,0,.14-.61c-.1-.39-1.39-.14-1.39-.14l-2.9.14s-.35.58-.24.67,4.17.07,4.39-.06"/><path class="cls-1" d="M74,60.28c0-1-.23-1.93-1.14-1.89,0,0-1.22-.06-1.26.69s-.13,1.86.23,1.86.09-1.35.39-1.37.32.54.32.91.54.54.49,0-.29-1,0-.92.41.13.34.67.63,1.14.6.09"/><path class="cls-1" d="M75.24,59.44c.27,0,.29.5.29.84s.5.49.46,0-.28-.93,0-.85.38.13.32.62.57,1.05.55.09-.21-1.79-1-1.75c0,0-1.13-.06-1.17.64s-.12,1.71.22,1.71.08-1.24.36-1.26"/><path class="cls-1" d="M45.79,71.49c.46,0,.23-2-.28-1.65a.89.89,0,0,0-.28.66c0,.47.1,1,.56,1"/><path class="cls-1" d="M47.57,71.3c-.13-.77-.51-1.13-.53-.84a1.91,1.91,0,0,0,0,1c.13.52.69.64.56-.14"/><path class="cls-1" d="M49.38,71.51c.13-.12-.56-1.31-.84-1,0,0-.33.14.05.61s.67.47.79.35"/><path class="cls-1" d="M51.22,73.88c0-.16-.38-.42-.51-.39a.24.24,0,0,0-.05.44c.3.28.61.12.56-.05"/><path class="cls-1" d="M52.77,74c.41-.19-.41-.87-.91-.85,0,0-.29,0,0,.4s.5.64.91.45"/><path class="cls-1" d="M54.66,76.32c.48.38.84.38.59-.09s-.51-.8-.72-.58c0,0-.36.3.13.67"/><path class="cls-1" d="M57,75.93c.13-.31-.69-1.32-1-1.29,0,0-.44,0-.05.67s.94.92,1.07.62"/><path class="cls-1" d="M58.2,75.55c0-.31-.61-1.43-.68-1.08a1.36,1.36,0,0,0,.12,1.13c.36.4.59.25.56,0"/><path class="cls-1" d="M59.86,75.1c-.07-.45-.48-1.12-.66-1,0,0-.38.16-.05.68s.79.75.71.3"/><path class="cls-1" d="M61,74.52c.81,0-.18-.59-.26-.71s-.43-.18-.4,0c0,0-.16.71.66.71"/><path class="cls-1" d="M61,77a.51.51,0,0,0-.46-.43s-.53,0-.18.36.69.33.64.07"/><path class="cls-1" d="M62.46,76.75c-.28-.71-.53-1.06-.81-.9,0,0-.24.31.12.78s1,.82.69.12"/><path class="cls-1" d="M63.46,75.81c-.11-.57-1.15-2-1.15-1.43a1.12,1.12,0,0,0,.26.89c.35.44,1,1.1.89.54"/><path class="cls-1" d="M60.17,78.83c-.15.23-.36.9.1.71,0,0,.76-.4.63-.61s-.58-.33-.73-.1"/><path class="cls-1" d="M61.62,80.26c-.41.1-.79.45-.56.69,0,0,.23.4.74,0s.23-.78-.18-.69"/><path class="cls-1" d="M68.15,81s-.92.68-.16.73.9-.19.67-.52-.26-.35-.51-.21"/><path class="cls-1" d="M73.14,81.59c-.2,0-.94.37-.64.67,0,0,.62.24.93-.16s-.08-.51-.29-.51"/><path class="cls-1" d="M75.11,80.2c-.36.14-.56.42,0,.65a.63.63,0,0,0,.61-.28c.23-.35-.26-.52-.61-.37"/><path class="cls-1" d="M71.84,79.89s-.76.89,0,.94.38-.61.38-.61-.28-.51-.41-.33"/><path class="cls-1" d="M71.87,78.41a.47.47,0,0,0-.77.07s-.51.83.11.8,1-.56.66-.87"/><path class="cls-1" d="M74.77,78.25c-.1-.31-.2-.42-.48-.28,0,0-.61.42-.23.56s.82,0,.71-.28"/><path class="cls-1" d="M65.93,76.32s-.21.38.25.43.49-.24.46-.38a.46.46,0,0,0-.71-.05"/><path class="cls-1" d="M66.64,73.6a.56.56,0,0,0,.36.68c.48.14.33-.3.28-.42s-.67-.54-.64-.26"/><path class="cls-1" d="M69.14,74.71s-.43.42-.15.51.86-.37.15-.51"/><path class="cls-1" d="M71,73.55c.41,0,.68-.39.1-.49,0,0-.51.45-.1.49"/><path class="cls-1" d="M68.71,73.42s-.56,0-.25.33.43.27.56-.08,0-.33-.31-.25"/><path class="cls-1" d="M69.68,71.6a.46.46,0,0,0,.2.55c.33.19.33,0,.36-.19s-.56-.64-.56-.36"/><path class="cls-1" d="M69,70.81a.63.63,0,0,0,.51-.07c.23-.17-.58-.36-.51.07"/><path class="cls-1" d="M73.63,68.67c.25-.21-.31-.44-.46-.14,0,0,.2.36.46.14"/><path class="cls-1" d="M88.42,80.31c.6-.16,1-1.09,0-.85,0,0-.49.45-.49.58s0,.44.54.27"/><path class="cls-1" d="M84.61,78.82s-.18.56.06.53.76-.18.44-.45-.42-.23-.5-.08"/><path class="cls-1" d="M82.82,78.07s-.53.2-.54.38,0,.54.47.24.79-.91.07-.62"/><path class="cls-1" d="M80.81,77.43s-.64.16-.44.39.68.61.8.19,0-.78-.36-.58"/><path class="cls-1" d="M85.18,76.67s-.49.19-.4.37a.38.38,0,0,0,.61.13c.25-.24.26-.7-.21-.5"/><path class="cls-1" d="M86.72,78.53c.39-.1.93-1,.11-.86a.83.83,0,0,0-.44.39c-.14.29,0,.56.33.47"/><path class="cls-1" d="M77.56,71.2s0,.58.44.47a.32.32,0,0,0,.25-.47s-.84-.45-.69,0"/><path class="cls-1" d="M77.5,73.87c-.39-.18-.41-.24-.53-.09,0,0-.33.56,0,.58s.88-.3.5-.49"/><path class="cls-1" d="M79.24,72.19c.06-.25-1.32.3-.77.53,0,0,.44.2.67.09s0-.37.1-.62"/><path class="cls-1" d="M80.54,69.74c.37,0,.35-.34.23-.52s-.74-.21-.7.17a.49.49,0,0,0,.47.35"/><path class="cls-1" d="M80.71,70.79c.79.43.52-.75.14-.55,0,0-.5.36-.14.55"/><path class="cls-1" d="M82,69.91c.85,0,.38-.79.06-.64a2.91,2.91,0,0,0-.43.36c0,.07-.31.28.37.28"/><path class="cls-1" d="M81,72.08c0,.17.2.26.55.17s.34-.53-.08-.43c0,0-.45.09-.47.26"/><path class="cls-1" d="M82.88,71.59c.19,0,.12-.39.14-.63s-.1-.36-.4-.15a.24.24,0,0,0-.19.28c0,.24.27.56.45.5"/><path class="cls-1" d="M90,67.61c.28-.24.5-.68,0-.74a.34.34,0,0,0-.35.36c0,.36.1.62.39.38"/><path class="cls-1" d="M90.89,68a1.48,1.48,0,0,0,.63.13c.24,0,.13-.39-.06-.48s-.9.29-.57.35"/><path class="cls-1" d="M92.31,66.5c.63.12.76-.6.47-.54,0,0-1.09.43-.47.54"/><path class="cls-1" d="M91,66.33c.33,0,.55-.11.35-.26s-.51-.45-.51-.28c0,0-.16.56.16.54"/><path class="cls-1" d="M88.79,29.17c-.05-.62-.2-.76-.24-.69s-.16,1.68,0,1.73.27-.44.22-1"/><path class="cls-1" d="M79.86,33c-.37,0-.49-.48-.52-.82s-.34-.54-.52-.11c0,0,.08,1.43.82,1.38.93-.07,1.18-.5.81-1.63a.32.32,0,0,0-.49-.09c-.3.22.27,1.22-.1,1.27"/><path class="cls-1" d="M81,31.39S80.86,33,81.59,33c.93,0,1.24-.39,1-1.65a.3.3,0,0,0-.47-.16c-.33.21.08,1.35-.29,1.35s-.41-.57-.38-.94-.25-.62-.49-.18"/><path class="cls-1" d="M83.21,30.94s-.17,1.6.51,1.62c.86,0,1.15-.43,1-1.73,0,0-.13-.37-.43-.15s.06,1.39-.29,1.4-.37-.58-.34-1-.22-.64-.44-.17"/><path class="cls-1" d="M85.27,30.05l0,1.38s-.13.93,1,1,.82-1.27.82-1.81-.08-1.36-.35-1.32-.34.34-.32.93.15,1.29-.19,1.27-.32-.45-.32-1-.49-1-.57-.36"/><path class="cls-1" d="M88.2,28.69s-.64-.52-.64.27-.25,3.06,1.18,3.12S90,30.45,90,29.39s.22-2.19-.25-1.9-.52.61-.57,1.38.18,2-.24,2.08-.7-.07-.64-1.2a2.57,2.57,0,0,0,0-1.06"/><path class="cls-1" d="M91.35,29.48c-.08-1.25,0-2.15-.27-2.15,0,0-.5,0-.53.59s-.28,3.13.62,3.51,2.17.16,2.19-.77,0-3,0-3.53-.59-.82-.71-.05.37,3.75-.39,3.71-.87-.06-.94-1.31"/><path class="cls-1" d="M91.92,27.53s-.28,2.22.06,2.36.18-1.52.2-2-.22-.74-.26-.34"/><path class="cls-1" d="M88.35,62.48c.6.06,2.45-3.79,2.9-6.26a13.7,13.7,0,0,1,1.15-4.16,30.68,30.68,0,0,0,1.25-7.92c0-2.28.14-4.36,0-4.71s-.28-.48-.7-.2-.94.13-.87,1.16.14,7.41-.24,8.43-.77,2.6-1.08,3.65-.69,2.25-.45.07.73-2.25.76-3.56.39-2.88.32-4.78.1-4.29.1-4.29-1-1.28-1.08-.13.07,7.12,0,7.92a12.27,12.27,0,0,0-.28,2.82c.1.8-.31,1.06-.39,2.37s-.45,6.28-1.14,7.63-.81,1.89-.22,2"/><path class="cls-1" d="M87.41,56.48c.46-.26,2.24-4.13,2.34-10s.35-6.54.07-7-.87-.58-.77.64-.24,9.71-.7,9.75c-.38.28.32-7.26.15-10.17l0-.07s-.55-1.38-.59-.32-.07,5.72-.21,6.07a10.23,10.23,0,0,0-.52,3.75,31.47,31.47,0,0,1,.1,5.93c-.21.93-.27,1.7.17,1.44"/><path class="cls-1" d="M87,43.21a39.79,39.79,0,0,0,.35-4.38s-.76-.23-.82.54c0,.45-.06,2.43-.16,3.1s-.1,3.59-.56,3.56-.21-1.44-.06-2.69A11.91,11.91,0,0,0,86,39s-.63-.64-.66-.06a9.77,9.77,0,0,1-.14,2.35,3.86,3.86,0,0,0-.34,2c0,.93.2,2.43-.18,3s-.24,1.32-.38,2.08A10,10,0,0,1,83.24,52c-.73,1.08.84,1.37,2.4-2.73s1.25-4.84,1.36-6.09"/><path class="cls-1" d="M82.83,39c0,.65-.08,4.78-.43,5.48S82,46.64,81.74,47s-1,2.22-1.39,2.79-.32,1.29.38.81a10.25,10.25,0,0,0,3.17-5.3c.31-2.24.7-3.68.8-4.29s.31-2.24.09-2.37-.62-.25-.62.35a16.69,16.69,0,0,1-.55,3.75c-.35,1-.38,1.41-.42.13s.26-3.81.08-4.42c0,0-.45-.1-.45.54"/><path class="cls-1" d="M80.52,38.34s-.07.58-.07,2.37c0,2.24-1.25,4.49-2,5.9s.24,1,.8.57a13.91,13.91,0,0,0,2.13-3.13c.52-1,1-5.65,1-5.65a.5.5,0,0,0-.73,0c-.18.26-.38.36-.52.07s-.67-.1-.67-.1"/><path class="cls-1" d="M79.62,42.7A25.25,25.25,0,0,0,80,38.49c0-.54-.28-.89-.35.07s-.4.53-.57-.3-.5,1.61-.36,2.45-.78,3.07-1.13,4.51,1.67-1.75,2-2.52"/><path class="cls-1" d="M80,34.47c-.14,1.1,0,1.54-.34,1.41s0-1.8-.31-1.8-.26.65-.31,1.12S78.93,37,79.67,37c1.25,0,1-2.16,1-2.56s-.45-1-.59.06"/><path class="cls-1" d="M82.53,33.77c-.31,0-.45.07-.42.7s.11,1.25-.23,1.18-.23-.79-.2-1.37-.23-.54-.23-.54-.31-.08-.31.52-.14,2.61.54,2.66,1-.5,1.11-1.82,0-1.33-.26-1.33"/><path class="cls-1" d="M84,37.37c1.16.1.93-1.8,1-2.27s.14-1.57-.14-1.6-.25.29-.25.81-.06,1.75-.4,1.77-.43-.59-.34-1.48.08-1-.09-1c0,0-.42,0-.42.7s-.48,3,.68,3.11"/><path class="cls-1" d="M87.24,33.32c-.35-.08-.57,0-.57.63s.09,2.56-.31,2.56S85.85,36,85.85,35s.28-1.56.08-1.61c0,0-.56-.29-.59.68s-.2,3.57.65,3.7,1.39-.86,1.3-2.06.29-2.27-.05-2.35"/><path class="cls-1" d="M88.37,33.09s-.46-.06-.51.73,0,2.24,0,2.94.09,1.34.83,1.41S90,37.16,90,36s.32-3-.17-3.08-.37.34-.33.79,0,3.33-.58,3.26-.65-1.3-.48-2.59c.2-1.48-.08-1.27-.08-1.27"/><path class="cls-1" d="M88.93,33.56s-.19-.13-.19.62-.2,2,.11,2,.08-.67.2-1.35.11-1.3-.12-1.3"/><path class="cls-1" d="M93.53,32.54c-.43-.06-.6-.13-.63.7s-.08,3.34-.08,3.34.08,1-.66,1-.73-.41-.73-1.33.26-3.34-.37-3.41c0,0-.48,0-.51.81s0,3.18,0,3.59A1.53,1.53,0,0,0,92,38.8c1.22.16,1.6-1.46,1.62-3s.34-3.16-.08-3.21"/><path class="cls-1" d="M92.16,33.4s-.3-.11-.33.6-.17,2.87.11,2.87.33-.13.31-.73c-.06-1.75.17-2.71-.09-2.74"/><path class="cls-1" d="M78.48,13.21l.39-2.58c.06-.37,0-.63-.55-.7l-.65-.08-.58,3.81.64.09c.52.06.69-.16.75-.54m-1,.21L77.73,12l.39.06.06-.36-.4,0L78,10.19l.2,0c.26,0,.33.11.29.33l-.4,2.64c0,.22-.12.28-.38.25l-.2,0"/><path class="cls-1" d="M45.39,32.32s-.57,0-.57-.48v-.48h1.11a.72.72,0,1,0,0-1.42H43.85v.35a.26.26,0,0,1,.32.29v1.47a.37.37,0,0,1-.36.26v.27h1.56l0-.26m.18-2.11a.37.37,0,1,1,0,.73h-.75v-.73h.75"/><path class="cls-1" d="M41,48.42h1.6a.35.35,0,0,1,.28.33h.29V47.31l-.28,0a.49.49,0,0,1-.52.54h-.52v-1a.77.77,0,0,0-1.54,0v1.91h.38s-.08-.29.31-.29m-.41-1.29a.4.4,0,0,1,.8,0v.7h-.8v-.7"/><path class="cls-1" d="M68.5,60a.28.28,0,0,1-.45.09l-1.29-.86a.35.35,0,0,1,0-.45l-.23-.16-1,1.3h0l-.37.45a.79.79,0,0,0,.12,1.14.9.9,0,0,0,.87,0,.66.66,0,0,0,.29.51.88.88,0,0,0,1.12-.22l.64-.81.1-.13.18-.23.35-.44L68.5,60m-2.65.89a.37.37,0,0,1-.08-.55l.43-.55a.59.59,0,0,1,.31.1l.43.29-.5.62a.45.45,0,0,1-.59.09m1.68.5a.42.42,0,0,1-.56.08.35.35,0,0,1-.1-.51l.43-.54.65.43-.42.54"/><path class="cls-1" d="M49.34,29.92A1.39,1.39,0,1,0,51,31.29a1.52,1.52,0,0,0-1.61-1.37m0,2.34c-.28,0-.66-.47-.66-1s.38-1,.66-1,.66.48.66,1-.39,1-.66,1"/><path class="cls-1" d="M53.7,32.32s-.57,0-.57-.48v-.48h.49l.82,1.22a1,1,0,0,0,.93-.32l-.13-.18s-.36.23-.52,0-.33-.53-.44-.68a.72.72,0,1,0,0-1.42H52.17v.35s.31-.07.31.29v1.47a.36.36,0,0,1-.36.26v.27h1.57v-.26m.18-2.11a.37.37,0,1,1,0,.73h-.75v-.73h.75"/><path class="cls-1" d="M41,43.26h1.6a.35.35,0,0,1,.27.33h.3V42.15H42.9a.47.47,0,0,1-.52.52h-.53v-.44l1.33-.76a.91.91,0,0,0-.34-.86l-.2.12s.24.33,0,.48l-.74.4a.77.77,0,0,0-1.53,0v1.91h.38s-.08-.29.31-.29M40.61,42a.37.37,0,0,1,.39-.36.38.38,0,0,1,.4.36v.69h-.79V42"/><path class="cls-1" d="M56,66.14s.56.1.41.61l-.15.46-.47-.12-.43-1.38a1.06,1.06,0,0,0-1,.07l.06.2s.42-.12.49.18.17.6.22.76a.82.82,0,0,0-1,.48.73.73,0,0,0,.59.89l1.47.39.52.14.11-.34s-.32,0-.22-.36.44-1.41.44-1.41a.37.37,0,0,1,.42-.15l.09-.26-1.51-.4-.09.24M55,67.68a.4.4,0,0,1,.48-.26l.73.19-.23.71-.71-.19a.36.36,0,0,1-.27-.45"/><path class="cls-1" d="M73,33.15s.09.29-.31.29h-1.6a.35.35,0,0,1-.27-.34h-.3v1.45h.28a.47.47,0,0,1,.52-.52h.53v.45l-1.33.75a.91.91,0,0,0,.34.86L71,36s-.24-.33,0-.48l.74-.4a.77.77,0,0,0,1.53,0V33.15H73m.1,1.58a.4.4,0,0,1-.8,0V34h.8v.69"/><polyline class="cls-1" points="61.42 32.37 61.02 32.37 62.09 30.91 63.64 32.57 64.99 31.25 65.82 32.37 65.31 32.37 65.31 32.59 67.28 32.59 67.28 32.37 67.02 32.37 65.69 30.56 65.71 30.55 65.71 30 65.07 30 65.07 30.39 63.97 31.46 62.69 30 61.29 30 61.29 30.43 61.65 30.43 61.66 30.43 60.24 32.37 59.95 32.37 59.95 32.59 61.42 32.59 61.42 32.37"/><polyline class="cls-1" points="69.78 32.18 69.55 32.18 69.55 30.42 69.78 30.42 69.78 30.01 68.45 30.01 68.45 30.42 68.68 30.42 68.68 32.18 68.45 32.18 68.45 32.58 69.78 32.58 69.78 32.18"/><polyline class="cls-1" points="40.78 39.83 42.7 39.83 42.7 40.04 43.13 40.04 43.13 38.82 42.7 38.82 42.7 39.03 40.78 39.03 40.78 38.82 40.35 38.82 40.35 40.04 40.78 40.04 40.78 39.83"/><polyline class="cls-1" points="40.77 34.88 43.23 33.43 40.77 31.67 40.77 31.19 40.37 31.19 40.37 32.47 40.77 32.47 40.77 32.1 42.15 33.08 40.77 33.89 40.77 33.8 40.37 33.8 40.37 35.25 40.77 35.25 40.77 34.88"/><polyline class="cls-1" points="40.62 38.23 41.19 38.23 41.19 38 40.92 38 40.92 37.28 42.72 37.28 42.72 37.73 43.13 37.73 43.13 35.99 42.72 35.99 42.72 36.44 40.92 36.44 40.92 35.72 41.19 35.72 41.19 35.49 40.92 35.49 40.92 35.49 40.35 35.49 40.35 38.23 40.62 38.23 40.62 38.23"/><polyline class="cls-1" points="40.78 45.47 42.7 45.47 42.7 45.68 43.13 45.68 43.13 44.45 42.7 44.45 42.7 44.66 40.78 44.66 40.78 44.45 40.35 44.45 40.35 45.68 40.78 45.68 40.78 45.47"/><path class="cls-1" d="M65.65,63.2s-.14-.08-.19-.13l-1.17-1.14c-.05,0-.06-.08-.05-.11a1.64,1.64,0,0,1,.23-.22l-.24-.23-2.14,1.84.36.66.26-.22c-.06-.11,0-.38,0-.4a.17.17,0,0,1,.08-.14l.87-.76,1.24,1.21a.8.8,0,0,1,.14.17,6.51,6.51,0,0,1-.48.44l.27.25,1.34-1.16L65.9,63a1.74,1.74,0,0,1-.25.19"/><path class="cls-1" d="M45.68,60.05l1.45-.84s.09-.05.12,0l.19.25.29-.17L46.17,57l-.77.19.19.28a1.05,1.05,0,0,1,.43.08.17.17,0,0,1,.13.08l.64.94-1.52.89a.81.81,0,0,1-.21.09,5.49,5.49,0,0,1-.38-.51l-.31.19,1,1.43.32-.18a1.44,1.44,0,0,1-.16-.26s.11-.11.17-.15"/><path class="cls-1" d="M47.21,60l.26.3.23-.09.13,0s.2.15.24.19l.53.6-.74.54-.68-.78-.32.23.69.79-.57.42-.59-.68,0,0a.12.12,0,0,1,0-.1.25.25,0,0,0,0-.07l.14-.18-.25-.28-.47.57,1.56,1.8.26-.2-.12-.14a.29.29,0,0,1-.05-.1l.07-.08L49,61.54s.09,0,.11,0a1.22,1.22,0,0,1,.2.19l.26-.19L48,59.64l-.75.31"/><path class="cls-1" d="M42.6,54.75l1.79-.55q.09,0,.12,0a1.06,1.06,0,0,1,.11.25l.32-.09-.83-2.28-.81.06.13.36h.25a.26.26,0,0,1,.13,0,.6.6,0,0,1,.15.26l.27.73-.89.27-.35-1-.38.12.35,1-.7.21-.3-.82s0,0,0,0a.14.14,0,0,1,.05-.09s0,0,.08-.06l.19-.12-.12-.34-.67.39.79,2.18.32-.1-.06-.18a.12.12,0,0,1,0-.1s0,0,.09,0"/><path class="cls-1" d="M41.72,52c.34,0,.58-.33.73-.87,0-.19.09-.36.13-.54a1.85,1.85,0,0,1,.16-.47A.31.31,0,0,1,43,50a.19.19,0,0,1,.19.11.86.86,0,0,1,.1.32,1.53,1.53,0,0,1,0,.59,1.43,1.43,0,0,1-.57.38l.19.48a5.61,5.61,0,0,1,.8-.31,3,3,0,0,0,.07-1,1.74,1.74,0,0,0-.41-1.09.76.76,0,0,0-.67-.34.63.63,0,0,0-.49.28,2.31,2.31,0,0,0-.26.71c0,.06,0,.17-.13.52a1.83,1.83,0,0,1-.16.49.09.09,0,0,1-.09.07c-.11,0-.27-.11-.3-.37a5,5,0,0,1,0-.93,1.65,1.65,0,0,1,.53-.28l-.14-.4a6.74,6.74,0,0,1-.79.25,3.34,3.34,0,0,0,.26,2.1.77.77,0,0,0,.68.43"/><path class="cls-1" d="M72.54,41.16c.14,0,.06,0,.09.05a.58.58,0,0,1,.14.07.45.45,0,0,1,0,.16v1l-2-1.65s-.29-.32-.29.22v2.56l.77.21v-.5c-.22-.06-.14-.12-.19-.16S71,43,71,42.87v-.8l2,1.61s.27.18.27-.24V40.86l-.78-.19v.49"/><path class="cls-1" d="M71,36.58s0-.11,0-.24h-.48v1.08H71V37.2h0l.48.23v1.15l-.49.25s0-.45,0-.47h-.48V40.1H71a1.14,1.14,0,0,1,0-.25.21.21,0,0,1,.12-.1l2.23-1.23v-.75l-2.28-1.13a.11.11,0,0,1-.08-.06m.87,1.13.63.29-.63.33v-.62"/><path class="cls-1" d="M71,44.41s0-.1,0-.23h-.48v1.08h.48V45h0l.48.23v1.15l-.49.24s0-.44,0-.46h-.48v1.75h.48a1.07,1.07,0,0,1,0-.25.21.21,0,0,1,.12-.1l2.23-1.23v-.75L71,44.49a.15.15,0,0,1-.08-.08m.87,1.14.63.29-.63.33v-.62"/><path class="cls-1" d="M61.81,64.09l-.26-.37-1,.57.26.38.2-.12h0l0,.49-1,.61-.49-.24.43-.24-.25-.38-1.61.93.26.38.23-.12a.28.28,0,0,1,.16,0l2.32,1.08.69-.41-.19-2.37a.12.12,0,0,1,0-.09,1.37,1.37,0,0,1,.21-.14m-1.36,1.75.57-.33.07.64-.64-.31"/><path class="cls-1" d="M53.4,64.53l-.28.37.19.12a0,0,0,0,1,0,0l-.48.22-1-.66c0-.42.06-.51.06-.51l.4.27.29-.36L51,63l-.28.36a1,1,0,0,1,.21.16.3.3,0,0,1,0,.15L50.77,66l.66.43,2.32-1a.15.15,0,0,1,.11,0,1.05,1.05,0,0,1,.21.13l.28-.36-1-.63m-1.67,1.15L51.8,65l.55.36-.62.3"/><path class="cls-1" d="M69,55.08l.09-.22-.44-.18-.48,1,.45.19.09-.2h0l.35.39-.51,1a3.72,3.72,0,0,1-.55,0l.2-.41-.44-.18L67,58.11l.44.19a.93.93,0,0,1,.13-.23.33.33,0,0,1,.16,0l2.57-.28.33-.69L69,55.18a.16.16,0,0,1,0-.1m.73,1.86L69,57l.27-.57.44.5"/><path class="cls-1" d="M72.27,51.38s0,.08,0,.09a1.07,1.07,0,0,1-.21,0L70.34,51c-.07,0-.11,0-.11-.06a1.1,1.1,0,0,1,.06-.28L70,50.61l-.38,1.3.35.09a.75.75,0,0,1,0-.16.14.14,0,0,1,0-.08s0,0,.1,0l.7.17-.32,1.14-.7-.17c-.07,0-.1,0-.1,0a.86.86,0,0,1,0-.24l-.34-.08L69,53.84l.34.09.06-.19c0-.05,0-.08,0-.09h.11l1.67.41a.76.76,0,0,1,.21.08,1.43,1.43,0,0,1-.07.28l.38.09.38-1.3-.38-.09,0,.16a.1.1,0,0,1,0,.07,1.06,1.06,0,0,1-.2,0l-.56-.14.33-1.14.56.13a.81.81,0,0,1,.2.08.63.63,0,0,1,0,.23l.38.09.37-1.3-.37-.09-.06.19"/><rect class="cls-2" x="16.26" y="87.79" width="25.68" height="1.43"/><rect class="cls-2" x="67.04" y="87.79" width="27.07" height="1.43"/><path class="cls-1" d="M14.63,101.83h.54a.47.47,0,0,0,.4-.41V95a.47.47,0,0,0-.4-.42h-.54v-.85h6.93v2.39h-.93l-.16-1.48H17v3h1.75l.1-1.07h.9v3h-.9l-.1-1.06H17v3.24h3.56l.15-1.64h1v2.54H14.63Z"/><path class="cls-1" d="M23.41,101.83H24a.47.47,0,0,0,.4-.41V95a.47.47,0,0,0-.4-.42h-.54v-.85h2.51L30,100.23h0v-5.7H29v-.85h3.16v.85h-.52a.45.45,0,0,0-.39.42v7.7H29.92l-4.41-7h-.05v6.15h1.16v.82H23.41Z"/><path class="cls-1" d="M33.59,101.83h.54a.47.47,0,0,0,.4-.41V95a.47.47,0,0,0-.4-.42h-.54v-.85h6.93v2.39h-.93l-.16-1.48H36v3h1.75l.11-1.07h.89v3h-.89l-.11-1.06H36v3.24h3.56l.15-1.64h1v2.54H33.59Z"/><path class="cls-1" d="M43.52,102.32c-.09,0-.17.14-.2.33h-1V100h1l.13,1.08a2.32,2.32,0,0,0,1.87.68c1,0,1.7-.47,1.7-1.46,0-1.21-.89-1.35-2.2-1.71-1.58-.44-2.36-1.09-2.36-2.62s1.19-2.42,2.85-2.42A3.26,3.26,0,0,1,47,94c.09,0,.18-.15.19-.28h.94v2.37h-1L47,95.16a2.1,2.1,0,0,0-1.62-.62c-.94,0-1.58.36-1.58,1.33s.82,1.23,2,1.57c1.72.46,2.59,1,2.59,2.66s-1,2.64-3,2.64A3.52,3.52,0,0,1,43.52,102.32Z"/><path class="cls-1" d="M53.86,99.39V95a.45.45,0,0,0-.41-.42h-.51v-.85h3.52v.85H55.33v4.94c0,1.8.89,2.24,2.18,2.24s2.17-.43,2.17-2.24V94.53H58.55v-.85h3.14v.85h-.51a.46.46,0,0,0-.4.42v4.44c0,2.29-1.17,3.35-3.42,3.35S53.86,101.68,53.86,99.39Z"/><path class="cls-1" d="M63,101.83h.54a.47.47,0,0,0,.4-.41V95a.47.47,0,0,0-.4-.42H63v-.85h2.51l4.12,6.55h0v-5.7H68.52v-.85h3.16v.85h-.52a.45.45,0,0,0-.39.42v7.7H69.49l-4.41-7h0v6.15h1.16v.82H63Z"/><path class="cls-1" d="M78.54,99.82H75l-.35,1c-.23.64-.15,1,.41,1h.61v.82H72.51v-.82h.32a.62.62,0,0,0,.55-.44L75.7,95c.09-.25,0-.43-.27-.43h-.69v-.85H78l2.62,7.73a.61.61,0,0,0,.51.42h.35v.82H78v-.82h1.26ZM75.35,99h2.91l-1.39-4.17h-.05Z"/><path class="cls-1" d="M82.73,101.83h.52a.45.45,0,0,0,.4-.41V95a.45.45,0,0,0-.4-.42h-.52v-.85H86l2.11,6.7h0l2.14-6.7h3.22v.85H93a.45.45,0,0,0-.4.42v6.47a.45.45,0,0,0,.4.41h.54v.82H90.07v-.82h1V94.67H91l-2.55,8h-1l-2.54-8h-.07v7.16h1v.82H82.73Z"/><path class="cls-1" d="M25.14,110v-3.36h.73V110a1.73,1.73,0,0,1-1.95,2,1.83,1.83,0,0,1-2-2v-3.34h.83V110c0,1,.52,1.32,1.26,1.32S25.14,111.06,25.14,110Z"/><path class="cls-1" d="M28.68,106.67h.94l2.3,3.89h0v-3.89h.71V112h-.76l-2.49-4.23h0V112h-.7Z"/><path class="cls-1" d="M35.5,112v-5.28h.83V112Z"/><path class="cls-1" d="M39.16,106.67h1.51a2.31,2.31,0,0,1,2.64,2.63A2.34,2.34,0,0,1,40.65,112H39.16Zm1.49,4.67c1.25,0,1.82-.57,1.82-2s-.57-2-1.82-2H40v4Z"/><path class="cls-1" d="M45.34,111.71l1.74-5H48l1.73,5V112h-.77l-.49-1.47H46.49L46,112h-.67Zm1.34-1.84h1.54l-.76-2.33h0Z"/><path class="cls-1" d="M52.11,106.67h1.51a2.31,2.31,0,0,1,2.64,2.63A2.34,2.34,0,0,1,53.6,112H52.11Zm1.49,4.67c1.24,0,1.82-.57,1.82-2s-.58-2-1.82-2h-.67v4Z"/><path class="cls-1" d="M62.58,112v-5.28h.82v4.67h2.35V112Z"/><path class="cls-1" d="M68.2,106.67h3.23v.64H69V109h1.77v.61H69v1.78h2.51V112H68.2Z"/><path class="cls-1" d="M73.53,109.31a2.41,2.41,0,1,1,2.4,2.69A2.43,2.43,0,0,1,73.53,109.31Zm3.94,0c0-1.4-.66-2.09-1.54-2.09s-1.55.69-1.55,2.09.66,2.07,1.55,2.07S77.47,110.73,77.47,109.33Zm-1.8-3,.32-.72h.78v.24l-.65.67h-.45Z"/><path class="cls-1" d="M80.88,106.67h.94l2.3,3.89h0v-3.89h.71V112h-.76l-2.5-4.23h0V112h-.7Z"/></svg>