<svg id="Capa_1" data-name="Capa 1" xmlns="http://www.w3.org/2000/svg" viewBox="0 0 290 118"><defs><style>.cls-1{fill:#1a1f43;}</style></defs><title>enes-leon</title><path class="cls-1" d="M82.51,58.66V36.18a.12.12,0,0,0-.13-.11H35.25a.13.13,0,0,0-.14.11V58.66l0,.06a37.62,37.62,0,0,0,7,21.21A30.1,30.1,0,0,0,58.78,91.64h.07A30.11,30.11,0,0,0,75.49,79.93a37.62,37.62,0,0,0,7-21.21l0-.06m-1-.13,0,.11c-.39,15.45-9.73,28.64-22.72,32.09-13-3.45-22.33-16.64-22.72-32.09V36.94H81.55V58.53"/><path class="cls-1" d="M58.76,85.43h.1C68.93,82,76.19,70.89,76.52,58.5a1.42,1.42,0,0,1,0-.23V41.94a.13.13,0,0,0-.14-.12H41.22a.13.13,0,0,0-.13.12V58.26a1.34,1.34,0,0,1,0,.24C41.43,70.89,48.69,82,58.76,85.43m.05-.94c-9.54-3.45-16.42-14.14-16.73-26a1.51,1.51,0,0,0,0-.26V43.08a4.18,4.18,0,0,0,.31.52c.27.38.87,1.43.87,1.43s.06.48-.14.54.28.33.41.51.47.75.74.81.33-.25.13-.56-.57-1.1-.57-1.1a5.18,5.18,0,0,0-.3-.88c-.2-.44-.41-1-.41-1s1.12.26,1.26.82a20.81,20.81,0,0,0,.76,2.52A5.62,5.62,0,0,0,46,48a4.19,4.19,0,0,0,2.08,1.36c.94.25,2-.31,2.49,0a10.19,10.19,0,0,0,2,1.3c.61.19,2.22.5,2.56,1.12s1.14.68,1.54.74,1.75.55,1.75,1.67l-1.08,2a3.73,3.73,0,0,0-.94,1.56c-.13.73-.54,1.17.27,2.28A7.38,7.38,0,0,1,58,63.54c.07,1,1.08,1.11,1.75,1.55s0,.86-.4,1.79-.2,2.84-.61,4.09-.87,1.67-.87,2.66a7,7,0,0,1-.34,2.9c-.4.87-.13,1.67-.2,2.6A4.08,4.08,0,0,0,58.24,82c.67.8,2.22,1.18,2-.06a4.53,4.53,0,0,1,.88-3.65l.8-.81a1.86,1.86,0,0,1,.68-1.67c.81-.49,1.34-.87.87-1.05s0-.61.47-.61.68.18,1.75-1a6.9,6.9,0,0,1,2.49-2c1.07-.55,1.48-1.67,2.15-2.29A6,6,0,0,1,73,67.56,1.49,1.49,0,0,0,74.11,66c0-.8-.27-1.36.33-2.23s.24-1,.78-1.47c-1.49,10.31-7.88,19.16-16.41,22.24M75.56,58.22a1.38,1.38,0,0,1,0,.26c0,.5,0,1-.07,1.47-.5-.45-1.29-.75-1.77-1.24a5.34,5.34,0,0,0-1.55-1.05A1.27,1.27,0,0,0,71,57.41c-.74.12-1.34,0-1.48-.68s-.07-1.36-.8-1.74A12.05,12.05,0,0,1,67,53.82c-.54-.37-1.08-1.06-1.28-1.11a11.42,11.42,0,0,0-1.62,0,2.48,2.48,0,0,0-2-.43s-.74-1-1.55-.49-1.48.92-2,.37-1.28-.31-1.82-.24-1-.81-1.14-1.18,0-.93-.2-.93-1,.25-1.55-.13-.26-.74-.06-1a3.59,3.59,0,0,0,.34-1.79l-.62-.06s-.73-.13-.87.37a1.65,1.65,0,0,1-1.81.8,2.12,2.12,0,0,1-1.55-1.3,2,2,0,0,1-.07-1.49c.14-.37-.46-1-.66-1.22s-.21.12-.62-.51a3.51,3.51,0,0,0-.75-.78H75.56V58.22"/><path class="cls-1" d="M45.76,18.26a2.11,2.11,0,0,0-2.29.19,1.18,1.18,0,0,1-.42.35,2.88,2.88,0,0,0-2.09.63,1.32,1.32,0,0,0-.07,1.4c.8,2,.89,2.37.89,2.38l0,.07s1.44,1.28.84,2.48-.55,1.65.24,2c.63.31.91.66.91,2v.1c0,.91,0,1.7.46,2.13a1.4,1.4,0,0,0,1,.32,1,1,0,0,0,.79-.35c.65-.74.45-2.45.24-3.26s-.56-2.31,0-2.71.92-.54,1.25-.2l.11,0c.3,0,.85-.22.81-.79a1.49,1.49,0,0,0-.14-.53v0l.23,0a1,1,0,0,0,1-.26.82.82,0,0,0,.1-.91,12.37,12.37,0,0,0-2-2.7l-.22-.18c-.42-.36-.42-.36-.4-.71,0-.56-.42-1.08-1.34-1.48m1.85,6.5s0,.08,0,.13a2,2,0,0,0-1.81.47c-.94.64-.67,2.13-.34,3.49a3.92,3.92,0,0,1-.08,2.62.16.16,0,0,1-.15.06.69.69,0,0,1-.42-.1c-.22-.21-.22-.94-.22-1.59v-.1c0-1.46-.35-2.14-1.35-2.63a1.29,1.29,0,0,1-.23-.12,3.12,3.12,0,0,1,.36-.91c.72-1.43-.46-2.8-.88-3.22-.09-.29-.32-.93-.87-2.29-.13-.32-.14-.56,0-.68.23-.28,1-.35,1.4-.33a.62.62,0,0,0,.19,0,1.69,1.69,0,0,0,.9-.61,1.37,1.37,0,0,1,1.3,0c.71.32.88.61.87.74-.05.68.11.86.66,1.33l.21.18A11.49,11.49,0,0,1,49,23.66v.1a.24.24,0,0,1-.17,0,1.08,1.08,0,0,0-1.1.15.74.74,0,0,0-.08.84"/><path class="cls-1" d="M44.08,21.06a.67.67,0,1,0,.72.66.69.69,0,0,0-.72-.66"/><path class="cls-1" d="M36.57,21.37c-.13,0-3.21.77-3.21,2.65a2,2,0,0,0,2,2l.12-.07v-.13a1.09,1.09,0,0,1-.36-.81c.05-.25.34-.41.65-.58s.78-.43.71-.86a5.35,5.35,0,0,1,.25-2l0-.12-.13,0m-2.21,3.31a1.16,1.16,0,0,1-.18-.66c0-.69.77-1.19,1.49-1.52a4.77,4.77,0,0,0,0,1.06c-.07.06-.25.15-.3.19a1.86,1.86,0,0,0-1,.93"/><path class="cls-1" d="M38.23,24.64c-1.28.63-2.13,1.12-2.13,1.13l-.06.11c0,.06.05.09.1.11a32.87,32.87,0,0,0,4.6.71,1.94,1.94,0,0,0,1.39-1,2.14,2.14,0,0,0-.5-2.18c-1-1.87-1.65-3.24-1.65-3.25a.13.13,0,0,0-.15-.07s-3.33.72-2.85,3.63a.12.12,0,0,0,.13.1h1.17c.18,0,.45.16.46.28s0,.18-.51.42m1.33-.51c-.08-.65-.86-.88-1.09-.93l-.17,0h-.54a2.43,2.43,0,0,1,1.71-2.06c.26.54.76,1.54,1.43,2.75l0,.07c.31.43.64,1,.43,1.47a1.14,1.14,0,0,1-.77.54,19.59,19.59,0,0,1-2.52-.36l.55-.28c.25-.12,1-.5.93-1.18"/><path class="cls-1" d="M43.93,32.46a.36.36,0,0,0-.24-.25l-.77-.38h0a1,1,0,0,0-.86.3L38.5,34.48c-.1.07-.4.31-.34.53s.1.17.32.21c.53.09,2.08.26,2.15.26a1.77,1.77,0,0,0,1.12-.3c.29-.29,1.9-2,2-2.1s.28-.36.21-.62m-2.78,2.19a1,1,0,0,1-.46.07l-1-.11,2.81-1.88.09-.07.09-.07.27.13c-.59.64-1.6,1.71-1.82,1.93"/><path class="cls-1" d="M42.47,35.6l1.39.13c.1,0,.57.07.94-.58l1-1.64a.54.54,0,0,0,.11-.49c0-.09-.12-.2-.37-.25l-.68-.16a.77.77,0,0,0-.84.21c-.21.3-1.73,2-1.74,2s-.27.32-.16.55a.46.46,0,0,0,.4.23M43.93,35l-.71-.07c.41-.46,1.09-1.23,1.36-1.57l.29.06c-.21.38-.79,1.39-.79,1.39a.58.58,0,0,1-.15.19"/><path class="cls-1" d="M46,35.78h1.12a.71.71,0,0,0,.72-.77V33.22l0-.07a.84.84,0,0,0-.71-.29,3.67,3.67,0,0,1-.68,0,.6.6,0,0,0-.55.42c-.12.33-.74,1.58-.75,1.6a.61.61,0,0,0,0,.59,1,1,0,0,0,.85.3m1-.77H46c.15-.32.5-1,.64-1.38h.39V35"/><path class="cls-1" d="M51.23,35.64l1-.09a.34.34,0,0,0,.28-.13.5.5,0,0,0,0-.53c-.24-.51-1.45-2.79-1.5-2.88l0,0s-.25-.29-.52-.2h0l-.66.36a.46.46,0,0,0-.22.64c.18.44.84,2.43.85,2.45v0c0,.16.24.47.83.42m-.8-3c.29.55.84,1.58,1.14,2.17l-.41,0h0c-.13-.41-.54-1.63-.75-2.18l0,0"/><path class="cls-1" d="M48.49,35.78l1.41,0a.45.45,0,0,0,.35-.16.44.44,0,0,0,0-.45l-.84-2.31v0a.53.53,0,0,0-.62-.26,6.49,6.49,0,0,1-.67.19l0,0s-.17.11-.18.43.1,2,.1,2.12.13.51.47.48m.35-.77c0-.62-.07-1.32-.09-1.65h0L49.35,35l-.51,0"/><path class="cls-1" d="M53.32,35.46c.39,0,1-.13,1.08-.14a.68.68,0,0,0,.51-.25.78.78,0,0,0-.09-.79c-.48-.83-2.2-3.32-2.31-3.48a.42.42,0,0,0-.29-.22.46.46,0,0,0-.38.14l-.65.55A.61.61,0,0,0,51,32c.23.45,1.58,3,1.6,3h0a.65.65,0,0,0,.7.39m-1.5-3.69.24-.2c.47.67,1.62,2.36,2,3l-.72.11c-.19-.38-1.25-2.4-1.52-2.93"/><path class="cls-1" d="M31.87,62.37c-1.78-.77-3.46-.14-3.46,1.31,0,3.37,7.51,2.87,6.27-3-.7-3.35-2.91-7.64-3.46-13.92s3.12-8.32,3.12-8.32V36.9c-5.78,2.59-4.65,14-2.91,19.33s.44,6.14.44,6.14"/><path class="cls-1" d="M89.32,63.68c0-1.45-1.68-2.08-3.46-1.31,0,0-1.29-.82.45-6.14s2.86-16.74-2.92-19.33v1.59s3.65,2,3.12,8.32S83.75,57.38,83,60.73c-1.23,5.82,6.28,6.32,6.28,3"/><path class="cls-1" d="M29.61,67.13l-3.54,2.65c-4.1-2.92-5.9.53-5.9.53a6.19,6.19,0,0,1,2.74.13c-3.16.8-2.38,2.65-2.38,2.65s3.25-1.79,4.61.26a3.64,3.64,0,0,1-.43,4.71c5.4,0,3.6-6.63,3.6-6.63l4.74-4.3H29.61"/><path class="cls-1" d="M96.79,70.31s-1.8-3.45-5.91-.53l-3.52-2.65H83.9l4.76,4.3s-1.8,6.63,3.6,6.63a3.65,3.65,0,0,1-.44-4.71c1.37-2,4.61-.26,4.61-.26s.79-1.85-2.38-2.65a6.19,6.19,0,0,1,2.74-.13"/><path class="cls-1" d="M34.22,42.27l.06-2.63a1.93,1.93,0,0,1-1.08,1.17c-.51.28-.26.62-.26.62a1.16,1.16,0,0,1,1.28.84"/><path class="cls-1" d="M33.61,49.1c.2,1.79.72,1.13.72,1.13s-.15-3-.21-3.53-1.95-.27-2,.33a30.73,30.73,0,0,0,.36,3.16l.56-.1-.11-2.21s.47-.57.67,1.22"/><path class="cls-1" d="M34,55.27c.47.59.53-2.36.38-2.93,0,0-1.44-.4-1.3.29A6.25,6.25,0,0,0,34,55.27"/><path class="cls-1" d="M32.19,43.85c0,.59,1.93.36,1.93.36v-1s-1.93-.28-1.93.59"/><path class="cls-1" d="M34.12,45.66v-.93s-1.93-.29-1.93.58c0,.58,1.93.35,1.93.35"/><path class="cls-1" d="M39.42,78.14a.57.57,0,0,0-.59-.54.55.55,0,1,0,0,1.1.57.57,0,0,0,.59-.56"/><path class="cls-1" d="M85,72.16a.55.55,0,1,0,0,1.09.55.55,0,1,0,0-1.09"/><path class="cls-1" d="M83.55,73a.6.6,0,1,0-.59.56.58.58,0,0,0,.59-.56"/><path class="cls-1" d="M81.74,73.23a.6.6,0,0,0-1.19,0,.6.6,0,0,0,1.19,0"/><path class="cls-1" d="M33.29,82.9l.31-3.3s-.31-.66-1.36-.17l-.18,2.5s-.62.93-1.91-.11l.18-2.56a1,1,0,0,0-1.26-.17l-.22,3.37a3.28,3.28,0,0,0,4.44.44"/><path class="cls-1" d="M31.17,81.55a.35.35,0,0,0,.39-.31l.07-1.08a.37.37,0,0,0-.74,0l-.07,1.07a.34.34,0,0,0,.35.36"/><path class="cls-1" d="M38.31,83.58l.3-3.15s-.3-.62-1.3-.16l-.18,2.39s-.59.89-1.83-.11l.18-2.45a1,1,0,0,0-1.21-.16l-.21,3.24a3.16,3.16,0,0,0,4.25.4"/><path class="cls-1" d="M36.28,82.3a.36.36,0,0,0,.38-.31l.06-1a.35.35,0,0,0-.33-.34.34.34,0,0,0-.37.31L36,82a.34.34,0,0,0,.33.35"/><path class="cls-1" d="M42.79,83.92l.12-1.65s-.16-.84-1-.26l-.12.73s-.48.59-.4-.44l.08-1s-.27-.32-.55.11l0,1.31s-.24.22-.68,0l.17-1.86s-.29-.76-1.12-.18l-.16,2.88s1.23,2,3.73.41"/><path class="cls-1" d="M31.21,76.94a.56.56,0,0,0-.59-.55.57.57,0,0,0-.6.55.58.58,0,0,0,.6.55.57.57,0,0,0,.59-.55"/><path class="cls-1" d="M34.14,77.34a.59.59,0,1,0-.58.55.57.57,0,0,0,.58-.55"/><path class="cls-1" d="M36.49,77.7a.57.57,0,0,0-.6-.54.56.56,0,0,0-.59.54.57.57,0,0,0,.59.56.58.58,0,0,0,.6-.56"/><path class="cls-1" d="M33.59,68.22l0,1.93L35,71.21s.71-2.41-1.39-3"/><path class="cls-1" d="M35.57,73.25c-.15.19-.43.55-.59-.11s-.76-.58-1.07-.58-.75,1.21-1,.37-.43-1.29-1.55-1.1v2L36.84,75s0-1.35-.23-1.57-.88-.33-1-.15"/><path class="cls-1" d="M37,75.84a37.78,37.78,0,0,0-5.59-1.16l0,.8,5.75,1.24s.2-.18-.12-.88"/><path class="cls-1" d="M88.42,82.46l-.22-3.37a1,1,0,0,0-1.27.17l.19,2.56c-1.3,1-1.92.11-1.92.11L85,79.43c-1-.49-1.36.17-1.36.17L84,82.9a3.3,3.3,0,0,0,4.45-.44"/><path class="cls-1" d="M85.7,81.24a.35.35,0,0,0,.39.31.33.33,0,0,0,.35-.36l-.07-1.07a.37.37,0,0,0-.74,0l.07,1.08"/><path class="cls-1" d="M83.2,83.18,83,79.94a1,1,0,0,0-1.21.16L82,82.55c-1.24,1-1.82.11-1.82.11L80,80.27c-1-.46-1.29.16-1.29.16l.3,3.15a3.15,3.15,0,0,0,4.24-.4"/><path class="cls-1" d="M80.88,80.62a.35.35,0,0,0-.34.34l.07,1a.35.35,0,0,0,.37.31.34.34,0,0,0,.34-.35l-.07-1a.35.35,0,0,0-.37-.31"/><path class="cls-1" d="M75.5,82.74,75.39,82c-.88-.58-1,.26-1,.26l.13,1.65c2.49,1.6,3.72-.41,3.72-.41L78,80.63c-.83-.58-1.11.18-1.11.18l.16,1.86c-.44.25-.68,0-.68,0l0-1.31c-.28-.43-.56-.11-.56-.11l.08,1c.08,1-.4.44-.4.44"/><path class="cls-1" d="M15.2,18.94c.4-.15.77-.47.54-1L14,13.76l-.48.17,1.74,4c.14.35.07.5-.17.59s-.41,0-.56-.32l-1.74-4-.48.17,1.8,4.18a.83.83,0,0,0,1.14.39"/><polyline class="cls-1" points="17.27 18.22 15.84 13.79 15.85 13.79 17.91 18.04 18.61 17.85 17 12.87 16.57 12.99 17.95 17.26 17.93 17.26 15.95 13.17 15.23 13.36 16.84 18.34 17.27 18.22"/><polyline class="cls-1" points="20 17.53 18.62 12.49 18.12 12.61 19.5 17.64 20 17.53"/><polyline class="cls-1" points="21.98 17.1 21.38 11.9 20.88 12.01 21.5 16.71 21.49 16.71 19.87 12.21 19.36 12.31 21.24 17.25 21.98 17.1"/><polyline class="cls-1" points="24.57 16.61 24.48 16.22 23.65 16.37 23.2 14.31 24 14.17 23.92 13.78 23.12 13.92 22.72 12.06 23.56 11.91 23.48 11.52 22.13 11.76 23.22 16.86 24.57 16.61"/><path class="cls-1" d="M25.89,16.39l-.47-2.46.35-.06c.23,0,.41,0,.46.25l.4,2.15.51-.08L26.73,14c-.07-.35-.31-.42-.67-.38h0c.39-.09.53-.25.45-.65l-.24-1.29c-.09-.51-.41-.54-.9-.47l-.94.15,1,5.12.51-.08M25,11.67l.29,0c.26-.05.43,0,.49.27L26,13.05c.06.3-.07.39-.31.43l-.34,0L25,11.67"/><path class="cls-1" d="M27.37,12.26a1.11,1.11,0,0,0,.33.62l.95,1.1a.87.87,0,0,1,.23.47l.12.72c0,.23,0,.39-.25.42s-.35-.09-.39-.33l-.11-.68-.51.07.12.71c.08.52.4.71,1,.63a.71.71,0,0,0,.69-.87l-.14-.81a1.09,1.09,0,0,0-.29-.6l-1-1.16a1,1,0,0,1-.19-.45l-.09-.54c0-.2,0-.36.23-.39s.32.11.35.31l.11.63L29,12l-.11-.65c-.08-.47-.35-.69-.92-.61s-.77.36-.68.87l.1.62"/><polyline class="cls-1" points="30.96 15.66 30.18 10.51 29.68 10.58 30.45 15.72 30.96 15.66"/><path class="cls-1" d="M32.84,15.43c.69-.08.83-.43.75-.94L33.12,11c-.07-.5-.29-.81-1-.73l-.87.1.7,5.16.88-.11m-.74-4.74c.34,0,.46,0,.5.35l.49,3.56c0,.29-.06.4-.4.44l-.27,0-.59-4.35.27,0"/><path class="cls-1" d="M34.9,13.76l.91-.09.38,1.4.5-.05L35.26,9.94l-.71.08-.2,5.24.51,0,0-1.45m0-3.42h0l.74,2.94-.79.07,0-3"/><path class="cls-1" d="M38.29,14.88c.7-.06.84-.41.79-.91l-.36-3.5c0-.51-.26-.82-1-.76l-.88.08L37.42,15l.87-.08m-.58-4.76c.34,0,.46.06.49.36l.37,3.57c0,.3-.07.41-.41.44l-.27,0-.46-4.38.28,0"/><polyline class="cls-1" points="41.87 14.6 41.49 10 41.51 10 42.52 14.56 43.26 14.51 42.84 9.33 42.39 9.36 42.75 13.79 42.73 13.79 41.74 9.4 40.99 9.45 41.41 14.63 41.87 14.6"/><path class="cls-1" d="M44.57,13l.9,0,.31,1.42.51,0L45.12,9.19l-.7,0-.49,5.23.52,0L44.57,13m.22-3.41h0l.59,3-.8,0,.2-3"/><path class="cls-1" d="M47.73,14.31c.53,0,.78-.32.76-.76l0-.74-.51,0,0,.72c0,.22-.06.34-.27.35s-.29-.1-.3-.32l-.21-3.81c0-.22.07-.34.27-.34s.3.09.3.31l0,.67.52,0,0-.69c0-.44-.3-.7-.84-.68s-.79.32-.76.76l.2,3.83c0,.44.31.71.85.69"/><polyline class="cls-1" points="49.8 14.18 49.57 8.99 49.05 9.01 49.28 14.2 49.8 14.18"/><path class="cls-1" d="M51.69,14.17c.7,0,.89-.4.88-.91l-.12-3.53c0-.51-.24-.87-.94-.85s-.89.39-.87.91l.11,3.52c0,.51.25.87.94.86m-.17-4.88c.33,0,.4.19.42.47l.11,3.5c0,.29,0,.49-.37.5s-.4-.19-.41-.48l-.12-3.49c0-.3.05-.49.37-.5"/><polyline class="cls-1" points="54.01 14.06 53.92 9.44 53.93 9.44 54.68 14.05 55.41 14.04 55.3 8.84 54.85 8.85 54.94 13.29 54.92 13.29 54.2 8.86 53.45 8.88 53.56 14.07 54.01 14.06"/><path class="cls-1" d="M56.8,12.58h.91L57.93,14h.52l-.87-5.19h-.7L56.09,14h.52l.19-1.45m.42-3.39h0l.42,3h-.8l.36-3"/><polyline class="cls-1" points="60.53 13.62 59.67 13.62 59.7 8.82 59.18 8.82 59.15 14.02 60.53 14.02 60.53 13.62"/><path class="cls-1" d="M62.93,12.62h.91L64,14.07h.51l-.71-5.21h-.7L62.17,14h.52l.24-1.43m.52-3.39h0l.33,3H63l.46-3"/><path class="cls-1" d="M66.05,14.17c.44,0,.92-.14.94-.72L67.15,9l-.52,0-.15,4.35c0,.37-.14.49-.41.47s-.39-.12-.37-.5l.15-4.34h-.52l-.16,4.49c0,.58.45.76.88.77"/><polyline class="cls-1" points="68.3 14.2 68.82 14.22 69.04 9.44 69.62 9.45 69.64 9.05 67.97 8.99 67.95 9.39 68.52 9.41 68.3 14.2"/><path class="cls-1" d="M71.05,14.37c.7,0,.93-.32,1-.83L72.22,10c0-.52-.16-.89-.85-.92s-.93.31-1,.83l-.21,3.51c0,.52.16.89.85.93m-.33-.91.2-3.5c0-.29.1-.48.42-.47s.38.23.37.51l-.21,3.5c0,.28-.1.48-.42.47s-.38-.23-.36-.51"/><polyline class="cls-1" points="73.69 9.85 73.71 9.85 74.02 14.49 74.75 14.54 75.13 9.35 74.68 9.33 74.35 13.76 74.34 13.76 74.03 9.29 73.28 9.24 72.9 14.42 73.35 14.45 73.69 9.85"/><path class="cls-1" d="M76.58,14.71a.79.79,0,0,0,1-.8l.31-3.52c0-.51-.13-.9-.83-.94a.79.79,0,0,0-1,.81l-.31,3.51c-.05.51.13.9.82.94m-.31-.92.31-3.48c0-.29.11-.48.43-.46s.37.23.35.51l-.31,3.49c0,.28-.1.49-.43.46s-.37-.23-.35-.52"/><polyline class="cls-1" points="79.38 10.08 79.39 10.08 79.48 14.9 80.12 14.96 81.22 10.25 81.23 10.25 80.73 15.02 81.17 15.06 81.72 9.89 80.93 9.82 79.87 14.39 79.85 14.39 79.76 9.71 78.97 9.64 78.42 14.81 78.87 14.85 79.38 10.08"/><path class="cls-1" d="M82.72,13.77l.9.09,0,1.45.51.06L84,10.12l-.71-.07-1.47,5.07.51.06.39-1.41m.87-3.33h0v3l-.79-.09.76-2.93"/><polyline class="cls-1" points="91.38 11.49 91.4 11.49 91.08 16.3 91.72 16.41 93.2 11.78 93.21 11.78 92.32 16.5 92.76 16.57 93.74 11.46 92.95 11.33 91.51 15.81 91.49 15.81 91.8 11.14 91.01 11.01 90.04 16.13 90.48 16.21 91.38 11.49"/><polyline class="cls-1" points="95 16.99 95.09 16.59 94.26 16.44 94.71 14.39 95.51 14.54 95.59 14.14 94.8 13.99 95.22 12.14 96.04 12.29 96.14 11.9 94.79 11.64 93.67 16.74 95 16.99"/><polyline class="cls-1" points="95.48 17.08 95.98 17.19 97.01 15.16 97.02 15.17 96.98 17.4 97.48 17.51 97.42 14.81 98.7 12.44 98.2 12.33 97.25 14.29 97.23 14.29 97.32 12.14 96.82 12.03 96.84 14.69 95.48 17.08"/><polyline class="cls-1" points="98.58 17.78 100.02 12.75 99.53 12.63 98.08 17.66 98.58 17.78"/><path class="cls-1" d="M100.25,18.27a.73.73,0,0,0,1-.47l.24-.71L101,17l-.23.7c-.08.21-.19.29-.39.23s-.24-.18-.17-.39l1.22-3.65c.07-.21.19-.29.39-.23s.23.18.16.39l-.21.64.49.14.22-.66c.14-.41,0-.76-.54-.9a.73.73,0,0,0-1,.47l-1.22,3.68c-.15.41,0,.75.53.9"/><path class="cls-1" d="M102.48,19a.83.83,0,0,0,1.2-.5l1.45-3.27a.73.73,0,0,0-.49-1.12.83.83,0,0,0-1.2.5L102,17.86a.74.74,0,0,0,.48,1.13m0-1,1.44-3.24c.11-.27.25-.43.56-.32s.28.32.16.59l-1.43,3.24c-.11.27-.25.43-.56.32s-.28-.32-.17-.59"/><path class="cls-1" d="M9.74,17.65c.95,1.26,1.2,1.59,1.2,2.63v.31a2.87,2.87,0,0,0,.64,2.32,4,4,0,0,0,2.77.75,27,27,0,0,0,4-.51,34.28,34.28,0,0,1,8.23-.74c-.63.59-2.72,2.12-7,1.7s-8.73-.58-10.29,1.46c-.84,1.1-.7,2.75.43,4.89a.14.14,0,0,0,.16.07,3.75,3.75,0,0,0,2.54-4.36,19.21,19.21,0,0,1,3.8.88l.84.25c-2.63.69-4.74,1.7-4.74,2.78,0,.65.8.89,2.7,1.69s3.85,1.48,5.57,2.25c4.88,2.22,8.43,4.15,9,3.68.7-.64-11-4.9-8.23-8.58,1.55-2.07,4.1.68,2,1.11s3,5.22,9.05,6.85a9.15,9.15,0,0,1,1.9-1.42s.9-.63-.43-.95-9.59-2.66-6.18-5.56c1-.86,1.1-1.47.66-1.88a8.3,8.3,0,0,0,2.85-1.59,2.86,2.86,0,0,0,1.05-2.06c0-2-2.69-4.72-3.7-5.67a217.65,217.65,0,0,1,30.29-2,213.27,213.27,0,0,1,31,2.07c-1,.92-3.73,3.7-3.73,5.7a2.88,2.88,0,0,0,1.06,2.06A7.11,7.11,0,0,0,89,27c-.85.48-1.34,1-1.34,1.42a2.42,2.42,0,0,0,1.66,2.23c.21,2-4.85,4.07-6.25,4.61a10.62,10.62,0,0,1,1.74.83A11.47,11.47,0,0,0,92,31.28c1.07-1.31-1.72-.62-1.72-1.92s4.18-2.25,3.33,1.3c-.75,3.22-5.78,5.24-8,6a6.53,6.53,0,0,1,.85.74c.11.18.4.58.61.53s.07-.78.47-.7.71.24.9-.13.15-.76.5-.54.4.42.73.29-.28-1,.48-.76.88-.19.71-.54.32-.16.81.13.54-.29.28-.64.08-.64.52-.24,1.26.27.67-.3.09-1.07.73-.61.58.18.22-.38-.08-.75.73-.28,1.35.3.48-.33-.52-1.07.38-.59,2,.68,1-.13-1.3-1.38-.11-.8,2.13.45.33-.58,1-.08,1.59.42.76-.3-.48-.93-.5-.83,1.14-.08,1.64.06.28-.41-1.9-1.37-.23-.6,3.35.89,1.66.07a9.23,9.23,0,0,1-1.54-.85c.49-.16,1.13,0,2.28.72,2.2,1.43.09,3-1.81,3.63-2.79,1-3.91,2-6.91,4a12.06,12.06,0,0,1-5.67,1.62,4.59,4.59,0,0,1,.41.9A17.55,17.55,0,0,0,95,37.32c2.39-1.35,6.5-3.51,9.49-4.17,2.33-.5,4.5-1.62,1-3.95a21.55,21.55,0,0,0-3.59-1.94l.2-.07a19.14,19.14,0,0,1,3.81-.88,3.74,3.74,0,0,0,2.53,4.36.16.16,0,0,0,.17-.06c1.12-2.15,1.26-3.79.42-4.9-1.56-2-6.08-1.88-10.29-1.46-4.73.47-6.78-1.46-7.14-1.85a9.48,9.48,0,0,1,1.78,0c1.3.1,2.83.33,4.29.56,3.46.53,7,1.09,8.64,0a2.05,2.05,0,0,0,.88-1.53,8.67,8.67,0,0,1,1.61-3.64c.7-1.1,1.32-2.06,1-2.91a2.91,2.91,0,0,0-1.85-1.47C103.28,11.5,96.2,9.83,88,8.64a209.81,209.81,0,0,0-29.53-2c-19.61,0-37.85,2.29-47.61,6-.08,0-1.95.62-2.42,1.88a2,2,0,0,0,.38,1.89l1,1.3M11.1,13.3l0,0c9.67-3.64,27.79-5.9,47.3-5.9,23.94,0,41.44,3.6,49.16,6.67.79.31,1.27.66,1.39,1,.19.52-.33,1.33-.94,2.27a9.31,9.31,0,0,0-1.72,4,1.41,1.41,0,0,1-.56,1l0,0a1.43,1.43,0,0,0-.48-.74c-3.27-3-23.16-6.37-46.48-6.37a212.84,212.84,0,0,0-33.15,2.42A67.12,67.12,0,0,0,15.55,20c-2,.7-3.23,1.39-3.62,2.06a3.61,3.61,0,0,1-.17-1.42v-.32c0-1.27-.35-1.72-1.35-3.06l-.94-1.28a1.3,1.3,0,0,1-.29-1.23c.28-.75,1.5-1.28,1.91-1.41m86.67,8.89c-1.48-.23-3-.47-4.37-.56a8.41,8.41,0,0,0-6.47,1.83c.28-1.53,2.54-3.93,4-5.22,7.56,1.19,12.44,2.67,13.77,3.89a.68.68,0,0,1,.26.37.29.29,0,0,1-.06.16c-1.66.37-4.52-.07-7.09-.47m-7.18.5.33.19c.44.48,2.71,2.63,7.87,2.11,2.15-.21,6.88-.68,8.92.61a13.6,13.6,0,0,0-5.91.87l-1.11.33a15.77,15.77,0,0,0-10.78-.22,7.14,7.14,0,0,1-2.18-1.28,2.65,2.65,0,0,1-.66-.86,6.35,6.35,0,0,1,3.46-1.89.1.1,0,0,0,.06.14m16.13,3.6a7.4,7.4,0,0,1,1.82.26,4,4,0,0,1-.44,3.15,2.82,2.82,0,0,1-1.38-3.41M31.2,22.91c-3.82-2.12-9.13-1.19-13-.5a25.58,25.58,0,0,1-3.8.49,4.78,4.78,0,0,1-1.63-.22.33.33,0,0,1-.11-.18.68.68,0,0,1,.26-.37c1.36-1.26,6.52-2.79,14.5-4,1.31,1.21,3.29,3.3,3.83,4.8m-3.9,3.88a20,20,0,0,0-6.16-.24c-.84.09-1.7.22-2.54.39-.74-.18-1.46-.4-2.16-.61a13.6,13.6,0,0,0-5.91-.87c2-1.29,6.77-.82,8.92-.61,5.16.52,7.43-1.63,7.87-2.12l.34-.17,0,0a9.05,9.05,0,0,1,3.64,1.35c-.21,1.11-1.68,2.22-4,2.9M10.13,29.56A4.12,4.12,0,0,1,9.7,26.4a8.58,8.58,0,0,1,1.82-.26,2.82,2.82,0,0,1-1.39,3.42"/><path class="cls-1" d="M61.7,32.92l-.1,0,0,.1s.23,2.49,3.29,2.49c2.68,0,5.1-2,5.67-2.48.36.55,1.81,2.54,3.09,2.41.55-.06,1-.49,1.28-1.26a3.51,3.51,0,0,0,5.88-.94v-.14a.15.15,0,0,0-.15,0s-2.58.72-4.16-.35a3.35,3.35,0,0,1-1.3-3,13.61,13.61,0,0,1,.41-4.1,6.37,6.37,0,0,0,2.62.67c2.85.06,3.4-1.54,3.42-1.6l0-.12-.13,0a5.44,5.44,0,0,1-2-.05c1.31-.41,2.26-.42,2.75,0a1.27,1.27,0,0,1,.37,1.18.13.13,0,0,0,.08.13.13.13,0,0,0,.16,0c1-1,1.38-1.88,1.12-2.6-.43-1.23-2.64-1.75-4.68-2.14a5.81,5.81,0,0,1-4-3.53l-.08-.07H75a5.34,5.34,0,0,0-1.66,1.25l-2-2-.1,0-.11,0a2.62,2.62,0,0,0-.34,2.41,2.83,2.83,0,0,1-.93-1.7.13.13,0,0,0-.08-.11l-.15,0s-2,1.74,0,4.29c-.44.17-2,.56-5.07-.24l-.1,0-.06.07a2.1,2.1,0,0,0,.45,1.8A4.3,4.3,0,0,0,68,24.37c-.5.34-1.88,1-4.62.23l-.13,0,0,.12s.84,3.05,5,2.54A7.1,7.1,0,0,1,62,28.79l-.11,0,0,.09a3,3,0,0,0,1.46,2.47c1.21.61,3,.28,5.35-1-.33.81-1.7,3-6.92,2.52m7.17-8.27A.59.59,0,0,0,69,24a.71.71,0,0,0-.62-.36,3.81,3.81,0,0,1-2.82-.85,1.39,1.39,0,0,1-.27-.49c3.32.69,4.79,0,5-.09a.64.64,0,0,0,.32-.42.58.58,0,0,0-.12-.52,2.73,2.73,0,0,1-.76-2.36A5.93,5.93,0,0,0,70.74,20a.74.74,0,0,0,.86,0,.58.58,0,0,0,.2-.76,2.53,2.53,0,0,1-.26-1.34l1.39,1.44a3.12,3.12,0,0,0-.15.39A2.37,2.37,0,0,0,73,21.54c-2.3,1.37-2.37,2.64-2.26,3.22a4.55,4.55,0,0,1-2.83,1.79,3.85,3.85,0,0,1-3.26-.92c3,.36,4.15-.92,4.2-1m5.92-6.14a7.35,7.35,0,0,0,1,1.42l-1.13.1-.72-.75a3.39,3.39,0,0,1,.85-.77m8.2,5.7a1.79,1.79,0,0,0-.27-.28c-.8-.62-2.09-.62-3.94,0a.65.65,0,0,0-.46.56.62.62,0,0,0,.38.6,4,4,0,0,0,1.07.27,4.29,4.29,0,0,1-1.56.22A5.39,5.39,0,0,1,75.92,25a3,3,0,0,1,1-.85l.37-.25a5.84,5.84,0,0,0,1.59-2.15l.21.05c1.12.22,3.74.72,4.07,1.63a1,1,0,0,1-.14.79M79,34.1a2.36,2.36,0,0,1-1.3.56,3.33,3.33,0,0,1-2.32-1.09.65.65,0,0,0-.38-.21,5.83,5.83,0,0,1-.55-1.57l.24,0A3.39,3.39,0,0,0,76,33.36a5.08,5.08,0,0,0,3,.74M73.56,20l.54.54a.66.66,0,0,0,.51.21l.9-.06a1,1,0,0,1-.45.6,1.63,1.63,0,0,1-1.21,0l-.07-.12A1.68,1.68,0,0,1,73.56,20m3.2,3.24-.35.24a4.24,4.24,0,0,0-1.2,1.06l-.35-.23a4,4,0,0,1,1.63-1.27,1.77,1.77,0,0,0,1-1.85,5.46,5.46,0,0,0,.6.27,4.8,4.8,0,0,1-1.29,1.78m-5.38,9.38c-.2-.07-.5-.4-.41-1.86a4.63,4.63,0,0,0,1.29-1.09,1.81,1.81,0,0,0,.49,1.63,1.37,1.37,0,0,0,.29.2c-.5.58-1.26,1.26-1.66,1.12m-.13-4.88h0A4,4,0,0,0,72.58,27a3.29,3.29,0,0,0,.08.66c-1.13,1.82-2.16,2.52-2.73,2.56a8.75,8.75,0,0,1,1.32-2.46m3.18,3.1a1,1,0,0,1-.94-.16c-.48-.48-.22-1.73,0-2.53a5.29,5.29,0,0,0,.86-.27c0,.54,0,1.16,0,1.87a6.33,6.33,0,0,0,.09,1.09m-.81-8.8a2.57,2.57,0,0,0,1.75,0,1.84,1.84,0,0,0,1-1.37h.13l0,.19v.05s.29,1.15-.46,1.5a4.78,4.78,0,0,0-1.88,1.44c-.24-.21-.37-.35-.38-.36a.73.73,0,0,0-.76-.18.65.65,0,0,0-.43.44,2.23,2.23,0,0,1-1.09.48c.09-.46.48-1.23,2-2.12l.05,0m.08,10.15a9.51,9.51,0,0,0,.56,1.4.51.51,0,0,0-.07.15c-.2.57-.45.92-.67.94-.4.05-1.12-.56-1.75-1.32a4.4,4.4,0,0,0,1.93-1.17m-.15-4.94a4.72,4.72,0,0,1-.16-2,.11.11,0,0,0-.07-.13.14.14,0,0,0-.16,0,13.17,13.17,0,0,1-1.52,1.25,2.35,2.35,0,0,1-.25-1.31l0-.08c1.31-.28,1.78-.67,1.94-.91a8.9,8.9,0,0,0,1.46,1.15,6.94,6.94,0,0,0-.36,1.61,3.91,3.91,0,0,1-.93.39m-4.4.24a.57.57,0,0,0,.19-.43,3.31,3.31,0,0,0,1.16-.77,4.55,4.55,0,0,0,.22.7,13.32,13.32,0,0,1-2,2.47.75.75,0,0,0-.29.09c-2.18,1.22-3.84,1.61-4.81,1.12a1.79,1.79,0,0,1-.84-1,8,8,0,0,0,6.32-2.2m.11,3.4a1.89,1.89,0,0,0,.78.14,6.84,6.84,0,0,0,.23,1.22.64.64,0,0,0-.22.14s-2.56,2.37-5.2,2.37a2.33,2.33,0,0,1-2.22-1.06c4.49.13,6.09-1.76,6.63-2.81"/><path class="cls-1" d="M16.68,80.76c.07-.35.09-.78-.16-.89s-.47.19-.55.28v0a1.54,1.54,0,0,1-1.5.64,2.37,2.37,0,0,0-1.91.83,1,1,0,0,0-.15,1.08c.3.65.83,1,1.11.91.06,0,.24-.1.17-.4l0-.13a1.71,1.71,0,0,1-.08-.36.64.64,0,0,1,.22.08,1.08,1.08,0,0,0,1,.06.48.48,0,0,0,.14-.56A2.63,2.63,0,0,0,14.8,82a1.27,1.27,0,0,1-.09-.2s.08-.07.52-.1c1-.08,1.31-.13,1.45-.89M13.79,81.9l-.16,0,.14-.08,0,.1"/><path class="cls-1" d="M110.67,79.81a1.6,1.6,0,0,1-.58-.32,1.78,1.78,0,0,0-1.21-.42.81.81,0,0,0-.7.28c-.22.31-.12.88.31,1.72a1.25,1.25,0,0,1,.13.43,11.89,11.89,0,0,1-1.39-.45.89.89,0,0,0-.8,0c-.52.35-.62,1.43-.58,2.44a5.36,5.36,0,0,0-3.11,1.57,1.69,1.69,0,0,0-.31-1.19,1.29,1.29,0,0,0-1-.23,3.46,3.46,0,0,0-1.47.45,2.45,2.45,0,0,0-.08-.72A.66.66,0,0,0,99.4,83a1.54,1.54,0,0,0-1.38.33.59.59,0,0,0-.2.63,1.92,1.92,0,0,0,1.08,1,1.37,1.37,0,0,0-.19.22.94.94,0,0,0-.22.94c.21.56,1,.94,1.91,1.22-1.11,1-2.46,1.83-3.87,1.49-.22-.24-1.65-1.6-4.49-1l-.3.06c-2.8.62-5,1.11-6.12,3.64a5.25,5.25,0,0,1-.94,1.48c-.67.78-1.21,1.4-1.67,6.19a23.08,23.08,0,0,0-3.83,1.46,2.55,2.55,0,0,1-.88.16,3.25,3.25,0,0,0-2.52,1.19,1.52,1.52,0,0,1-1.28.29,1.58,1.58,0,0,0-1.37.31,2.54,2.54,0,0,1-1,.24,3,3,0,0,1,1.85-1.8c1.08-.28,3.73-1,4.84-2.35v0a4.19,4.19,0,0,1,1.45-1.5c.57-.4,1.07-.76.72-1.51A2.3,2.3,0,0,1,81.22,94c.22-.58.46-1.19.08-1.57a3.51,3.51,0,0,0,1.78-.94.46.46,0,0,0,.07-.42,2.7,2.7,0,0,1,.12-1c.15-.64.31-1.31,0-1.7a1,1,0,0,0-.73-.29,1.36,1.36,0,0,0-.85-.73,1.56,1.56,0,0,0-1.26.45,1.65,1.65,0,0,0-1.29,0,1,1,0,0,0-.38,1L77.86,90c-.32-.08-1.31-.16-3.12.91l-.73.42c-1.79,1-3.21,1.84-3.66,3.79a12.14,12.14,0,0,1-.53,1.8,2.38,2.38,0,0,0-.39-.25c-.43-.22-.88-.4-1.3-.57A4.66,4.66,0,0,1,66.2,95q-1.38-1.68-3.89-.23c-1.9,1.1-3.36.89-5.37.14l-1.16-.4c-2.16-.76-5.13-1.8-6.17-3.18-.2-.26-.39-.53-.56-.78-.93-1.3-1.66-2.33-3.63-2.39a3.12,3.12,0,0,0-2.83.43l0,0a.17.17,0,0,1-.12.07.5.5,0,0,1-.28-.13c-.47-.43-.88-.54-1.84.08a8.11,8.11,0,0,0-2.23,2.27.35.35,0,0,1-.18-.18c-.72-1.53-1.53-2.46-2.35-2.66a4,4,0,0,1-1.81-1.4,11.44,11.44,0,0,0-1.11-1.09,1.35,1.35,0,0,0-1-.35c-.63,0-1.11.64-1.62,1.26l-.16.18a12.31,12.31,0,0,1-2.33,1.9c-.33.24-.66.47-.93.68l-.07,0a1.66,1.66,0,0,1-.72-.7,10.66,10.66,0,0,0-1.93-2.9,2.16,2.16,0,0,0-.4-1.93c.58,0,1-.33,1.39-1a.77.77,0,0,0,0-.81c-.24-.37-.87-.56-2-.6a3.09,3.09,0,0,0-2.07,1.06,6.23,6.23,0,0,0-1.89.31.83.83,0,0,0-.29-.94c-1.22-1-3.16.76-4.09,1.58a1.93,1.93,0,0,0-.7,1.72h0l-.16,0a1.31,1.31,0,0,1-.27,0,9.63,9.63,0,0,0-1.13-.19c-.17-.7-.65-2-1.71-1.95a2.64,2.64,0,0,0-.46.06,1.55,1.55,0,0,0,0-.29,1.17,1.17,0,0,0-.38-.84,1.38,1.38,0,0,0-.91-.35,1.25,1.25,0,0,0-1.3,1.19,1.18,1.18,0,0,0,.38.85,2.49,2.49,0,0,0,.24.17,1.5,1.5,0,0,0-.58.63.81.81,0,0,0,.31,1q.54.48,1.32,1.11A4.2,4.2,0,0,0,9,87.55v.06c-.24.08-.69.3-.69.67s.34.61.59.79A9.82,9.82,0,0,0,9,90.79c-.17.22-.33.53-.1.71a2.12,2.12,0,0,0,.43.25,1.22,1.22,0,0,0,.2.25c.29.26.54.54.78.8.06,0,.11.12.17.17-.09.36-.16.94.25,1a3.31,3.31,0,0,0,.9,0c.22.15.47.32.76.48s.68.4,1,.62c0,.36,0,.93.42.86l.68-.11c.93.67,1.66,1.29,1.65,1.48-.32.39-1.53,1.52-2.05,1.52a.65.65,0,0,0-.54.26,1.82,1.82,0,0,0,0,1.61c-.26.2-1,.85-.74,1.37a2.33,2.33,0,0,0,.42.48c.2.2.42.42.39.56s-.14.16-.35.22c-.63.22-1.5.58-1.7,1.28-.16.5.07,1.08.65,1.73l.06.06-.34.36s-1.17.26-.79,1.09,1.9.86,1.62-.41l.33-.35a2.33,2.33,0,0,0,1.94.38,1.55,1.55,0,0,0,1.06-1.44,14.29,14.29,0,0,0,5.16,1,1.2,1.2,0,0,0,1.06.34.87.87,0,0,0,.57-.53,21.4,21.4,0,0,0,2.71,0,.86.86,0,0,0,.82.36c.44,0,.51-.3.47-.54a2,2,0,0,0,.6-.22A9,9,0,0,1,30.7,106a2.15,2.15,0,0,0,.14.26,5.93,5.93,0,0,0,.94,1.22c.09.09.09.09.06.26a.76.76,0,0,0,.05.69,1.3,1.3,0,0,0,.88.35h0c.89.11,1.48.19,1.91.81l.05.08c.22.31.37.53.63.59s.58-.06,1.21-.42a2.11,2.11,0,0,1,2.12,0c.1.16.54.81,1.06.76.31,0,.56-.3.74-.83a1.69,1.69,0,0,1,.86-.15,4.36,4.36,0,0,0,2.12-.51s2.1-1.26,3.33-1.88a2.43,2.43,0,0,1,.33,1c.19,1-4.38,3-2.62,5.5.22.33.45.24.45.24a1.39,1.39,0,0,1,.22-1.45c.49-.5,2.93.17,4.21-1.26a2.38,2.38,0,0,0,2.11,1.6c.08,0,.14,0,.14-.11l.59-3.78a2,2,0,0,0,1,1,1.87,1.87,0,0,0,1.2.16,2.78,2.78,0,0,0,3.21,1.31c.77,0,1.17-.12,1.24-.38s.14-.45-1.2-1.17c-.15-.08-.19-.16-.18-.19s.11-.12.28-.15c.52-.06,1.63.24,2.53,1.82A3.48,3.48,0,0,0,64.13,113a.14.14,0,0,0,.1-.12.13.13,0,0,0-.09-.12,1.37,1.37,0,0,1-.83-1.14A6.09,6.09,0,0,0,67.46,113a3.36,3.36,0,0,0,2.13-1.07v-.14a.12.12,0,0,0-.15,0,2.72,2.72,0,0,1-3-1c.68-.11,1.79-.59,3.17-2.28a9,9,0,0,1,4.43,0l.71.22c2.53.78,7.81,2.41,11.35-.14,2.35-1.69,2.92-2.78,3-3.4a.79.79,0,0,0,0-.35,6.15,6.15,0,0,0,.78.1h.06a16.59,16.59,0,0,1,2.72.62c.18,0,.4.13.63.22-.19.25-.59.84,0,1.08s2.33-.63,2.33.23.81.75,2.17.2c0,0,.66-.15.73.19a.86.86,0,0,0,.95.66c.25,0,.61-.42,1-.75a9,9,0,0,0,1.38-.13c.46.32.86.42,1.15.19a1,1,0,0,0,.3-.63,2.91,2.91,0,0,0,1.37-1.23,2.77,2.77,0,0,0,.22-1.94,1.74,1.74,0,0,0,.53-.92c.1-.59-.62-.51-1.11-1.13a3.51,3.51,0,0,0-.73-.92,1.61,1.61,0,0,1-.22-.77c-.08-.93-1.11-1.27-1.29-.21a14.19,14.19,0,0,0-8.17-.46c-.65.14-1.3.32-1.93.49-2,.55-3.87,1.06-4.77.2.09-.29.64-1.63,3.45-2.55,2-.67,6.77-2.48,7.65-5.2,1,0,7.79.32,9.45-1.84,1.47-1.92,2.76-3.62,1.31-5.29a6.21,6.21,0,0,0,1.55-1.51,1,1,0,0,0,.23-1,1.34,1.34,0,0,0-.74-.62c.11-.17.39-.4,1.11-.54.56-.11.66-.39.67-.55,0-.42-.55-.89-1.07-1M22.91,82.19a3.49,3.49,0,0,1,1.12.16c-.36.64-.47.67-1.17.37-.22-.11-.44-.19-.66-.28a1.32,1.32,0,0,1,.71-.25m76.14,1.89a1.27,1.27,0,0,1-.24-.2.57.57,0,0,1,.24,0v.24m4.66,19.12a.85.85,0,0,0,0,.32,2.12,2.12,0,0,1-.07,1.66,2.5,2.5,0,0,1-1.68,1.09c-2.75.74-6.38-.59-8.34-1.3l-.76-.27a21.32,21.32,0,0,0-4-.8.75.75,0,0,0-.26,0c-1.34-.3-1.49-.65-1.49-1.55a1.19,1.19,0,0,1,.92-1.16,12.6,12.6,0,0,0,4-.68c.63-.17,1.27-.35,1.89-.48,2.28-.5,5.74-.64,8,.63a2.91,2.91,0,0,1,1.74,2.53M88.11,105c0,.11,0,1-2.64,2.87-3.14,2.26-7.91.79-10.48,0h0l-.67-.21a10,10,0,0,0-4.89,0,5.71,5.71,0,0,0-.1-2c-.21-.59.46-1.16.88-1.44a7.93,7.93,0,0,0,1.83-.4,3.37,3.37,0,0,0,1.4-.27c-.2.35-.54,1-.12,1.17s1.76.4,1.31-1.42a2.41,2.41,0,0,0,1.75-.5l.13-.11a2.3,2.3,0,0,1,1.89-.89,3.69,3.69,0,0,0,1.23-.25l.07,0a21.83,21.83,0,0,1,3.71-1.41l0,0a3.66,3.66,0,0,0,2.88.32l0,0a2.16,2.16,0,0,0,.62.47,2.22,2.22,0,0,0-.75,1.56,1.53,1.53,0,0,0,.42,1.29,3.51,3.51,0,0,0,1.4.82.66.66,0,0,0,.11.45m-25.3,5.64a.76.76,0,0,0-.46.68,2.9,2.9,0,0,0,.13.8,2.21,2.21,0,0,1-1.33-1.1c-1.08-1.88-2.56-2.39-3.5-2.27a1.54,1.54,0,0,0-.5.15,2.12,2.12,0,0,0,.29-.81,3.55,3.55,0,0,0,2.53-.45.94.94,0,0,0,.24.13.87.87,0,0,0,.25,0,25.07,25.07,0,0,1,4.34,2.6c.23.21.45.44.66.66a7,7,0,0,0,1.12,1,6.39,6.39,0,0,1-2.92-1.36.89.89,0,0,0-.85-.1m-14,.15h0m.09-.23h0m1.4.28a.76.76,0,0,0-.1-.3,9.23,9.23,0,0,0,.38-2.56.62.62,0,0,0-.35-.56.59.59,0,0,0-.61.15s.47,3-1.53,3.64a14,14,0,0,1-1.94.3,7.26,7.26,0,0,0-1,.29c.21-1.5,2.92-2,2.92-3.55a4.35,4.35,0,0,0-1.6-2.73,7.44,7.44,0,0,1-2.07-3.36l.05-.11c0-.14-.07-.28-.1-.43a2.28,2.28,0,0,1,.07-.57c.42-1.72,1.74-3.56,4.08-3.11a3.54,3.54,0,0,1,1.17.65,2.18,2.18,0,0,1,.41.83c.1.84-1.19,1.1-1.23,1.09s0-1.69-1-1.69a2.23,2.23,0,0,0-2,1.55c-.24.89.25,1.65,1.32,2,.36.12.67.25,1,.37a9.26,9.26,0,0,0,1.45.5h-.14a.14.14,0,0,0-.13.09.52.52,0,0,0,.08.41,2.09,2.09,0,0,0,1.47.59c1.64.21,3.31.6,3.31,2.1a2,2,0,0,1-1,1.85,4.75,4.75,0,0,0-3.15-2.9c-2.77-.93-3.78-1.8-4.19-3.57l-.07-.08a.85.85,0,0,0-.76,0c-.16.11-.21.31-.15.62a4.65,4.65,0,0,0,2.51,2.89c.36.17.74.32,1.1.46,1.39.55,2.7,1.09,3.25,2.1a.76.76,0,0,0-.43.55l-.53,3.44a1.16,1.16,0,0,1-.59-1m-10.67-1.27-.1-.13a.78.78,0,0,0-.23-.25,3.14,3.14,0,0,0-3.19-.09l-.44.24-.1-.15-.06-.07a3.19,3.19,0,0,0-2.58-1.2h-.17a.94.94,0,0,0-.29-1,5.23,5.23,0,0,1-.82-1.06c-.77-1.2.44-3,.85-3.59a7.39,7.39,0,0,1,4.8-1.87,25.49,25.49,0,0,1,6.16,1.5c.15,2.19,2.29,4.18,2.4,4.28s.19.17.43.42c-1.2.61-3,1.69-3.25,1.84a3.38,3.38,0,0,1-1.66.4,2.72,2.72,0,0,0-1.36.28.74.74,0,0,0-.37.43l0,.06M22.4,106c-2.5.67-6.06-.77-6.1-.79a.86.86,0,0,0-.75,0,.75.75,0,0,0-.38.61c0,.26-.07.71-.44.82a2,2,0,0,1-1.8-.86c-.36-.4-.53-.76-.47-.95s.28-.41,1.13-.7a1.28,1.28,0,0,0,.93-.83A1.43,1.43,0,0,0,13.9,102l-.17-.18a1.89,1.89,0,0,1,.47-.47.7.7,0,0,0,.25-.85,1.54,1.54,0,0,1-.14-.8c1.15-.19,2.59-1.86,2.6-1.87a.83.83,0,0,0,.15-.68c-.26-1.13-4.18-3.38-4.23-3.4A6.94,6.94,0,0,1,11,92.24c-.26-.28-.52-.56-.84-.85s-.47-2.1-.27-3.73A2.27,2.27,0,0,1,10.77,86a3.54,3.54,0,0,1,2.47-.09,1.63,1.63,0,0,0,.67.06,1.28,1.28,0,0,0,.28-.07,1.3,1.3,0,0,1,.3-.07h0a1.23,1.23,0,0,1,.26.46,3,3,0,0,0,.3.64,19.68,19.68,0,0,0,1.36,1.77c.43.55.89,1.11,1.17,1.51a36.93,36.93,0,0,1,2.27,4.09,6.45,6.45,0,0,1-.27,2.63.61.61,0,0,0,0,.42c-.17.46-.34,1.11-.09,1.25s.74.08,1.16-.82A.94.94,0,0,0,21,97.5h0s.26-.24,2.2.13h.09a6.79,6.79,0,0,1,2.45,1c.18.15.5.45.87.79a29.11,29.11,0,0,0,2.79,2.42,5.12,5.12,0,0,0,1.75.77,4.74,4.74,0,0,0-.7,2.52,8.65,8.65,0,0,0-3.49.55,12.73,12.73,0,0,1-4.29.3,1,1,0,0,0-.29,0m-11-21.15a2.87,2.87,0,0,0-1.14.39,2.39,2.39,0,0,0-.46.38c-.45-.36-.84-.69-1.16-1l-.07,0a3.39,3.39,0,0,1,2.11-.84c.23,0,.54.48.72,1.1M15.27,84c1.95-1.73,2.6-1.72,2.82-1.55,0,.08,0,.37-.65,1.33a3.14,3.14,0,0,0-.67,1.59c-.49.17-.91.34-1.21.45a2,2,0,0,0-.31-.48.85.85,0,0,0-.4-.3,1,1,0,0,1,.42-1M30.6,87.2l.16-.19c.29-.34.75-.9,1-.93a.63.63,0,0,1,.29.15,10.36,10.36,0,0,1,1,1,4.72,4.72,0,0,0,2.29,1.69c.13,0,.86.29,1.73,2.16a1.29,1.29,0,0,0,.86.71,1,1,0,0,0,.41.64,4.88,4.88,0,0,0,2.73,1,2.6,2.6,0,0,1,1.59.5,10.33,10.33,0,0,0,3.26,2.18,7.09,7.09,0,0,1,1.56,1,4.62,4.62,0,0,0-3.92,3.84v.1c-.68-.23-1.62-.53-2.62-.81.06-.16-.06-.45-.21-.82-.29-.67-1.33-1.46-1.11-.78a2.29,2.29,0,0,1,0,.76.9.9,0,0,0,.09.54,14.93,14.93,0,0,0-2.08-.34,1,1,0,0,0-.25-.53c-.4-.5-.52-.41-.56-.18a1,1,0,0,0,0,.71,8.38,8.38,0,0,0-2.68.67,1.79,1.79,0,0,0-.1-.92c-.11-.43-.18-.89-.37-.59a1.37,1.37,0,0,0-.37,1c0,.39.18.62.36.68a5.34,5.34,0,0,0-2,1.39l-.05.07a4.38,4.38,0,0,1-1.66-.69,20.07,20.07,0,0,1-2-1.7c.1-.42.23-1.17.05-1.36s-.63.05-.83.64c-.34-.33-.63-.59-.81-.73a2.34,2.34,0,0,0-.43-.3c0-.34,0-.87-.17-.93s-.43.28-.51.59a8.43,8.43,0,0,0-1.79-.58H23.4l-.28-.06c.12-.34.29-.86.1-.83a2,2,0,0,0-.88.72,3.35,3.35,0,0,0-1.76.13,9.37,9.37,0,0,0,.25-2.25l.11-.06c1.27-.91,5.44-3.89,6.26-4.52l.91-.65A13.13,13.13,0,0,0,30.6,87.2M39,91.3l.07-.11v-.06a7.61,7.61,0,0,1,1.86-1.8,2,2,0,0,1,.51-.26l.11.1a1.34,1.34,0,0,0,1,.38,1.18,1.18,0,0,0,.67-.3A2.06,2.06,0,0,1,45.06,89a.85.85,0,0,0,.31.06c1.49,0,2,.74,2.89,2,.17.25.37.52.58.8.95,1.25,3.07,2.19,5,2.93l-.05,0s-.34.22,0,.63,1.24,1.49,1.38,1.2-.19-1.16-.37-1.53l.61.22,1.13.4c2.26.85,4,1.08,6.23-.21,1.57-.91,2.22-.5,2.65,0a5.17,5.17,0,0,0,2.29,1.39c.4.17.82.34,1.23.55s.5.39.49.43h0v0l0,.08s-.44,1.39-1,3.24a1.31,1.31,0,0,1-1.26,1.1c-3.55-1.34-5.76.24-7.22,1.28a3.71,3.71,0,0,1-1.46.8,1.08,1.08,0,0,1-.73-.22L57.6,104l-.38-.49c-.08-.14-.17-.29-.26-.47a10.07,10.07,0,0,0-.93-1.47c-.93-1.19-4-2.79-5.71-3.63a2.74,2.74,0,0,0-1.3-.74,10.72,10.72,0,0,0-2.77-1.91,9.42,9.42,0,0,1-3-2,2.67,2.67,0,0,0-1.24-.63c-.08-.5-.25-1.24-.52-1.24s-.59.72-.7,1.07a3.5,3.5,0,0,1-1.92-.73c-.08-.06-.09-.1-.09-.15a.83.83,0,0,1,.09-.28l0,0m38.68-.44h0l.15,0c-.1.23-.25.69.31.66.75,0,1.35-.46.66-1.24l.77-1.13a.72.72,0,0,0,.12-.44,1.29,1.29,0,0,1,0-.23,1.17,1.17,0,0,1,.43.09.9.9,0,0,0,.88-.15,1,1,0,0,1,.46-.28.59.59,0,0,1,.23.27.81.81,0,0,0,.74.47h.1a3.59,3.59,0,0,1-.15,1,3.38,3.38,0,0,0-.14,1.24,4.52,4.52,0,0,1-1.39.54.76.76,0,0,0-.6.6.69.69,0,0,0,.34.72,4.25,4.25,0,0,1-.24.74,3,3,0,0,0-.21,2.37c.06.14.06.14-.43.49A5,5,0,0,0,78,98.29a9.32,9.32,0,0,1-4.32,2,4,4,0,0,0-2.55,2.54.69.69,0,0,0,0,.49c-.77.22-2.59.64-3-.41a2.27,2.27,0,0,0,1.13-1.46c.53-1.75,1-3.1,1-3.21a.81.81,0,0,0,.07-.47,6.6,6.6,0,0,0,.87-2.44c.37-1.58,1.51-2.24,3.24-3.23l.74-.43c1.64-1,2.38-.81,2.38-.81M51,99.37l0-.15a17,17,0,0,1,4.32,2.83l0,0a3.68,3.68,0,0,0-2,.08,5.65,5.65,0,0,1-4.67-.17l-1-.39c-.61-.21-.87-.56-.75-1s.72-.94.94-.91c0,0,.6.24.33,1.25-.11.41,1.46.42,2.09,0A1.72,1.72,0,0,0,51,99.37M18.36,89.7c-.3-.41-.76-1-1.2-1.54s-1-1.24-1.23-1.58c1.83-.78,3.67-1.2,4.17-.94l0,0c.6.3,1,.55,1.06.87s-.17,1.21-2.72,3.3l-.11-.14M53.57,103a2.34,2.34,0,0,1,2.84.94,3.75,3.75,0,0,0,.64.82,3.08,3.08,0,0,0,2.07,1.43,1.82,1.82,0,0,1,.75.19s0,.09-.06.21l0,.1,0,.12a4.12,4.12,0,0,1-3.37.17h-.11s-.36.22-.18.9c.05.19.05.33,0,.41s-.53.22-.94.25l-.52,0a3,3,0,0,0,.7-2.07c0-2.07-1.44-2.86-3.73-3.12a11.84,11.84,0,0,0,2-.41m-33-9.38c-.51-1-1.12-2.15-1.62-3a15.1,15.1,0,0,0,2.41-2.31,1.85,1.85,0,0,0,1.93-1c.09-.2.19-.41.28-.62a8,8,0,0,1,1.36,2.15,2.16,2.16,0,0,0,.86,1l-5.22,3.76M22.43,87a.79.79,0,0,1-.51.42,1.82,1.82,0,0,0,.21-1c-.09-.78-.89-1.2-1.54-1.53h0a4.43,4.43,0,0,0-2.79.11,7.15,7.15,0,0,1,.48-.84,3.73,3.73,0,0,0,.25-.39l.4-.14c2.23-.79,2.74-.34,3.74.55.55.48.48,1.37-.21,2.8m34.2,22.43a.69.69,0,0,0-.05.17,1,1,0,0,0,.62,1.1l0,0c-.22.07-1.18.26-2-1a2.61,2.61,0,0,0,1.42-.3m9.33.49h0l-.06,0-.43-.09a15.27,15.27,0,0,0-2.52-1.67,1.21,1.21,0,0,0-.07-.76c-.17-.29-.87,0-1.17.1-.5-.26-.9-.45-1-.52l0,0,0-.09a1,1,0,0,0,0-.92,1.94,1.94,0,0,0-1.44-.58,1.19,1.19,0,0,1-.38-.11,5.31,5.31,0,0,0,1.67-.94c1.46-1,3.29-2.35,6.41-1.11h0a1.93,1.93,0,0,0,.45,0,1.8,1.8,0,0,0,1.67,1.06A1.83,1.83,0,0,0,68.6,106c.07.58.08,1.51.09,2.1-1.69,2-2.72,1.81-2.73,1.81M86.19,99.55A4,4,0,0,1,84,99.3c.43-4.48.91-5,1.46-5.68a5.85,5.85,0,0,0,1.08-1.69c.92-2.12,2.73-2.52,5.47-3.12l.3-.06a3.88,3.88,0,0,1,3.38.54,2.41,2.41,0,0,0-.4,2,2.3,2.3,0,0,0,1.68,1.26c-.93,1.42-3.36,2.85-6.73,4-3,1-3.78,2.41-4,3m11.12-7.77c-.66-.18-1.06-.43-1.18-.75a1.69,1.69,0,0,1,.3-1.28c2.55.51,4.64-1.68,6-3.14.31-.32.56-.58.76-.76,1.44-1.25,2.66-2.11,4.38-.83s1.16,2.26-.76,4.78c-1,1.31-5.71,1.65-8.73,1.47a.81.81,0,0,0-.81.51m2.16-6a2.77,2.77,0,0,1,2.28-1.2,3.27,3.27,0,0,1,0,1.14,1.75,1.75,0,0,0,0,.4l-.62.63c-1.38-.4-1.68-.67-1.74-.8a.43.43,0,0,1,.09-.17m8.73-1.37a4.23,4.23,0,0,0-1.42-.72,4.9,4.9,0,0,1,.16-1.76,12.29,12.29,0,0,0,1.42.45,7.31,7.31,0,0,1,1.44.5.69.69,0,0,1-.11.2,5.77,5.77,0,0,1-1.44,1.37l0,0m1.13-3.65A3.38,3.38,0,0,1,109,80a.89.89,0,0,1,.46.21,2.5,2.5,0,0,0,.91.48h0a2.9,2.9,0,0,0-1,.46,1.81,1.81,0,0,0-.17-.4M8.67,82.44a.35.35,0,0,1,.25-.09.38.38,0,0,1,.25.09.33.33,0,0,1,.1.23.34.34,0,0,1-.35.33.36.36,0,0,1-.25-.1.3.3,0,0,1,0-.46"/><path class="cls-1" d="M27.37,90.64c-.49.11-1.41,1.3-.74,1.42a6.21,6.21,0,0,0,1.45-1c.21-.36-.21-.54-.71-.43"/><path class="cls-1" d="M28.41,92.4c.55.15.84-.23,1.13-.69s0-1.11-.46-.57c0,0-1.21,1.11-.67,1.26"/><path class="cls-1" d="M30.58,93.13a1.94,1.94,0,0,0,.54-1.53c-.12-.46-.42-.23-.42-.23s-1,1-.91,1.38.41.84.79.38"/><path class="cls-1" d="M33.11,93.59c.55-.11.34-.73.17-1.27s-.29-.91-.54-.69a1.56,1.56,0,0,0-.33.92c0,.54.16,1.15.7,1"/><path class="cls-1" d="M47,26.94a.71.71,0,0,0-.48.81c.09.66.24,1.07,1.19,1s.26-1.64.09-1.81-.8,0-.8,0m.29,1.16a1.07,1.07,0,0,1-.1-.42c0-.13,0-.15,0-.16l.16,0a2.16,2.16,0,0,1,.16.63,1.11,1.11,0,0,1-.25,0"/><path class="cls-1" d="M46.92,29.08a.82.82,0,0,0-.27.72c.06.47,0,.93.77.9s.86-.51.77-1.09a.86.86,0,0,0-1.27-.53m.62,1a.37.37,0,0,1-.14,0h0a1.1,1.1,0,0,1,0-.18,1,1,0,0,1,0-.18.19.19,0,0,1,0-.15l.12,0c.06,0,.07.07.07.09a.88.88,0,0,1,0,.37"/><path class="cls-1" d="M47,31.06s-.87.9-.27,1.17,1.1.41,1.37-.38-.36-1.31-1.1-.79m.46.61a1.13,1.13,0,0,1-.07.15.3.3,0,0,1-.13,0,2.26,2.26,0,0,1,.2-.26l0,0a.75.75,0,0,1,0,.17"/><path class="cls-1" d="M48.37,26.06a.47.47,0,0,0-.38.63c.14.55.42,1.34,1.16,1.12s.59-.74.32-1.46-.71-.45-1.1-.29m.57,1.16h0a1.71,1.71,0,0,1-.26-.61l.1-.05.08,0h0a3.34,3.34,0,0,1,.18.65l-.08,0"/><path class="cls-1" d="M48.43,28.65s-.27,1.21.45,1.21,1.15-.14,1.13-1c0-1.13-1.43-1.29-1.58-.23m.87.55a.71.71,0,0,1-.24,0,2,2,0,0,1,0-.47v0a.25.25,0,0,1,.07-.18l0,0a.4.4,0,0,1,.12.31.64.64,0,0,1,0,.31"/><path class="cls-1" d="M49.11,30.13s-.62.16-.62.63-.3,1.31.45,1.2,1.42-.27,1.25-1.26-.57-.71-1.08-.57m.4,1a1,1,0,0,1-.4.15s0-.11,0-.15a2.19,2.19,0,0,0,0-.36.53.53,0,0,1,.15-.08,1.39,1.39,0,0,0,.19-.06s0,.09,0,.15a.5.5,0,0,1,0,.35"/><path class="cls-1" d="M50,24.58a1,1,0,0,0-.36,1.2c.23.86.8.91,1.16.72s.62-.38.35-1.23-.77-1.15-1.15-.69m.37.52h0m.22.78-.13.09h0a.62.62,0,0,1-.17-.34c-.1-.33,0-.48.08-.53a1.67,1.67,0,0,1,.14.34,1,1,0,0,1,.08.44"/><path class="cls-1" d="M50.15,27.61c.18.61,0,1.37.77,1s.83-.64.66-1.39c-.24-1-1.61-.23-1.43.37m.84.26-.1.07a2.3,2.3,0,0,0-.07-.42l.11-.11a1.3,1.3,0,0,1,.06.46"/><path class="cls-1" d="M50.42,29.7c0,.73.06,1.39.75,1.22s1-.52.82-1.42c-.17-1.17-1.6-.54-1.57.2m.72.59c0-.18,0-.44,0-.62a.16.16,0,0,1,.08-.11.32.32,0,0,1,.13-.08.53.53,0,0,1,0,.11c.08.52,0,.63-.19.7"/><path class="cls-1" d="M70.53,33.4c-.21,0-.41.15-.73.44l-.25.23a8.86,8.86,0,0,1-1.79,1.47c-.08,0-.12.06-.11.12a.12.12,0,0,0,.12.12h4.35l.12-.07,0-.13a21.87,21.87,0,0,1-1.4-1.9.47.47,0,0,0-.29-.28M70,34.92l.26-.24.08-.09q.12.15.24.33H70"/><path class="cls-1" d="M11.06,72.56c2.65,7.92,4.5,9.38,3.84,4.87s-1.52-8-1-8.76.21-1.9-.06-3,.46-1.4-.53-4.27.13-2.12.07-3.58-.6-1.41-.4-3.17.27-4.32.27-4.32-1.66-.06-1.86,1-.2,13,.66,17.29-1.52.13-1.84-5.12-.14-11.19-.14-11.19.27-1.41-1.59-1.77c0,0-.07,14.19,2.58,22.1"/><path class="cls-1" d="M18.6,69c0-2.92-1.19-4.26-.66-6s.86-2.43-.13-3.9-.6-1.33-.33-3.16-.27-4.5-.07-6c0,0-.92-.66-1.06.13a131.48,131.48,0,0,0,.86,14.67c.6,4-.53,2.31-.92-1-.27-2.3-.93-13.27-.93-13.27s-1.19-.85-1.46-.06c0,0-.26,13.27,2.45,18.32S18.6,72,18.6,69"/><path class="cls-1" d="M22.31,65.86A6.37,6.37,0,0,1,22,62.58c.14-1.4-.52-2.5-.79-4.39a74.67,74.67,0,0,1-.4-8.94s-.4-.43-1.12.06c0,0,.06,6.63.4,9.07S19,58.19,18.93,54s0-5.05-.86-4.26c0,0-.26,12.85,3.64,16.86,0,0,1.05.86.6-.73"/><path class="cls-1" d="M21.64,48.39s-.46,11.81,3.05,15,.86.2.86-3.58c0-4.39-1-3.41-1.06-4.51,0,0-.2-4.44-.39-5.78s-1.27-1.95-.94.18,1,7.73.14,7.79-.73-3.53-.8-5.66.26-3.35-.86-3.47"/><path class="cls-1" d="M26.61,48s-.61-.49-.4,1.58.66,4.08-.14,4-.46-2.62-.59-3.65-.33-2.31-.79-1.52c0,0,.13,8,2.51,11.26s2.38.79,1.25-1.16a12.61,12.61,0,0,1-1.32-6.14A28.54,28.54,0,0,0,26.61,48"/><path class="cls-1" d="M28.92,55.76c1.52,2,1.06.3.73-1.7a37.75,37.75,0,0,1-.27-6.64.65.65,0,0,0-.86,0s.46,3.59.07,3.52-.53-1.33-.66-2.61-.27-.91-.67-.67c0,0,.14,6.15,1.66,8.1"/><path class="cls-1" d="M9.47,38.11a53.52,53.52,0,0,0-.6,6.26c-.17,3.74.11,4.33,1.66,4.41,2,.09,2.41-1.18,2.73-4.16.35-3.21.39-4.88.44-5.3s-1.1-1.77-1.32.2-.1,8.08-1.43,7.83-1-3.33-.71-5.46,1-4.65.11-4.85-.88,1.07-.88,1.07"/><path class="cls-1" d="M14.41,39.32s-1.7,9,.06,9.12c2.66.1,2.25-2.49,2.52-5.33s.55-3.65-.11-3.65-.82,2.74-.93,4.21,0,3.38-.77,3.28-.7-2.17-.44-3.94c.6-4,.33-4.55-.33-3.69"/><path class="cls-1" d="M18.48,40.33s-.23-.4-.55-.35c0,0-.32,3.15-.42,5s.25,2.71,1.57,2.71,1.21-2.18,1.26-3.94.55-3.34,0-3.49-.6,1.16-.66,2.32-.16,3.75-.71,3.75-.88-.61-.77-2.48.28-3.54.28-3.54"/><path class="cls-1" d="M56.75,47.88c.46-.1.38-.37.75,0s.44.43.91.35a1.73,1.73,0,0,1,1.32.4c.25.27.67.22.61.46s-.5.51.55.7,1.46.32,1.75,0,.76-.35-.12-.8a6.37,6.37,0,0,1-1.86-1.05c-.7-.65-.61-.65-1.09-.81a2.68,2.68,0,0,0-1.71-.21,7.39,7.39,0,0,1-1.61.19s-.32.21-.09.45.12.46.59.35"/><path class="cls-1" d="M61.41,50.33c-.35,0-.55-.27-.87-.27,0,0-.52-.06-.23.37s.55.49.87.4.58-.48.23-.5"/><path class="cls-1" d="M63.92,50.62A3.55,3.55,0,0,0,65,50.41c.38-.19.67.07,1,.13a.69.69,0,0,0,.85-.32c.23-.38-.06-.62-.35-.89a1,1,0,0,0-1.11-.08c-.35.16-.27.27-.61.33s-1.32.94-.88,1"/><path class="cls-1" d="M68.12,50.86c.15,0,.59.08.76.06s.46,0,.18-.49-.18-.56-.73-.49-.47.28-.47.28.12.67.26.64"/><path class="cls-1" d="M70.25,56.74c.09.08.35.27.44-.05s.09-.84-.67-.65c0,0-.27.19-.09.35s.23.27.32.35"/><path class="cls-1" d="M27.68,42.2c-.8,5.5,1.54,3.54,1.54,3.54.11-1.38.38-3.24.38-3.24-.21-.3-.49-.15-.54.54s-.1,2.3-.69,2.15-.1-3-.37-3.08-.32.09-.32.09"/><path class="cls-1" d="M24.8,41.57s-.42,2.7-.42,3.53.48,1.47,1.65,1.37.9-1.52,1-2.69.21-1.87.21-1.87c-.58-.19-.53,0-.75,1.47s-.16,2.16-.95,2.21-.37-2.84-.27-3.53-.48-.49-.48-.49"/><path class="cls-1" d="M21.5,40.88A32.05,32.05,0,0,0,21,45.59c0,2.06,2.56,1.47,2.66-.05s.59-4.22.59-4.22c-.86-.59-.91,1-1.07,2.36s-.21,2.21-1,2.06-.28-3.88-.22-4.52-.48-.34-.48-.34"/><path class="cls-1" d="M20.33,89.62c-.39.66-.2.87.25.92s.56-1.13.56-1.13c-.14-.49-.42-.47-.81.21"/><path class="cls-1" d="M22.07,89.28s-.59-.08-.48.75.59.92.81.77.15-.9.15-1.08-.23-.7-.48-.44"/><path class="cls-1" d="M23.28,89.1a1.59,1.59,0,0,0,.22,1.11c.34.44,1,.67.76-.26s-.42-1.19-1-.85"/><path class="cls-1" d="M13.88,87.6c-.23-.11-.45-.18-.62.15a.36.36,0,0,0,.37.52.37.37,0,0,0,.25-.67"/><path class="cls-1" d="M11.52,88.89v0s0,.41.28.41.34-.12.37-.33-.48-.44-.65-.13"/><path class="cls-1" d="M12.31,91.66a.35.35,0,0,0,.08.59c.42.25.53.18.42-.31s-.28-.47-.5-.28"/><path class="cls-1" d="M14.94,91.57s.34.19.39.06-.08-.31-.08-.31-.53-.13-.31.25"/><path class="cls-1" d="M15.39,93.64s-.16.49.25.54.48-.36.32-.51-.57-.13-.57,0"/><path class="cls-1" d="M17.69,94.26s.39.08.39,0,.06-.25-.08-.35-.5,0-.31.35"/><path class="cls-1" d="M17.25,101.86s.81-1.76-.34-1.42a1.1,1.1,0,0,0-.42,1.2s-.6-.2-.2.52.67,1.4,1.43.73-.47-1-.47-1"/><path class="cls-1" d="M20.1,103.07s-.66.49-.48.72,1.08.33,1.16,0-.36-1-.68-.75"/><path class="cls-1" d="M23,103.56s-.75.2-.39.56a1.33,1.33,0,0,0,1.12.34c0-.07.39-1.11-.73-.9"/><path class="cls-1" d="M20.78,100.46s-.84.44-.51.75,1-.26,1-.26.17-.59-.45-.49"/><path class="cls-1" d="M23.41,99.64a.73.73,0,0,0,.87-.24s-.41-1-1-.62c0,0-.5.65.08.86"/><path class="cls-1" d="M27,103.15a.93.93,0,0,0,.9,0s.39-.57-1.15-.85a.57.57,0,0,0,.25.83"/><path class="cls-1" d="M35.4,102.84c0-.55-.68-.34-.68-.34s-.39.1-.42.34.51.31.51.31.59.23.59-.31"/><path class="cls-1" d="M35.45,106c-.3-.15-.68.21-.68.21a.5.5,0,0,0,.54.69c.76,0,.71-.46.71-.46s.06-.12-.57-.44"/><path class="cls-1" d="M39.35,104.91a.72.72,0,0,0-.81-.61s-.73.06-.87.63,1,.57,1,.57.7-.19.67-.59"/><path class="cls-1" d="M38.48,107.07s0,.52.68.52.58-.39.58-.39-1.09-.57-1.26-.13"/><path class="cls-1" d="M42.38,105.06c.73,0,.54-.52.54-.52a.88.88,0,0,0-.7-.26c-.49,0-.57,0-.6.36,0,0,0,.44.76.42"/><path class="cls-1" d="M35.25,93.82c.43,0,.09-1.28.09-1.28s-.3-.74-.54-.69c0,0-.66,0-.4,1s.42,1.06.85,1"/><path class="cls-1" d="M36.85,93.28c.28.37.52.41.87.22s-.66-1.61-.66-1.61-1-.48-.87,0a8,8,0,0,0,.66,1.37"/><path class="cls-1" d="M24.25,93c-.3,0-1.39.7-1,.88a1,1,0,0,0,.95-.24c.38-.39.36-.61,0-.64"/><path class="cls-1" d="M26,93.74s-1.27,1.13-.78,1.36.89-.41,1.08-.89,0-.69-.3-.47"/><path class="cls-1" d="M27.2,95.52c.15.34.5.84.85,0s.19-1-.09-.71c0,0-.9.41-.76.76"/><path class="cls-1" d="M30.34,95.91c.21-1.09,0-1-.28-.72,0,0-.8.6-.59.89s.66.91.87-.17"/><path class="cls-1" d="M32.61,97.41c.64,0,.44-.88.28-1.52s-.36-.68-.54-.68c0,0-.38-.06-.35.72s0,1.43.61,1.48"/><path class="cls-1" d="M34.85,95.63s-.64,1.25.21,1.75.55-.41.38-1-.4-1.13-.59-.78"/><path class="cls-1" d="M37.35,95.42s-.48-.06-.31.62.4,1.28,1.13,1.15-.38-1.5-.82-1.77"/><path class="cls-1" d="M41.23,97.06c.38-.68-1.5-2-1.81-1.8,0,0-.56.26,0,.82s1.44,1.65,1.81,1"/><path class="cls-1" d="M43.55,96.69c.45-.26-.71-1.28-.71-1.28s-.85-.85-1-.63c0,0-.47.48.19,1.11s1.11,1.06,1.56.8"/><path class="cls-1" d="M30.74,98.56s-1.23,1.58-.47,1.86.83-1.13.8-1.71-.33-.15-.33-.15"/><path class="cls-1" d="M42.11,98.18a9.13,9.13,0,0,1,.52,1.14c.09.32.45.89.82.37s.15-.7-.23-1.16-1.37-.8-1.11-.35"/><path class="cls-1" d="M16.79,34.67a1.5,1.5,0,0,0-1.7,1c-.46,1.24-.15,1.74.14,1.67s.42-1.23.76-1.12-.38,1.17.09,1.28.64-1.18,1-1.06-.37,1.18.17,1.32,1.28-2.62-.47-3.08"/><path class="cls-1" d="M20.31,35.78a1.36,1.36,0,0,0-1.5.95c-.38,1.15-.08,1.59.18,1.52s.34-1.14.66-1-.31,1.08.12,1.17.54-1.1.88-1-.29,1.08.21,1.19,1.07-2.43-.55-2.79"/><path class="cls-1" d="M13.31,36.39c.68.22,1.9-3-.32-3.71a2,2,0,0,0-2.27,1c-.71,1.45-.35,2.07,0,2s.66-1.45,1.09-1.28-.6,1.36,0,1.54.94-1.36,1.39-1.19-.57,1.38.1,1.59"/><path class="cls-1" d="M23.56,36.9a1.2,1.2,0,0,0-1.35.79c-.36,1-.11,1.37.11,1.33s.34-1,.61-.9-.3.93.07,1,.51-.94.81-.85-.3,1,.13,1.06,1-2.09-.38-2.45"/><path class="cls-1" d="M26.73,39.88c.35.09.84-1.72-.31-2a1,1,0,0,0-1.11.64c-.31.81-.09,1.13.08,1.1s.29-.81.51-.74-.25.76.06.84.42-.77.66-.69-.24.77.11.86"/><path class="cls-1" d="M29.53,40.48c.36.05.57-1.8-.6-1.95a1,1,0,0,0-1,.78c-.18.84.08,1.14.25,1.08s.16-.85.39-.79-.14.78.18.81.31-.81.55-.77-.12.8.24.84"/><path class="cls-1" d="M11.36,38.74c-.2,1.06-1.11,7.26-.51,7.37s.51-2.7.67-4.12.44-3.62.44-3.62-.4-.69-.6.37"/><path class="cls-1" d="M15.55,40.05c-.15.83-.84,5.72-.39,5.8s.39-2.12.51-3.24.33-2.85.33-2.85-.3-.55-.45.29"/><path class="cls-1" d="M19,40.9c-.1.67-.55,4.56-.1,4.6s.28-1.7.35-2.59.19-2.26.19-2.26-.33-.42-.44.25"/><path class="cls-1" d="M22.5,41.32c-.11.5-.62,3.47-.17,3.49s.31-1.3.39-2,.23-1.72.23-1.72-.32-.31-.45.2"/><path class="cls-1" d="M26.2,41.89s-.3-.23-.39.17-.43,2.73,0,2.73.23-1,.28-1.56.13-1.34.13-1.34"/><path class="cls-1" d="M28.87,42.24s-.25-.19-.34.15-.36,2.32,0,2.32.2-.87.23-1.32.12-1.15.12-1.15"/><path class="cls-1" d="M83.52,39.7v1.95s1.06-.07,1.06-.32.45.12.45.12a2.64,2.64,0,0,0-1.51-1.75"/><path class="cls-1" d="M85.11,45.18c-.4,0-.75.13-.7-.81s.17-1.62-.8-1.3v3s1.46.94,2.3,0A5.76,5.76,0,0,0,85.64,43s-.13-.12-.48.2c0,0,.35,2,0,2"/><path class="cls-1" d="M83.61,47.41a9.33,9.33,0,0,0,0,2.24c.18,0,.92,0,.88-1.42s-.57-1.22-.88-.82"/><path class="cls-1" d="M85.38,47.09s-.31,0-.31.9-.27,1.58,0,1.58.57-.81.8-1.63-.1-1-.53-.85"/><path class="cls-1" d="M83.83,51.67c.58,0,1.41,0,1.55-.89s-1-.65-1.81.08c0,0-.31.77.26.81"/><path class="cls-1" d="M83.57,52.77a10.93,10.93,0,0,0,0,2.44,11.63,11.63,0,0,0,1.24-2.32c.22-.61-1.06-.56-1.28-.12"/><path class="cls-1" d="M83.14,69.17c.38,1.49.09,1.4-.29,1.4s-.76-2.11-1.33-.7c-.33.8-.86,2,.19,1.93s3.72.09,2.86-1.84-1.81-2.28-1.43-.79"/><path class="cls-1" d="M85.52,75.31a.79.79,0,0,0,.2-.82c-.14-.53-1.88-.19-1.88-.19l-3.9.19s-.47.78-.33.91,5.62.08,5.91-.09"/><path class="cls-1" d="M82,78.4c0-1.41-.32-2.61-1.53-2.56,0,0-1.65-.08-1.71.93s-.17,2.51.32,2.51.12-1.81.52-1.84.43.73.43,1.23.73.72.67-.06-.4-1.35,0-1.24.55.17.46.9.84,1.54.81.13"/><path class="cls-1" d="M83.61,77.27c.38,0,.4.66.4,1.13s.67.66.62-.06-.38-1.25,0-1.15.5.18.42.84.77,1.42.75.12-.29-2.41-1.42-2.36c0,0-1.52-.08-1.57.86S82.68,79,83.13,79s.11-1.67.48-1.69"/><path class="cls-1" d="M43.94,93.49c.62,0,.31-2.71-.37-2.21a1.18,1.18,0,0,0-.38.89c0,.63.13,1.29.75,1.32"/><path class="cls-1" d="M46.35,93.24c-.18-1-.69-1.52-.72-1.13a2.63,2.63,0,0,0,0,1.32c.17.69.93.85.76-.19"/><path class="cls-1" d="M48.78,93.53c.18-.16-.75-1.77-1.13-1.31,0,0-.45.2.07.83s.89.63,1.06.48"/><path class="cls-1" d="M51.26,96.72c-.07-.22-.52-.57-.69-.53a.33.33,0,0,0-.07.59c.41.39.82.16.76-.06"/><path class="cls-1" d="M53.35,96.85c.55-.26-.55-1.17-1.23-1.14,0,0-.38,0,0,.53s.68.86,1.23.61"/><path class="cls-1" d="M55.89,100c.66.5,1.14.5.8-.13s-.69-1.08-1-.79c0,0-.48.42.17.92"/><path class="cls-1" d="M59,99.47c.17-.41-.93-1.77-1.37-1.74,0,0-.59.07-.07.92s1.27,1.23,1.44.82"/><path class="cls-1" d="M60.67,99c0-.42-.82-1.93-.93-1.46A1.85,1.85,0,0,0,59.91,99c.49.54.79.34.76-.06"/><path class="cls-1" d="M62.9,98.36c-.1-.6-.65-1.51-.89-1.32,0,0-.52.22-.07.91s1.07,1,1,.41"/><path class="cls-1" d="M64.44,97.57c1.1,0-.24-.79-.34-.95s-.58-.25-.54,0c0,0-.21.95.88.95"/><path class="cls-1" d="M64.44,100.86a.66.66,0,0,0-.62-.57s-.71-.06-.23.48.93.44.85.09"/><path class="cls-1" d="M66.41,100.58c-.38-1-.73-1.43-1.1-1.21,0,0-.32.42.16,1s1.31,1.1.94.16"/><path class="cls-1" d="M67.74,99.31c-.13-.76-1.54-2.62-1.54-1.93a1.53,1.53,0,0,0,.34,1.21c.48.6,1.34,1.48,1.2.72"/><path class="cls-1" d="M63.31,103.39c-.2.31-.48,1.21.14,1,0,0,1-.54.85-.82s-.78-.45-1-.13"/><path class="cls-1" d="M65.27,105.31c-.55.14-1.07.6-.75.92,0,0,.31.55,1,0s.31-1-.24-.92"/><path class="cls-1" d="M74.07,106.26s-1.24.92-.21,1,1.2-.25.89-.7-.35-.47-.68-.29"/><path class="cls-1" d="M80.79,107.1c-.28,0-1.27.5-.86.91,0,0,.83.31,1.24-.23s-.1-.68-.38-.68"/><path class="cls-1" d="M83.44,105.22c-.48.2-.76.57,0,.89a.85.85,0,0,0,.82-.38c.31-.48-.34-.7-.82-.51"/><path class="cls-1" d="M79,104.82s-1,1.2,0,1.26.51-.83.51-.83-.38-.69-.55-.43"/><path class="cls-1" d="M79.08,102.82c-.52-.41-.8-.19-1,.09,0,0-.68,1.11.14,1.08s1.41-.76.9-1.17"/><path class="cls-1" d="M83,102.6c-.14-.41-.27-.57-.65-.38,0,0-.82.57-.31.76s1.1,0,1-.38"/><path class="cls-1" d="M71.08,100s-.28.5.34.57.65-.32.62-.51a.63.63,0,0,0-1-.06"/><path class="cls-1" d="M72,96.34a.75.75,0,0,0,.48.92c.65.19.45-.41.38-.57S72,96,72,96.34"/><path class="cls-1" d="M75.4,97.83s-.58.57-.2.69,1.16-.5.2-.69"/><path class="cls-1" d="M77.87,96.27c.56.07.93-.53.15-.66,0,0-.69.6-.15.66"/><path class="cls-1" d="M74.82,96.09s-.75.06-.34.44.58.38.75-.1.07-.44-.41-.34"/><path class="cls-1" d="M76.12,93.65a.61.61,0,0,0,.27.73c.45.26.45,0,.49-.26s-.76-.85-.76-.47"/><path class="cls-1" d="M75.27,92.58a.83.83,0,0,0,.68-.1c.31-.22-.79-.47-.68.1"/><path class="cls-1" d="M81.45,89.7c.34-.29-.41-.6-.62-.19,0,0,.27.48.62.19"/><path class="cls-1" d="M101.38,105.38c.8-.22,1.34-1.47-.08-1.14,0,0-.65.6-.65.78s-.07.58.73.36"/><path class="cls-1" d="M96.23,103.37s-.24.75.09.71,1-.24.6-.61-.57-.3-.69-.1"/><path class="cls-1" d="M93.82,102.37s-.7.25-.72.5,0,.73.63.32,1.06-1.22.09-.82"/><path class="cls-1" d="M91.11,101.49s-.85.22-.59.53.92.82,1.09.25,0-1-.5-.78"/><path class="cls-1" d="M97,100.47s-.66.26-.54.5a.51.51,0,0,0,.83.18c.33-.33.35-.94-.29-.68"/><path class="cls-1" d="M99.09,103c.52-.14,1.25-1.34.14-1.16a1.1,1.1,0,0,0-.59.52c-.19.4-.07.76.45.64"/><path class="cls-1" d="M86.74,93.1s0,.78.6.63a.43.43,0,0,0,.33-.63s-1.13-.6-.93,0"/><path class="cls-1" d="M86.66,96.7c-.52-.25-.55-.32-.71-.12,0,0-.45.76,0,.79s1.18-.41.67-.67"/><path class="cls-1" d="M89,94.44c.08-.33-1.78.4-1,.71,0,0,.6.27.9.12s.06-.5.14-.83"/><path class="cls-1" d="M90.76,91.14c.5,0,.47-.46.3-.71s-1-.28-.93.23a.66.66,0,0,0,.63.48"/><path class="cls-1" d="M91,92.55c1.07.58.71-1,.19-.73,0,0-.67.47-.19.73"/><path class="cls-1" d="M92.65,91.37c1.15,0,.52-1.07.08-.86a4.8,4.8,0,0,0-.57.47c-.06.1-.42.39.49.39"/><path class="cls-1" d="M91.34,94.29c0,.23.27.35.73.23s.47-.71-.1-.58c0,0-.6.12-.63.35"/><path class="cls-1" d="M93.91,93.63c.25-.07.17-.53.19-.85s-.13-.48-.55-.2a.32.32,0,0,0-.24.37c0,.33.35.76.6.68"/><path class="cls-1" d="M103.52,88.26c.38-.32.69-.91,0-1a.45.45,0,0,0-.47.48c0,.48.14.83.52.5"/><path class="cls-1" d="M104.7,88.75a2.06,2.06,0,0,0,.85.17c.33,0,.17-.53-.08-.66s-1.21.41-.77.49"/><path class="cls-1" d="M106.62,86.78c.85.15,1-.81.63-.74,0,0-1.48.59-.63.74"/><path class="cls-1" d="M104.86,86.55c.44,0,.75-.15.47-.35s-.69-.61-.69-.38c0,0-.21.76.22.73"/><path class="cls-1" d="M101.87,36.48c-.07-.82-.27-1-.33-.92s-.2,2.26,0,2.33.36-.59.3-1.41"/><path class="cls-1" d="M89.85,41.58c-.51.05-.67-.65-.7-1.11s-.47-.73-.7-.15c0,0,.09,1.93,1.1,1.86,1.25-.09,1.59-.66,1.08-2.19a.44.44,0,0,0-.66-.13c-.39.31.37,1.66-.12,1.72"/><path class="cls-1" d="M91.4,39.48s-.21,2.1.78,2.13c1.25,0,1.66-.53,1.41-2.23a.42.42,0,0,0-.64-.21c-.44.28.11,1.82-.39,1.82s-.55-.77-.51-1.26-.34-.84-.65-.25"/><path class="cls-1" d="M94.35,38.87S94.13,41,95,41.05c1.15,0,1.54-.57,1.33-2.32,0,0-.17-.51-.57-.21s.07,1.88-.4,1.89-.49-.78-.45-1.3-.31-.87-.6-.24"/><path class="cls-1" d="M97.13,37.67l0,1.86s-.17,1.25,1.29,1.28,1.09-1.7,1.09-2.44-.1-1.83-.47-1.77-.46.46-.42,1.25.2,1.74-.26,1.71-.44-.61-.44-1.4-.66-1.38-.76-.49"/><path class="cls-1" d="M101.07,35.84s-.86-.7-.86.36-.33,4.12,1.59,4.21,1.63-2.19,1.63-3.63.3-3-.33-2.56-.7.82-.77,1.86.23,2.72-.33,2.81-.94-.09-.86-1.62a3.6,3.6,0,0,0-.07-1.43"/><path class="cls-1" d="M105.32,36.9c-.11-1.67,0-2.89-.37-2.89,0,0-.66-.06-.7.79s-.39,4.22.83,4.73,2.92.21,3-1,0-4,0-4.76-.8-1.1-1,0,.49,5-.53,5-1.17-.08-1.26-1.77"/><path class="cls-1" d="M106.08,34.28s-.37,3,.09,3.18.24-2.05.27-2.72-.3-1-.36-.46"/><path class="cls-1" d="M101.28,81.35c.8.08,3.29-5.09,3.9-8.42a19,19,0,0,1,1.55-5.61c.7-1.51,1.69-7.6,1.69-10.67s.19-5.87,0-6.34-.38-.65-.94-.27-1.27.18-1.18,1.56.2,10-.32,11.36-1,3.5-1.46,4.92-.93,3-.61.08,1-3,1-4.79.52-3.88.43-6.44.14-5.77.14-5.77-1.41-1.73-1.46-.18.1,9.59,0,10.66a17.65,17.65,0,0,0-.38,3.81c.14,1.08-.42,1.43-.51,3.19s-.62,8.47-1.55,10.27-1.08,2.56-.29,2.64"/><path class="cls-1" d="M100,73.27c.61-.34,3-5.56,3.14-13.51s.47-8.8.1-9.41-1.18-.77-1,.86-.32,13.09-.94,13.13c-.51.39.43-9.77.19-13.7l0-.09s-.75-1.86-.8-.44-.09,7.71-.28,8.18a13.75,13.75,0,0,0-.7,5.05,41.82,41.82,0,0,1,.13,8c-.27,1.25-.36,2.28.24,1.93"/><path class="cls-1" d="M99.45,55.4a52.1,52.1,0,0,0,.48-5.9s-1-.3-1.1.73c0,.6-.08,3.28-.22,4.17s-.14,4.84-.75,4.8-.28-1.94-.09-3.63.84-3.38.37-5.8c0,0-.85-.86-.89-.08s.1,2.81-.19,3.16a5.26,5.26,0,0,0-.46,2.72c0,1.25.28,3.28-.24,4.06s-.33,1.77-.51,2.81a13.53,13.53,0,0,1-1.46,4.84c-1,1.46,1.13,1.85,3.24-3.67s1.69-6.52,1.82-8.21"/><path class="cls-1" d="M93.84,49.75c0,.86-.1,6.43-.57,7.38s-.61,2.89-.9,3.41-1.36,3-1.87,3.76S90.08,66,91,65.38s3.85-4.11,4.27-7.13.94-5,1.08-5.79.41-3,.13-3.19-.85-.34-.85.48a23.09,23.09,0,0,1-.73,5c-.47,1.38-.52,1.9-.56.17s.34-5.13.1-5.95c0,0-.61-.14-.61.73"/><path class="cls-1" d="M90.74,48.84a30.58,30.58,0,0,0-.1,3.19c0,3-1.69,6-2.63,7.95s.33,1.38,1.08.77A18.82,18.82,0,0,0,92,56.53c.71-1.35,1.37-7.6,1.37-7.6a.68.68,0,0,0-1,0c-.24.35-.51.48-.7.09s-.89-.13-.89-.13"/><path class="cls-1" d="M89.51,54.71c.42-1,.57-5.66.57-5.66,0-.74-.37-1.21-.47.09s-.53.72-.77-.41-.67,2.18-.48,3.3-1,4.14-1.52,6.08,2.25-2.37,2.67-3.4"/><path class="cls-1" d="M90.08,43.62c-.19,1.48.08,2.08-.46,1.9s0-2.42-.41-2.42-.35.88-.42,1.51-.2,2.39.8,2.39c1.68,0,1.29-2.92,1.29-3.45s-.61-1.4-.8.07"/><path class="cls-1" d="M93.44,42.68c-.42,0-.61.1-.57.94s.15,1.69-.31,1.59-.3-1.06-.26-1.83-.31-.74-.31-.74-.42-.11-.42.71-.19,3.51.73,3.58,1.41-.67,1.49-2.46.07-1.79-.35-1.79"/><path class="cls-1" d="M95.35,47.53c1.56.14,1.26-2.43,1.3-3.06s.19-2.11-.19-2.14-.35.38-.35,1.08-.07,2.36-.53,2.39-.57-.8-.46-2,.11-1.37-.11-1.4c0,0-.58,0-.58,1s-.64,4,.92,4.18"/><path class="cls-1" d="M99.78,42.08c-.46-.1-.77,0-.77.85s.12,3.44-.42,3.44-.69-.74-.69-2.08.39-2.1.12-2.17c0,0-.76-.39-.8.91s-.27,4.81.88,5,1.87-1.16,1.75-2.78.38-3.05-.07-3.16"/><path class="cls-1" d="M101.3,41.76s-.61-.07-.68,1,.07,3,.07,4,.12,1.79,1.11,1.9,1.72-1.38,1.72-3,.42-4-.24-4.14-.49.46-.45,1,0,4.5-.77,4.39-.87-1.75-.64-3.48c.26-2-.12-1.72-.12-1.72"/><path class="cls-1" d="M102.06,42.4s-.26-.18-.26.84S101.53,46,102,46s.11-.91.27-1.83.15-1.75-.16-1.75"/><path class="cls-1" d="M108.25,41c-.57-.08-.8-.18-.84.95s-.11,4.49-.11,4.49.11,1.34-.88,1.34-1-.57-1-1.8.34-4.49-.5-4.6c0,0-.65,0-.69,1.09s0,4.29,0,4.85a2.07,2.07,0,0,0,1.91,2.11c1.64.21,2.14-2,2.17-4.11s.46-4.25-.11-4.32"/><path class="cls-1" d="M106.42,42.19S106,42,106,43s-.23,3.87.15,3.87.45-.17.43-1c-.08-2.35.22-3.65-.12-3.68"/><path class="cls-1" d="M88,15l.53-3.47c.08-.51,0-.86-.74-.95l-.88-.11-.78,5.14.86.12c.71.08.92-.22,1-.73m-1.3.28L87,13.36l.53.08.08-.49L87,12.89l.3-2,.27,0c.34,0,.44.15.39.45L87.46,15c0,.3-.17.39-.51.34l-.27,0"/><path class="cls-1" d="M43.4,40.74s-.76.06-.76-.65v-.66h1.49a1,1,0,0,0,1.12-1,1,1,0,0,0-1.12-.95H41.34V38s.42-.09.42.39v2a.49.49,0,0,1-.49.35v.36h2.11l0-.34m.24-2.85a.5.5,0,1,1,0,1h-1v-1h1"/><path class="cls-1" d="M37.55,62.42h2.16a.49.49,0,0,1,.37.45h.39V60.93l-.37,0a.65.65,0,0,1-.7.72h-.71V60.24a1,1,0,0,0-2.07,0v2.57h.51s-.11-.39.42-.39M37,60.68a.51.51,0,0,1,.54-.48.51.51,0,0,1,.54.48v.94H37v-.94"/><path class="cls-1" d="M74.54,78a.38.38,0,0,1-.61.12L72.19,77a.47.47,0,0,1,0-.61l-.32-.21-1.37,1.75-.49.61A1,1,0,0,0,70.18,80a1.17,1.17,0,0,0,1.16,0,.86.86,0,0,0,.4.68,1.15,1.15,0,0,0,1.51-.29l.86-1.09.13-.17.25-.31.47-.6L74.54,78M71,79.18a.49.49,0,0,1-.11-.73l.58-.75a.72.72,0,0,1,.42.15l.58.38-.67.84a.59.59,0,0,1-.8.11m2.26.69a.58.58,0,0,1-.76.11.48.48,0,0,1-.12-.7l.58-.73.87.59-.57.73"/><path class="cls-1" d="M48.72,37.5a1.88,1.88,0,1,0,2.17,1.85,2,2,0,0,0-2.17-1.85m0,3.16c-.36,0-.88-.64-.88-1.31s.52-1.31.88-1.31.89.65.89,1.31-.52,1.31-.89,1.31"/><path class="cls-1" d="M54.61,40.74s-.77.06-.77-.65v-.66h.65l1.11,1.65a1.47,1.47,0,0,0,1.26-.42l-.18-.25s-.48.31-.7-.06l-.59-.92a1,1,0,0,0,1.06-1,1,1,0,0,0-1.12-.95H52.54V38s.42-.09.42.39v2a.49.49,0,0,1-.49.35v.36h2.11l0-.34m.24-2.85a.5.5,0,1,1,0,1h-1v-1h1"/><path class="cls-1" d="M37.51,55.47h2.15a.47.47,0,0,1,.37.45h.4V54l-.37,0a.64.64,0,0,1-.71.7h-.71v-.6l1.79-1A1.17,1.17,0,0,0,40,51.89l-.26.16s.32.44-.07.65-.78.41-1,.54a1,1,0,0,0-2.07,0v2.57h.52s-.11-.39.42-.39M37,53.73a.51.51,0,0,1,.54-.48.52.52,0,0,1,.54.48v.93H37v-.93"/><path class="cls-1" d="M57.72,86.29s.76.14.55.82c-.05.16-.12.38-.19.63l-.64-.17-.57-1.87a1.49,1.49,0,0,0-1.33.1l.09.28s.56-.17.66.23.23.81.3,1a1.1,1.1,0,0,0-1.31.65,1,1,0,0,0,.79,1.2l2,.52.7.19.15-.46a.33.33,0,0,1-.29-.48l.59-1.9a.49.49,0,0,1,.57-.21l.11-.35-2-.54-.13.33m-1.44,2.07a.54.54,0,0,1,.66-.34l1,.25c-.11.36-.22.72-.3,1l-1-.26a.49.49,0,0,1-.36-.61"/><path class="cls-1" d="M80.55,41.85s.11.38-.42.38H78a.47.47,0,0,1-.37-.44h-.4v1.94l.37,0a.64.64,0,0,1,.7-.71H79v.61l-1.78,1a1.17,1.17,0,0,0,.46,1.15l.27-.16s-.33-.45.06-.65.78-.41,1-.54a1,1,0,0,0,2.06,0V41.85h-.51M80.68,44a.54.54,0,0,1-1.08,0V43h1.08V44"/><polyline class="cls-1" points="65 40.79 64.46 40.79 65.9 38.83 67.99 41.07 69.81 39.28 70.92 40.79 70.24 40.79 70.24 41.09 72.9 41.09 72.9 40.79 72.54 40.79 70.76 38.35 70.78 38.34 70.78 37.6 69.92 37.6 69.92 38.13 68.44 39.58 66.71 37.6 64.83 37.6 64.83 38.18 65.31 38.18 65.32 38.19 63.41 40.79 63.02 40.79 63.02 41.09 65 41.09 65 40.79"/><polyline class="cls-1" points="76.27 40.54 75.96 40.54 75.96 38.17 76.27 38.17 76.27 37.62 74.47 37.62 74.47 38.17 74.78 38.17 74.78 40.54 74.47 40.54 74.47 41.09 76.27 41.09 76.27 40.54"/><polyline class="cls-1" points="37.2 50.85 39.78 50.85 39.78 51.13 40.37 51.13 40.37 49.48 39.78 49.48 39.78 49.77 37.2 49.77 37.2 49.48 36.61 49.48 36.61 51.13 37.2 51.13 37.2 50.85"/><polyline class="cls-1" points="37.19 44.18 40.5 42.23 37.19 39.86 37.19 39.21 36.64 39.21 36.64 40.94 37.19 40.94 37.19 40.44 39.04 41.76 37.19 42.85 37.19 42.73 36.64 42.73 36.64 44.68 37.19 44.68 37.19 44.18"/><polyline class="cls-1" points="36.99 48.69 37.76 48.69 37.76 48.38 37.38 48.38 37.38 47.41 39.81 47.41 39.81 48.02 40.37 48.02 40.37 45.67 39.81 45.67 39.81 46.28 37.38 46.28 37.38 45.31 37.76 45.31 37.76 45 37.38 45 36.61 45 36.61 48.69 36.99 48.69"/><polyline class="cls-1" points="37.2 58.44 39.78 58.44 39.78 58.73 40.37 58.73 40.37 57.06 39.78 57.06 39.78 57.35 37.2 57.35 37.2 57.06 36.61 57.06 36.61 58.73 37.2 58.73 37.2 58.44"/><path class="cls-1" d="M70.7,82.32s-.19-.09-.25-.16l-1.59-1.55c-.06-.06-.08-.11-.07-.14a3.9,3.9,0,0,1,.32-.3l-.33-.31-2.87,2.49.48.88.35-.3c-.08-.15,0-.51,0-.54s0-.12.1-.18l1.18-1,1.67,1.62c.06.07.19.21.18.23a6.07,6.07,0,0,1-.64.59l.36.34,1.81-1.56L71,82.07a1.66,1.66,0,0,1-.33.25"/><path class="cls-1" d="M43.8,78.08l2-1.13c.07,0,.13-.06.16,0a1.56,1.56,0,0,1,.26.33l.4-.23L44.46,74l-1,.26.26.38a1.29,1.29,0,0,1,.57.1.26.26,0,0,1,.19.11l.86,1.27-2.06,1.2a1.15,1.15,0,0,1-.28.12s-.35-.48-.5-.69L42,77l1.32,1.94.44-.26a1.46,1.46,0,0,1-.22-.34s.15-.15.23-.21"/><path class="cls-1" d="M45.86,78l.35.4.31-.12a.45.45,0,0,1,.17,0c.06,0,.28.2.33.26l.71.81-1,.73-.93-1.07-.42.32.93,1.06-.77.57-.8-.91,0,0v-.13s0,0,.07-.1l.18-.23-.33-.39-.65.78,2.12,2.41.34-.26-.16-.19c0-.07-.07-.1-.06-.13s0,0,.09-.11l2-1.46c.08,0,.13-.06.16,0a1.38,1.38,0,0,1,.26.26l.36-.26-2.21-2.51-1,.41"/><path class="cls-1" d="M39.65,71l2.41-.74c.08,0,.14,0,.16,0a1.54,1.54,0,0,1,.15.33l.43-.13-1.11-3.06-1.09.08.16.48h.34a.48.48,0,0,1,.18,0c.06,0,.18.28.21.35l.35,1-1.2.37-.46-1.29-.52.15.47,1.3-.94.29-.41-1.11,0-.06.06-.12.11-.07.26-.17L39,68.06l-.89.52,1.06,2.94.43-.13a1.21,1.21,0,0,1-.07-.24c0-.07,0-.11,0-.13a.26.26,0,0,1,.13-.07"/><path class="cls-1" d="M38.46,67.24c.46,0,.78-.44,1-1.18.06-.24.11-.48.17-.72a2.48,2.48,0,0,1,.22-.64.47.47,0,0,1,.31-.14.24.24,0,0,1,.25.15,1,1,0,0,1,.13.43,2,2,0,0,1,0,.79,2,2,0,0,1-.77.52l.26.64a6.15,6.15,0,0,1,1.08-.41,4.38,4.38,0,0,0,.09-1.38,2.46,2.46,0,0,0-.55-1.46,1,1,0,0,0-.91-.46.84.84,0,0,0-.67.38,3.64,3.64,0,0,0-.34.95c0,.08,0,.23-.17.7a2.24,2.24,0,0,1-.22.65.16.16,0,0,1-.13.11c-.15,0-.36-.15-.39-.5a6.09,6.09,0,0,1,0-1.26,2.21,2.21,0,0,1,.71-.37l-.19-.54c-.43.16-.77.26-1.06.34a4.24,4.24,0,0,0-.08,1.33,3.61,3.61,0,0,0,.43,1.49,1,1,0,0,0,.91.58"/><path class="cls-1" d="M80,52.63c.19.06.09.07.12.08a.85.85,0,0,1,.19.09.45.45,0,0,1,0,.21v1.3l-2.72-2.22s-.39-.44-.39.29v3.45l1,.28v-.67c-.3-.08-.19-.15-.26-.21a.4.4,0,0,1-.08-.29V53.87L80.66,56s.37.24.37-.32V52.24L80,52v.65"/><path class="cls-1" d="M77.88,46.47a2.21,2.21,0,0,1,0-.32h-.65V47.6h.65v-.31l.64.31v1.55c-.53.28-.65.33-.65.33v-.62h-.65v2.35h.65a1,1,0,0,1,0-.33c0-.05.06-.09.15-.14l3-1.66v-1L78,46.56a.18.18,0,0,1-.1-.09M79.05,48l.84.39-.84.45V48"/><path class="cls-1" d="M77.84,57s0-.14,0-.31h-.65v1.45h.65v-.31l.65.31v1.55c-.54.28-.66.33-.66.33v-.62h-.65v2.35h.65a1.78,1.78,0,0,1,0-.33A.36.36,0,0,1,78,61.3l3-1.66v-1L78,57.12a.18.18,0,0,1-.11-.1M79,58.55l.83.39-.83.45v-.84"/><path class="cls-1" d="M65.53,83.53,65.17,83l-1.33.78.35.51.27-.16h0l.06.67-1.41.83c-.55-.27-.66-.34-.66-.34L63,85l-.35-.51-2.16,1.25.34.51.32-.16a.44.44,0,0,1,.22.05l3.12,1.46.93-.54-.25-3.2a.14.14,0,0,1,0-.13l.29-.18M63.7,85.89l.77-.45.09.86-.86-.41"/><path class="cls-1" d="M54.2,84.12l-.38.49.25.17h0l-.65.3-1.36-.89c.06-.57.08-.69.08-.69l.54.37.39-.49L51,82l-.38.49a1.25,1.25,0,0,1,.28.21.36.36,0,0,1,0,.2l-.29,3.22.9.58,3.12-1.42a.25.25,0,0,1,.14,0,1.88,1.88,0,0,1,.29.17l.38-.49-1.28-.84M52,85.67l.09-.89.75.49-.84.4"/><path class="cls-1" d="M75.2,71.39a3.09,3.09,0,0,1,.12-.29l-.6-.25-.63,1.33.59.24c.08-.15.12-.24.13-.26v0l.47.53-.69,1.41a6.13,6.13,0,0,1-.74,0l.28-.56-.6-.24-1,2.15.6.24a1.51,1.51,0,0,1,.17-.3.48.48,0,0,1,.21-.06L76.94,75l.44-.93-2.13-2.52,0-.13m1,2.5-1,.1.38-.76.59.66"/><path class="cls-1" d="M79.61,66.4q0,.1-.06.12a1.23,1.23,0,0,1-.29,0L77,65.93c-.09,0-.14-.05-.14-.08a1.36,1.36,0,0,1,.08-.37l-.46-.11L76,67.12l.47.12a.92.92,0,0,1,.07-.22c0-.06,0-.09,0-.1s.06,0,.14,0l.94.23-.44,1.54-.94-.23c-.09,0-.13,0-.13-.07s0-.13.06-.32L75.74,68l-.51,1.75.47.12c0-.13.06-.21.07-.25s0-.11.07-.12a.27.27,0,0,1,.15,0l2.25.55a.88.88,0,0,1,.28.11,1.52,1.52,0,0,1-.09.37l.51.12.51-1.75-.51-.12c0,.12-.06.18-.07.22s0,.08-.06.09a1,1,0,0,1-.26,0l-.76-.19.44-1.53.76.18a.87.87,0,0,1,.26.1.91.91,0,0,1-.06.31l.5.13.51-1.75-.51-.12a1.28,1.28,0,0,1-.08.24"/><path class="cls-1" d="M141.94,36.24h5.4l8,13.19V39c0-1.09-.57-1.71-1.5-1.71h-.72V36.24h5.92V37.3h-.73c-1,0-1.42.77-1.42,1.68V53.85h-1.55L145.71,38V51.08c0,1.61.78,1.71,2.2,1.71v1.06h-6V52.79h.57c1.26,0,1.65-.52,1.65-2.25V38.93c0-1.37-.34-1.63-1.78-1.63h-.44Z"/><path class="cls-1" d="M160.63,50.88a3.32,3.32,0,0,1,2.09-3c1.17-.6,3.52-1,6.91-1.4V45.16c0-1.76-1-2.61-3-2.61-1.45,0-2.43.59-2.66,1.52-.31,1.19-.42,2-1.4,2a1.12,1.12,0,0,1-1.11-1.27c0-1.75,2.07-3.46,5.48-3.46a5.5,5.5,0,0,1,4,1.27,3.28,3.28,0,0,1,.85,2.69v5.45c0,1.35.29,2.17,1.5,2.17a3.7,3.7,0,0,0,1.37-.28v1.09a6.37,6.37,0,0,1-1.86.31c-1.73,0-2.79-.8-3-2.15a8.29,8.29,0,0,1-5.19,2.15C162.16,54.06,160.63,52.56,160.63,50.88Zm9-3.24c-4,.6-6.72,1-6.72,3a2.07,2.07,0,0,0,2.22,1.94,8.33,8.33,0,0,0,4.5-1.91Z"/><path class="cls-1" d="M187.31,51a6.93,6.93,0,0,1-5.69,3.21,6.18,6.18,0,0,1-6.13-6.47A6.14,6.14,0,0,1,182,41.36c3,0,5.07,1.81,5.07,3.23a1.13,1.13,0,0,1-1.11,1.19,1.27,1.27,0,0,1-1.07-.72c-.54-1.19-1-2.51-3-2.51-2.25,0-4,1.91-4,5.09s1.83,5.18,4.08,5.18,3.39-1.27,4.5-2.49Z"/><path class="cls-1" d="M189,43.48V42.42a8.72,8.72,0,0,0,3.39-1.06h.93V51.47c0,.85.33,1.32,1.16,1.32h1v1.06H189V52.79h.88c1.06,0,1.32-.52,1.32-1.45V43.48Zm4.68-6.36a1.45,1.45,0,0,1-1.45,1.45,1.47,1.47,0,0,1-1.47-1.45,1.45,1.45,0,0,1,1.47-1.43A1.43,1.43,0,0,1,193.68,37.12Z"/><path class="cls-1" d="M209,47.75c0,3.77-2.37,6.44-6.28,6.44s-6.1-2.77-6.1-6.44a6,6,0,0,1,6.26-6.39C206.69,41.36,209,44,209,47.75Zm-9.95.1c0,3.34,1.42,5.15,3.72,5.15s3.8-2,3.8-5.28-1.5-5.17-3.8-5.17C200.69,42.55,199.06,44.49,199.06,47.85Z"/><path class="cls-1" d="M211.32,52.79c1.42,0,1.5-.7,1.5-1.71v-7.6h-2.17V42.42a6.89,6.89,0,0,0,3.28-1.06h.91v2.4c1.7-1.42,3.23-2.4,5.25-2.4,2.32,0,3.88,1.42,3.88,3.57v6.41c0,1,.31,1.45,1.44,1.45h.73v1.06h-6.52V52.79h.65c1.19,0,1.57-.47,1.57-1.58v-5c0-1.94-.38-3.31-2.45-3.31A7,7,0,0,0,214.94,45v6.31c0,1.27.62,1.45,1.55,1.45h.65v1.06h-6.49V52.79Z"/><path class="cls-1" d="M228,50.88a3.33,3.33,0,0,1,2.1-3c1.16-.6,3.51-1,6.9-1.4V45.16c0-1.76-1-2.61-3-2.61-1.45,0-2.43.59-2.66,1.52-.31,1.19-.42,2-1.4,2a1.12,1.12,0,0,1-1.11-1.27c0-1.75,2.07-3.46,5.48-3.46a5.5,5.5,0,0,1,4,1.27,3.28,3.28,0,0,1,.85,2.69v5.45c0,1.35.29,2.17,1.5,2.17a3.7,3.7,0,0,0,1.37-.28v1.09a6.31,6.31,0,0,1-1.86.31c-1.73,0-2.79-.8-3-2.15a8.31,8.31,0,0,1-5.2,2.15C229.53,54.06,228,52.56,228,50.88Zm9-3.24c-4,.6-6.72,1-6.72,3a2.07,2.07,0,0,0,2.22,1.94A8.33,8.33,0,0,0,237,50.7Z"/><path class="cls-1" d="M243.66,37.43v-1A7.81,7.81,0,0,0,247,35.33H248V51.24c0,1,.34,1.55,1.45,1.55h.78v1.06h-6.52V52.79h.93c1.14,0,1.24-.91,1.24-2V37.43Z"/><path class="cls-1" d="M142.08,11.47H156.4l1.66,4.63-1.11.41c-1-2.79-2.64-3.67-5.38-3.67h-4.89v6.47h2.09c1.87,0,2.8-.83,2.8-2.59V16.1h1.21v7.73h-1.21v-1a2.12,2.12,0,0,0-2.38-2.3h-2.51v6.24c0,.69.15.95.85.95h3.16c3.44,0,5.51-.95,7.06-4.55l1.16.39-2,5.53H142.08V28h.9c.88,0,1.32-.44,1.32-1.37V13.8c0-.88-.47-1.27-1.45-1.27h-.77Z"/><path class="cls-1" d="M161,25l1.17-.44c1.47,2.32,3,3.67,5.22,3.67a2.31,2.31,0,0,0,2.53-1.94c0-1-.8-1.53-2.17-2l-2.92-1.06c-2.25-.83-3.36-1.78-3.36-3.34,0-1.78,1.81-3.23,4.24-3.23a5,5,0,0,1,3.21,1.06l.33-.75h.88l1.14,3.86-1.14.38a5.12,5.12,0,0,0-4.4-3.36c-1.24,0-2.19.7-2.19,1.6s.8,1.38,2.38,1.94l2.45.88c2.28.81,3.6,1.79,3.6,3.55s-1.79,3.62-4.58,3.62a5.74,5.74,0,0,1-3.65-1.19l-.26.9h-.9Z"/><path class="cls-1" d="M186,26.21a6.93,6.93,0,0,1-5.69,3.21A6.18,6.18,0,0,1,174.2,23a6.15,6.15,0,0,1,6.49-6.36c3,0,5.07,1.81,5.07,3.23A1.12,1.12,0,0,1,184.65,21a1.24,1.24,0,0,1-1.06-.72c-.55-1.19-1-2.51-3-2.51-2.25,0-4,1.92-4,5.1s1.84,5.17,4.09,5.17,3.38-1.27,4.5-2.48Z"/><path class="cls-1" d="M203.75,28v1.06l-4.19.21V27c-1.91,1.53-3.57,2.43-5.61,2.43a3.76,3.76,0,0,1-4.12-3.72V19.38c0-1-.51-1.42-1.55-1.42h-1.11V16.9l4.79-.2v8.43a2.48,2.48,0,0,0,2.69,2.71,8.16,8.16,0,0,0,4.81-2.14V19.44c0-1-.42-1.48-1.58-1.48h-1.09V16.9l4.79-.2v9.44c0,1.68.38,1.88,1.78,1.88Z"/><path class="cls-1" d="M207.55,21.92c0,.36,0,.54,0,.9,0,3.16,1.6,5.23,4.08,5.23,1.66,0,2.82-.88,4.14-2.23l.8.65c-1.73,2.1-3.26,3-5.22,3A6.06,6.06,0,0,1,205.1,23c0-3.88,2.5-6.44,6.13-6.44,3.23,0,5.19,2.1,5.25,5.33Zm6.6-1.22c-.31-1.88-1.17-2.92-3-2.92s-2.84,1-3.44,2.92Z"/><path class="cls-1" d="M218.12,12.66v-1a8.09,8.09,0,0,0,3.34-1.06h1v15.9c0,1,.33,1.55,1.44,1.55h.78v1.06h-6.52V28h.93c1.14,0,1.24-.9,1.24-2V12.66Z"/><path class="cls-1" d="M226.39,26.11a3.33,3.33,0,0,1,2.1-2.95c1.16-.59,3.51-1,6.9-1.4V20.39c0-1.76-.95-2.61-3-2.61-1.45,0-2.43.6-2.66,1.53-.31,1.19-.42,2-1.4,2a1.11,1.11,0,0,1-1.11-1.26c0-1.76,2.07-3.47,5.48-3.47a5.5,5.5,0,0,1,4,1.27,3.28,3.28,0,0,1,.85,2.69V26c0,1.34.29,2.17,1.5,2.17a3.68,3.68,0,0,0,1.37-.29V29a6,6,0,0,1-1.86.31c-1.73,0-2.79-.8-3-2.15a8.31,8.31,0,0,1-5.2,2.15C227.92,29.29,226.39,27.79,226.39,26.11Zm9-3.23c-4,.59-6.72,1-6.72,3a2.07,2.07,0,0,0,2.22,1.94,8.3,8.3,0,0,0,4.5-1.91Z"/><path class="cls-1" d="M142.22,97.54l1.19-.23c1.29,3.49,4,5.48,6.7,5.48,2.27,0,4.32-1.47,4.32-3.31s-1.42-2.56-3.8-3.23l-3.16-.91c-3.15-.9-4.84-2.4-4.84-4.73,0-2.66,2.75-4.66,6.11-4.66a7,7,0,0,1,4.52,1.53l.55-1.22h.9l1.35,5.44-1.17.33c-1.42-3-3.75-4.71-6.31-4.71-2.25,0-3.75,1.32-3.75,2.75s1.45,2.38,3.65,3l3.28,1c3.31,1,4.94,2.53,4.94,4.89,0,2.79-2.69,5.22-6.59,5.22a7.61,7.61,0,0,1-5.25-2l-.57,1.68h-.88Z"/><path class="cls-1" d="M175,102.82v1.06l-4.19.2v-2.32c-1.92,1.52-3.57,2.43-5.61,2.43a3.77,3.77,0,0,1-4.12-3.73V94.18c0-1-.51-1.42-1.55-1.42h-1.11V91.7l4.78-.21v8.43a2.49,2.49,0,0,0,2.69,2.72,8.19,8.19,0,0,0,4.82-2.15V94.23c0-1-.42-1.47-1.58-1.47H168V91.7l4.79-.21v9.44c0,1.68.38,1.89,1.78,1.89Z"/><path class="cls-1" d="M180.14,93.51c1.55-1.22,2.87-2.12,4.71-2.12,2.92,0,5.22,2.45,5.22,6.1,0,3.9-2.4,6.7-5.82,6.7a5.94,5.94,0,0,1-4.11-1.66v4.71c0,1,.36,1.21,1.42,1.21h.8v1.07h-6.51v-1.07h.93c1.11,0,1.24-.43,1.24-1.39V93.51h-2.17v-1a5.18,5.18,0,0,0,3.28-1.08h1Zm0,6.2a3.31,3.31,0,0,0,3.44,3.11c2.25,0,4.06-1.68,4.06-5,0-3.11-1.53-4.89-3.39-4.89a6.92,6.92,0,0,0-4.11,1.86Z"/><path class="cls-1" d="M194.81,96.71c0,.37,0,.55,0,.91,0,3.15,1.6,5.22,4.09,5.22,1.65,0,2.82-.88,4.13-2.22l.81.65c-1.74,2.09-3.26,2.94-5.23,2.94a6.05,6.05,0,0,1-6.23-6.38c0-3.88,2.51-6.44,6.13-6.44,3.23,0,5.2,2.09,5.25,5.32Zm6.59-1.21c-.31-1.89-1.16-2.92-3-2.92s-2.85,1-3.44,2.92Z"/><path class="cls-1" d="M206.27,102.82c1,0,1.45-.44,1.45-1.48V93.48h-2.2v-1a7.07,7.07,0,0,0,3.29-1.06h.93v2.37A6.12,6.12,0,0,1,214,91.39c1.24,0,2,.67,2,1.52a1.2,1.2,0,0,1-1.24,1.14c-.73,0-1.25-.8-2-.8a4.91,4.91,0,0,0-2.87,1.89v6.1c0,1,.41,1.58,1.37,1.58H212v1.06h-6.52v-1.06Z"/><path class="cls-1" d="M217.67,93.51V92.45a8.72,8.72,0,0,0,3.39-1.06H222V101.5c0,.85.34,1.32,1.17,1.32h1v1.06h-6.47v-1.06h.88c1.06,0,1.32-.52,1.32-1.45V93.51Zm4.69-6.37a1.44,1.44,0,0,1-1.45,1.45,1.47,1.47,0,0,1-1.48-1.45,1.45,1.45,0,0,1,1.48-1.42A1.43,1.43,0,0,1,222.36,87.14Z"/><path class="cls-1" d="M237.69,97.77c0,3.78-2.38,6.44-6.29,6.44s-6.1-2.76-6.1-6.44a6,6,0,0,1,6.26-6.38C235.36,91.39,237.69,94,237.69,97.77Zm-10,.11c0,3.33,1.42,5.14,3.73,5.14s3.8-2,3.8-5.27-1.5-5.17-3.8-5.17C229.36,92.58,227.73,94.52,227.73,97.88Z"/><path class="cls-1" d="M240.05,102.82c.95,0,1.45-.44,1.45-1.48V93.48h-2.2v-1a7,7,0,0,0,3.28-1.06h.93v2.37a6.16,6.16,0,0,1,4.25-2.37c1.24,0,2,.67,2,1.52a1.19,1.19,0,0,1-1.24,1.14c-.72,0-1.24-.8-2-.8a4.91,4.91,0,0,0-2.87,1.89v6.1c0,1,.41,1.58,1.37,1.58h.83v1.06H239.3v-1.06Z"/><path class="cls-1" d="M253.37,96.71c0,.37,0,.55,0,.91,0,3.15,1.6,5.22,4.08,5.22,1.66,0,2.82-.88,4.14-2.22l.8.65c-1.73,2.09-3.26,2.94-5.22,2.94a6.06,6.06,0,0,1-6.24-6.38c0-3.88,2.51-6.44,6.13-6.44,3.24,0,5.2,2.09,5.25,5.32ZM260,95.5c-.31-1.89-1.17-2.92-3-2.92s-2.84,1-3.44,2.92Z"/><path class="cls-1" d="M264.44,99.74l1.16-.44c1.48,2.33,3,3.67,5.23,3.67a2.31,2.31,0,0,0,2.53-1.94c0-1-.8-1.52-2.17-2L268.27,98c-2.26-.82-3.37-1.78-3.37-3.33,0-1.79,1.81-3.23,4.24-3.23a5,5,0,0,1,3.21,1.06l.34-.75h.88l1.13,3.85-1.13.39a5.14,5.14,0,0,0-4.4-3.36c-1.24,0-2.2.69-2.2,1.6s.8,1.37,2.38,1.94l2.46.88c2.27.8,3.59,1.78,3.59,3.54s-1.78,3.62-4.57,3.62a5.74,5.74,0,0,1-3.65-1.19l-.26.91H266Z"/><path class="cls-1" d="M141.8,61.43h14.32l1.66,4.63-1.11.42c-1-2.8-2.64-3.68-5.38-3.68H146.4v6.47h2.09c1.87,0,2.8-.83,2.8-2.59v-.62h1.21V73.8h-1.21v-1a2.12,2.12,0,0,0-2.38-2.3H146.4v6.23c0,.7.15,1,.85,1h3.16c3.44,0,5.51-1,7.06-4.56l1.16.39-2,5.54H141.8V78h.9c.88,0,1.32-.44,1.32-1.37V63.76c0-.88-.47-1.27-1.45-1.27h-.77Z"/><path class="cls-1" d="M160.72,74.91l1.16-.44c1.48,2.33,3,3.67,5.23,3.67a2.31,2.31,0,0,0,2.53-1.94c0-1-.8-1.52-2.17-2l-2.92-1.06c-2.25-.82-3.36-1.78-3.36-3.33,0-1.79,1.81-3.24,4.24-3.24a5,5,0,0,1,3.21,1.06l.33-.75h.88L171,70.72l-1.14.39a5.13,5.13,0,0,0-4.4-3.37c-1.24,0-2.19.7-2.19,1.61s.8,1.37,2.37,1.94l2.46.88c2.28.8,3.6,1.78,3.6,3.54,0,1.91-1.79,3.62-4.58,3.62a5.74,5.74,0,0,1-3.65-1.19l-.26.91h-.9Z"/><path class="cls-1" d="M173.2,67.07c2.28-.52,3-1.91,3.42-4.5h.9v4.29h3.75v1.22h-3.75v7.66c0,1.44.39,2.32,1.68,2.32A4.52,4.52,0,0,0,181.84,77v1.22a6,6,0,0,1-3.28,1.14c-1.89,0-3.16-1-3.16-3V68.08h-2.2Z"/><path class="cls-1" d="M199.68,78v1.06l-4.19.2V76.93c-1.91,1.52-3.57,2.43-5.61,2.43a3.77,3.77,0,0,1-4.11-3.73V69.35c0-1-.52-1.42-1.55-1.42H183.1V66.86l4.79-.2v8.43a2.48,2.48,0,0,0,2.69,2.71,8.12,8.12,0,0,0,4.81-2.14V69.4c0-1-.42-1.47-1.58-1.47h-1.09V66.86l4.79-.2V76.1c0,1.68.39,1.89,1.78,1.89Z"/><path class="cls-1" d="M210.91,62.65h-2.12V61.59a8.51,8.51,0,0,0,3.34-1.06h.9v15.8c0,1.09.29,1.66,1.3,1.66h.93v1.06l-4.35.2v-2a6.71,6.71,0,0,1-4.6,2.12c-3,0-5.3-2.8-5.3-6.29,0-3.67,2.46-6.52,5.79-6.52a5.73,5.73,0,0,1,4.11,1.69Zm0,8.56a2.75,2.75,0,0,0-1.19-2.48,3.65,3.65,0,0,0-2.27-.8c-2.28,0-4,1.88-4,5.06s1.68,4.89,3.49,4.89a6.42,6.42,0,0,0,4-1.89Z"/><path class="cls-1" d="M217.3,68.68V67.61a8.39,8.39,0,0,0,3.39-1.06h.93V76.67c0,.85.33,1.32,1.16,1.32h1v1.06H217.3V78h.88c1.06,0,1.32-.52,1.32-1.45V68.68ZM222,62.31a1.45,1.45,0,0,1-1.45,1.45,1.47,1.47,0,0,1-1.47-1.45,1.44,1.44,0,0,1,1.47-1.42A1.43,1.43,0,0,1,222,62.31Z"/><path class="cls-1" d="M237.31,72.94c0,3.78-2.38,6.44-6.28,6.44s-6.11-2.76-6.11-6.44a6,6,0,0,1,6.26-6.39C235,66.55,237.31,69.17,237.31,72.94Zm-9.95.11c0,3.33,1.42,5.14,3.72,5.14s3.8-2,3.8-5.27-1.5-5.18-3.8-5.18C229,67.74,227.36,69.68,227.36,73.05Z"/><path class="cls-1" d="M239.59,74.91l1.16-.44c1.48,2.33,3,3.67,5.23,3.67a2.31,2.31,0,0,0,2.53-1.94c0-1-.8-1.52-2.17-2l-2.92-1.06c-2.25-.82-3.36-1.78-3.36-3.33,0-1.79,1.81-3.24,4.24-3.24a5,5,0,0,1,3.21,1.06l.33-.75h.88l1.14,3.86-1.14.39a5.13,5.13,0,0,0-4.4-3.37c-1.24,0-2.19.7-2.19,1.61s.8,1.37,2.37,1.94l2.46.88c2.28.8,3.6,1.78,3.6,3.54,0,1.91-1.79,3.62-4.58,3.62a5.74,5.74,0,0,1-3.65-1.19l-.26.91h-.9Z"/><path class="cls-1" d="M261.61,39.52H260v-.81a6.49,6.49,0,0,0,2.53-.8h.69v12c0,.83.22,1.26,1,1.26h.7V52l-3.3.16V50.61a5.07,5.07,0,0,1-3.5,1.62c-2.3,0-4-2.13-4-4.78,0-2.8,1.86-5,4.4-5a4.39,4.39,0,0,1,3.13,1.28Zm0,6.51a2.09,2.09,0,0,0-.91-1.89,2.83,2.83,0,0,0-1.73-.61c-1.73,0-3.05,1.44-3.05,3.86s1.28,3.71,2.66,3.71a4.93,4.93,0,0,0,3-1.43Z"/><path class="cls-1" d="M267.82,46.54c0,.28,0,.41,0,.69,0,2.4,1.22,4,3.11,4a4.37,4.37,0,0,0,3.15-1.69l.61.49c-1.32,1.6-2.48,2.25-4,2.25A4.61,4.61,0,0,1,266,47.39a4.54,4.54,0,0,1,4.67-4.9,3.77,3.77,0,0,1,4,4Zm5-.92c-.24-1.44-.89-2.23-2.26-2.23A2.66,2.66,0,0,0,268,45.62Z"/><path class="cls-1" d="M127.12,105.21V101.4h.59v.5c0,.5.25.73.76.73h4.9a2.6,2.6,0,0,0,2.29-.91,2.88,2.88,0,0,0,.62-1.79,3.21,3.21,0,0,0-.69-1.94,2.67,2.67,0,0,0-2.32-.9h-4.66c-.59,0-.9.29-.9.8v.45h-.59V95h.59v.23c0,.73.21,1,1,1h4.73a3.61,3.61,0,0,1,3.69,3.9,3.55,3.55,0,0,1-3.41,3.85h-5c-.83,0-1,.2-1,.89v.35Z"/><path class="cls-1" d="M136.38,93.57c0-.8-.39-.84-.95-.84h-4.26v1.21h-.59A3.87,3.87,0,0,0,130,92.1v-.5h1.34A4.55,4.55,0,0,1,130,88.66a2,2,0,0,1,2-2.17h3.59c.58,0,.81-.18.81-.81v-.41h.6v3.65h-.6v-.36c0-.67-.26-.89-.88-.89h-2.79c-1.09,0-1.85.22-1.85,1.38A3.88,3.88,0,0,0,132,91.54h3.53c.71,0,.81-.35.81-.87v-.36h.6v3.63h-.6Z"/><path class="cls-1" d="M127.61,81.16a.81.81,0,0,1,.81.81.82.82,0,0,1-.81.82.8.8,0,0,1-.79-.82A.79.79,0,0,1,127.61,81.16Zm3.56,2.62h-.59a4.81,4.81,0,0,0-.59-1.9v-.52h5.66c.47,0,.73-.19.73-.65v-.55h.6v3.62h-.6v-.49c0-.6-.29-.74-.81-.74h-4.4Z"/><path class="cls-1" d="M127.8,73.57v1.18h-.59a4.61,4.61,0,0,0-.6-1.86v-.51h8.85c.61,0,.92-.16.92-.73v-.52h.6l.11,2.44H136a3.72,3.72,0,0,1,1.19,2.57c0,1.69-1.56,3-3.52,3A3.39,3.39,0,0,1,130,75.87a3.22,3.22,0,0,1,.94-2.3Zm4.79,0a1.55,1.55,0,0,0-1.39.66,2.07,2.07,0,0,0-.45,1.27c0,1.28,1.06,2.25,2.84,2.25s2.74-.94,2.74-2a3.66,3.66,0,0,0-1.06-2.22Z"/><path class="cls-1" d="M135.31,69.66a1.85,1.85,0,0,1-1.65-1.17,13.23,13.23,0,0,1-.78-3.87h-.77c-1,0-1.46.54-1.46,1.68,0,.81.34,1.36.86,1.49s1.13.24,1.13.79a.63.63,0,0,1-.71.62c-1,0-1.94-1.16-1.94-3.07a3,3,0,0,1,.71-2.21,1.81,1.81,0,0,1,1.5-.48h3.05c.76,0,1.22-.16,1.22-.84a2.16,2.16,0,0,0-.16-.77h.61a3.37,3.37,0,0,1,.17,1,1.51,1.51,0,0,1-1.2,1.7,4.6,4.6,0,0,1,1.2,2.91A2,2,0,0,1,135.31,69.66Zm-1.81-5c.34,2.25.55,3.77,1.7,3.77a1.17,1.17,0,0,0,1.08-1.25,4.7,4.7,0,0,0-1.07-2.52Z"/><path class="cls-1" d="M127.8,55.35v1.18h-.59a4.66,4.66,0,0,0-.6-1.86v-.51h8.85c.61,0,.92-.16.92-.72v-.52h.6l.11,2.43H136a3.74,3.74,0,0,1,1.19,2.57c0,1.7-1.56,3-3.52,3A3.38,3.38,0,0,1,130,57.65a3.22,3.22,0,0,1,.94-2.3Zm4.79,0a1.55,1.55,0,0,0-1.39.66,2.08,2.08,0,0,0-.45,1.28c0,1.27,1.06,2.24,2.84,2.24s2.74-.94,2.74-2a3.66,3.66,0,0,0-1.06-2.23Z"/><path class="cls-1" d="M127.12,46V42.22h.59v.35c0,.53.11.89.68.89h7.23c.5,0,.59-.07.59-.58v-.94a3.87,3.87,0,0,0-.39-1.68,4,4,0,0,0-2.14-1.79l.2-.62L137,39V46h-.6v-.45c0-.53-.2-.8-.79-.8h-6.86c-.75,0-1,.09-1,.79V46Z"/><path class="cls-1" d="M133,35.09h.5c1.77,0,2.93-.9,2.93-2.28a3.18,3.18,0,0,0-1.25-2.32l.37-.45A3.63,3.63,0,0,1,137.17,33a3.39,3.39,0,0,1-3.58,3.49A3.33,3.33,0,0,1,130,33a2.78,2.78,0,0,1,3-2.94Zm-.68-3.69c-1.06.17-1.64.65-1.64,1.66A2,2,0,0,0,132.29,35Z"/><path class="cls-1" d="M128.71,26.46h-.26l-.95-1.3A2.08,2.08,0,0,1,127,24a.52.52,0,0,1,.53-.51c.42,0,.61.32.74.91Zm4.85-4.94A3.36,3.36,0,0,1,137.17,25a3.31,3.31,0,0,1-3.61,3.42A3.37,3.37,0,0,1,130,25,3.29,3.29,0,0,1,133.56,21.52Zm.06,5.57c1.87,0,2.88-.79,2.88-2.08s-1.13-2.13-2.95-2.13-2.9.84-2.9,2.13S131.74,27.09,133.62,27.09Z"/><path class="cls-1" d="M136.38,19.83c0-.8-.39-.84-.95-.84h-4.26V20.2h-.59a3.79,3.79,0,0,0-.59-1.83v-.51h1.34A4.55,4.55,0,0,1,130,14.92a2,2,0,0,1,2-2.17h3.59c.58,0,.81-.17.81-.81v-.41h.6v3.65h-.6v-.36c0-.67-.26-.88-.88-.88h-2.79c-1.09,0-1.85.21-1.85,1.37A3.86,3.86,0,0,0,132,17.8h3.53c.71,0,.81-.35.81-.87v-.36h.6V20.2h-.6Z"/></svg>