<svg id="Capa_1" data-name="Capa 1" xmlns="http://www.w3.org/2000/svg" viewBox="0 0 229 118"><defs><style>.cls-1{fill:#1a1f43;}</style></defs><title>enes-juriquilla</title><path class="cls-1" d="M76.62,57s0,.07,0,.1C76.27,70.39,68.22,81.76,57,84.74c-11.2-3-19.25-14.35-19.59-27.67,0,0,0-.07,0-.1V38.35H76.62Zm.83.12V37.7a.1.1,0,0,0-.11-.1H36.7c-.07,0-.12,0-.12.1V57.09a.06.06,0,0,0,0,0,32.4,32.4,0,0,0,6,18.29A26,26,0,0,0,57,85.53h.07A26,26,0,0,0,71.4,75.42a32.48,32.48,0,0,0,6-18.29s0,0,0,0"/><path class="cls-1" d="M71.46,56.7a2.11,2.11,0,0,1,0,.23c0,.42,0,.85-.07,1.27-.43-.39-1.11-.65-1.53-1.07a4.58,4.58,0,0,0-1.33-.91,1.11,1.11,0,0,0-1-.21c-.64.1-1.16,0-1.28-.59s-.06-1.18-.69-1.5a10.39,10.39,0,0,1-1.51-1c-.47-.32-.93-.91-1.1-1a9.78,9.78,0,0,0-1.4,0,2.13,2.13,0,0,0-1.74-.37s-.64-.91-1.33-.43-1.28.8-1.68.32-1.1-.27-1.57-.21-.87-.7-1-1,0-.8-.18-.8-.87.22-1.33-.11-.23-.63-.06-.91A3,3,0,0,0,53,46.93l-.53,0s-.63-.11-.75.32a1.43,1.43,0,0,1-1.56.69,1.81,1.81,0,0,1-1.33-1.12,1.6,1.6,0,0,1-.06-1.28c.11-.32-.4-.9-.58-1.06s-.18.1-.53-.43a2.83,2.83,0,0,0-.65-.68H71.46V56.7M57,79.36c-8.23-3-14.16-12.2-14.43-22.43,0-.11,0-.17,0-.23V43.65a3.32,3.32,0,0,0,.27.45c.23.32.75,1.23.75,1.23s0,.41-.12.47.23.28.35.44.4.64.64.69.28-.21.11-.48-.5-1-.5-1a4,4,0,0,0-.25-.75c-.17-.39-.35-.86-.35-.86s1,.22,1.08.7a18.28,18.28,0,0,0,.66,2.18A4.62,4.62,0,0,0,46,47.89a3.6,3.6,0,0,0,1.79,1.17c.81.22,1.74-.26,2.15,0a8.2,8.2,0,0,0,1.68,1.12c.52.17,1.91.43,2.2,1s1,.59,1.33.64,1.52.48,1.52,1.44L55.71,55a3.14,3.14,0,0,0-.81,1.34c-.12.63-.47,1,.22,2a6.46,6.46,0,0,1,1.23,3c0,.85.92,1,1.5,1.34s0,.74-.35,1.54-.17,2.45-.52,3.53-.75,1.44-.75,2.29a6.16,6.16,0,0,1-.29,2.51,5.6,5.6,0,0,0-.17,2.24,3.52,3.52,0,0,0,.75,2.45c.58.7,1.91,1,1.74,0A3.83,3.83,0,0,1,59,74l.68-.7a1.61,1.61,0,0,1,.59-1.44c.7-.43,1.15-.75.75-.91s0-.53.4-.53.59.16,1.52-.85a6,6,0,0,1,2.14-1.72c.93-.47,1.28-1.43,1.86-2a5.22,5.22,0,0,1,2.26-1.12,1.3,1.3,0,0,0,1-1.39c0-.69-.24-1.18.28-1.92s.21-.89.68-1.27C69.88,69.07,64.37,76.7,57,79.36m0,.81a.14.14,0,0,0,.09,0c8.68-3,14.94-12.54,15.23-23.23V42.67a.11.11,0,0,0-.11-.11H41.85a.12.12,0,0,0-.12.11V56.74a1,1,0,0,1,0,.2C42,67.63,48.28,77.17,57,80.17"/><path class="cls-1" d="M47.35,27.85a.36.36,0,0,1,0,.11,1.74,1.74,0,0,0-1.56.4c-.81.56-.58,1.84-.29,3a3.38,3.38,0,0,1-.08,2.26.12.12,0,0,1-.12,0A.53.53,0,0,1,45,33.6c-.2-.18-.2-.81-.2-1.37v-.09c0-1.26-.3-1.85-1.16-2.27a1.12,1.12,0,0,1-.2-.1,3,3,0,0,1,.31-.78c.62-1.24-.4-2.42-.75-2.79-.08-.24-.28-.79-.76-2-.11-.28-.12-.49,0-.59s.88-.3,1.21-.29a.85.85,0,0,0,.16,0,1.51,1.51,0,0,0,.78-.54,1.23,1.23,0,0,1,1.12,0c.61.28.76.53.75.65-.05.58.1.74.56,1.14l.19.16a9.69,9.69,0,0,1,1.55,2.13s0,.07,0,.08a.17.17,0,0,1-.14,0,.94.94,0,0,0-1,.14.64.64,0,0,0-.08.72m-1.59-5.61a1.8,1.8,0,0,0-2,.17,1,1,0,0,1-.37.3c-.19,0-1.33,0-1.8.54a1.14,1.14,0,0,0-.06,1.21c.69,1.73.77,2,.77,2.05a.09.09,0,0,0,0,.06s1.24,1.11.72,2.14-.47,1.42.21,1.74.78.57.78,1.69v.09c0,.78,0,1.46.4,1.83a1.23,1.23,0,0,0,.87.28A.85.85,0,0,0,46,34c.56-.64.38-2.12.21-2.81s-.49-2,0-2.34.79-.47,1.08-.17a.17.17,0,0,0,.1,0c.25,0,.72-.2.69-.69A1.22,1.22,0,0,0,48,27.6h0l.2,0a.84.84,0,0,0,.86-.23.69.69,0,0,0,.09-.78,10.68,10.68,0,0,0-1.71-2.32l-.19-.16c-.37-.31-.37-.31-.34-.61,0-.48-.37-.94-1.16-1.28"/><path class="cls-1" d="M44.31,24.65a.61.61,0,0,0-.62.58.6.6,0,0,0,.62.57.59.59,0,0,0,.62-.57.6.6,0,0,0-.62-.58"/><path class="cls-1" d="M35.93,27.78a1.05,1.05,0,0,1-.15-.57c0-.6.66-1,1.28-1.31a4,4,0,0,0,0,.91,2.63,2.63,0,0,1-.26.16,1.66,1.66,0,0,0-.85.81m1.9-2.86c-.11,0-2.76.67-2.76,2.29a1.74,1.74,0,0,0,1.73,1.7.13.13,0,0,0,.11-.06.09.09,0,0,0,0-.11,1,1,0,0,1-.31-.7c.05-.22.3-.36.56-.51s.68-.37.61-.74A4.61,4.61,0,0,1,38,25.06.11.11,0,0,0,38,25a.18.18,0,0,0-.12,0"/><path class="cls-1" d="M40.42,27.3c-.08-.55-.75-.75-1-.8h-.61a2.09,2.09,0,0,1,1.48-1.78c.22.47.65,1.32,1.23,2.37l0,.06c.27.37.56.89.37,1.27a1,1,0,0,1-.66.46,15.93,15.93,0,0,1-2.18-.31l.48-.24c.21-.1.88-.43.81-1m-1.15.44c-1.11.55-1.84,1-1.84,1a.1.1,0,0,0-.06.1.16.16,0,0,0,.09.09,29,29,0,0,0,4,.61,1.7,1.7,0,0,0,1.2-.85,1.88,1.88,0,0,0-.43-1.89c-.89-1.61-1.43-2.79-1.43-2.8a.12.12,0,0,0-.13-.06s-2.87.62-2.46,3.13a.12.12,0,0,0,.12.09h1c.16,0,.38.14.4.24s0,.16-.44.36"/><path class="cls-1" d="M41.78,36.38a.93.93,0,0,1-.39.06l-.85-.1L43,34.72l.08-.06.08-.06.23.11c-.51.55-1.38,1.48-1.57,1.67m2.4-1.89a.32.32,0,0,0-.2-.22L43.31,34h0a.82.82,0,0,0-.74.25l-3,2c-.08.06-.34.27-.28.46s.08.15.27.18c.45.07,1.8.22,1.86.23a1.58,1.58,0,0,0,1-.27c.25-.25,1.64-1.75,1.7-1.81s.24-.31.18-.53"/><path class="cls-1" d="M44.18,36.66s-.31,0-.61-.06c.35-.4.94-1.06,1.17-1.35l.25,0c-.18.33-.68,1.2-.68,1.2a.48.48,0,0,1-.13.16m-1.26.54,1.2.11c.08,0,.49.06.81-.5l.82-1.42a.48.48,0,0,0,.1-.42c0-.08-.11-.17-.32-.22a5.1,5.1,0,0,1-.59-.14s-.49-.15-.72.19-1.49,1.71-1.5,1.72-.23.28-.15.48a.44.44,0,0,0,.35.2"/><path class="cls-1" d="M46.87,36.69H46c.14-.28.43-.89.55-1.19h.34Zm-.87.66h1a.62.62,0,0,0,.62-.66V35.14a.14.14,0,0,0,0-.06.68.68,0,0,0-.61-.24,4.72,4.72,0,0,1-.59,0,.53.53,0,0,0-.48.37c-.1.28-.63,1.36-.64,1.37a.54.54,0,0,0,0,.51.88.88,0,0,0,.74.26"/><path class="cls-1" d="M49.79,34.68c.25.47.72,1.36,1,1.87l-.35,0h0c-.12-.36-.47-1.41-.65-1.88Zm.69,2.55.86-.07a.31.31,0,0,0,.25-.12c.08-.1.07-.26,0-.46-.2-.44-1.25-2.4-1.3-2.48v0s-.21-.26-.44-.18h0l-.57.31a.4.4,0,0,0-.19.56c.15.37.72,2.09.73,2.1h0c0,.14.21.4.72.36"/><path class="cls-1" d="M48.41,36.69c0-.54-.06-1.14-.07-1.42h0l.51,1.41Zm-.29.66,1.21,0a.39.39,0,0,0,.3-.14.4.4,0,0,0,0-.39l-.73-2v0a.44.44,0,0,0-.53-.22c-.24.08-.57.16-.58.16s0,0,0,0-.15.1-.15.36.08,1.77.08,1.84a.4.4,0,0,0,.41.41"/><path class="cls-1" d="M51,33.9l.21-.18c.4.58,1.4,2,1.72,2.61l-.61.09L51,33.9m1.3,3.18.93-.13a.56.56,0,0,0,.44-.22c.11-.16.08-.38-.08-.67-.41-.72-1.9-2.87-2-3a.33.33,0,0,0-.25-.19A.38.38,0,0,0,51,33l-.56.47a.54.54,0,0,0-.14.66c.2.38,1.37,2.6,1.38,2.63h0a.59.59,0,0,0,.61.34"/><path class="cls-1" d="M33.78,60.28c-1.54-.66-3-.12-3,1.13,0,2.91,6.48,2.48,5.42-2.54-.61-2.89-2.51-6.59-3-12s2.69-7.18,2.69-7.18V38.31c-5,2.24-4,12.09-2.51,16.67s.38,5.3.38,5.3"/><path class="cls-1" d="M83.32,61.41c0-1.25-1.45-1.8-3-1.13,0,0-1.11-.71.39-5.3s2.47-14.43-2.52-16.67v1.38s3.15,1.76,2.69,7.18-2.38,9.11-3,12c-1.06,5,5.41,5.45,5.41,2.54"/><path class="cls-1" d="M31.83,64.39l-3,2.28c-3.53-2.51-5.09.46-5.09.46a5.45,5.45,0,0,1,2.37.11c-2.73.69-2,2.29-2,2.29s2.79-1.54,4,.22a3.13,3.13,0,0,1-.37,4.06c4.66,0,3.11-5.71,3.11-5.71l4.09-3.71Z"/><path class="cls-1" d="M89.77,67.13s-1.56-3-5.09-.46l-3.05-2.28h-3l4.1,3.71s-1.55,5.71,3.11,5.71a3.15,3.15,0,0,1-.38-4.06c1.18-1.76,4-.22,4-.22s.68-1.6-2-2.29a5.39,5.39,0,0,1,2.36-.11"/><path class="cls-1" d="M35.81,43l0-2.27a1.67,1.67,0,0,1-.93,1c-.44.24-.22.53-.22.53a1,1,0,0,1,1.1.73"/><path class="cls-1" d="M35.28,48.84c.18,1.54.62,1,.62,1s-.12-2.56-.18-3S34,46.54,34,47.06s.31,2.72.31,2.72l.49-.09-.09-1.91s.4-.48.57,1.06"/><path class="cls-1" d="M35.64,54.16c.41.51.46-2,.33-2.53,0,0-1.24-.34-1.12.26a5.43,5.43,0,0,0,.79,2.27"/><path class="cls-1" d="M34.06,44.31c0,.51,1.66.31,1.66.31v-.81s-1.66-.25-1.66.5"/><path class="cls-1" d="M35.72,45.87v-.8s-1.66-.25-1.66.5c0,.5,1.66.3,1.66.3"/><path class="cls-1" d="M40.29,73.89a.49.49,0,0,0-.51-.47.47.47,0,1,0,0,.94.49.49,0,0,0,.51-.47"/><path class="cls-1" d="M79.56,68.72a.48.48,0,1,0,.52.47.5.5,0,0,0-.52-.47"/><path class="cls-1" d="M78.35,69.42a.49.49,0,0,0-.51-.47.47.47,0,1,0,0,.94.49.49,0,0,0,.51-.47"/><path class="cls-1" d="M76.79,69.65a.52.52,0,1,0-.52.47.49.49,0,0,0,.52-.47"/><path class="cls-1" d="M35,78l.26-2.83S35,74.57,34.1,75l-.16,2.16s-.53.8-1.65-.1l.16-2.2a.88.88,0,0,0-1.09-.15l-.18,2.91A2.83,2.83,0,0,0,35,78"/><path class="cls-1" d="M33.18,76.83a.3.3,0,0,0,.33-.28l.06-.93a.3.3,0,0,0-.3-.31.3.3,0,0,0-.33.28l-.06.92a.3.3,0,0,0,.3.32"/><path class="cls-1" d="M39.33,78.57l.26-2.71s-.26-.54-1.12-.14l-.15,2.06s-.51.77-1.58-.1l.15-2.11a.86.86,0,0,0-1-.14l-.18,2.79a2.71,2.71,0,0,0,3.66.35"/><path class="cls-1" d="M37.59,77.47a.3.3,0,0,0,.32-.26l.05-.89a.29.29,0,0,0-.28-.3.29.29,0,0,0-.32.27l-.06.88a.29.29,0,0,0,.29.3"/><path class="cls-1" d="M43.2,78.86l.1-1.42s-.14-.72-.88-.22l-.11.63s-.41.51-.34-.38l.07-.88s-.24-.28-.48.1l0,1.13s-.2.19-.58,0l.14-1.61s-.24-.65-1-.15L40,78.51s1,1.73,3.21.35"/><path class="cls-1" d="M33.21,72.85a.49.49,0,0,0-.51-.48.48.48,0,1,0,0,.95.49.49,0,0,0,.51-.47"/><path class="cls-1" d="M35.74,73.2a.49.49,0,0,0-.5-.48.5.5,0,0,0-.52.48.5.5,0,0,0,.52.47.5.5,0,0,0,.5-.47"/><path class="cls-1" d="M37.76,73.51a.49.49,0,0,0-.51-.47.48.48,0,0,0-.51.47.49.49,0,0,0,.51.47.49.49,0,0,0,.51-.47"/><path class="cls-1" d="M35.27,65.32l0,1.67,1.16.92s.62-2.08-1.19-2.59"/><path class="cls-1" d="M37,69.67c-.13.16-.37.47-.51-.1s-.65-.5-.92-.5-.65,1-.89.32-.37-1.11-1.33-1v1.73l4.75,1s0-1.17-.21-1.35-.75-.29-.89-.13"/><path class="cls-1" d="M38.24,71.9a33.08,33.08,0,0,0-4.82-1l0,.69,5,1.07s.18-.16-.1-.76"/><path class="cls-1" d="M82.55,77.61l-.19-2.91a.88.88,0,0,0-1.09.15l.16,2.2c-1.12.9-1.66.1-1.66.1L79.61,75c-.9-.42-1.17.16-1.17.16L78.71,78a2.84,2.84,0,0,0,3.84-.37"/><path class="cls-1" d="M80.21,76.55a.29.29,0,0,0,.33.28.3.3,0,0,0,.3-.32l0-.92a.32.32,0,0,0-.34-.28.3.3,0,0,0-.3.31Z"/><path class="cls-1" d="M78.05,78.23l-.18-2.8a.85.85,0,0,0-1,.14L77,77.68c-1.07.87-1.57.1-1.57.1l-.16-2.06c-.86-.4-1.11.14-1.11.14l.25,2.71a2.72,2.72,0,0,0,3.66-.34"/><path class="cls-1" d="M76,76a.31.31,0,0,0-.29.3l.06.89a.3.3,0,0,0,.32.26.29.29,0,0,0,.29-.3l0-.88A.3.3,0,0,0,76,76"/><path class="cls-1" d="M71.41,77.85l-.1-.63c-.75-.5-.89.22-.89.22l.1,1.42c2.16,1.38,3.21-.35,3.21-.35L73.6,76c-.72-.5-1,.15-1,.15l.14,1.61c-.38.22-.58,0-.58,0l0-1.13c-.23-.38-.47-.1-.47-.1l.06.88c.07.89-.34.38-.34.38"/><path class="cls-1" d="M19.4,22.82c.35-.13.67-.4.47-.86l-1.54-3.6-.42.15L19.41,22c.13.3.07.43-.14.51s-.36,0-.49-.28l-1.49-3.48-.42.15,1.55,3.6a.7.7,0,0,0,1,.33"/><polygon class="cls-1" points="21.19 22.21 19.95 18.39 19.97 18.39 21.74 22.05 22.35 21.89 20.96 17.59 20.58 17.7 21.77 21.38 21.76 21.38 20.05 17.85 19.43 18.02 20.82 22.31 21.19 22.21"/><polygon class="cls-1" points="23.55 21.61 22.35 17.27 21.92 17.37 23.11 21.71 23.55 21.61"/><polygon class="cls-1" points="25.25 21.24 24.73 16.75 24.3 16.85 24.84 20.91 24.83 20.91 23.43 17.02 23 17.11 24.62 21.37 25.25 21.24"/><polygon class="cls-1" points="27.48 20.82 27.41 20.48 26.69 20.61 26.31 18.83 27 18.71 26.92 18.38 26.24 18.5 25.89 16.9 26.61 16.77 26.54 16.43 25.38 16.64 26.32 21.03 27.48 20.82"/><path class="cls-1" d="M27.85,16.56l.25,0c.23,0,.38,0,.43.24l.18,1c.06.26-.05.34-.26.37l-.29,0Zm.77,4.07-.4-2.12.3-.05c.2,0,.35,0,.39.22l.35,1.85.44-.07-.36-1.89c-.05-.31-.26-.36-.57-.33h0c.34-.08.46-.21.39-.56l-.21-1.11c-.08-.44-.35-.47-.77-.4l-.82.12.84,4.42Z"/><path class="cls-1" d="M29.9,17.06a1,1,0,0,0,.28.54l.82.95a.8.8,0,0,1,.2.4l.1.62c0,.21,0,.35-.21.37s-.3-.08-.33-.29l-.1-.58-.44.05.1.62c.07.45.35.61.83.55s.67-.34.6-.75l-.12-.71a1,1,0,0,0-.25-.51l-.89-1a.81.81,0,0,1-.16-.38l-.08-.47c0-.17,0-.3.2-.34s.28.1.31.27l.08.54.45-.06-.09-.56c-.07-.41-.31-.6-.8-.53s-.66.32-.59.75Z"/><polygon class="cls-1" points="31.89 15.62 32.56 20.05 33 20 32.33 15.56 31.89 15.62"/><path class="cls-1" d="M34,15.71c.29,0,.39,0,.43.3l.42,3.07c0,.26,0,.35-.34.39l-.24,0-.51-3.75Zm.63,4.09c.61-.07.72-.37.66-.81l-.41-3c-.06-.43-.25-.7-.85-.63l-.76.08.61,4.45Z"/><path class="cls-1" d="M36.43,15.41h0l.64,2.53L36.4,18Zm0,2.95.79-.08.32,1.21.44,0L36.7,15.07l-.6.06-.18,4.53.44-.05Z"/><path class="cls-1" d="M38.82,15.22c.29,0,.4.06.42.31l.32,3.08c0,.26-.06.36-.36.38L39,19l-.39-3.77Zm.5,4.11c.6,0,.72-.35.68-.79l-.31-3c0-.43-.23-.7-.83-.65l-.76.07.46,4.45Z"/><polygon class="cls-1" points="42.4 19.08 42.08 15.12 42.09 15.12 42.97 19.05 43.6 19 43.24 14.54 42.85 14.56 43.16 18.39 43.15 18.39 42.29 14.6 41.65 14.65 42.01 19.11 42.4 19.08"/><path class="cls-1" d="M44.92,14.75h0l.51,2.55-.69,0Zm-.19,2.94.78,0,.27,1.23.44,0-1-4.43-.6,0L44.19,19l.44,0Z"/><path class="cls-1" d="M47.45,18.83c.47,0,.68-.27.66-.65l0-.64-.44,0,0,.63c0,.19-.06.29-.23.3s-.26-.09-.27-.28L47,14.93c0-.19.06-.3.24-.3s.25.09.26.27l0,.58.45,0,0-.59c0-.38-.27-.61-.73-.59s-.68.28-.66.66l.17,3.3a.61.61,0,0,0,.73.59"/><rect class="cls-1" x="48.69" y="14.25" width="0.45" height="4.48" transform="translate(-0.68 2.16) rotate(-2.51)"/><path class="cls-1" d="M50.73,14.5c.29,0,.34.17.36.41l.1,3c0,.25,0,.42-.33.43s-.34-.17-.35-.41l-.1-3c0-.26,0-.43.32-.44m.15,4.21c.6,0,.76-.34.75-.78l-.1-3c0-.44-.21-.75-.81-.73s-.77.33-.75.78l.1,3c0,.44.2.75.81.74"/><polygon class="cls-1" points="52.87 18.62 52.8 14.63 52.81 14.63 53.45 18.61 54.08 18.6 53.98 14.12 53.6 14.13 53.68 17.96 53.66 17.96 53.04 14.14 52.39 14.15 52.48 18.63 52.87 18.62"/><path class="cls-1" d="M55.65,14.42h0L56,17h-.69Zm-.37,2.92h.78l.2,1.24h.44L56,14.1h-.61l-.68,4.49h.44Z"/><polygon class="cls-1" points="58.49 18.24 57.76 18.24 57.78 14.11 57.34 14.11 57.31 18.58 58.49 18.59 58.49 18.24"/><path class="cls-1" d="M61,14.45h0L61.31,17l-.69,0Zm-.45,2.92.78,0,.15,1.24H62l-.62-4.49-.6,0-.82,4.47h.45Z"/><path class="cls-1" d="M63.26,18.71c.38,0,.79-.11.81-.61l.13-3.88h-.45L63.63,18c0,.33-.12.42-.36.41s-.33-.1-.31-.43l.12-3.74h-.44l-.14,3.87c0,.5.39.65.76.66"/><polygon class="cls-1" points="65.2 18.74 65.64 18.76 65.84 14.63 66.33 14.65 66.36 14.3 64.91 14.24 64.89 14.59 65.39 14.61 65.2 18.74"/><path class="cls-1" d="M67.28,18.1l.18-3c0-.24.08-.41.36-.4s.33.19.32.44l-.18,3c0,.24-.08.41-.37.4s-.32-.2-.31-.44m.29.79a.69.69,0,0,0,.83-.72l.18-3c0-.44-.14-.76-.74-.79s-.8.27-.82.72l-.19,3c0,.44.14.76.74.8"/><polygon class="cls-1" points="69.85 14.98 69.86 14.98 70.13 18.99 70.76 19.03 71.09 14.56 70.7 14.54 70.42 18.36 70.41 18.36 70.14 14.5 69.49 14.47 69.17 18.93 69.56 18.96 69.85 14.98"/><path class="cls-1" d="M72.07,18.39l.27-3c0-.24.09-.41.37-.39s.32.2.3.44l-.26,3c0,.24-.09.42-.37.39s-.32-.19-.31-.44m.27.79a.68.68,0,0,0,.85-.69l.27-3a.67.67,0,0,0-.71-.82.69.69,0,0,0-.85.7l-.27,3c0,.44.11.77.71.81"/><polygon class="cls-1" points="74.75 15.19 74.76 15.19 74.84 19.35 75.39 19.39 76.34 15.33 76.35 15.33 75.92 19.44 76.3 19.48 76.78 15.02 76.09 14.96 75.17 18.91 75.16 18.91 75.08 14.87 74.4 14.81 73.93 19.26 74.32 19.3 74.75 15.19"/><path class="cls-1" d="M78.38,15.5h0v2.6L77.73,18Zm-.74,2.87.77.08,0,1.25.44.05-.15-4.53-.6-.06-1.27,4.37.44,0Z"/><polygon class="cls-1" points="85.1 16.4 85.12 16.4 84.84 20.55 85.39 20.64 86.67 16.65 86.68 16.65 85.91 20.72 86.3 20.78 87.14 16.37 86.46 16.27 85.22 20.13 85.2 20.13 85.47 16.11 84.78 15.99 83.95 20.41 84.33 20.47 85.1 16.4"/><polygon class="cls-1" points="88.23 21.14 88.31 20.8 87.58 20.67 87.97 18.91 88.66 19.03 88.74 18.69 88.05 18.56 88.41 16.96 89.12 17.1 89.2 16.75 88.05 16.54 87.07 20.93 88.23 21.14"/><polygon class="cls-1" points="88.64 21.22 89.07 21.32 89.96 19.57 89.97 19.57 89.93 21.5 90.36 21.59 90.31 19.27 91.42 17.22 90.98 17.13 90.16 18.82 90.15 18.82 90.22 16.96 89.79 16.87 89.81 19.16 88.64 21.22"/><polygon class="cls-1" points="91.31 21.83 92.56 17.49 92.13 17.39 90.89 21.72 91.31 21.83"/><path class="cls-1" d="M92.75,22.25a.63.63,0,0,0,.86-.41l.21-.61-.42-.12-.2.6c-.07.19-.17.25-.33.2s-.21-.15-.15-.33l1-3.15c.06-.18.16-.25.33-.2s.21.16.15.34l-.18.55.41.12.19-.56c.13-.36,0-.66-.46-.78a.62.62,0,0,0-.86.4l-1.06,3.17c-.12.36,0,.65.46.78"/><path class="cls-1" d="M94.68,22l1.24-2.79c.09-.23.22-.37.48-.27s.24.27.14.5l-1.23,2.8c-.1.22-.22.37-.48.27s-.25-.28-.15-.51m0,.83a.71.71,0,0,0,1-.43L97,19.62a.63.63,0,0,0-.42-1,.72.72,0,0,0-1,.42L94.26,21.9a.63.63,0,0,0,.42,1"/><path class="cls-1" d="M15,32a3.48,3.48,0,0,1-.38-2.72A6.34,6.34,0,0,1,16.23,29,2.45,2.45,0,0,1,15,32m14.8-2.39a17,17,0,0,0-5.31-.21c-.73.08-1.47.19-2.19.34-.64-.16-1.26-.35-1.86-.53a11.78,11.78,0,0,0-5.1-.75c1.76-1.11,5.84-.71,7.69-.52,4.45.44,6.41-1.41,6.79-1.83l.29-.15a0,0,0,0,0,0,0,7.73,7.73,0,0,1,3.14,1.16c-.18,1-1.44,1.92-3.46,2.51m3.37-3.35c-3.3-1.82-7.88-1-11.26-.43a22.59,22.59,0,0,1-3.28.43,4.1,4.1,0,0,1-1.41-.2.36.36,0,0,1-.09-.15c0-.06.06-.17.22-.32C18.57,24.5,23,23.17,29.9,22.12a13.77,13.77,0,0,1,3.31,4.13m65.12,2.92a6.25,6.25,0,0,1,1.57.22,3.48,3.48,0,0,1-.38,2.72,2.44,2.44,0,0,1-1.19-2.94m-13.91-3.1.29.15c.38.42,2.34,2.27,6.78,1.83,1.86-.19,5.94-.59,7.7.53a11.57,11.57,0,0,0-5.1.74l-1,.29a13.54,13.54,0,0,0-9.29-.19A6.31,6.31,0,0,1,82,28.31a2.5,2.5,0,0,1-.57-.74,5.56,5.56,0,0,1,3-1.63.1.1,0,0,0,0,.13m6.19-.44c-1.27-.2-2.6-.4-3.76-.49a7.29,7.29,0,0,0-5.59,1.59c.24-1.32,2.19-3.39,3.42-4.51,6.52,1,10.73,2.31,11.87,3.36.17.15.23.26.23.32a.24.24,0,0,1,0,.13c-1.44.33-3.9-.05-6.12-.4M15.87,18h0c8.34-3.14,24-5.09,40.8-5.09,20.64,0,35.73,3.1,42.39,5.75.68.27,1.09.57,1.2.87s-.29,1.15-.81,2A8.06,8.06,0,0,0,98,24.86a1.21,1.21,0,0,1-.48.87l0,0a1.27,1.27,0,0,0-.41-.63c-2.83-2.6-20-5.5-40.09-5.5a182.88,182.88,0,0,0-28.58,2.09,57.57,57.57,0,0,0-8.68,2c-1.74.6-2.79,1.19-3.13,1.77a2.83,2.83,0,0,1-.14-1.22V24c0-1.09-.29-1.48-1.15-2.64-.22-.29-.5-.66-.81-1.1a1.08,1.08,0,0,1-.25-1.06c.23-.65,1.29-1.11,1.64-1.22M14.7,21.71c.81,1.09,1,1.38,1,2.27v.27a2.45,2.45,0,0,0,.55,2,3.47,3.47,0,0,0,2.39.65,22.38,22.38,0,0,0,3.41-.44,29.61,29.61,0,0,1,7.1-.64c-.55.51-2.35,1.83-6,1.46s-7.53-.49-8.87,1.26c-.73,1-.61,2.38.36,4.23a.11.11,0,0,0,.14,0A3.24,3.24,0,0,0,17,29.07a16.42,16.42,0,0,1,3.28.75L21,30c-2.28.59-4.1,1.47-4.1,2.39,0,.57.69.78,2.33,1.47s3.33,1.27,4.81,1.94c4.21,1.91,7.27,3.57,7.71,3.16.61-.54-9.46-4.22-7.09-7.39,1.34-1.79,3.54.58,1.73,1s2.61,4.5,7.8,5.9a7.84,7.84,0,0,1,1.64-1.23s.78-.54-.37-.81-8.27-2.29-5.34-4.8c.88-.74,1-1.26.58-1.62a7.31,7.31,0,0,0,2.45-1.37A2.46,2.46,0,0,0,34,26.86c0-1.71-2.32-4.07-3.19-4.88A186.67,186.67,0,0,1,57,20.28a184.53,184.53,0,0,1,26.77,1.79c-.84.8-3.22,3.19-3.22,4.92a2.48,2.48,0,0,0,.91,1.77,6.3,6.3,0,0,0,1.6,1c-.73.41-1.16.86-1.16,1.22a2.1,2.1,0,0,0,1.44,1.93c.18,1.7-4.19,3.51-5.39,4a8.91,8.91,0,0,1,1.5.71,9.85,9.85,0,0,0,6.17-4.15c.93-1.13-1.48-.53-1.48-1.66s3.6-1.94,2.88,1.13c-.66,2.78-5,4.52-6.86,5.15a6.19,6.19,0,0,1,.73.64c.1.16.35.5.52.45s.06-.66.41-.59.62.2.78-.12.12-.65.43-.46.35.36.63.25-.24-.85.41-.66.76-.16.62-.47.27-.13.69.11.47-.24.25-.55.06-.54.44-.2,1.09.23.58-.26.08-.92.63-.53.5.16.19-.32-.07-.65.63-.24,1.17.26.41-.29-.45-.93.33-.51,1.72.59.86-.11-1.13-1.19-.1-.69,1.84.38.28-.5.82-.07,1.38.36.65-.26-.42-.8-.43-.72,1-.07,1.41,0,.24-.36-1.64-1.17-.21-.51,2.89.77,1.44.06A7.15,7.15,0,0,1,92,31c.42-.13,1,0,2,.62,1.9,1.24.07,2.56-1.57,3.14-2.4.84-3.37,1.72-6,3.41a10.36,10.36,0,0,1-4.9,1.4,3.47,3.47,0,0,1,.36.78,15.38,15.38,0,0,0,6.36-1.65,35.92,35.92,0,0,1,8.19-3.6c2-.42,3.88-1.4.84-3.4A19,19,0,0,0,94.14,30l.17-.05a15.88,15.88,0,0,1,3.29-.76A3.24,3.24,0,0,0,99.78,33a.12.12,0,0,0,.14-.06c1-1.85,1.1-3.27.37-4.22-1.35-1.75-5.24-1.62-8.87-1.26-4.09.4-5.85-1.26-6.17-1.6a7.86,7.86,0,0,1,1.54,0c1.13.08,2.44.28,3.7.48,3,.46,6.06.94,7.45,0a1.77,1.77,0,0,0,.76-1.32,7.66,7.66,0,0,1,1.39-3.14c.61-1,1.14-1.77.88-2.51A2.5,2.5,0,0,0,99.38,18,81,81,0,0,0,82.16,14,180.69,180.69,0,0,0,56.7,12.21c-16.91,0-32.65,2-41.07,5.13-.06,0-1.68.54-2.08,1.63a1.7,1.7,0,0,0,.33,1.63c.32.45.6.82.82,1.11"/><path class="cls-1" d="M66,33.17a1.74,1.74,0,0,0,.68.12,6.08,6.08,0,0,0,.19,1.05.71.71,0,0,0-.18.12s-2.21,2-4.49,2a2,2,0,0,1-1.91-.92c3.87.11,5.25-1.51,5.71-2.42m-.09-2.93a.49.49,0,0,0,.16-.38,2.78,2.78,0,0,0,1-.66,3.89,3.89,0,0,0,.18.6,11.62,11.62,0,0,1-1.68,2.14.59.59,0,0,0-.25.07c-1.88,1.05-3.31,1.39-4.14,1a1.53,1.53,0,0,1-.73-.85,6.85,6.85,0,0,0,5.45-1.89M69.72,30a4.23,4.23,0,0,1-.13-1.72.1.1,0,0,0-.06-.11.11.11,0,0,0-.14,0,12,12,0,0,1-1.31,1.08,2.17,2.17,0,0,1-.22-1.13l0-.07c1.14-.25,1.54-.58,1.68-.79a7,7,0,0,0,1.26,1,5.66,5.66,0,0,0-.31,1.39,2.92,2.92,0,0,1-.81.34m.13,4.26a8.51,8.51,0,0,0,.49,1.21.54.54,0,0,0-.07.13c-.17.49-.38.79-.57.81-.35,0-1-.49-1.51-1.14a3.73,3.73,0,0,0,1.66-1m-.07-8.75a2.18,2.18,0,0,0,1.51,0,1.53,1.53,0,0,0,.87-1.18h.12l0,.16v.05s.25,1-.39,1.29a4,4,0,0,0-1.62,1.25L70,26.76a.62.62,0,0,0-.65-.17A.58.58,0,0,0,69,27a1.93,1.93,0,0,1-.94.41c.07-.4.42-1.06,1.72-1.83l0,0m.71,7.58a.88.88,0,0,1-.82-.14c-.41-.4-.19-1.48,0-2.18a4.58,4.58,0,0,0,.75-.23c0,.47,0,1,0,1.61a5.49,5.49,0,0,0,.08.94m-2.74-2.67h0a3.22,3.22,0,0,0,1.14-.65,2.52,2.52,0,0,0,.07.57c-1,1.56-1.87,2.17-2.35,2.21a7.12,7.12,0,0,1,1.14-2.13m.1,4.21c-.17-.06-.43-.34-.35-1.61a3.65,3.65,0,0,0,1.11-.94A1.6,1.6,0,0,0,69,33.52a1.28,1.28,0,0,0,.26.17c-.44.51-1.09,1.09-1.44,1m4.65-8.09-.31.21a3.63,3.63,0,0,0-1,.91l-.3-.19a3.34,3.34,0,0,1,1.4-1.1,1.53,1.53,0,0,0,.83-1.6,4.12,4.12,0,0,0,.52.24,4.21,4.21,0,0,1-1.11,1.53m-2.76-2.79.46.47a.63.63,0,0,0,.44.18l.78-.05a.86.86,0,0,1-.39.51,1.41,1.41,0,0,1-1,0l-.06-.1a1.43,1.43,0,0,1-.18-1M74.42,35.9a2,2,0,0,1-1.12.49,2.94,2.94,0,0,1-2-.94.59.59,0,0,0-.32-.19,4.53,4.53,0,0,1-.47-1.35l.19,0a3,3,0,0,0,1.11,1.38,4.41,4.41,0,0,0,2.61.63m3.45-8.52a1.14,1.14,0,0,0-.24-.25c-.69-.54-1.8-.54-3.4,0a.58.58,0,0,0-.39.48.54.54,0,0,0,.33.52,3.37,3.37,0,0,0,.92.23,3.64,3.64,0,0,1-1.35.19,4.6,4.6,0,0,1-2-.53,2.77,2.77,0,0,1,.83-.73l.33-.22a4.9,4.9,0,0,0,1.36-1.85l.19.05c1,.18,3.23.62,3.51,1.41a.9.9,0,0,1-.12.68M70.8,22.46a6.3,6.3,0,0,0,.86,1.22l-1,.09-.62-.65a2.86,2.86,0,0,1,.74-.66m-5.11,5.29a.5.5,0,0,0,.07-.57.59.59,0,0,0-.53-.32,3.28,3.28,0,0,1-2.43-.73,1.24,1.24,0,0,1-.23-.42c2.86.6,4.13,0,4.26-.08a.57.57,0,0,0,.29-.37.55.55,0,0,0-.11-.44,2.33,2.33,0,0,1-.65-2,4.63,4.63,0,0,0,.94,1,.63.63,0,0,0,.74,0,.5.5,0,0,0,.18-.66A2.13,2.13,0,0,1,68,22l1.19,1.23c0,.12-.09.23-.13.34a2,2,0,0,0,.21,1.53c-2,1.18-2,2.28-2,2.77a3.93,3.93,0,0,1-2.44,1.55,3.34,3.34,0,0,1-2.81-.79c2.57.31,3.58-.8,3.62-.85m-6.18,7.14s-.07,0-.09,0a.09.09,0,0,0,0,.08,2.55,2.55,0,0,0,2.84,2.16A8.3,8.3,0,0,0,67.11,35c.32.48,1.56,2.19,2.66,2.08.48-.05.84-.42,1.11-1.09a3.45,3.45,0,0,0,2.46,1A3.52,3.52,0,0,0,76,35.2a.1.1,0,0,0,0-.12.12.12,0,0,0-.13,0s-2.22.62-3.58-.31a2.85,2.85,0,0,1-1.12-2.56,11.71,11.71,0,0,1,.35-3.54,5.39,5.39,0,0,0,2.26.59c2.46.05,2.93-1.33,3-1.39a.12.12,0,0,0,0-.1.11.11,0,0,0-.11,0,4.69,4.69,0,0,1-1.76-.05c1.14-.34,2-.36,2.38,0a1.12,1.12,0,0,1,.32,1,.12.12,0,0,0,.2.09c.87-.9,1.19-1.63,1-2.25-.37-1.06-2.28-1.5-4-1.84a5,5,0,0,1-3.46-3,.09.09,0,0,0-.07-.06.12.12,0,0,0-.1,0,4.61,4.61,0,0,0-1.43,1.07l-1.7-1.76a.12.12,0,0,0-.09,0,.18.18,0,0,0-.09,0A2.29,2.29,0,0,0,67.4,23a2.49,2.49,0,0,1-.81-1.46.1.1,0,0,0-.07-.1.11.11,0,0,0-.12,0s-1.74,1.5,0,3.7c-.38.14-1.73.48-4.38-.21a.1.1,0,0,0-.09,0s0,0,0,.06a1.8,1.8,0,0,0,.39,1.54,3.65,3.65,0,0,0,2.7,1c-.43.29-1.62.83-4,.2a.11.11,0,0,0-.11,0,.1.1,0,0,0,0,.1s.72,2.63,4.35,2.19a6.12,6.12,0,0,1-5.41,1.29.13.13,0,0,0-.09,0,.1.1,0,0,0,0,.09,2.54,2.54,0,0,0,1.26,2.12c1,.53,2.59.24,4.61-.84-.28.7-1.46,2.58-6,2.18"/><path class="cls-1" d="M18.19,77.12h-.14l.12-.07s0,.06,0,.08m2.49-1c.06-.3.08-.67-.14-.76s-.4.16-.47.24h0a1.31,1.31,0,0,1-1.3.55,2,2,0,0,0-1.64.72.87.87,0,0,0-.13.93c.26.56.71.86,1,.79.05,0,.21-.09.14-.35l0-.11a1.82,1.82,0,0,1-.07-.31.53.53,0,0,1,.18.07,1,1,0,0,0,.91,0,.39.39,0,0,0,.11-.48,1.39,1.39,0,0,0-.14-.32C19,77.1,19,77,19,77s.06-.06.44-.09c.89-.07,1.13-.11,1.25-.77"/><path class="cls-1" d="M13.77,77.59a.33.33,0,0,1,.22-.08.3.3,0,0,1,.21.08.25.25,0,0,1,.09.2.28.28,0,0,1-.3.28.33.33,0,0,1-.22-.08.27.27,0,0,1,0-.4m86.81-1.49a3.78,3.78,0,0,1-.25-.65.76.76,0,0,1,.4.17,2,2,0,0,0,.78.41l0,0a2.33,2.33,0,0,0-.82.4,1.55,1.55,0,0,0-.15-.35m-1,3.14a3.65,3.65,0,0,0-1.23-.62,4.39,4.39,0,0,1,.14-1.51,10.9,10.9,0,0,0,1.23.38,6.36,6.36,0,0,1,1.24.44.55.55,0,0,1-.1.17,4.87,4.87,0,0,1-1.24,1.18l0,0m-7.53,1.19a2.4,2.4,0,0,1,2-1,2.66,2.66,0,0,1,0,1,1.93,1.93,0,0,0,0,.34l-.53.54c-1.19-.34-1.46-.57-1.51-.69a.42.42,0,0,1,.08-.14m-1.87,5.21c-.56-.15-.9-.36-1-.64a1.46,1.46,0,0,1,.26-1.1c2.2.43,4-1.45,5.21-2.71.26-.28.48-.5.65-.66,1.24-1.08,2.3-1.82,3.78-.71s1,1.94-.66,4.12c-.87,1.13-4.92,1.42-7.52,1.27a.71.71,0,0,0-.71.43m-9.58,6.7a3.46,3.46,0,0,1-1.93-.21c.37-3.86.78-4.35,1.26-4.9a5.1,5.1,0,0,0,.93-1.46c.79-1.82,2.35-2.16,4.71-2.68l.26-.06a3.31,3.31,0,0,1,2.91.47,2.09,2.09,0,0,0-.34,1.74,2,2,0,0,0,1.46,1.09c-.82,1.22-2.9,2.46-5.81,3.41-2.55.84-3.26,2.08-3.45,2.6m-17.45,8.94h0l-.06,0-.37-.08a13.28,13.28,0,0,0-2.18-1.43,1,1,0,0,0-.06-.66c-.14-.25-.74,0-1,.09-.44-.23-.78-.39-.9-.45s0,0,0,0a.19.19,0,0,0,0-.07.84.84,0,0,0,0-.8,1.67,1.67,0,0,0-1.24-.5,1.15,1.15,0,0,1-.33-.09,5.09,5.09,0,0,0,1.44-.81c1.26-.91,2.84-2,5.53-1h0a1.46,1.46,0,0,0,.39,0,1.56,1.56,0,0,0,1.44.92,1.58,1.58,0,0,0-.43,1.54,15.56,15.56,0,0,1,.08,1.81c-1.45,1.73-2.34,1.56-2.35,1.56m-8-.42a.34.34,0,0,0,0,.14.86.86,0,0,0,.53,1l0,0c-.19,0-1,.22-1.75-.87a2.2,2.2,0,0,0,1.23-.25M25.64,81.52a.69.69,0,0,1-.44.36,1.62,1.62,0,0,0,.18-.84c-.08-.68-.77-1-1.33-1.32h0a3.89,3.89,0,0,0-2.41.1,6,6,0,0,1,.42-.73c.07-.1.14-.22.21-.33l.34-.13c1.93-.67,2.36-.29,3.23.48.47.42.42,1.18-.18,2.42M24,87.22c-.44-.86-1-1.85-1.39-2.58a13.06,13.06,0,0,0,2.08-2,1.58,1.58,0,0,0,1.66-.82c.08-.17.17-.35.25-.54a7.32,7.32,0,0,1,1.17,1.85,1.92,1.92,0,0,0,.73.86c-1.25.91-3.59,2.58-4.5,3.23m28.47,8.1a2,2,0,0,1,2.46.8,3.24,3.24,0,0,0,.54.71,2.68,2.68,0,0,0,1.79,1.24,1.37,1.37,0,0,1,.64.16.73.73,0,0,1,0,.18.13.13,0,0,0,0,.08.76.76,0,0,0,0,.11,3.58,3.58,0,0,1-2.9.15.09.09,0,0,0-.1,0s-.31.2-.15.78c.05.17,0,.28,0,.35s-.45.19-.8.22l-.46,0a2.6,2.6,0,0,0,.6-1.78c0-1.78-1.23-2.47-3.21-2.7a9.39,9.39,0,0,0,1.72-.34M22.13,83.85c-.26-.35-.65-.85-1-1.33s-.86-1.07-1.06-1.36c1.58-.67,3.17-1,3.6-.81l0,0c.51.26.88.48.91.75s-.15,1-2.35,2.85l-.09-.12m28.13,8.34s0-.08,0-.12A14.21,14.21,0,0,1,54,94.51a0,0,0,0,1,0,0,3.15,3.15,0,0,0-1.73.07,4.86,4.86,0,0,1-4-.15l-.88-.33c-.52-.19-.75-.49-.64-.87s.62-.81.81-.79c0,0,.52.22.29,1.09-.1.35,1.25.36,1.8,0a1.48,1.48,0,0,0,.65-1.37m23-7.34a0,0,0,0,1,0,0l.13,0c-.09.2-.22.59.27.57.64,0,1.17-.4.57-1.07l.66-1A.58.58,0,0,0,75,83a.57.57,0,0,1,0-.19,1,1,0,0,1,.37.07.77.77,0,0,0,.76-.13.87.87,0,0,1,.4-.24.46.46,0,0,1,.19.23.73.73,0,0,0,.65.41h.08a3.12,3.12,0,0,1-.13.82,2.87,2.87,0,0,0-.12,1.07,3.93,3.93,0,0,1-1.2.47.64.64,0,0,0-.51.52.59.59,0,0,0,.29.61,4,4,0,0,1-.21.64,2.6,2.6,0,0,0-.18,2c0,.13,0,.13-.37.43a4.23,4.23,0,0,0-1.43,1.48A8,8,0,0,1,69.87,93a3.5,3.5,0,0,0-2.21,2.2.58.58,0,0,0,0,.41c-.67.2-2.24.56-2.57-.34a2,2,0,0,0,1-1.27c.45-1.5.83-2.67.86-2.76a.74.74,0,0,0,.06-.41,5.63,5.63,0,0,0,.75-2.1c.32-1.37,1.3-1.94,2.79-2.79l.64-.37c1.41-.84,2.06-.7,2.06-.7m-33.37.38a.1.1,0,0,0,.06-.09v0a6.44,6.44,0,0,1,1.61-1.55,1.77,1.77,0,0,1,.44-.23l.09.08a1.14,1.14,0,0,0,.89.33,1,1,0,0,0,.58-.25,1.81,1.81,0,0,1,1.61-.26.81.81,0,0,0,.27.05c1.28,0,1.71.64,2.49,1.73.14.21.31.45.49.69.82,1.08,2.65,1.89,4.35,2.53l0,0s-.29.2,0,.55,1.07,1.28,1.19,1a2.6,2.6,0,0,0-.32-1.32l.53.19,1,.35c1.95.72,3.45.93,5.37-.19,1.36-.78,1.92-.43,2.29,0a4.49,4.49,0,0,0,2,1.2c.35.15.71.29,1.06.47s.43.34.43.37h0a.19.19,0,0,0,0,.08s-.39,1.2-.87,2.78a1.14,1.14,0,0,1-1.09,1A6,6,0,0,0,58,95.84a3.24,3.24,0,0,1-1.25.69.91.91,0,0,1-.63-.19L56,96.16c-.1-.14-.21-.29-.33-.43l-.22-.4a10,10,0,0,0-.8-1.27c-.81-1-3.45-2.4-4.93-3.13a2.44,2.44,0,0,0-1.12-.64,9.47,9.47,0,0,0-2.39-1.65,8.14,8.14,0,0,1-2.55-1.7,2.2,2.2,0,0,0-1.06-.54c-.07-.43-.22-1.07-.45-1.07s-.5.62-.6.92a3.08,3.08,0,0,1-1.66-.63c-.07-.05-.08-.08-.07-.13a.49.49,0,0,1,.07-.24ZM32.69,81.7l.14-.17c.24-.29.64-.78.84-.8a.57.57,0,0,1,.25.13,8.72,8.72,0,0,1,.86.86,4.08,4.08,0,0,0,2,1.45c.12,0,.75.25,1.5,1.87a1.17,1.17,0,0,0,.74.61.86.86,0,0,0,.35.54,4.12,4.12,0,0,0,2.35.83,2.27,2.27,0,0,1,1.38.44,8.87,8.87,0,0,0,2.81,1.88,5.76,5.76,0,0,1,1.34.83,4,4,0,0,0-3.37,3.32.24.24,0,0,0,0,.08c-.58-.2-1.39-.46-2.25-.7.05-.13-.06-.38-.19-.71-.24-.58-1.14-1.25-1-.67a2,2,0,0,1,0,.66.72.72,0,0,0,.07.46,13.24,13.24,0,0,0-1.79-.29.83.83,0,0,0-.22-.46c-.34-.43-.45-.35-.48-.15a.84.84,0,0,0,0,.61,7.27,7.27,0,0,0-2.31.58,1.49,1.49,0,0,0-.08-.79c-.1-.38-.16-.77-.32-.51a1.16,1.16,0,0,0-.32.89c0,.33.15.53.31.58a4.51,4.51,0,0,0-1.71,1.2.21.21,0,0,1,0,.06,3.77,3.77,0,0,1-1.43-.59,17.74,17.74,0,0,1-1.73-1.47c.08-.36.2-1,0-1.17s-.54,0-.72.54L29.06,91a2.65,2.65,0,0,0-.37-.25c0-.3,0-.75-.15-.8s-.38.24-.44.5A8.48,8.48,0,0,0,26.56,90h-.08l-.24,0c.1-.29.24-.75.08-.72a1.72,1.72,0,0,0-.76.62,3,3,0,0,0-1.52.12,8.12,8.12,0,0,0,.22-2l.1,0c1.09-.78,4.69-3.35,5.39-3.9l.78-.56a11.61,11.61,0,0,0,2.16-1.77M19.46,78.9c1.68-1.49,2.25-1.48,2.44-1.34,0,.07,0,.33-.56,1.15a2.72,2.72,0,0,0-.59,1.37l-1,.39a2.26,2.26,0,0,0-.27-.42.91.91,0,0,0-.35-.26.91.91,0,0,1,.36-.89m-3.35.79a2.43,2.43,0,0,0-1,.33,2.13,2.13,0,0,0-.4.33c-.39-.31-.72-.59-1-.84l-.06-.05a2.87,2.87,0,0,1,1.82-.72c.2,0,.46.41.62,1m9.51,18.23c-2.16.59-5.23-.66-5.26-.68a.8.8,0,0,0-.66.05.61.61,0,0,0-.32.52c0,.23-.07.61-.38.72a1.75,1.75,0,0,1-1.55-.75c-.31-.35-.46-.66-.41-.82s.24-.35,1-.6a1.07,1.07,0,0,0,.8-.72c.14-.51-.26-.9-.53-1.16l-.15-.15a2.25,2.25,0,0,1,.41-.41.59.59,0,0,0,.21-.73,1.51,1.51,0,0,1-.12-.69,5.48,5.48,0,0,0,2.25-1.61A.73.73,0,0,0,21,90.3c-.23-1-3.61-2.91-3.65-2.93A6,6,0,0,1,15.78,86c-.22-.24-.45-.48-.72-.73s-.41-1.81-.23-3.22a2,2,0,0,1,.76-1.46,3.06,3.06,0,0,1,2.12-.07,1.53,1.53,0,0,0,.58,0,1.68,1.68,0,0,0,.24-.06l.26-.07h0a1.12,1.12,0,0,1,.23.39,2.55,2.55,0,0,0,.25.56c.19.31.65.87,1.17,1.53.38.47.77,1,1,1.3a33.52,33.52,0,0,1,2,3.52,5.63,5.63,0,0,1-.24,2.27.63.63,0,0,0,0,.36c-.14.4-.29,1-.07,1.09s.64.06,1-.72a.71.71,0,0,0,.3-.22h0s.23-.19,1.9.12h.08a6,6,0,0,1,2.11.86c.16.13.43.39.75.69a27,27,0,0,0,2.41,2.08,4.56,4.56,0,0,0,1.51.67,4,4,0,0,0-.61,2.17,7.59,7.59,0,0,0-3,.47,10.85,10.85,0,0,1-3.7.26,1,1,0,0,0-.24,0M40.47,101a.83.83,0,0,1-.08-.12.8.8,0,0,0-.2-.21,2.72,2.72,0,0,0-2.75-.08,3.82,3.82,0,0,1-.38.2.38.38,0,0,1-.09-.12l0-.06a2.77,2.77,0,0,0-2.22-1h0l-.12,0a.79.79,0,0,0-.24-.87,5.22,5.22,0,0,1-.71-.92c-.66-1,.38-2.59.73-3.1a6.44,6.44,0,0,1,4.14-1.61,21.93,21.93,0,0,1,5.32,1.3c.13,1.88,2,3.6,2.06,3.69a4.27,4.27,0,0,1,.38.37c-1,.52-2.59,1.45-2.81,1.58a3,3,0,0,1-1.43.34,2.27,2.27,0,0,0-1.17.25.66.66,0,0,0-.32.36s0,0,0,.06m9.2,1.09a.61.61,0,0,0-.08-.26,7.78,7.78,0,0,0,.33-2.2c0-.26-.14-.43-.31-.48a.48.48,0,0,0-.52.12s.4,2.59-1.32,3.14a13.35,13.35,0,0,1-1.68.26,8.27,8.27,0,0,0-.83.25c.19-1.3,2.53-1.7,2.52-3.06A3.75,3.75,0,0,0,46.4,97.5a6.53,6.53,0,0,1-1.78-2.89.11.11,0,0,0,0-.1c0-.12,0-.24-.08-.37a2.12,2.12,0,0,1,.06-.49c.36-1.49,1.5-3.08,3.51-2.68a2.83,2.83,0,0,1,1,.56,1.79,1.79,0,0,1,.35.71c.09.73-1,1-1.06.94s0-1.45-.85-1.45a1.91,1.91,0,0,0-1.68,1.34c-.22.76.21,1.42,1.13,1.74.32.11.58.22.84.33a10.45,10.45,0,0,0,1.26.43H49a.13.13,0,0,0-.12.07A.44.44,0,0,0,49,96a1.84,1.84,0,0,0,1.27.52c1.41.17,2.85.51,2.85,1.8a1.73,1.73,0,0,1-.84,1.6,4.11,4.11,0,0,0-2.71-2.5c-2.39-.8-3.27-1.55-3.62-3.08a.09.09,0,0,0-.06-.07.77.77,0,0,0-.66,0,.51.51,0,0,0-.13.54,4,4,0,0,0,2.17,2.49c.31.15.64.28,1,.4,1.19.48,2.33.94,2.81,1.81a.66.66,0,0,0-.38.48l-.46,3a1,1,0,0,1-.51-.82m-1.21-.24h0m-.07.2h0m12.07-.13a.65.65,0,0,0-.39.58,2.42,2.42,0,0,0,.11.69,1.89,1.89,0,0,1-1.15-.94c-.93-1.62-2.2-2.07-3-2a1.6,1.6,0,0,0-.42.12,2,2,0,0,0,.25-.69A3.06,3.06,0,0,0,58,99.33a.71.71,0,0,0,.21.11.46.46,0,0,0,.21,0,21.12,21.12,0,0,1,3.75,2.24c.2.18.39.38.57.57a5.88,5.88,0,0,0,1,.89A5.48,5.48,0,0,1,61.2,102a.78.78,0,0,0-.74-.08m21.82-4.87c0,.1,0,.86-2.27,2.48-2.71,2-6.83.68-9,0h0l-.58-.18a8.57,8.57,0,0,0-4.21,0,4.89,4.89,0,0,0-.09-1.71c-.18-.51.4-1,.76-1.24A7.51,7.51,0,0,0,68.39,96a3.06,3.06,0,0,0,1.21-.24c-.17.3-.47.91-.11,1s1.52.34,1.14-1.22a2.17,2.17,0,0,0,1.5-.43.58.58,0,0,0,.12-.1,2,2,0,0,1,1.63-.77A3,3,0,0,0,74.94,94l0,0a19.51,19.51,0,0,1,3.2-1.22h0a3.19,3.19,0,0,0,2.48.28s0,0,0,0a2,2,0,0,0,.53.4,2,2,0,0,0-.65,1.35A1.37,1.37,0,0,0,81,96a2.94,2.94,0,0,0,1.21.71.53.53,0,0,0,.09.38m13.45-1.56a.64.64,0,0,0,0,.28,1.83,1.83,0,0,1-.06,1.43,2.2,2.2,0,0,1-1.45,1c-2.37.63-5.5-.51-7.19-1.13l-.65-.23a18.94,18.94,0,0,0-3.48-.7.75.75,0,0,0-.21,0c-1.16-.26-1.3-.57-1.3-1.34a1,1,0,0,1,.8-1,10.67,10.67,0,0,0,3.49-.59c.53-.14,1.09-.3,1.62-.41,2-.44,5-.55,6.9.54a2.49,2.49,0,0,1,1.49,2.18M91.72,79a1.3,1.3,0,0,1-.21-.18.54.54,0,0,1,.2,0,1.34,1.34,0,0,1,0,.21M26.06,77.37a3.08,3.08,0,0,1,1,.14c-.31.56-.4.59-1,.32q-.29-.14-.57-.24a1.22,1.22,0,0,1,.62-.22m75.68-2.05a1.25,1.25,0,0,1-.5-.27,1.49,1.49,0,0,0-1-.36.68.68,0,0,0-.6.24c-.19.26-.1.75.27,1.48a1,1,0,0,1,.11.37,11.2,11.2,0,0,1-1.2-.38.72.72,0,0,0-.69,0c-.45.3-.53,1.23-.5,2.1a4.65,4.65,0,0,0-2.68,1.35,1.48,1.48,0,0,0-.27-1,1.07,1.07,0,0,0-.82-.2,3.09,3.09,0,0,0-1.28.39,2.51,2.51,0,0,0-.06-.62.58.58,0,0,0-.45-.33,1.33,1.33,0,0,0-1.19.29.49.49,0,0,0-.17.54,1.63,1.63,0,0,0,.92.88l-.16.2a.8.8,0,0,0-.18.81c.18.48.89.81,1.64,1a3.9,3.9,0,0,1-3.33,1.29,4,4,0,0,0-3.88-.84l-.26,0c-2.42.54-4.32,1-5.27,3.14a4.72,4.72,0,0,1-.81,1.27c-.58.68-1,1.21-1.44,5.34a20.19,20.19,0,0,0-3.31,1.27,2.09,2.09,0,0,1-.76.13,2.8,2.8,0,0,0-2.17,1,1.32,1.32,0,0,1-1.11.26,1.37,1.37,0,0,0-1.17.26,2.16,2.16,0,0,1-.88.21,2.58,2.58,0,0,1,1.59-1.55c.93-.24,3.22-.9,4.17-2h0a3.39,3.39,0,0,1,1.24-1.3c.49-.35.92-.65.63-1.3a2,2,0,0,1,.2-1.51c.19-.5.4-1,.07-1.35A3.15,3.15,0,0,0,78,85.4.45.45,0,0,0,78,85a2.12,2.12,0,0,1,.1-.88c.13-.55.27-1.12,0-1.46a.89.89,0,0,0-.63-.25,1.2,1.2,0,0,0-.74-.63,1.36,1.36,0,0,0-1.09.39,1.38,1.38,0,0,0-1.11,0,.87.87,0,0,0-.32.83l-.75,1.08a4,4,0,0,0-2.69.79l-.63.36c-1.54.89-2.77,1.59-3.16,3.27a9.92,9.92,0,0,1-.45,1.55l-.33-.21c-.38-.19-.76-.34-1.13-.49a4.12,4.12,0,0,1-1.66-1c-.79-1-1.92-1-3.36-.21-1.64,1-2.89.78-4.63.13l-1-.35c-1.86-.65-4.42-1.55-5.32-2.74l-.48-.67c-.81-1.13-1.44-2-3.13-2.06A2.66,2.66,0,0,0,43,82.9l0,0a.14.14,0,0,1-.11.06.37.37,0,0,1-.23-.11c-.41-.38-.77-.47-1.59.07a7,7,0,0,0-1.93,2,.39.39,0,0,1-.15-.16c-.62-1.32-1.32-2.12-2-2.29a3.45,3.45,0,0,1-1.56-1.21,8.54,8.54,0,0,0-1-.94,1.14,1.14,0,0,0-.86-.31c-.54.05-.95.56-1.4,1.09l-.13.16a10.59,10.59,0,0,1-2,1.64l-.81.58-.05,0a1.37,1.37,0,0,1-.62-.6,9.12,9.12,0,0,0-1.67-2.5,1.88,1.88,0,0,0-.34-1.67c.49,0,.86-.28,1.19-.89a.66.66,0,0,0,0-.7c-.21-.31-.76-.48-1.69-.51a2.67,2.67,0,0,0-1.79.91,5,5,0,0,0-1.63.27.71.71,0,0,0-.25-.81c-1.05-.82-2.72.65-3.52,1.36a1.66,1.66,0,0,0-.61,1.48h0l-.14,0a1.07,1.07,0,0,1-.23,0,8.09,8.09,0,0,0-1-.16c-.15-.6-.56-1.71-1.48-1.68a1.81,1.81,0,0,0-.39.05,1.13,1.13,0,0,0,0-.25,1,1,0,0,0-.32-.73,1.2,1.2,0,0,0-.79-.29,1.07,1.07,0,0,0-1.12,1,1,1,0,0,0,.33.73.9.9,0,0,0,.2.14,1.43,1.43,0,0,0-.5.55.71.71,0,0,0,.27.84c.31.27.69.59,1.14,1A3.66,3.66,0,0,0,14,82v0c-.21.07-.6.26-.6.58s.29.52.51.68a8.06,8.06,0,0,0,.1,1.48c-.14.19-.28.46-.08.62a2.29,2.29,0,0,0,.36.21,1.24,1.24,0,0,0,.18.21c.25.23.46.47.67.69l.15.15c-.08.31-.14.81.21.9a2.86,2.86,0,0,0,.78,0A7.35,7.35,0,0,0,17,88a9.62,9.62,0,0,1,.89.54c0,.3,0,.8.37.73l.58-.09c.81.58,1.43,1.11,1.42,1.27-.27.34-1.31,1.31-1.77,1.31A.57.57,0,0,0,18,92a1.53,1.53,0,0,0,0,1.38c-.22.17-.88.74-.63,1.18a1.55,1.55,0,0,0,.36.42c.17.17.36.36.33.48s-.12.13-.3.19c-.54.19-1.29.5-1.47,1.11a1.61,1.61,0,0,0,.56,1.48l.05,0-.29.32s-1,.23-.67.93,1.63.75,1.39-.35l.29-.3a2,2,0,0,0,1.67.33A1.34,1.34,0,0,0,20.17,98a12.41,12.41,0,0,0,4.45.83,1.07,1.07,0,0,0,.91.29.78.78,0,0,0,.5-.45,21.63,21.63,0,0,0,2.33,0,.77.77,0,0,0,.72.31.37.37,0,0,0,.4-.47,1.57,1.57,0,0,0,.52-.19,7.8,7.8,0,0,1,2.77-.36l.12.22a5.93,5.93,0,0,0,.82,1.06c.07.07.07.07,0,.22a.65.65,0,0,0,0,.59,1.08,1.08,0,0,0,.76.31h0c.77.09,1.28.16,1.65.69l0,.07c.19.27.32.46.55.51s.5,0,1-.36a1.79,1.79,0,0,1,1.82,0c.09.13.47.7.92.65.27,0,.48-.26.64-.71a1.58,1.58,0,0,1,.74-.14,3.74,3.74,0,0,0,1.83-.43s1.81-1.1,2.87-1.63a2.34,2.34,0,0,1,.29.84c.16.87-3.78,2.55-2.26,4.75.19.28.39.2.39.2a1.19,1.19,0,0,1,.18-1.25c.43-.43,2.53.14,3.63-1.08a2.07,2.07,0,0,0,1.82,1.37.11.11,0,0,0,.13-.09l.51-3.27a1.72,1.72,0,0,0,.82.91,1.69,1.69,0,0,0,1,.14A2.39,2.39,0,0,0,56,102.65c.67,0,1-.1,1.08-.33s.11-.38-1-1c-.13-.06-.17-.13-.16-.16s.1-.1.24-.12c.45-.06,1.41.2,2.19,1.56a3,3,0,0,0,3.3,1.33.09.09,0,0,0,.08-.09.12.12,0,0,0-.08-.11,1.16,1.16,0,0,1-.71-1,5.23,5.23,0,0,0,3.57,1.18,2.81,2.81,0,0,0,1.84-.92.09.09,0,0,0,0-.12.11.11,0,0,0-.13,0,2.34,2.34,0,0,1-2.63-.84,4.67,4.67,0,0,0,2.73-2,7.75,7.75,0,0,1,3.83,0l.61.19c2.18.67,6.73,2.07,9.79-.12,2-1.46,2.51-2.4,2.58-2.93a.9.9,0,0,0,0-.3,6.73,6.73,0,0,0,.67.08h.05a13.66,13.66,0,0,1,2.35.53l.54.19c-.17.22-.5.73,0,.93s2-.54,2,.21.69.64,1.87.17c0,0,.57-.13.63.17a.73.73,0,0,0,.82.56c.21,0,.52-.36.84-.65A6.75,6.75,0,0,0,94,99c.4.28.75.36,1,.16a.85.85,0,0,0,.25-.54,2.5,2.5,0,0,0,1.18-1,2.36,2.36,0,0,0,.19-1.68,1.52,1.52,0,0,0,.46-.8c.09-.51-.54-.43-1-1a3.61,3.61,0,0,0-.63-.8,1.32,1.32,0,0,1-.2-.66c-.07-.8-1-1.09-1.11-.18a12.19,12.19,0,0,0-7-.39c-.56.12-1.13.27-1.67.42-1.72.47-3.34.91-4.11.17.07-.25.55-1.41,3-2.2,1.74-.58,5.84-2.14,6.6-4.48.83,0,6.72.27,8.15-1.59,1.26-1.66,2.38-3.12,1.13-4.56a5.75,5.75,0,0,0,1.34-1.3.89.89,0,0,0,.2-.82,1.16,1.16,0,0,0-.65-.54c.1-.15.34-.34,1-.46s.57-.34.58-.48c0-.36-.47-.77-.92-.89"/><path class="cls-1" d="M29.9,84.66c-.42.1-1.21,1.12-.64,1.23A5.5,5.5,0,0,0,30.51,85c.18-.3-.18-.46-.61-.37"/><path class="cls-1" d="M30.8,86.18c.47.13.72-.2,1-.59s0-1-.39-.5c0,0-1.05,1-.58,1.09"/><path class="cls-1" d="M32.67,86.81a1.67,1.67,0,0,0,.46-1.32c-.1-.4-.36-.2-.36-.2s-.86.89-.79,1.19.37.73.69.33"/><path class="cls-1" d="M34.85,87.21c.47-.1.29-.63.15-1.1s-.25-.79-.47-.59a1.33,1.33,0,0,0-.28.79c0,.47.14,1,.6.9"/><path class="cls-1" d="M47.06,30.73a1.07,1.07,0,0,1-.08-.37c0-.11,0-.12,0-.13l.14,0a1.56,1.56,0,0,1,.13.54.63.63,0,0,1-.21,0m-.25-1a.6.6,0,0,0-.41.7c.08.57.2.92,1,.82s.22-1.41.07-1.55-.69,0-.69,0"/><path class="cls-1" d="M47.3,32.43a.35.35,0,0,1-.13,0h0a1,1,0,0,1,0-.16s0-.1,0-.15a.24.24,0,0,1,0-.13.26.26,0,0,1,.11,0,.13.13,0,0,1,.06.08,1.18,1.18,0,0,1,0,.32m-.54-.86a.71.71,0,0,0-.23.63c0,.4,0,.8.66.77s.75-.44.67-.94a.75.75,0,0,0-1.1-.46"/><path class="cls-1" d="M47.18,33.81a.53.53,0,0,1-.06.13l-.11,0,.17-.23h0a.56.56,0,0,1,0,.15m-.39-.53s-.75.78-.24,1,1,.36,1.18-.32-.31-1.14-.94-.69"/><path class="cls-1" d="M48.5,30h0a1.3,1.3,0,0,1-.23-.53l.09,0,.06,0h0a2.23,2.23,0,0,1,.16.56l-.07,0M48,29a.4.4,0,0,0-.33.54c.13.47.36,1.15,1,1s.51-.64.28-1.26-.61-.39-1-.25"/><path class="cls-1" d="M48.82,31.67a.48.48,0,0,1-.21,0,1.85,1.85,0,0,1,0-.4s0,0,0,0a.23.23,0,0,1,.06-.15l0,0a.35.35,0,0,1,.11.27.65.65,0,0,1,0,.26m-.76-.46s-.23,1,.39,1,1-.11,1-.84c0-1-1.23-1.11-1.36-.19"/><path class="cls-1" d="M49,33.37a.81.81,0,0,1-.34.12.53.53,0,0,0,0-.12,1.82,1.82,0,0,0,0-.32l.13-.06.16-.05s0,.07,0,.12a.41.41,0,0,1,0,.31m-.34-.89s-.53.14-.53.54-.26,1.13.38,1,1.23-.24,1.08-1.09-.49-.61-.93-.49"/><path class="cls-1" d="M49.88,28.82l-.11.07h0a.56.56,0,0,1-.14-.29c-.09-.28,0-.42.06-.46a1,1,0,0,1,.12.29.88.88,0,0,1,.07.39m-.19-.68h0m-.32-.45a.9.9,0,0,0-.31,1c.2.74.69.78,1,.61s.54-.32.3-1.05-.66-1-1-.6"/><path class="cls-1" d="M50.27,30.53l-.09.06a2.46,2.46,0,0,0-.06-.36.32.32,0,0,1,.1-.1,1.09,1.09,0,0,1,.05.4m-.72-.22c.15.52,0,1.18.66.87s.72-.55.57-1.2c-.21-.9-1.39-.19-1.23.33"/><path class="cls-1" d="M50.4,32.62a3.27,3.27,0,0,1,0-.54s0,0,.06-.09l.12-.08a.3.3,0,0,1,0,.1c.07.45,0,.55-.16.61m-.62-.52c0,.64,0,1.21.64,1.06s.83-.45.71-1.22c-.15-1-1.38-.47-1.35.16"/><path class="cls-1" d="M66.64,36.61l.22-.21.08-.07.2.28Zm.48-1.31c-.18,0-.35.13-.63.38l-.21.19a7.28,7.28,0,0,1-1.55,1.27.12.12,0,0,0-.1.11.11.11,0,0,0,.11.1h3.75a.11.11,0,0,0,.1-.06.09.09,0,0,0,0-.11,19.72,19.72,0,0,1-1.21-1.64.38.38,0,0,0-.25-.24"/><path class="cls-1" d="M15.83,69.07c2.29,6.83,3.89,8.09,3.31,4.2s-1.31-6.93-.86-7.56.18-1.63-.05-2.63.4-1.21-.45-3.67.11-1.84,0-3.1-.51-1.21-.34-2.73.23-3.73.23-3.73-1.43-.05-1.6.84-.17,11.24.57,14.92-1.31.1-1.59-4.42S15,51.53,15,51.53s.23-1.2-1.37-1.52c0,0-.06,12.24,2.22,19.06"/><path class="cls-1" d="M22.34,66c0-2.52-1-3.68-.57-5.21s.74-2.09-.12-3.35-.51-1.16-.28-2.73-.23-3.89-.06-5.15c0,0-.8-.57-.91.11a111,111,0,0,0,.74,12.65c.51,3.41-.46,2-.8-.89-.23-2-.8-11.45-.8-11.45s-1-.73-1.26,0c0,0-.22,11.44,2.12,15.8s1.94,2.79,1.94.27"/><path class="cls-1" d="M25.53,63.29a5.44,5.44,0,0,1-.28-2.83c.11-1.21-.46-2.16-.69-3.78A63.48,63.48,0,0,1,24.22,49s-.34-.36-1,.06c0,0,.06,5.72.34,7.82s-.91-.16-1-3.78,0-4.36-.74-3.68c0,0-.23,11.08,3.13,14.54,0,0,.92.74.52-.63"/><path class="cls-1" d="M25,48.23s-.4,10.18,2.63,13,.74.17.74-3.09c0-3.78-.86-2.94-.92-3.89,0,0-.16-3.83-.33-5s-1.09-1.68-.81.16.86,6.67.12,6.72-.63-3-.69-4.88.23-2.89-.74-3"/><path class="cls-1" d="M29.24,47.86s-.52-.42-.34,1.36.57,3.53-.12,3.47-.4-2.26-.51-3.15-.29-2-.68-1.32c0,0,.11,6.88,2.16,9.72s2.06.68,1.08-1a11,11,0,0,1-1.14-5.3,24.55,24.55,0,0,0-.45-3.78"/><path class="cls-1" d="M31.24,54.58c1.31,1.68.91.26.62-1.47a33.7,33.7,0,0,1-.22-5.72.57.57,0,0,0-.75,0s.4,3.09.06,3-.46-1.15-.57-2.25-.23-.79-.57-.58c0,0,.11,5.3,1.43,7"/><path class="cls-1" d="M14.46,39.36a49.42,49.42,0,0,0-.52,5.4c-.14,3.23.1,3.73,1.44,3.8,1.74.08,2.08-1,2.35-3.58.3-2.77.34-4.21.38-4.58s-.94-1.52-1.14.18-.09,7-1.23,6.75-.85-2.87-.61-4.71.85-4,.09-4.18-.76.92-.76.92"/><path class="cls-1" d="M18.72,40.4s-1.46,7.81.05,7.87c2.3.08,1.94-2.15,2.18-4.6s.47-3.14-.09-3.14-.71,2.36-.81,3.62,0,2.92-.67,2.83-.6-1.87-.37-3.39c.52-3.49.29-3.93-.29-3.19"/><path class="cls-1" d="M22.23,41.28s-.19-.35-.47-.31c0,0-.27,2.72-.37,4.33s.22,2.34,1.36,2.34,1-1.88,1.09-3.4.47-2.88,0-3-.52,1-.57,2-.14,3.22-.61,3.22-.76-.52-.67-2.13.24-3,.24-3"/><path class="cls-1" d="M55.24,47.79c.39-.09.32-.33.65,0s.38.37.78.3a1.47,1.47,0,0,1,1.13.34c.23.24.58.19.53.4s-.43.44.48.6,1.25.28,1.51,0,.65-.3-.1-.69a5.27,5.27,0,0,1-1.61-.91c-.61-.56-.53-.56-.94-.69a2.34,2.34,0,0,0-1.48-.19,6.39,6.39,0,0,1-1.38.16s-.28.19-.08.39.1.4.51.31"/><path class="cls-1" d="M59.26,49.89c-.3,0-.48-.23-.76-.23,0,0-.45,0-.2.33s.48.41.76.34.5-.41.2-.44"/><path class="cls-1" d="M61.42,50.15a3.33,3.33,0,0,0,.94-.18c.32-.17.57.06.87.11s.53.05.73-.28-.05-.53-.3-.76a.86.86,0,0,0-.95-.07c-.31.14-.23.23-.53.28s-1.14.81-.76.9"/><path class="cls-1" d="M65,50.36c.13,0,.51.07.66,0s.4,0,.15-.41-.15-.49-.63-.42-.4.23-.4.23.1.58.22.56"/><path class="cls-1" d="M66.88,55.43c.08.07.3.23.38,0s.08-.72-.58-.56c0,0-.23.17-.08.31s.2.23.28.3"/><path class="cls-1" d="M30.17,42.89c-.69,4.74,1.33,3,1.33,3,.09-1.19.32-2.79.32-2.79-.18-.26-.42-.13-.46.46s-.09,2-.6,1.86-.09-2.58-.32-2.66-.27.08-.27.08"/><path class="cls-1" d="M27.68,42.34s-.36,2.33-.36,3,.41,1.27,1.42,1.18.78-1.31.87-2.32.19-1.61.19-1.61c-.5-.16-.46,0-.65,1.26s-.13,1.87-.82,1.91-.32-2.45-.23-3-.42-.43-.42-.43"/><path class="cls-1" d="M24.83,41.75a27.79,27.79,0,0,0-.41,4.06c0,1.78,2.21,1.27,2.3,0s.5-3.64.5-3.64c-.73-.51-.77.85-.91,2s-.19,1.91-.87,1.78-.24-3.35-.19-3.89-.42-.3-.42-.3"/><path class="cls-1" d="M23.83,83.78c-.34.57-.17.75.21.8s.49-1,.49-1c-.12-.42-.36-.4-.7.18"/><path class="cls-1" d="M25.33,83.49s-.51-.07-.41.64.51.8.69.67.13-.78.13-.93-.19-.6-.41-.38"/><path class="cls-1" d="M26.37,83.33a1.4,1.4,0,0,0,.19,1c.29.38.83.58.66-.22s-.37-1-.85-.74"/><path class="cls-1" d="M18.26,82c-.19-.09-.38-.16-.53.13,0,0-.17.45.32.45a.31.31,0,0,0,.21-.58"/><path class="cls-1" d="M16.23,83.15v0s0,.35.24.35.29-.11.32-.29-.42-.38-.56-.11"/><path class="cls-1" d="M16.91,85.54a.31.31,0,0,0,.07.51c.36.22.46.15.36-.27s-.24-.4-.43-.24"/><path class="cls-1" d="M19.18,85.47s.29.16.34,0-.07-.26-.07-.26-.46-.12-.27.22"/><path class="cls-1" d="M19.57,87.25s-.14.42.22.47a.27.27,0,0,0,.27-.45c-.15-.13-.49-.11-.49,0"/><path class="cls-1" d="M21.55,87.78s.34.08.34,0,.05-.21-.07-.3-.43,0-.27.3"/><path class="cls-1" d="M21.17,94.33s.7-1.51-.29-1.22a1,1,0,0,0-.37,1s-.51-.17-.17.45.59,1.2,1.24.62-.41-.89-.41-.89"/><path class="cls-1" d="M23.63,95.38s-.57.42-.41.63.92.28,1,0-.32-.85-.59-.65"/><path class="cls-1" d="M26.15,95.8s-.65.18-.34.49a1.15,1.15,0,0,0,1,.29c0-.06.34-1-.63-.78"/><path class="cls-1" d="M24.22,93.13s-.73.38-.44.65.83-.23.83-.23.14-.51-.39-.42"/><path class="cls-1" d="M26.49,92.42a.62.62,0,0,0,.75-.2s-.36-.85-.82-.53c0,0-.44.55.07.73"/><path class="cls-1" d="M29.54,95.45a.8.8,0,0,0,.78,0s.33-.5-1-.73a.48.48,0,0,0,.22.71"/><path class="cls-1" d="M36.82,95.19c0-.48-.58-.3-.58-.3s-.34.08-.36.3.43.26.43.26.51.2.51-.26"/><path class="cls-1" d="M36.87,97.87c-.26-.13-.58.18-.58.18a.44.44,0,0,0,.46.61c.65,0,.61-.41.61-.41s0-.1-.49-.38"/><path class="cls-1" d="M40.23,97a.62.62,0,0,0-.7-.52s-.63,0-.75.53.87.5.87.5.61-.16.58-.51"/><path class="cls-1" d="M39.48,98.83a.52.52,0,0,0,.58.45c.56,0,.51-.33.51-.33s-1-.5-1.09-.12"/><path class="cls-1" d="M42.84,97.1c.64,0,.47-.45.47-.45a.75.75,0,0,0-.6-.22c-.42,0-.5,0-.52.31,0,0,0,.38.65.36"/><path class="cls-1" d="M36.7,87.41c.36,0,.07-1.11.07-1.11s-.26-.64-.46-.59c0,0-.57,0-.35.82s.37.92.74.88"/><path class="cls-1" d="M38.08,86.94a.5.5,0,0,0,.75.19c.3-.17-.57-1.39-.57-1.39s-.83-.41-.75,0a6.34,6.34,0,0,0,.57,1.18"/><path class="cls-1" d="M27.21,86.67c-.26,0-1.2.61-.85.76a.88.88,0,0,0,.81-.21c.33-.33.31-.52,0-.55"/><path class="cls-1" d="M28.7,87.33s-1.1,1-.67,1.18.77-.36.93-.77,0-.6-.26-.41"/><path class="cls-1" d="M29.75,88.87c.13.3.43.73.74,0s.16-.84-.08-.62c0,0-.77.36-.66.66"/><path class="cls-1" d="M32.47,89.2c.17-.94,0-.84-.25-.61,0,0-.69.52-.51.76s.57.79.76-.15"/><path class="cls-1" d="M34.42,90.5c.55,0,.38-.75.24-1.31s-.31-.58-.46-.58-.33-.06-.31.61,0,1.24.53,1.28"/><path class="cls-1" d="M36.35,89s-.55,1.09.18,1.52.47-.36.33-.84-.35-1-.51-.68"/><path class="cls-1" d="M38.51,88.79s-.42-.05-.27.53.35,1.1,1,1-.32-1.29-.7-1.52"/><path class="cls-1" d="M41.86,90.2c.32-.58-1.3-1.71-1.57-1.56,0,0-.48.23,0,.71s1.25,1.43,1.57.85"/><path class="cls-1" d="M43.85,89.88c.39-.23-.61-1.11-.61-1.11s-.73-.73-.89-.54c0,0-.41.41.16,1s1,.91,1.34.69"/><path class="cls-1" d="M32.81,91.49s-1.06,1.36-.41,1.61.71-1,.69-1.48-.28-.13-.28-.13"/><path class="cls-1" d="M42.61,91.17a7.69,7.69,0,0,1,.45,1c.08.28.39.77.71.31s.12-.6-.2-1-1.18-.69-1-.3"/><path class="cls-1" d="M20.77,36.4a1.28,1.28,0,0,0-1.46.84c-.4,1.08-.13,1.5.12,1.45s.37-1.07.66-1-.33,1,.08,1.11.55-1,.86-.92-.31,1,.15,1.14,1.11-2.26-.41-2.65"/><path class="cls-1" d="M23.81,37.35a1.18,1.18,0,0,0-1.3.82c-.32,1-.06,1.37.16,1.31s.3-1,.57-.9-.26.92.11,1,.46-1,.76-.86-.25.93.17,1,.93-2.09-.47-2.4"/><path class="cls-1" d="M17.78,37.88c.58.18,1.63-2.61-.28-3.2a1.71,1.71,0,0,0-2,.89c-.61,1.25-.3,1.78,0,1.74s.58-1.25.95-1.11-.52,1.17,0,1.33.81-1.17,1.2-1-.5,1.19.09,1.37"/><path class="cls-1" d="M26.62,38.32a1,1,0,0,0-1.17.67c-.31.86-.09,1.19.1,1.15s.29-.85.52-.77-.26.8.07.88.43-.81.69-.73-.26.81.11.91.89-1.8-.32-2.11"/><path class="cls-1" d="M29.34,40.88c.31.08.73-1.47-.26-1.73a.85.85,0,0,0-1,.55c-.26.71-.08,1,.08.95s.24-.7.43-.63-.21.65.05.72.36-.66.57-.6-.21.67.09.74"/><path class="cls-1" d="M31.76,41.41c.32,0,.49-1.56-.52-1.69a.84.84,0,0,0-.87.68c-.15.72.07,1,.22.92s.14-.72.34-.68-.12.67.15.71.26-.71.48-.67-.11.69.2.73"/><path class="cls-1" d="M16.09,39.9c-.17.92-.95,6.27-.44,6.36s.44-2.33.58-3.56.38-3.11.38-3.11-.34-.6-.52.31"/><path class="cls-1" d="M19.71,41c-.14.72-.73,4.94-.34,5s.34-1.83.44-2.8l.28-2.46s-.25-.47-.38.25"/><path class="cls-1" d="M22.67,41.76c-.09.58-.48,3.94-.09,4s.24-1.47.3-2.24.17-2,.17-2-.29-.36-.38.21"/><path class="cls-1" d="M25.7,42.13c-.1.43-.53,3-.14,3s.26-1.12.33-1.7.19-1.48.19-1.48-.27-.27-.38.17"/><path class="cls-1" d="M28.89,42.62s-.26-.2-.34.15-.37,2.35,0,2.35.2-.88.24-1.34.11-1.16.11-1.16"/><path class="cls-1" d="M31.19,42.92s-.21-.16-.29.13-.31,2,0,2,.17-.75.2-1.14l.1-1"/><path class="cls-1" d="M78.33,40.74v1.68s.91-.07.91-.28.38.11.38.11a2.24,2.24,0,0,0-1.29-1.51"/><path class="cls-1" d="M79.7,45.46c-.35,0-.65.11-.61-.7s.15-1.4-.69-1.12v2.59s1.26.8,2,0a5,5,0,0,0-.23-2.66s-.11-.11-.41.17c0,0,.3,1.72,0,1.72"/><path class="cls-1" d="M78.4,47.38a8.31,8.31,0,0,0,0,1.93c.16,0,.8,0,.76-1.23s-.49-1-.76-.7"/><path class="cls-1" d="M79.93,47.11s-.27,0-.27.77-.23,1.36,0,1.36.49-.7.68-1.4-.08-.91-.45-.73"/><path class="cls-1" d="M78.59,51.06c.5,0,1.22,0,1.34-.77s-.84-.57-1.56.07c0,0-.27.66.22.7"/><path class="cls-1" d="M78.37,52a9.62,9.62,0,0,0,0,2.09,10.26,10.26,0,0,0,1.07-2c.19-.53-.92-.49-1.1-.1"/><path class="cls-1" d="M78,66.15c.33,1.28.08,1.21-.25,1.21s-.66-1.82-1.15-.61c-.28.69-.74,1.74.17,1.67s3.2.07,2.46-1.59-1.56-2-1.23-.68"/><path class="cls-1" d="M80.05,71.44a.68.68,0,0,0,.17-.71c-.12-.46-1.62-.16-1.62-.16l-3.36.16s-.41.67-.28.79,4.84.07,5.09-.08"/><path class="cls-1" d="M77,74.1c0-1.21-.28-2.24-1.33-2.2,0,0-1.42-.07-1.47.81s-.15,2.16.28,2.16.1-1.56.44-1.59.38.63.38,1.06.62.62.57,0-.34-1.17,0-1.07.47.15.4.78.72,1.32.7.1"/><path class="cls-1" d="M78.4,73.13c.33,0,.35.57.35,1s.58.57.53,0-.33-1.08,0-1,.44.15.37.71.67,1.23.64.11-.25-2.08-1.22-2c0,0-1.31-.07-1.35.74s-.14,2,.25,2,.09-1.44.41-1.46"/><path class="cls-1" d="M44.19,87.12c.53,0,.27-2.34-.32-1.91a1.05,1.05,0,0,0-.33.77c0,.54.12,1.12.65,1.14"/><path class="cls-1" d="M46.27,86.91c-.15-.9-.6-1.31-.62-1a2.19,2.19,0,0,0,0,1.14c.15.6.8.74.66-.16"/><path class="cls-1" d="M48.37,87.15c.15-.14-.65-1.52-1-1.12,0,0-.39.17.06.71s.77.55.92.41"/><path class="cls-1" d="M50.5,89.91a.87.87,0,0,0-.59-.47.29.29,0,0,0-.06.52c.35.33.71.14.65,0"/><path class="cls-1" d="M52.31,90c.47-.23-.48-1-1.07-1,0,0-.32,0,0,.47s.59.73,1.07.52"/><path class="cls-1" d="M54.5,92.74c.56.44,1,.44.68-.11s-.59-.93-.83-.68c0,0-.41.36.15.79"/><path class="cls-1" d="M57.2,92.28c.14-.36-.8-1.53-1.19-1.5,0,0-.51.06-.06.79s1.09,1.06,1.25.71"/><path class="cls-1" d="M58.62,91.84c0-.36-.71-1.66-.8-1.25A1.6,1.6,0,0,0,58,91.9c.42.46.69.3.66-.06"/><path class="cls-1" d="M60.54,91.32c-.09-.52-.56-1.3-.77-1.14,0,0-.44.19-.06.79s.93.87.83.35"/><path class="cls-1" d="M61.87,90.64c1,0-.2-.68-.29-.82s-.51-.21-.47,0c0,0-.18.82.76.82"/><path class="cls-1" d="M61.87,93.48a.57.57,0,0,0-.53-.49s-.62-.06-.21.41.81.38.74.08"/><path class="cls-1" d="M63.57,93.23c-.33-.82-.63-1.23-1-1,0,0-.27.35.14.89s1.13,1,.81.14"/><path class="cls-1" d="M64.72,92.14c-.12-.66-1.33-2.26-1.33-1.66a1.32,1.32,0,0,0,.29,1c.41.51,1.16,1.28,1,.62"/><path class="cls-1" d="M60.9,95.66c-.18.26-.42,1,.12.82,0,0,.88-.47.73-.71s-.68-.39-.85-.11"/><path class="cls-1" d="M62.59,97.32c-.48.11-.92.52-.65.79,0,0,.26.47.85,0s.27-.9-.2-.79"/><path class="cls-1" d="M70.17,98.14s-1.07.79-.18.85,1-.22.77-.61-.3-.4-.59-.24"/><path class="cls-1" d="M76,98.85c-.24,0-1.09.44-.74.79,0,0,.71.27,1.07-.19s-.09-.6-.33-.6"/><path class="cls-1" d="M78.26,97.24c-.42.17-.66.49,0,.76a.72.72,0,0,0,.7-.32c.27-.42-.29-.61-.7-.44"/><path class="cls-1" d="M74.46,96.89s-.88,1,0,1.09.45-.72.45-.72-.33-.59-.48-.37"/><path class="cls-1" d="M74.49,95.17a.54.54,0,0,0-.89.08s-.59,1,.12.93,1.21-.66.77-1"/><path class="cls-1" d="M77.87,95c-.12-.35-.24-.48-.56-.32,0,0-.71.49-.27.65s.95,0,.83-.33"/><path class="cls-1" d="M67.59,92.74s-.24.44.3.49.56-.27.53-.43a.53.53,0,0,0-.83-.06"/><path class="cls-1" d="M68.42,89.58s-.15.63.41.79.39-.35.33-.49-.77-.63-.74-.3"/><path class="cls-1" d="M71.32,90.86s-.5.49-.18.6,1-.44.18-.6"/><path class="cls-1" d="M73.46,89.52c.47.06.79-.46.12-.57,0,0-.6.52-.12.57"/><path class="cls-1" d="M70.82,89.36s-.65.06-.29.39.5.32.65-.09,0-.38-.36-.3"/><path class="cls-1" d="M71.94,87.26a.54.54,0,0,0,.24.63c.39.22.39,0,.42-.22s-.66-.74-.66-.41"/><path class="cls-1" d="M71.21,86.33a.71.71,0,0,0,.59-.08c.26-.19-.68-.41-.59.08"/><path class="cls-1" d="M76.54,83.85c.29-.25-.36-.51-.54-.16,0,0,.24.41.54.16"/><path class="cls-1" d="M93.72,97.37c.7-.18,1.16-1.27-.06-1,0,0-.57.52-.57.67s-.06.5.63.31"/><path class="cls-1" d="M89.29,95.64s-.21.65.07.62.89-.22.52-.53-.49-.26-.59-.09"/><path class="cls-1" d="M87.21,94.78s-.61.22-.63.43,0,.63.55.28.92-1.06.08-.71"/><path class="cls-1" d="M84.87,94s-.73.19-.51.45.8.72.94.23,0-.9-.43-.68"/><path class="cls-1" d="M90,93.14s-.57.23-.47.43a.44.44,0,0,0,.71.16c.29-.29.31-.81-.24-.59"/><path class="cls-1" d="M91.75,95.3c.45-.11,1.08-1.15.12-1a1,1,0,0,0-.51.44c-.16.34-.06.66.39.55"/><path class="cls-1" d="M81.1,86.79s0,.67.52.54a.36.36,0,0,0,.28-.54s-1-.52-.8,0"/><path class="cls-1" d="M81,89.89c-.45-.21-.47-.27-.61-.1,0,0-.39.65,0,.67s1-.35.57-.57"/><path class="cls-1" d="M83.06,87.94c.07-.29-1.54.35-.9.61,0,0,.52.24.78.1s0-.43.12-.71"/><path class="cls-1" d="M84.57,85.09c.43,0,.4-.39.26-.6s-.85-.25-.81.19a.58.58,0,0,0,.55.41"/><path class="cls-1" d="M84.76,86.31c.92.5.61-.87.16-.63,0,0-.58.41-.16.63"/><path class="cls-1" d="M86.2,85.29c1,0,.45-.92.07-.74a3.11,3.11,0,0,0-.49.41c0,.09-.37.33.42.33"/><path class="cls-1" d="M85.07,87.81c0,.19.23.3.63.19s.4-.6-.09-.49c0,0-.52.1-.54.3"/><path class="cls-1" d="M87.28,87.24c.22-.06.15-.45.17-.73s-.12-.42-.47-.18a.3.3,0,0,0-.22.33c0,.28.31.65.52.58"/><path class="cls-1" d="M95.58,82.61c.32-.28.58-.78,0-.85a.39.39,0,0,0-.4.42c0,.41.12.72.45.43"/><path class="cls-1" d="M96.59,83a1.82,1.82,0,0,0,.73.15c.28-.05.15-.46-.07-.57s-1,.35-.66.42"/><path class="cls-1" d="M98.24,81.33c.73.13.88-.7.55-.63,0,0-1.28.5-.55.63"/><path class="cls-1" d="M96.73,81.14c.38,0,.64-.14.4-.31s-.59-.52-.59-.33c0,0-.18.66.19.64"/><path class="cls-1" d="M94.15,38c-.06-.72-.23-.88-.29-.8s-.17,2,0,2,.31-.51.26-1.21"/><path class="cls-1" d="M83.78,42.35c-.43,0-.58-.55-.6-1s-.41-.63-.61-.13c0,0,.09,1.66,1,1.6,1.08-.07,1.37-.57.94-1.89a.38.38,0,0,0-.57-.11c-.34.27.32,1.43-.11,1.48"/><path class="cls-1" d="M85.12,40.54s-.18,1.81.67,1.84c1.08,0,1.43-.46,1.21-1.93a.35.35,0,0,0-.54-.18c-.38.25.09,1.57-.34,1.58s-.47-.67-.44-1.1-.29-.72-.56-.21"/><path class="cls-1" d="M87.66,40s-.19,1.86.6,1.89c1,0,1.33-.5,1.15-2,0,0-.15-.44-.5-.19s.06,1.62-.34,1.63-.43-.67-.39-1.12-.26-.74-.52-.21"/><path class="cls-1" d="M90.06,39l0,1.61s-.14,1.07,1.12,1.1.94-1.47.94-2.1S92,38,91.69,38.06s-.4.39-.37,1.08.17,1.5-.23,1.47-.37-.52-.37-1.21-.57-1.18-.66-.42"/><path class="cls-1" d="M93.46,37.4s-.74-.6-.74.32-.28,3.55,1.37,3.63,1.4-1.9,1.4-3.13.26-2.55-.28-2.21-.6.7-.66,1.6.2,2.35-.29,2.42-.81-.08-.74-1.39a2.93,2.93,0,0,0-.06-1.24"/><path class="cls-1" d="M97.12,38.32c-.09-1.44,0-2.5-.31-2.5,0,0-.58,0-.61.69s-.34,3.63.72,4.08,2.51.18,2.54-.9,0-3.47,0-4.1-.68-1-.82-.05.42,4.36-.46,4.31-1-.08-1.09-1.53"/><path class="cls-1" d="M97.78,36.06s-.32,2.58.08,2.74.2-1.77.23-2.35-.26-.86-.31-.39"/><path class="cls-1" d="M93.64,76.65c.69.07,2.84-4.39,3.37-7.26a16,16,0,0,1,1.33-4.84,35.38,35.38,0,0,0,1.45-9.2,53.17,53.17,0,0,0,0-5.47c-.15-.41-.32-.56-.8-.23S97.9,49.8,98,51s.17,8.6-.28,9.79-.89,3-1.25,4.24-.81,2.61-.53.08.85-2.61.89-4.14.45-3.34.37-5.55.12-5,.12-5S96.07,49,96,50.29s.09,8.27,0,9.19a15.26,15.26,0,0,0-.32,3.28c.12.93-.36,1.24-.45,2.76s-.52,7.3-1.33,8.86-.93,2.2-.25,2.27"/><path class="cls-1" d="M92.55,69.69c.53-.3,2.6-4.8,2.72-11.66s.4-7.59.08-8.12-1-.66-.9.75S94.17,61.94,93.64,62c-.44.34.37-8.43.17-11.81l0-.08s-.65-1.6-.69-.38-.08,6.65-.25,7.06a12.09,12.09,0,0,0-.6,4.35,36,36,0,0,1,.12,6.9c-.24,1.07-.32,2,.2,1.67"/><path class="cls-1" d="M92.07,54.27a47.19,47.19,0,0,0,.41-5.09s-.88-.26-1,.63c0,.52-.06,2.83-.18,3.6s-.12,4.17-.65,4.14-.24-1.68-.08-3.13.73-2.92.33-5c0,0-.74-.74-.78-.07s.09,2.43-.16,2.73a4.5,4.5,0,0,0-.4,2.35c0,1.08.24,2.83-.2,3.5s-.28,1.53-.45,2.42a11.2,11.2,0,0,1-1.25,4.17c-.85,1.27,1,1.6,2.79-3.16s1.46-5.62,1.58-7.08"/><path class="cls-1" d="M87.22,49.4c0,.74-.09,5.54-.49,6.36s-.52,2.5-.77,2.94-1.18,2.57-1.62,3.24-.36,1.49.44.94a11.88,11.88,0,0,0,3.69-6.15c.36-2.61.81-4.28.93-5s.35-2.6.11-2.75-.73-.3-.73.41a19.67,19.67,0,0,1-.64,4.35c-.4,1.19-.44,1.64-.48.15s.3-4.42.09-5.13c0,0-.53-.12-.53.63"/><path class="cls-1" d="M84.55,48.61a25.33,25.33,0,0,0-.09,2.76c0,2.6-1.45,5.21-2.26,6.85s.28,1.19.93.67a16.48,16.48,0,0,0,2.47-3.65c.6-1.16,1.18-6.55,1.18-6.55a.59.59,0,0,0-.86,0c-.2.3-.44.41-.6.08s-.77-.12-.77-.12"/><path class="cls-1" d="M83.49,53.68A28.38,28.38,0,0,0,84,48.79c0-.63-.32-1-.4.08s-.46.62-.66-.35-.59,1.88-.42,2.84-.9,3.58-1.31,5.25,1.94-2,2.3-2.93"/><path class="cls-1" d="M84,44.11c-.16,1.28.07,1.79-.39,1.65s0-2.1-.36-2.1-.3.76-.37,1.31S82.7,47,83.56,47c1.44,0,1.11-2.51,1.11-3s-.52-1.21-.69.06"/><path class="cls-1" d="M86.88,43.3c-.36,0-.53.09-.49.81s.13,1.46-.27,1.38-.26-.92-.23-1.59-.26-.63-.26-.63-.37-.1-.37.61-.16,3,.63,3.09,1.22-.58,1.29-2.12.06-1.55-.3-1.55"/><path class="cls-1" d="M88.53,47.48c1.34.12,1.08-2.09,1.12-2.63S89.81,43,89.48,43s-.3.33-.3.93-.06,2-.46,2.06-.49-.69-.39-1.72.1-1.18-.1-1.21c0,0-.49,0-.49.82s-.56,3.48.79,3.6"/><path class="cls-1" d="M92.34,42.78c-.39-.09-.66,0-.66.73s.11,3-.36,3-.59-.64-.59-1.79.33-1.82.1-1.87c0,0-.66-.34-.69.78s-.23,4.15.76,4.31,1.61-1,1.51-2.4.33-2.64-.07-2.73"/><path class="cls-1" d="M93.66,42.51s-.53-.06-.59.85.06,2.61.06,3.42.1,1.55,1,1.64,1.48-1.18,1.48-2.55.36-3.48-.2-3.57-.43.39-.39.91,0,3.87-.66,3.79-.76-1.51-.56-3c.23-1.73-.1-1.49-.1-1.49"/><path class="cls-1" d="M94.32,43.06s-.23-.15-.23.73-.23,2.33.13,2.35.1-.78.23-1.57.13-1.51-.13-1.51"/><path class="cls-1" d="M99.65,41.87c-.49-.06-.69-.15-.72.82s-.1,3.88-.1,3.88.1,1.15-.76,1.15-.85-.48-.85-1.54.29-3.88-.43-4c0,0-.57,0-.6.94s0,3.7,0,4.18a1.8,1.8,0,0,0,1.65,1.82c1.42.18,1.85-1.7,1.88-3.55s.4-3.67-.1-3.73"/><path class="cls-1" d="M98.07,42.87s-.36-.12-.39.7-.2,3.34.13,3.34.38-.15.36-.85c-.07-2,.2-3.15-.1-3.19"/><path class="cls-1" d="M81.05,19.66,81.3,18l.46.06.06-.42-.46-.05.26-1.7.23,0c.29,0,.38.14.34.39l-.47,3.07c0,.25-.14.33-.44.29Zm1.12-.24.45-3c.07-.44,0-.74-.63-.82l-.76-.1L80.55,20l.75.1c.61.07.8-.19.87-.63"/><path class="cls-1" d="M43.93,39.17a.43.43,0,1,1,0,.85h-.86v-.85Zm-.2,2.46s-.66,0-.66-.56V40.5h1.28a.83.83,0,1,0,0-1.64H42v.41s.36-.09.36.33v1.71a.43.43,0,0,1-.42.3v.31h1.82Z"/><path class="cls-1" d="M38.21,58.83a.43.43,0,0,1,.46-.42.45.45,0,0,1,.47.42v.8h-.93Zm.47,1.5h1.86a.41.41,0,0,1,.32.38h.34V59l-.32,0a.55.55,0,0,1-.61.61h-.61V58.44a.9.9,0,0,0-1.79,0v2.22h.45s-.1-.33.36-.33"/><path class="cls-1" d="M69.45,75.37a.49.49,0,0,1-.65.1.41.41,0,0,1-.11-.6l.5-.63c.28.19.56.37.75.51Zm-2-.59a.42.42,0,0,1-.09-.63l.49-.64a.64.64,0,0,1,.37.12l.5.33-.58.73a.52.52,0,0,1-.69.09m3.08-1a.33.33,0,0,1-.53.1l-1.5-1a.42.42,0,0,1,0-.53l-.27-.18L67.1,73.66l-.42.53a.88.88,0,0,0,.14,1.31,1,1,0,0,0,1,0,.76.76,0,0,0,.35.59,1,1,0,0,0,1.3-.25l.74-1,.12-.14.2-.27.41-.51Z"/><path class="cls-1" d="M48.31,41.56c-.31,0-.76-.56-.76-1.13s.45-1.13.76-1.13.77.56.77,1.13-.45,1.13-.77,1.13m0-2.73a1.62,1.62,0,1,0,1.87,1.6,1.76,1.76,0,0,0-1.87-1.6"/><path class="cls-1" d="M53.6,39.17a.43.43,0,1,1,0,.85h-.87v-.85Zm-.21,2.46s-.66,0-.66-.56V40.5h.56l1,1.42a1.22,1.22,0,0,0,1.08-.36l-.15-.21s-.42.26-.61-.06-.39-.61-.51-.79A.83.83,0,1,0,54,38.86h-2.4v.41s.36-.09.36.33v1.71a.43.43,0,0,1-.42.3v.31h1.82Z"/><path class="cls-1" d="M38.17,52.83a.47.47,0,0,1,.93,0v.81h-.93Zm.48,1.51H40.5a.39.39,0,0,1,.32.38h.35V53h-.33a.55.55,0,0,1-.61.61h-.61v-.52l1.55-.88a1,1,0,0,0-.41-1l-.22.14s.28.38-.06.56l-.86.47a.89.89,0,0,0-1.78,0v2.22h.44s-.09-.33.37-.33"/><path class="cls-1" d="M54.84,82.7a.46.46,0,0,1,.56-.3l.84.22c-.1.31-.19.62-.26.82l-.84-.21a.42.42,0,0,1-.3-.53m1.24-1.79s.65.12.47.7c0,.14-.1.33-.17.55L55.83,82l-.49-1.6a1.26,1.26,0,0,0-1.15.08l.08.24s.48-.15.57.2.2.7.26.89a1,1,0,0,0-1.13.56.85.85,0,0,0,.68,1l1.71.45L57,84l.13-.39s-.38,0-.25-.42.51-1.64.51-1.64a.43.43,0,0,1,.49-.18l.1-.3-1.76-.46Z"/><path class="cls-1" d="M75.87,44.42a.46.46,0,0,1-.92,0v-.8h.92Zm-.11-1.83s.1.33-.36.33H73.54a.41.41,0,0,1-.32-.39h-.34v1.68l.32,0a.56.56,0,0,1,.61-.61h.61v.52L72.88,45a1,1,0,0,0,.4,1l.23-.14s-.29-.38.06-.56l.85-.46a.89.89,0,0,0,1.78-.05V42.59Z"/><polygon class="cls-1" points="62.35 41.67 61.89 41.67 63.13 39.98 64.93 41.91 66.5 40.37 67.46 41.67 66.87 41.67 66.87 41.93 69.16 41.93 69.16 41.67 68.86 41.67 67.32 39.57 67.34 39.56 67.34 38.92 66.59 38.92 66.59 39.38 65.32 40.63 63.83 38.92 62.2 38.92 62.2 39.42 62.62 39.42 62.63 39.43 60.98 41.67 60.65 41.67 60.65 41.93 62.35 41.93 62.35 41.67"/><polygon class="cls-1" points="72.07 41.46 71.8 41.46 71.8 39.41 72.07 39.41 72.07 38.94 70.52 38.94 70.52 39.41 70.78 39.41 70.78 41.46 70.52 41.46 70.52 41.93 72.07 41.93 72.07 41.46"/><polygon class="cls-1" points="38.38 50.35 40.6 50.35 40.6 50.59 41.11 50.59 41.11 49.17 40.6 49.17 40.6 49.41 38.38 49.41 38.38 49.17 37.87 49.17 37.87 50.59 38.38 50.59 38.38 50.35"/><polygon class="cls-1" points="38.37 44.59 41.23 42.91 38.37 40.87 38.37 40.31 37.9 40.31 37.9 41.8 38.37 41.8 38.37 41.37 39.96 42.51 38.37 43.45 38.37 43.34 37.9 43.34 37.9 45.02 38.37 45.02 38.37 44.59"/><polygon class="cls-1" points="38.19 48.49 38.86 48.49 38.86 48.22 38.53 48.22 38.53 47.38 40.63 47.38 40.63 47.91 41.11 47.91 41.11 45.88 40.63 45.88 40.63 46.41 38.53 46.41 38.53 45.57 38.86 45.57 38.86 45.3 38.53 45.3 37.87 45.3 37.87 48.49 38.19 48.49"/><polygon class="cls-1" points="38.38 56.9 40.6 56.9 40.6 57.14 41.11 57.14 41.11 55.71 40.6 55.71 40.6 55.95 38.38 55.95 38.38 55.71 37.87 55.71 37.87 57.14 38.38 57.14 38.38 56.9"/><path class="cls-1" d="M67.27,77.49s-.17-.08-.22-.14L65.68,76q-.08-.08-.06-.12a2.73,2.73,0,0,1,.27-.25l-.28-.28-2.47,2.15.41.76.3-.26c-.07-.12,0-.44,0-.46a.21.21,0,0,1,.09-.16l1-.88,1.44,1.4c0,.06.16.18.15.2a5.21,5.21,0,0,1-.55.51l.31.29,1.56-1.35-.3-.29a1.88,1.88,0,0,1-.29.22"/><path class="cls-1" d="M44.07,73.83l1.68-1c.06,0,.11,0,.14,0a1.52,1.52,0,0,1,.22.29l.34-.21-1.81-2.64-.9.22.23.33a1.37,1.37,0,0,1,.49.08.21.21,0,0,1,.16.11l.74,1.09-1.77,1a1.24,1.24,0,0,1-.24.1,6.3,6.3,0,0,1-.44-.59l-.37.22,1.14,1.67.38-.22a1.58,1.58,0,0,1-.19-.3s.13-.13.2-.18"/><path class="cls-1" d="M45.85,73.72l.3.34.27-.1a.33.33,0,0,1,.14,0s.24.18.28.23l.61.7-.85.63-.8-.92-.36.27.8.92-.67.49-.68-.79,0,0a.15.15,0,0,1,0-.11s0,0,.06-.09l.16-.2-.29-.33-.55.67,1.82,2.08.3-.23c-.08-.08-.12-.14-.14-.16s-.06-.09,0-.11,0,0,.08-.09l1.69-1.26c.07,0,.11-.06.14,0a2.12,2.12,0,0,1,.23.23l.3-.23-1.9-2.17Z"/><path class="cls-1" d="M40.49,67.68,42.57,67c.07,0,.12,0,.14,0a1.85,1.85,0,0,1,.13.29l.37-.11-1-2.64-1,.06.15.42h.45c.05,0,.15.24.17.3l.31.85-1,.31-.41-1.1-.44.13.41,1.12-.81.25-.36-1a.2.2,0,0,0,0,0,.14.14,0,0,1,.05-.11l.09-.06.23-.14-.15-.4-.77.45.92,2.54.37-.12a.82.82,0,0,1-.07-.21c0-.06,0-.09,0-.11a.27.27,0,0,1,.11-.06"/><path class="cls-1" d="M39.46,64.48c.4,0,.68-.38.86-1,0-.21.1-.42.14-.62a2.21,2.21,0,0,1,.2-.56.37.37,0,0,1,.26-.12.22.22,0,0,1,.22.13.77.77,0,0,1,.11.37,1.78,1.78,0,0,1,0,.68,1.64,1.64,0,0,1-.66.45l.22.55A5.51,5.51,0,0,1,41.7,64a3.77,3.77,0,0,0,.08-1.19,2,2,0,0,0-.47-1.26.89.89,0,0,0-.78-.4.75.75,0,0,0-.58.33,3,3,0,0,0-.3.82c0,.07,0,.2-.15.61a2.13,2.13,0,0,1-.18.56.16.16,0,0,1-.11.09c-.13,0-.31-.13-.34-.44a5,5,0,0,1,0-1.08,1.63,1.63,0,0,1,.61-.32l-.17-.47c-.37.14-.67.23-.91.3a3.42,3.42,0,0,0-.07,1.15A3.09,3.09,0,0,0,38.68,64a.85.85,0,0,0,.78.5"/><path class="cls-1" d="M75.27,51.88c.17,0,.08.06.1.07l.17.08a.54.54,0,0,1,0,.18v1.12l-2.35-1.91s-.33-.38-.33.25v3l.9.25V54.3c-.26-.07-.17-.13-.22-.17a.34.34,0,0,1-.08-.25V53l2.37,1.87s.32.21.32-.28v-3l-.91-.23Z"/><path class="cls-1" d="M74.47,47.88l.73.34-.73.38Zm-1-1.31s0-.13,0-.28h-.56v1.26h.56v-.27l.56.27v1.33l-.57.29v-.54h-.56v2h.56a1.48,1.48,0,0,1,0-.29.29.29,0,0,1,.14-.12l2.59-1.43V48l-2.65-1.3a.18.18,0,0,1-.09-.08"/><path class="cls-1" d="M74.44,57l.72.33-.72.39Zm-1-1.32a1.5,1.5,0,0,1,0-.27h-.57v1.25h.57V56.4h0l.55.26V58l-.56.28s0-.51,0-.53h-.57v2h.57a.87.87,0,0,1,0-.28s.06-.08.14-.13l2.58-1.42v-.87l-2.64-1.3a.13.13,0,0,1-.09-.09"/><path class="cls-1" d="M61.23,80.56l.66-.38.08.74Zm1.58-2-.31-.43-1.14.66.29.45.24-.14h0l.05.58-1.22.71-.57-.29.5-.28-.3-.44-1.87,1.08.3.44.28-.14a.48.48,0,0,1,.19,0L62,82l.8-.47-.22-2.75a.16.16,0,0,1,0-.11s.11-.07.25-.16"/><path class="cls-1" d="M51.1,80.38l.07-.77.65.42ZM53,79l-.33.42.22.15s0,0,0,0l-.56.26-1.17-.77c0-.49.07-.6.07-.6l.47.32.33-.42-1.79-1.18-.33.42a1.51,1.51,0,0,1,.24.18.39.39,0,0,1,0,.18L50,80.78l.77.5,2.69-1.22a.21.21,0,0,1,.13,0l.24.15.33-.42Z"/><path class="cls-1" d="M72,70.22l-.83.09.32-.67Zm-.85-2.16a1.17,1.17,0,0,1,.1-.25l-.51-.21-.55,1.14.51.21c.07-.13.1-.21.11-.23h0l.4.45-.58,1.22-.65.05s.23-.47.24-.48l-.51-.22-.9,1.86.52.21a1.21,1.21,0,0,1,.14-.26.41.41,0,0,1,.19-.06l3-.33.38-.8-1.84-2.18a.11.11,0,0,1,0-.11"/><path class="cls-1" d="M75,63.76c0,.06,0,.09-.06.1a1.49,1.49,0,0,1-.25,0l-1.94-.48c-.08,0-.12,0-.12-.07a.93.93,0,0,1,.07-.32l-.4-.09-.44,1.51.4.1a.87.87,0,0,1,.07-.19c0-.05,0-.08,0-.08s0,0,.12,0l.81.2-.37,1.32-.82-.2c-.07,0-.11,0-.11-.06s0-.11.05-.27l-.4-.09-.43,1.5.4.1.06-.21a.48.48,0,0,1,.06-.11l.13,0,1.94.47c.08,0,.24.07.24.1a1.14,1.14,0,0,1-.07.31l.44.11.43-1.51-.43-.11c0,.11,0,.16-.06.19a.21.21,0,0,1,0,.08A1.29,1.29,0,0,1,74,66l-.65-.17.38-1.32.65.16c.08,0,.23.06.24.09a1.73,1.73,0,0,1-.06.26l.43.11.44-1.51-.44-.1-.06.21"/><path class="cls-1" d="M127.55,41.31h-.65a3.25,3.25,0,0,0-.7-2,4.88,4.88,0,0,0-2.57-.4h-4.2v7.84c0,.69.17,1.11.5,1.26a3.44,3.44,0,0,0,1.37.22h2.62c1.08,0,2,0,2.75-.08a4.29,4.29,0,0,0,1.9-.55,3.65,3.65,0,0,0,1.31-1.47,12.65,12.65,0,0,0,1-2.78h.64l-.64,5.81H114.15V48.4a9.05,9.05,0,0,0,2.37-.22c.5-.15.75-.63.75-1.43v-16c0-.81-.25-1.28-.75-1.43a9.05,9.05,0,0,0-2.37-.22v-.8H130l.07,5.06h-.57c-.27-2-.83-3.15-1.71-3.54a12.27,12.27,0,0,0-4.54-.59h-3.81V38h4.2a4.74,4.74,0,0,0,2.57-.41,3.35,3.35,0,0,0,.7-2h.65Z"/><path class="cls-1" d="M160.31,49.54,145.62,31.37V46.61c0,.85.28,1.36.86,1.53a8.77,8.77,0,0,0,2.4.26v.79H141.2V48.4a8.43,8.43,0,0,0,2.37-.26c.55-.17.82-.68.82-1.53V30a2.83,2.83,0,0,0-1.42-.77,12.74,12.74,0,0,0-2-.12v-.8h4.85l13.68,16.93V30.92c0-.84-.29-1.35-.86-1.53a9,9,0,0,0-2.41-.25v-.8h7.69v.8a8.49,8.49,0,0,0-2.37.25c-.55.18-.83.69-.83,1.53V49.54Z"/><path class="cls-1" d="M186.42,41.31h-.65a3.18,3.18,0,0,0-.7-2,4.88,4.88,0,0,0-2.57-.4h-4.2v7.84c0,.69.17,1.11.5,1.26a3.47,3.47,0,0,0,1.37.22h2.62c1.08,0,2,0,2.75-.08a4.29,4.29,0,0,0,1.9-.55,3.67,3.67,0,0,0,1.32-1.47,13.24,13.24,0,0,0,1-2.78h.65l-.65,5.81H173V48.4a9.05,9.05,0,0,0,2.37-.22c.5-.15.76-.63.76-1.43v-16c0-.81-.26-1.28-.76-1.43a9.05,9.05,0,0,0-2.37-.22v-.8h15.84l.07,5.06h-.57q-.39-3-1.71-3.54a12.27,12.27,0,0,0-4.54-.59H178.3V38h4.2a4.74,4.74,0,0,0,2.57-.41,3.28,3.28,0,0,0,.7-2h.65Z"/><path class="cls-1" d="M210.9,47.47a3.83,3.83,0,0,0,1.31-3.1,3.4,3.4,0,0,0-.72-2.2,8.65,8.65,0,0,0-2.73-1.92L205,38.39A9,9,0,0,1,202,36.14a4.49,4.49,0,0,1-.88-2.77,4.83,4.83,0,0,1,1.8-3.82A6.59,6.59,0,0,1,207.32,28a7,7,0,0,1,1.51.16,9.61,9.61,0,0,1,1.83.6c.34.14.57.22.69.26a1.32,1.32,0,0,0,.32.05.67.67,0,0,0,.47-.16,1.55,1.55,0,0,0,.36-.6h.43l.28,6.05-.64.07a6.74,6.74,0,0,0-1.76-4A4.91,4.91,0,0,0,207.14,29a4.4,4.4,0,0,0-3,1.09,3.4,3.4,0,0,0-1.22,2.63,3.46,3.46,0,0,0,.65,2.11,9.34,9.34,0,0,0,3.09,2.12l3.23,1.58a9.71,9.71,0,0,1,3.27,2.36,4.41,4.41,0,0,1,1,2.84,5.26,5.26,0,0,1-2,4.16,7.12,7.12,0,0,1-4.8,1.68,8.42,8.42,0,0,1-1.74-.18,12,12,0,0,1-2.06-.74,6.27,6.27,0,0,0-.72-.31,1.13,1.13,0,0,0-.36-.07.65.65,0,0,0-.49.26,1.91,1.91,0,0,0-.37.77h-.51l-.46-6.71.71,0a8.33,8.33,0,0,0,2.18,4.42,5.22,5.22,0,0,0,3.82,1.63,5.43,5.43,0,0,0,3.58-1.1"/><path class="cls-1" d="M114.41,71.43a.74.74,0,0,1,.58-.36c.4,0,.7.43.89,1.3s.4,1.3.62,1.3.4-.17.49-.53a8.7,8.7,0,0,0,.14-1.87V57.08a4.7,4.7,0,0,0-.33-2.23,1.72,1.72,0,0,0-1.35-.58v-.59h5.19v.59a1.64,1.64,0,0,0-1.36.65,4.86,4.86,0,0,0-.32,2.16V68.6a9.74,9.74,0,0,1-.87,4.68,2.51,2.51,0,0,1-2.16,1.53,1.51,1.51,0,0,1-1.32-.68,2.59,2.59,0,0,1-.47-1.5,2,2,0,0,1,.27-1.2"/><path class="cls-1" d="M126.35,53.68v.59a1.79,1.79,0,0,0-1.35.6,5,5,0,0,0-.31,2.21v10a14.78,14.78,0,0,0,.39,3.84c.49,1.68,1.4,2.52,2.74,2.52s2.47-.86,3-2.58a17.17,17.17,0,0,0,.42-4.44V58.29a8.82,8.82,0,0,0-.35-3.21,1.74,1.74,0,0,0-1.34-.81v-.59h4.18v.59a1.71,1.71,0,0,0-1.37.88,9,9,0,0,0-.33,3.14v8.17a17.76,17.76,0,0,1-.57,5.07c-.7,2.24-2.05,3.35-4,3.35s-3.28-1.1-4-3.3a15.8,15.8,0,0,1-.57-4.69V57.08a5,5,0,0,0-.3-2.19,1.76,1.76,0,0,0-1.33-.62v-.59Z"/><path class="cls-1" d="M140.4,63c1-.68,1.44-2,1.44-3.85s-.43-3.05-1.29-3.72a2.94,2.94,0,0,0-1.82-.53c-.52,0-.83.06-.94.19a1.47,1.47,0,0,0-.17.89v7.73A5.76,5.76,0,0,0,140.4,63m-6.17,10.88a1.61,1.61,0,0,0,1.29-.7,7.3,7.3,0,0,0,.26-2.49V57.08a5.19,5.19,0,0,0-.29-2.16,1.59,1.59,0,0,0-1.26-.65v-.59h5a4.62,4.62,0,0,1,2.6.69c1.32.87,2,2.46,2,4.79a6.24,6.24,0,0,1-.87,3.59,4.12,4.12,0,0,1-2.39,1.66l3.72,8a3.58,3.58,0,0,0,.69,1.06,1.56,1.56,0,0,0,.88.43v.58h-2.91l-4.51-9.67-.79.08V71a4.83,4.83,0,0,0,.3,2.21,1.83,1.83,0,0,0,1.33.62v.58h-5Z"/><path class="cls-1" d="M146.36,73.86a2.08,2.08,0,0,0,1.43-.57,4.57,4.57,0,0,0,.33-2.25v-14a4.7,4.7,0,0,0-.33-2.22,1.78,1.78,0,0,0-1.43-.59v-.59h5.35v.59a1.78,1.78,0,0,0-1.43.59,4.7,4.7,0,0,0-.33,2.22V71a4.57,4.57,0,0,0,.33,2.25,2.08,2.08,0,0,0,1.43.57v.58h-5.35Z"/><path class="cls-1" d="M155.79,71.38c.75,1.58,1.67,2.37,2.75,2.37s2-.77,2.74-2.3,1.13-4,1.13-7.38-.38-5.89-1.15-7.42-1.67-2.28-2.72-2.28-2,.79-2.74,2.37-1.13,4-1.13,7.33.37,5.74,1.12,7.31M154.44,56q1.67-2.77,4.1-2.77T162.62,56a15.51,15.51,0,0,1,1.84,8.09,17.47,17.47,0,0,1-1.17,6.79,6.18,6.18,0,0,1-3.6,3.76,8.69,8.69,0,0,0,2.64,3.88,6,6,0,0,0,2.36,1V80H164a7.71,7.71,0,0,1-2.6-.41,6.39,6.39,0,0,1-2.06-1.26,8.55,8.55,0,0,1-1.71-2.3,15.87,15.87,0,0,0-.88-1.54l-.23-.19a8.85,8.85,0,0,1-2.32-2.75,16,16,0,0,1-1.53-7.51A15.59,15.59,0,0,1,154.44,56"/><path class="cls-1" d="M170.5,53.68v.59a1.79,1.79,0,0,0-1.35.6,4.84,4.84,0,0,0-.31,2.21v10a14.78,14.78,0,0,0,.39,3.84c.48,1.68,1.39,2.52,2.74,2.52s2.47-.86,3-2.58a16.64,16.64,0,0,0,.43-4.44V58.29a8.52,8.52,0,0,0-.36-3.21,1.73,1.73,0,0,0-1.34-.81v-.59h4.18v.59a1.73,1.73,0,0,0-1.37.88,9.38,9.38,0,0,0-.32,3.14v8.17a17.76,17.76,0,0,1-.57,5.07c-.71,2.24-2.05,3.35-4,3.35s-3.29-1.1-4-3.3a15.8,15.8,0,0,1-.57-4.69V57.08a4.76,4.76,0,0,0-.31-2.19,1.72,1.72,0,0,0-1.32-.62v-.59Z"/><path class="cls-1" d="M178.46,73.86a2.08,2.08,0,0,0,1.43-.57,4.57,4.57,0,0,0,.33-2.25v-14a4.7,4.7,0,0,0-.33-2.22,1.78,1.78,0,0,0-1.43-.59v-.59h5.35v.59a1.78,1.78,0,0,0-1.43.59,4.7,4.7,0,0,0-.33,2.22V71a4.57,4.57,0,0,0,.33,2.25,2.08,2.08,0,0,0,1.43.57v.58h-5.35Z"/><path class="cls-1" d="M184.39,73.86a2,2,0,0,0,1.29-.62A4.8,4.8,0,0,0,186,71v-14a5.27,5.27,0,0,0-.29-2.18,1.63,1.63,0,0,0-1.3-.63v-.59h5.1v.59a1.79,1.79,0,0,0-1.34.56,4,4,0,0,0-.34,2V71.94a2.57,2.57,0,0,0,.1.82.57.57,0,0,0,.45.38,2.79,2.79,0,0,0,.43.06h.84a5.46,5.46,0,0,0,3.26-.69c.56-.45,1.11-1.63,1.64-3.52H195l-.88,5.44h-9.72Z"/><path class="cls-1" d="M195.42,73.86a1.9,1.9,0,0,0,1.29-.62A4.8,4.8,0,0,0,197,71v-14a5.27,5.27,0,0,0-.29-2.18,1.63,1.63,0,0,0-1.3-.63v-.59h5.1v.59a1.79,1.79,0,0,0-1.34.56,4,4,0,0,0-.34,2V71.94a2.89,2.89,0,0,0,.1.82.57.57,0,0,0,.45.38,2.79,2.79,0,0,0,.43.06h.84a5.46,5.46,0,0,0,3.26-.69c.56-.45,1.11-1.63,1.64-3.52H206l-.88,5.44h-9.72Z"/><path class="cls-1" d="M214.29,66.38l-2.07-8.64-2.07,8.64Zm-7.77,8.06v-.58a1.45,1.45,0,0,0,1-.91,36.56,36.56,0,0,0,1.2-4.24l3.76-15.39h.36l4.5,17.78a9.75,9.75,0,0,0,.72,2.19,1.39,1.39,0,0,0,.9.57v.58h-4.59v-.58a2.46,2.46,0,0,0,1-.3c.15-.12.23-.4.23-.86a6.35,6.35,0,0,0-.09-.81c-.06-.38-.14-.79-.25-1.22l-.72-3h-4.76c-.47,2.06-.75,3.31-.84,3.76a5.89,5.89,0,0,0-.14,1.08,1.37,1.37,0,0,0,.37,1.09,1.78,1.78,0,0,0,.86.28v.58Z"/></svg>