<svg id="Capa_1" data-name="Capa 1" xmlns="http://www.w3.org/2000/svg" viewBox="0 0 212 118"><defs><style>.cls-1{fill:#1a1f43;}.cls-2{fill:#fff;}</style></defs><title>enes-merida</title><path class="cls-1" d="M62.63,47.84v-17a.09.09,0,0,0-.1-.1H28.72a.09.09,0,0,0-.1.1v17l0,0a29.35,29.35,0,0,0,5,16,21.65,21.65,0,0,0,12,8.82,0,0,0,0,0,0,0,21.6,21.6,0,0,0,11.94-8.82,29.34,29.34,0,0,0,5-16l0,0m-.69-.11a.34.34,0,0,0,0,.09c-.28,11.65-7,21.6-16.31,24.21-9.32-2.61-16-12.56-16.3-24.21,0,0,0,0,0-.09V31.45H61.94Z"/><path class="cls-1" d="M45.59,68a.09.09,0,0,0,.07,0c7.23-2.62,12.44-11,12.66-20.32a1.16,1.16,0,0,0,0-.17V35.22a.09.09,0,0,0-.09-.09H33a.09.09,0,0,0-.1.09V47.53s0,.11,0,.18c.23,9.35,5.44,17.7,12.67,20.32m0-.7c-6.85-2.61-11.78-10.68-12-19.63a.84.84,0,0,0,0-.19s0-9.42,0-11.43a3.54,3.54,0,0,0,.21.4c.2.28.63,1.07.63,1.07s0,.36-.1.41.2.25.29.39.34.56.53.6.25-.18.1-.42-.41-.83-.41-.83a3.37,3.37,0,0,0-.22-.66c-.14-.33-.28-.75-.28-.75s.8.2.89.62a17,17,0,0,0,.55,1.9,4.42,4.42,0,0,0,.63,1,3.07,3.07,0,0,0,1.49,1c.68.19,1.45-.23,1.79,0a7,7,0,0,0,1.4,1c.44.14,1.59.37,1.83.84s.82.51,1.11.56,1.26.42,1.26,1.26L44.54,46a2.72,2.72,0,0,0-.68,1.16c-.1.56-.39.89.19,1.73a5.78,5.78,0,0,1,1,2.61c0,.75.77.85,1.25,1.17s0,.65-.29,1.36-.14,2.14-.43,3.08-.63,1.26-.63,2a5.51,5.51,0,0,1-.24,2.2,5.14,5.14,0,0,0-.14,2,3.21,3.21,0,0,0,.62,2.15c.48.61,1.59.89,1.45,0a3.53,3.53,0,0,1,.62-2.76l.59-.6s-.1-.9.47-1.27,1-.66.63-.79,0-.47.34-.47.48.14,1.26-.75a5,5,0,0,1,1.78-1.49c.77-.42,1.06-1.26,1.54-1.73a4.32,4.32,0,0,1,1.88-1,1.12,1.12,0,0,0,.83-1.22c0-.6-.19-1,.24-1.68s.17-.77.56-1.11C56.33,58.32,51.74,65,45.62,67.33m12-19.82s0,.11,0,.19c0,.38,0,.74-.05,1.1-.36-.33-.93-.55-1.27-.93a3.92,3.92,0,0,0-1.11-.79.91.91,0,0,0-.82-.19c-.53.09-1,0-1.07-.51s0-1-.57-1.31a9.81,9.81,0,0,1-1.26-.89c-.38-.28-.77-.79-.91-.84a9.6,9.6,0,0,0-1.16,0A1.76,1.76,0,0,0,48,43.06s-.53-.79-1.11-.37-1.06.7-1.4.28-.91-.23-1.3-.19-.72-.61-.82-.89,0-.7-.15-.7-.72.19-1.1-.09-.2-.56,0-.8A2.89,2.89,0,0,0,42.27,39l-.44,0s-.53-.1-.62.27a1.17,1.17,0,0,1-1.3.61,1.55,1.55,0,0,1-1.12-1,1.5,1.5,0,0,1,0-1.12c.09-.28-.34-.79-.48-.92s-.15.08-.44-.38a2.68,2.68,0,0,0-.54-.6H57.64Z"/><path class="cls-1" d="M36.26,17.34a1.48,1.48,0,0,0-1.64.15c-.17.21-.27.26-.31.27s-1.1,0-1.49.47a1,1,0,0,0-.06,1.06,17.9,17.9,0,0,1,.64,1.8l0,.05s1,1,.6,1.87-.38,1.25.18,1.53.65.5.65,1.47v.08c0,.69,0,1.28.33,1.61a1,1,0,0,0,.72.24.71.71,0,0,0,.57-.27,3.46,3.46,0,0,0,.17-2.45c-.12-.52-.4-1.75,0-2.06s.66-.4.9-.14a.1.1,0,0,0,.09,0,.59.59,0,0,0,.58-.6,1.14,1.14,0,0,0-.11-.4h0a.54.54,0,0,1,.17,0,.71.71,0,0,0,.71-.21.6.6,0,0,0,.07-.68,9.16,9.16,0,0,0-1.42-2L37.51,19c-.3-.28-.3-.28-.29-.53,0-.43-.31-.83-1-1.14m1.32,4.91a.49.49,0,0,1,0,.11,1.37,1.37,0,0,0-1.3.35c-.68.49-.48,1.61-.25,2.63a3,3,0,0,1-.06,2c0,.05,0,.05-.1.05a.44.44,0,0,1-.3-.07c-.16-.16-.16-.71-.16-1.2V26c0-1.1-.26-1.62-1-2l-.16-.09a2.1,2.1,0,0,1,.25-.69,2.27,2.27,0,0,0-.63-2.43c-.06-.22-.23-.7-.62-1.72-.1-.25-.1-.42,0-.52s.73-.26,1-.24h.14a1.28,1.28,0,0,0,.65-.47.93.93,0,0,1,.92,0c.52.23.64.46.63.56,0,.51.09.64.47,1l.15.14a9,9,0,0,1,1.3,1.86s0,.07,0,.08,0,0-.12,0a.75.75,0,0,0-.79.12.58.58,0,0,0-.06.62"/><path class="cls-1" d="M35.05,19.46a.51.51,0,1,0,.52.5.51.51,0,0,0-.52-.5"/><path class="cls-1" d="M30.86,19.7c-.1,0-2.31.59-2.31,2A1.49,1.49,0,0,0,30,23.19a.13.13,0,0,0,.09-.06.08.08,0,0,0,0-.09.81.81,0,0,1-.26-.62c0-.19.24-.31.46-.44s.56-.32.51-.65A4.26,4.26,0,0,1,31,19.82a.07.07,0,0,0,0-.09.08.08,0,0,0-.09,0m-1.59,2.5a1,1,0,0,1-.12-.51c0-.51.55-.89,1.06-1.14a3.6,3.6,0,0,0,0,.8.9.9,0,0,1-.22.14,1.4,1.4,0,0,0-.71.71"/><path class="cls-1" d="M30.86,22.17c-.92.47-1.53.84-1.53.85a.09.09,0,0,0,0,.09.1.1,0,0,0,.08.07,22.74,22.74,0,0,0,3.3.54,1.4,1.4,0,0,0,1-.74,1.72,1.72,0,0,0-.36-1.66c-.74-1.41-1.19-2.44-1.19-2.45a.1.1,0,0,0-.11-.05s-2.39.55-2.05,2.74a.11.11,0,0,0,.1.08h.84c.13,0,.32.12.33.21s0,.14-.36.32m.95-.39c-.06-.49-.61-.66-.78-.7h-.51a1.81,1.81,0,0,1,1.23-1.56c.18.41.54,1.16,1,2.08l0,.05c.22.32.46.77.31,1.11a.82.82,0,0,1-.55.4,11.21,11.21,0,0,1-1.81-.27l.39-.21c.18-.09.74-.37.67-.89"/><path class="cls-1" d="M35,28.07a.29.29,0,0,0-.18-.19l-.55-.29h0a.69.69,0,0,0-.62.22L31,29.59c-.07.05-.27.23-.23.4s.07.13.23.16c.38.07,1.49.19,1.54.2a1.22,1.22,0,0,0,.8-.23c.21-.22,1.37-1.53,1.42-1.59a.65.65,0,0,0,.15-.46m-2,1.65a.68.68,0,0,1-.33.05l-.7-.08,2-1.42s0,0,.06-.05a.15.15,0,0,1,.07,0l.18.09L33,29.72"/><path class="cls-1" d="M33.89,30.43l1,.11c.06,0,.4.05.68-.44l.67-1.24a.43.43,0,0,0,.08-.37.3.3,0,0,0-.26-.19l-.49-.12a.54.54,0,0,0-.61.15c-.15.23-1.23,1.5-1.24,1.51s-.19.25-.12.42a.3.3,0,0,0,.28.17M35,30l-.52,0c.3-.35.79-.94,1-1.19l.21.05c-.15.29-.57,1-.57,1S35,30,35,30"/><path class="cls-1" d="M36.46,30.58h.81a.54.54,0,0,0,.51-.59V28.64a.06.06,0,0,0,0-.05.55.55,0,0,0-.5-.22,4.57,4.57,0,0,1-.49,0,.43.43,0,0,0-.4.31c-.08.25-.53,1.2-.53,1.21a.46.46,0,0,0,0,.44.67.67,0,0,0,.61.24m.73-.59h-.75c.12-.25.36-.78.46-1.05a2.79,2.79,0,0,0,.29,0Z"/><path class="cls-1" d="M40.18,30.46l.73-.06a.25.25,0,0,0,.2-.1.41.41,0,0,0,0-.4c-.17-.39-1-2.1-1.07-2.18h0s-.17-.22-.36-.16h0l-.47.28a.34.34,0,0,0-.16.48c.13.33.6,1.83.6,1.84h0c0,.12.17.35.59.31m-.57-2.23c.21.42.6,1.2.81,1.64l-.28,0h0c-.1-.31-.39-1.23-.54-1.64Z"/><path class="cls-1" d="M38.22,30.58c.21,0,1,0,1,0a.35.35,0,0,0,.25-.13.36.36,0,0,0,0-.34l-.61-1.75h0a.35.35,0,0,0-.44-.19c-.2.08-.48.14-.48.15h0s-.14.08-.14.32.07,1.54.07,1.6.09.38.34.37m.25-.59c0-.47-.06-1-.06-1.24h0L38.84,30Z"/><path class="cls-1" d="M41.69,30.33l.76-.11a.47.47,0,0,0,.37-.18.61.61,0,0,0-.06-.6c-.34-.63-1.58-2.51-1.66-2.63a.29.29,0,0,0-.21-.16.29.29,0,0,0-.27.11s-.46.41-.46.41a.46.46,0,0,0-.12.57L41.19,30h0a.49.49,0,0,0,.51.29m-1.08-2.78.17-.16c.33.51,1.16,1.78,1.43,2.28l-.51.08c-.14-.27-.9-1.8-1.09-2.2"/><path class="cls-1" d="M27.49,50.63c-1.28-.58-2.49-.1-2.49,1,0,2.53,5.39,2.16,4.51-2.23C29,46.87,27.41,43.63,27,38.9s2.23-6.28,2.23-6.28v-1.2C25.11,33.37,25.92,42,27.16,46s.33,4.63.33,4.63"/><path class="cls-1" d="M67.51,51.63c0-1.1-1.2-1.58-2.48-1,0,0-.92-.62.32-4.63s2.06-12.63-2.09-14.58v1.2s2.62,1.54,2.24,6.28-2,8-2.49,10.5c-.88,4.39,4.5,4.76,4.5,2.23"/><path class="cls-1" d="M25.86,54.22l-2.53,2c-2.95-2.2-4.23.41-4.23.41a4.19,4.19,0,0,1,2,.09c-2.28.61-1.71,2-1.71,2s2.33-1.35,3.31.2a2.85,2.85,0,0,1-.31,3.55c3.87,0,2.58-5,2.58-5l3.41-3.25Z"/><path class="cls-1" d="M72.87,56.63s-1.29-2.61-4.23-.41l-2.53-2H63.63L67,57.47s-1.29,5,2.58,5a2.85,2.85,0,0,1-.31-3.55c1-1.55,3.3-.2,3.3-.2s.57-1.39-1.7-2a4.19,4.19,0,0,1,2-.09"/><path class="cls-1" d="M29.18,35.47l0-2a1.43,1.43,0,0,1-.77.89c-.36.21-.18.46-.18.46a.87.87,0,0,1,.92.64"/><path class="cls-1" d="M28.74,40.62c.15,1.35.51.86.51.86s-.11-2.23-.15-2.67-1.4-.2-1.43.25a23.83,23.83,0,0,0,.26,2.38l.4-.07-.07-1.67s.33-.43.48.92"/><path class="cls-1" d="M29,45.28c.35.44.39-1.79.28-2.21,0,0-1-.3-.93.22a4.94,4.94,0,0,0,.65,2"/><path class="cls-1" d="M27.72,36.66c0,.44,1.38.27,1.38.27v-.71s-1.38-.22-1.38.44"/><path class="cls-1" d="M29.1,38v-.71s-1.38-.22-1.38.45c0,.43,1.38.26,1.38.26"/><path class="cls-1" d="M31.71,62.54a.43.43,0,1,0-.43.41.42.42,0,0,0,.43-.41"/><path class="cls-1" d="M64.39,58a.41.41,0,1,0,0,.82.41.41,0,1,0,0-.82"/><path class="cls-1" d="M63.38,58.63a.42.42,0,0,0-.43-.41A.41.41,0,1,0,63,59a.42.42,0,0,0,.43-.41"/><path class="cls-1" d="M62.08,58.83a.42.42,0,0,0-.43-.42.43.43,0,0,0-.43.42.42.42,0,0,0,.43.41.42.42,0,0,0,.43-.41"/><path class="cls-1" d="M28.51,66.12l.22-2.49s-.22-.49-1-.13l-.13,1.89s-.44.71-1.37-.09l.13-1.93a.72.72,0,0,0-.91-.12l-.15,2.55a2.28,2.28,0,0,0,3.19.32"/><path class="cls-1" d="M27,65.11a.27.27,0,0,0,.29-.24l.05-.81a.26.26,0,0,0-.25-.27.26.26,0,0,0-.29.23l-.05.82a.26.26,0,0,0,.25.27"/><path class="cls-1" d="M30.91,66.63l.21-2.37s-.21-.47-.93-.12l-.12,1.8s-.43.67-1.32-.08L28.88,64a.69.69,0,0,0-.87-.12l-.15,2.44a2.19,2.19,0,0,0,3.05.3"/><path class="cls-1" d="M30.65,65.67a.26.26,0,0,0,.27-.23l0-.78a.26.26,0,0,0-.51,0l-.05.78a.25.25,0,0,0,.24.26"/><path class="cls-1" d="M34.13,66.89l.08-1.24s-.11-.63-.74-.2l-.08.56s-.34.44-.29-.34l.06-.77s-.2-.25-.4.09l0,1s-.17.16-.48,0l.11-1.4s-.2-.58-.79-.14l-.12,2.17s.89,1.52,2.68.31"/><path class="cls-1" d="M27,61.63a.43.43,0,0,0-.85,0,.43.43,0,0,0,.85,0"/><path class="cls-1" d="M29.12,61.93a.42.42,0,0,0-.43-.41.41.41,0,1,0,0,.82.42.42,0,0,0,.43-.41"/><path class="cls-1" d="M30.8,62.21a.43.43,0,1,0-.43.41.42.42,0,0,0,.43-.41"/><path class="cls-1" d="M28.72,55l0,1.46,1,.8s.52-1.81-1-2.26"/><path class="cls-1" d="M30.15,58.84c-.12.14-.32.42-.43-.08s-.54-.44-.77-.44-.54.91-.74.27-.32-1-1.11-.82v1.52l4,.85s0-1-.17-1.18-.63-.25-.74-.12"/><path class="cls-1" d="M30,60.8a26.21,26.21,0,0,0-4-.88l0,.6,4.13.94s.14-.14-.09-.66"/><path class="cls-1" d="M66.86,65.8l-.15-2.55a.72.72,0,0,0-.91.12l.14,1.93c-.94.8-1.38.09-1.38.09l-.13-1.89c-.75-.36-1,.13-1,.13l.23,2.49a2.27,2.27,0,0,0,3.18-.32"/><path class="cls-1" d="M64.92,64.87a.27.27,0,0,0,.53,0l0-.82a.25.25,0,0,0-.28-.23.25.25,0,0,0-.25.27Z"/><path class="cls-1" d="M63.12,66.33,63,63.89a.69.69,0,0,0-.87.12l.12,1.85c-.88.75-1.31.08-1.31.08l-.12-1.8c-.72-.35-.93.12-.93.12l.21,2.37a2.17,2.17,0,0,0,3-.3"/><path class="cls-1" d="M61.46,64.4a.25.25,0,0,0-.24.26l.05.78a.24.24,0,0,0,.26.23.25.25,0,0,0,.24-.26l-.05-.78a.25.25,0,0,0-.26-.23"/><path class="cls-1" d="M57.6,66l-.08-.56c-.63-.43-.75.2-.75.2l.09,1.24c1.8,1.21,2.68-.31,2.68-.31l-.12-2.17c-.6-.44-.79.14-.79.14l.11,1.4c-.31.19-.48,0-.48,0l0-1c-.2-.34-.4-.09-.4-.09l.06.77c0,.78-.29.34-.29.34"/><path class="cls-1" d="M15.52,17.87c.3-.12.56-.36.39-.76L14.62,14l-.34.13,1.25,3c.1.27.06.38-.12.45s-.29,0-.41-.25l-1.24-3-.35.14,1.3,3.15a.58.58,0,0,0,.81.3"/><polygon class="cls-1" points="17.01 17.32 15.98 13.98 15.99 13.98 17.47 17.19 17.97 17.04 16.82 13.29 16.5 13.38 17.5 16.59 17.48 16.6 16.06 13.51 15.54 13.66 16.7 17.41 17.01 17.32"/><rect class="cls-1" x="18.11" y="12.98" width="0.37" height="3.93" transform="matrix(0.97, -0.25, 0.25, 0.97, -3.19, 5.13)"/><polygon class="cls-1" points="20.39 16.48 19.96 12.55 19.6 12.63 20.05 16.19 20.04 16.19 18.88 12.79 18.51 12.87 19.86 16.59 20.39 16.48"/><polygon class="cls-1" points="22.25 16.11 22.18 15.81 21.58 15.93 21.27 14.38 21.84 14.27 21.78 13.97 21.21 14.08 20.92 12.68 21.52 12.56 21.46 12.26 20.5 12.45 21.28 16.29 22.25 16.11"/><path class="cls-1" d="M23.19,15.94l-.33-1.85.25,0c.17,0,.29,0,.33.18l.29,1.63.36-.07-.29-1.65c-.05-.27-.22-.31-.49-.29h0c.28-.06.38-.18.33-.48l-.18-1c-.07-.39-.29-.41-.64-.35l-.68.11L22.83,16Zm-.64-3.56.21,0c.19,0,.31,0,.36.21l.15.86c0,.23-.05.3-.22.33l-.24,0Z"/><path class="cls-1" d="M24.26,12.82a.91.91,0,0,0,.23.47l.68.83a.67.67,0,0,1,.17.36l.08.54c0,.18,0,.3-.17.32s-.25-.07-.28-.26l-.09-.5-.36.05.09.53c.06.39.28.54.68.48a.52.52,0,0,0,.5-.65l-.09-.61a1,1,0,0,0-.21-.46L24.75,13a.64.64,0,0,1-.13-.33l-.07-.41c0-.16,0-.27.17-.3s.23.08.25.23l.08.48.36-.06-.07-.49c-.06-.36-.26-.52-.67-.46a.51.51,0,0,0-.48.66Z"/><polygon class="cls-1" points="25.91 11.56 26.47 15.44 26.84 15.39 26.27 11.51 25.91 11.56"/><path class="cls-1" d="M28.18,15.22c.5-.06.59-.32.54-.71l-.34-2.62c-.05-.39-.21-.62-.7-.56l-.63.08.5,3.89Zm-.53-3.58c.24,0,.33,0,.36.26l.35,2.69c0,.22,0,.31-.28.34l-.2,0-.43-3.28Z"/><path class="cls-1" d="M29.66,14l.65-.07L30.58,15l.37,0-1-3.83-.51.05-.15,4,.37,0Zm0-2.59h0l.53,2.22-.57.06Z"/><path class="cls-1" d="M30.9,14.8c.5,0,.6-.3.56-.68l-.25-2.64c0-.39-.19-.62-.69-.58l-.63.06.38,3.9Zm-.42-3.59c.25,0,.33,0,.36.27l.26,2.7c0,.22-.05.3-.3.33l-.19,0-.32-3.3Z"/><polygon class="cls-1" points="33.47 14.59 33.2 11.12 33.21 11.11 33.94 14.56 34.46 14.52 34.17 10.61 33.84 10.63 34.1 13.98 34.09 13.98 33.38 10.67 32.84 10.7 33.14 14.62 33.47 14.59"/><path class="cls-1" d="M35.4,13.37l.65,0,.22,1.08.37,0-.84-3.88-.5,0-.35,4,.37,0Zm.16-2.57h0L36,13l-.57,0Z"/><path class="cls-1" d="M37.67,14.37a.51.51,0,0,0,.55-.57l0-.56-.37,0,0,.55c0,.17-.05.25-.19.26s-.22-.07-.23-.24L37.29,11c0-.16.05-.25.19-.26s.21.08.22.24l0,.51.37,0,0-.51a.51.51,0,0,0-.6-.52c-.39,0-.57.24-.55.57l.15,2.89a.5.5,0,0,0,.6.52"/><rect class="cls-1" x="38.7" y="10.36" width="0.37" height="3.92" transform="translate(-0.49 1.67) rotate(-2.45)"/><path class="cls-1" d="M40.52,14.26a.56.56,0,0,0,.62-.68l-.08-2.66c0-.39-.17-.66-.67-.65a.58.58,0,0,0-.63.69l.08,2.66c0,.38.18.66.68.64m-.12-3.68c.23,0,.28.15.29.36l.09,2.64c0,.22,0,.37-.27.38s-.29-.15-.3-.36L40.13,11c0-.22,0-.37.27-.38"/><polygon class="cls-1" points="42.18 14.18 42.11 10.7 42.12 10.7 42.66 14.18 43.18 14.17 43.11 10.25 42.78 10.25 42.85 13.61 42.84 13.61 42.32 10.26 41.78 10.27 41.85 14.19 42.18 14.18"/><path class="cls-1" d="M44.18,13.07h.66L45,14.15h.38l-.63-3.92h-.5l-.57,3.92H44Zm.31-2.57h0l.29,2.26h-.57Z"/><polygon class="cls-1" points="45.87 14.15 46.85 14.15 46.85 13.85 46.24 13.85 46.26 10.23 45.89 10.23 45.87 14.15"/><path class="cls-1" d="M48.58,13.09l.65,0,.13,1.08h.37l-.51-3.93h-.51L48,14.17h.37ZM49,10.54h0l.23,2.26h-.58Z"/><path class="cls-1" d="M50.82,14.26c.32,0,.66-.1.67-.53l.12-3.39-.38,0-.1,3.28c0,.29-.11.37-.3.36s-.28-.09-.26-.38l.1-3.27-.37,0-.11,3.4c0,.43.32.56.63.57"/><polygon class="cls-1" points="52.43 14.29 52.8 14.31 52.96 10.69 53.38 10.71 53.39 10.4 52.2 10.36 52.18 10.66 52.59 10.68 52.43 14.29"/><path class="cls-1" d="M54.41,14.41a.58.58,0,0,0,.69-.62l.15-2.66c0-.38-.11-.67-.62-.69a.57.57,0,0,0-.68.62l-.15,2.66c0,.38.11.67.61.69m-.24-.68.14-2.64c0-.21.07-.36.31-.35s.27.17.26.38l-.15,2.64c0,.21-.07.36-.3.35s-.27-.16-.26-.38"/><polygon class="cls-1" points="56.31 11 56.31 11 56.54 14.51 57.06 14.54 57.34 10.63 57.01 10.61 56.77 13.96 56.76 13.96 56.55 10.58 56.01 10.54 55.74 14.46 56.06 14.48 56.31 11"/><path class="cls-1" d="M58.38,14.68a.58.58,0,0,0,.7-.61l.23-2.65a.58.58,0,0,0-.6-.72c-.5,0-.67.23-.71.61L57.79,14a.57.57,0,0,0,.59.71m-.23-.7.23-2.62c0-.23.07-.37.3-.35s.27.17.25.39L58.72,14c0,.21-.08.36-.32.35s-.26-.18-.25-.4"/><polygon class="cls-1" points="60.38 11.18 60.39 11.18 60.45 14.82 60.91 14.87 61.7 11.31 61.71 11.31 61.35 14.9 61.67 14.94 62.07 11.03 61.5 10.98 60.73 14.43 60.72 14.43 60.66 10.9 60.09 10.85 59.7 14.75 60.02 14.78 60.38 11.18"/><path class="cls-1" d="M62.78,14l.65.08,0,1.09.37,0-.13-4-.5-.05L62.13,15l.37,0Zm.62-2.51h0l0,2.28-.57-.07Z"/><polygon class="cls-1" points="69 12.24 69.01 12.24 68.78 15.88 69.24 15.95 70.3 12.46 70.31 12.46 69.67 16.03 69.99 16.08 70.69 12.22 70.12 12.12 69.09 15.51 69.08 15.51 69.29 11.98 68.73 11.89 68.03 15.75 68.35 15.8 69 12.24"/><polygon class="cls-1" points="71.59 16.39 71.66 16.09 71.06 15.98 71.38 14.43 71.96 14.54 72.02 14.24 71.45 14.13 71.74 12.73 72.34 12.85 72.41 12.55 71.44 12.37 70.63 16.21 71.59 16.39"/><polygon class="cls-1" points="71.94 16.47 72.3 16.55 73.04 15.02 73.05 15.02 73.01 16.7 73.37 16.79 73.33 14.75 74.25 12.96 73.89 12.88 73.2 14.35 73.19 14.35 73.25 12.74 72.89 12.66 72.91 14.66 71.94 16.47"/><rect class="cls-1" x="72.53" y="14.86" width="3.93" height="0.37" transform="translate(40.43 82.99) rotate(-74.79)"/><path class="cls-1" d="M75.36,17.36a.52.52,0,0,0,.72-.36l.17-.53-.35-.1-.17.52q-.08.24-.27.18c-.15,0-.18-.14-.13-.3L76.21,14q.06-.24.27-.18c.14,0,.17.14.12.3l-.15.48.35.11.16-.5a.5.5,0,0,0-.39-.68.53.53,0,0,0-.72.35L75,16.67a.49.49,0,0,0,.38.69"/><path class="cls-1" d="M77,17.9a.58.58,0,0,0,.86-.37l1-2.47a.56.56,0,0,0-.35-.85.59.59,0,0,0-.86.38l-1,2.46a.56.56,0,0,0,.34.85m0-.72,1-2.45c.09-.2.18-.32.4-.23s.2.24.12.44l-1,2.44c-.09.21-.19.33-.41.24s-.2-.24-.11-.44"/><path class="cls-1" d="M10.41,16.89c.68.95.86,1.21.86,2v.23a2.27,2.27,0,0,0,.46,1.75,2.82,2.82,0,0,0,2,.57A17.94,17.94,0,0,0,16.56,21a23.52,23.52,0,0,1,5.9-.56c-.45.45-1.95,1.6-5,1.28s-6.26-.43-7.39,1.11c-.6.83-.5,2.07.31,3.7a.09.09,0,0,0,.11,0,2.81,2.81,0,0,0,1.82-3.29A12.71,12.71,0,0,1,15,24l.6.18c-1.89.52-3.41,1.29-3.41,2.1,0,.49.58.68,1.94,1.27s2.77,1.12,4,1.71c3.51,1.67,6,3.12,6.42,2.77s-7.88-3.7-5.9-6.47c1.11-1.56,2.94.51,1.43.83s2.18,3.94,6.5,5.17A6.5,6.5,0,0,1,28,30.48s.65-.48-.31-.72-6.88-2-4.44-4.19c.73-.65.8-1.11.48-1.42a5.89,5.89,0,0,0,2-1.2,2.19,2.19,0,0,0,.76-1.56c0-1.49-1.94-3.55-2.65-4.27a147.39,147.39,0,0,1,21.73-1.48,146.14,146.14,0,0,1,22.27,1.57c-.7.69-2.68,2.78-2.68,4.29a2.23,2.23,0,0,0,.76,1.56,5.13,5.13,0,0,0,1.34.89c-.63.37-1,.76-1,1.07a1.84,1.84,0,0,0,1.2,1.7C67.66,28.2,64,29.78,63,30.19a7.64,7.64,0,0,1,1.25.62,8.22,8.22,0,0,0,5.13-3.63c.78-1-1.23-.46-1.23-1.45s3-1.7,2.39,1c-.55,2.42-4.14,4-5.7,4.5a6.23,6.23,0,0,1,.6.56c.09.14.29.44.44.39s0-.58.34-.52.51.18.65-.1.1-.57.35-.41.29.32.53.23-.2-.74.34-.58.63-.14.51-.41.23-.12.58.1.39-.22.2-.49.06-.47.38-.17.9.21.48-.23.07-.8.53-.46.4.13.15-.28,0-.57.53-.21,1,.22.33-.26-.37-.8.28-.45,1.43.53.71-.08-.94-1.05-.08-.62,1.53.35.24-.43.68-.06,1.14.32.54-.23-.34-.71-.37-.62.81-.06,1.18,0,.21-.31-1.37-1-.17-.45,2.4.67,1.19.06a5.26,5.26,0,0,1-1.1-.65c.35-.12.8,0,1.63.55,1.58,1.07.06,2.23-1.3,2.74-2,.73-2.81,1.5-5,3A8.26,8.26,0,0,1,66,32.49a3.52,3.52,0,0,1,.3.69,12.11,12.11,0,0,0,5.29-1.45,29.45,29.45,0,0,1,6.81-3.14c1.68-.38,3.23-1.23.7-3a15.19,15.19,0,0,0-2.58-1.47l.15-.05a13,13,0,0,1,2.73-.66,2.82,2.82,0,0,0,1.82,3.29.1.1,0,0,0,.12,0c.8-1.62.9-2.86.3-3.69-1.12-1.54-4.36-1.43-7.38-1.11-3.4.36-4.87-1.1-5.13-1.39a7.66,7.66,0,0,1,1.28,0c.94.07,2,.25,3.08.42,2.48.41,5,.83,6.2,0a1.66,1.66,0,0,0,.63-1.16A6.78,6.78,0,0,1,81.46,17c.52-.84,1-1.55.74-2.19a2.14,2.14,0,0,0-1.33-1.12,65.56,65.56,0,0,0-14.32-3.55A144.11,144.11,0,0,0,45.36,8.57c-14.07,0-27.16,1.72-34.16,4.5a2.9,2.9,0,0,0-1.74,1.42,1.53,1.53,0,0,0,.28,1.43c.26.39.49.71.67,1m1-3.28h0c6.94-2.75,19.94-4.45,33.94-4.45,17.17,0,29.74,2.71,35.27,5,.57.24.92.5,1,.76s-.24,1-.68,1.72a7.12,7.12,0,0,0-1.23,3,1,1,0,0,1-.4.76l0,0a1.1,1.1,0,0,0-.34-.56c-2.34-2.27-16.62-4.8-33.35-4.8A144.19,144.19,0,0,0,21.8,16.89a46.24,46.24,0,0,0-7.22,1.74A5.15,5.15,0,0,0,12,20.19a2.64,2.64,0,0,1-.11-1.07v-.24a3.37,3.37,0,0,0-1-2.31c-.19-.26-.41-.58-.68-1a1,1,0,0,1-.21-.93c.2-.56,1.07-1,1.37-1.06m62.19,6.71c-1.07-.18-2.17-.36-3.13-.43a5.92,5.92,0,0,0-4.65,1.38c.2-1.15,1.82-2.95,2.85-3.94,5.42.91,8.92,2,9.87,2.94.14.13.19.23.19.28a.19.19,0,0,1,0,.12,16.18,16.18,0,0,1-5.09-.35m-5.15.39.24.13c.31.36,1.94,2,5.65,1.59,1.53-.16,4.93-.51,6.39.47a9.14,9.14,0,0,0-4.24.65l-.79.24a10.8,10.8,0,0,0-7.74-.16,5.18,5.18,0,0,1-1.57-1A2,2,0,0,1,65.9,22a4.51,4.51,0,0,1,2.48-1.42.11.11,0,0,0,.05.12M80,23.41a5.21,5.21,0,0,1,1.31.2A3.18,3.18,0,0,1,81,26a2.17,2.17,0,0,1-1-2.57M25.81,20.86c-2.74-1.6-6.55-.9-9.36-.38a18.33,18.33,0,0,1-2.73.38,3.47,3.47,0,0,1-1.18-.17.35.35,0,0,1-.07-.14c0-.05,0-.15.19-.28,1-.94,4.68-2.11,10.41-3a12,12,0,0,1,2.74,3.62M23,23.79a13.5,13.5,0,0,0-4.43-.18c-.6.07-1.22.17-1.82.29-.53-.13-1-.3-1.55-.46A9.12,9.12,0,0,0,11,22.79c1.46-1,4.86-.63,6.4-.46,3.7.38,5.33-1.24,5.65-1.6l.24-.14h0a6.36,6.36,0,0,1,2.62,1c-.16.84-1.21,1.68-2.88,2.19M10.7,25.88a3.26,3.26,0,0,1-.32-2.38,5.21,5.21,0,0,1,1.31-.2,2.18,2.18,0,0,1-1,2.58"/><path class="cls-1" d="M47.7,28.42a.08.08,0,0,0-.08,0,.11.11,0,0,0,0,.08A2.17,2.17,0,0,0,50,30.4,6.76,6.76,0,0,0,54,28.53c.27.41,1.3,1.92,2.22,1.82.39-.05.7-.37.92-1a2.82,2.82,0,0,0,2.05.91,2.92,2.92,0,0,0,2.18-1.61.11.11,0,0,0,0-.11.11.11,0,0,0-.11,0,3.94,3.94,0,0,1-3-.26,2.56,2.56,0,0,1-.93-2.24A10.69,10.69,0,0,1,57.65,23a4.33,4.33,0,0,0,1.88.5c2,.05,2.44-1.15,2.46-1.2s0-.07,0-.09a.09.09,0,0,0-.08,0,3.41,3.41,0,0,1-1.46,0c.94-.3,1.62-.31,2,0a1,1,0,0,1,.26.89.1.1,0,0,0,.05.1.11.11,0,0,0,.12,0c.73-.78,1-1.42.8-2-.31-.93-1.89-1.32-3.35-1.61A4.28,4.28,0,0,1,57.4,16.8a.09.09,0,0,0-.06-.06.08.08,0,0,0-.08,0,3.78,3.78,0,0,0-1.19.94l-1.41-1.54a.11.11,0,0,0-.08,0,.11.11,0,0,0-.07,0A2,2,0,0,0,54.26,18a2.2,2.2,0,0,1-.67-1.29.07.07,0,0,0-.06-.07.08.08,0,0,0-.1,0,2.32,2.32,0,0,0,0,3.23,6.13,6.13,0,0,1-3.64-.18.08.08,0,0,0-.08,0,.07.07,0,0,0,0,.06A1.64,1.64,0,0,0,50,21.1a3,3,0,0,0,2.24.86c-.36.25-1.35.73-3.31.18a.09.09,0,0,0-.09,0,.08.08,0,0,0,0,.09s.6,2.3,3.61,1.92A4.9,4.9,0,0,1,47.9,25.3a.11.11,0,0,0-.13.09,2.31,2.31,0,0,0,1,1.86c.87.46,2.16.21,3.84-.74-.23.61-1.22,2.26-5,1.91m5.14-6.24a.46.46,0,0,0,.06-.51.52.52,0,0,0-.44-.28,2.61,2.61,0,0,1-2-.64,1.15,1.15,0,0,1-.2-.36c2.39.52,3.44,0,3.55-.07A.48.48,0,0,0,54,20a.44.44,0,0,0-.09-.38,2.12,2.12,0,0,1-.54-1.79,3.59,3.59,0,0,0,.78.87.51.51,0,0,0,.62,0,.48.48,0,0,0,.15-.58,2,2,0,0,1-.19-1l1,1.07a2.81,2.81,0,0,0-.1.31,1.84,1.84,0,0,0,.17,1.33c-1.65,1-1.7,2-1.62,2.42a3.25,3.25,0,0,1-2,1.36,2.68,2.68,0,0,1-2.34-.7c2.14.28,3-.69,3-.73m4.25-4.64a5.41,5.41,0,0,0,.72,1.07l-.82.08-.51-.57a2.44,2.44,0,0,1,.61-.58M63,21.84a2,2,0,0,0-.2-.21c-.57-.47-1.5-.47-2.83,0a.46.46,0,0,0-.32.42.5.5,0,0,0,.27.46,3.54,3.54,0,0,0,.76.2,2.89,2.89,0,0,1-1.11.16,3.82,3.82,0,0,1-1.65-.46,2.29,2.29,0,0,1,.7-.65l.26-.18A4.51,4.51,0,0,0,60,20l.16,0c.8.16,2.68.54,2.91,1.23a.78.78,0,0,1-.09.59m-2.87,7.47a1.59,1.59,0,0,1-.94.42,2.39,2.39,0,0,1-1.66-.82.42.42,0,0,0-.27-.16,4.58,4.58,0,0,1-.39-1.19l.16,0a2.67,2.67,0,0,0,.92,1.21,3.61,3.61,0,0,0,2.18.56m-3.9-10.62.38.42a.55.55,0,0,0,.37.16l.65-.05a.78.78,0,0,1-.32.45,1.12,1.12,0,0,1-.88,0,.2.2,0,0,0,0-.09,1.32,1.32,0,0,1-.15-.9m2.29,2.45-.24.18a2.93,2.93,0,0,0-.87.81L57.15,22a2.76,2.76,0,0,1,1.16-1,1.38,1.38,0,0,0,.69-1.4,3.42,3.42,0,0,0,.43.21,3.67,3.67,0,0,1-.93,1.34m-3.86,7.07c-.14,0-.36-.3-.29-1.4a3,3,0,0,0,.92-.82,1.44,1.44,0,0,0,.35,1.23,1.07,1.07,0,0,0,.22.15c-.37.45-.91.95-1.2.84m-.09-3.68h0a2.76,2.76,0,0,0,.95-.56,2.26,2.26,0,0,0,.05.49c-.81,1.37-1.55,1.9-2,1.94a6.31,6.31,0,0,1,.94-1.87m2.28,2.34a.68.68,0,0,1-.68-.12c-.34-.35-.15-1.3,0-1.91a4,4,0,0,0,.62-.19c0,.4,0,.87,0,1.4a5.27,5.27,0,0,0,.06.82m-.58-6.63a1.77,1.77,0,0,0,1.26,0,1.39,1.39,0,0,0,.72-1h.09l0,.14v0s.2.87-.33,1.13a3.48,3.48,0,0,0-1.35,1.09l-.27-.27a.52.52,0,0,0-.55-.14.46.46,0,0,0-.31.34s-.18.2-.78.36c.06-.35.35-.93,1.43-1.6l0,0m.06,7.65a7.47,7.47,0,0,0,.4,1.06.33.33,0,0,0-.05.12c-.14.42-.32.69-.48.7s-.81-.42-1.26-1a3.15,3.15,0,0,0,1.39-.89m-.11-3.72a3.85,3.85,0,0,1-.11-1.51.12.12,0,0,0-.05-.1.11.11,0,0,0-.12,0,9.13,9.13,0,0,1-1.09.94,1.84,1.84,0,0,1-.18-1l0-.07c1-.21,1.28-.49,1.39-.69a5.64,5.64,0,0,0,1.06.87,5.81,5.81,0,0,0-.26,1.22,2.25,2.25,0,0,1-.67.3m-3.15.18a.46.46,0,0,0,.13-.33,2.36,2.36,0,0,0,.83-.58c0,.15.09.34.16.53a10.33,10.33,0,0,1-1.4,1.86.74.74,0,0,0-.21.07c-1.56.92-2.75,1.21-3.45.85A1.39,1.39,0,0,1,48.5,26a5.67,5.67,0,0,0,4.55-1.66m.07,2.56a1.1,1.1,0,0,0,.56.1,5.19,5.19,0,0,0,.17.93.34.34,0,0,0-.16.1A6.45,6.45,0,0,1,50,29.83a1.65,1.65,0,0,1-1.6-.8c3.23.11,4.38-1.32,4.76-2.12"/><path class="cls-1" d="M16.59,64.51c.05-.27.07-.59-.12-.67s-.34.14-.39.21v0h0a1.12,1.12,0,0,1-1.08.49,1.66,1.66,0,0,0-1.37.62.82.82,0,0,0-.11.82c.22.49.6.75.8.69a.22.22,0,0,0,.12-.3l0-.1a1.42,1.42,0,0,1-.06-.28.54.54,0,0,1,.16.06.76.76,0,0,0,.75,0,.36.36,0,0,0,.1-.42c0-.12-.09-.21-.12-.29s-.07-.12-.06-.15.06,0,.37-.07c.74-.06.93-.1,1-.67m-2.08.86-.11,0a.28.28,0,0,1,.11,0v.07"/><path class="cls-1" d="M82.84,63.79a1.06,1.06,0,0,1-.42-.24,1.19,1.19,0,0,0-.87-.31.53.53,0,0,0-.5.21c-.16.23-.09.66.22,1.29a.89.89,0,0,1,.09.33,7.68,7.68,0,0,1-1-.34.56.56,0,0,0-.58,0c-.37.25-.44,1.07-.42,1.84a3.77,3.77,0,0,0-2.23,1.18,1.29,1.29,0,0,0-.22-.9.87.87,0,0,0-.68-.18,2.39,2.39,0,0,0-1.07.35,2.5,2.5,0,0,0,0-.55.5.5,0,0,0-.38-.29,1,1,0,0,0-1,.25.47.47,0,0,0-.15.48,1.41,1.41,0,0,0,.77.77l-.13.17a.75.75,0,0,0-.15.71c.15.43.74.71,1.36.92a3.14,3.14,0,0,1-2.77,1.13,3.18,3.18,0,0,0-3.22-.73l-.22,0c-2,.47-3.6.84-4.39,2.74a3.65,3.65,0,0,1-.67,1.11c-.49.6-.87,1.07-1.2,4.68a15.13,15.13,0,0,0-2.75,1.11,2.13,2.13,0,0,1-.63.12,2.27,2.27,0,0,0-1.81.89,1,1,0,0,1-.92.22,1.11,1.11,0,0,0-1,.23,1.57,1.57,0,0,1-.73.18,2.26,2.26,0,0,1,1.32-1.36A7.43,7.43,0,0,0,60,78.11a0,0,0,0,1,0,0A3,3,0,0,1,61,77c.41-.31.77-.57.52-1.15a1.82,1.82,0,0,1,.17-1.31c.16-.44.33-.89.06-1.19A2.6,2.6,0,0,0,63,72.62a.46.46,0,0,0,.05-.34,2.1,2.1,0,0,1,.09-.76c.1-.49.22-1,0-1.28a.67.67,0,0,0-.52-.22,1,1,0,0,0-.62-.55,1.06,1.06,0,0,0-.9.34,1.13,1.13,0,0,0-.92,0,.78.78,0,0,0-.28.72l-.62,1a3.12,3.12,0,0,0-2.23.69l-.53.32c-1.29.78-2.3,1.39-2.63,2.86a7.93,7.93,0,0,1-.38,1.35l-.27-.18c-.32-.17-.64-.31-.94-.44a3.42,3.42,0,0,1-1.38-.84c-.66-.85-1.6-.91-2.8-.18a3.79,3.79,0,0,1-3.85.11l-.83-.31c-1.55-.57-3.68-1.35-4.43-2.4l-.4-.58c-.67-1-1.19-1.77-2.6-1.81a2.16,2.16,0,0,0-2,.33,0,0,0,0,0,0,0,.14.14,0,0,1-.1,0s-.12,0-.2-.1c-.33-.33-.63-.41-1.31.07a5.9,5.9,0,0,0-1.61,1.71.24.24,0,0,1-.12-.14c-.52-1.16-1.1-1.85-1.69-2a2.82,2.82,0,0,1-1.3-1,6.88,6.88,0,0,0-.8-.82.94.94,0,0,0-.71-.27c-.45.05-.8.49-1.17,1l-.11.14a8.86,8.86,0,0,1-1.67,1.43l-.67.51a.1.1,0,0,1-.05,0,1.14,1.14,0,0,1-.51-.53,8.36,8.36,0,0,0-1.39-2.19,1.75,1.75,0,0,0-.29-1.46c.42,0,.72-.25,1-.77a.61.61,0,0,0,0-.61c-.17-.28-.63-.43-1.41-.46a2.19,2.19,0,0,0-1.49.8,4.09,4.09,0,0,0-1.35.24.67.67,0,0,0-.21-.72c-.88-.71-2.26.58-2.93,1.2a1.45,1.45,0,0,0-.5,1.29h0l-.12,0-.19,0a6.59,6.59,0,0,0-.81-.14c-.13-.53-.47-1.5-1.23-1.47l-.33,0a.76.76,0,0,0,0-.21.87.87,0,0,0-.27-.63,1,1,0,0,0-.66-.27.91.91,0,0,0-.92.9.87.87,0,0,0,.27.64.66.66,0,0,0,.17.12,1.11,1.11,0,0,0-.42.48.65.65,0,0,0,.22.74c.26.24.58.52.95.83a3.56,3.56,0,0,0-.24.87v.05c-.17.06-.5.23-.5.5s.24.46.43.6a7,7,0,0,0,.08,1.3c-.12.16-.23.4-.07.54a1.7,1.7,0,0,0,.3.18,1.57,1.57,0,0,0,.15.19,7.68,7.68,0,0,1,.56.6l.12.14c-.06.27-.11.69.18.77a2,2,0,0,0,.65,0,6.32,6.32,0,0,0,.54.36c.24.14.49.3.74.47,0,.27,0,.7.31.64l.49-.07c.66.5,1.18,1,1.17,1.11-.22.3-1.09,1.15-1.47,1.15a.44.44,0,0,0-.38.2,1.36,1.36,0,0,0,0,1.21c-.19.15-.73.65-.53,1a1.59,1.59,0,0,0,.3.36c.14.15.3.31.28.41s-.1.13-.25.17c-.45.17-1.08.45-1.22,1a1.45,1.45,0,0,0,.46,1.3l0,.05-.24.28s-.84.19-.56.81,1.36.65,1.16-.31l.24-.26a1.6,1.6,0,0,0,1.39.29A1.17,1.17,0,0,0,15,83.62a9.91,9.91,0,0,0,3.7.73.81.81,0,0,0,.76.25.65.65,0,0,0,.41-.4,16.15,16.15,0,0,0,1.94,0,.65.65,0,0,0,.59.27.32.32,0,0,0,.34-.41,1.6,1.6,0,0,0,.43-.17,6.1,6.1,0,0,1,2.31-.31,1.74,1.74,0,0,0,.1.19,5.13,5.13,0,0,0,.68.92c.07.07.07.07,0,.2a.63.63,0,0,0,0,.52.89.89,0,0,0,.64.26h0c.65.09,1.07.14,1.38.6l0,.07c.15.24.26.4.45.44s.41,0,.87-.31a1.44,1.44,0,0,1,1.51,0c.07.12.39.61.76.57s.4-.22.54-.62a1.19,1.19,0,0,1,.62-.12,3,3,0,0,0,1.51-.38s1.51-1,2.4-1.42a2.21,2.21,0,0,1,.23.73c.13.77-3.14,2.23-1.88,4.16.16.25.32.17.32.17a1.1,1.1,0,0,1,.16-1.09c.35-.38,2.11.12,3-.95a1.69,1.69,0,0,0,1.51,1.2.09.09,0,0,0,.1-.08l.42-2.85a1.6,1.6,0,0,0,.69.79,1.29,1.29,0,0,0,.86.11,1.93,1.93,0,0,0,2.3,1c.55,0,.84-.09.9-.29s.09-.33-.88-.88c-.1-.06-.13-.11-.12-.15s.08-.08.2-.1c.38,0,1.18.18,1.82,1.37a2.43,2.43,0,0,0,2.75,1.17.1.1,0,0,0,.06-.09.09.09,0,0,0-.06-.09,1,1,0,0,1-.59-.86,4.22,4.22,0,0,0,3,1A2.37,2.37,0,0,0,53.36,88a.11.11,0,0,0,0-.11.11.11,0,0,0-.11,0,1.89,1.89,0,0,1-2.18-.73,4,4,0,0,0,2.27-1.72,6.15,6.15,0,0,1,3.18,0l.5.17c1.82.58,5.61,1.82,8.15-.1,1.69-1.29,2.1-2.1,2.15-2.57a.76.76,0,0,0,0-.27,4.92,4.92,0,0,0,.56.08h0a11.9,11.9,0,0,1,2,.47l.45.17c-.14.18-.42.63,0,.81s1.68-.48,1.68.18.58.55,1.56.15c0,0,.47-.12.52.15a.62.62,0,0,0,.68.49c.19,0,.44-.32.7-.57a6.39,6.39,0,0,0,1-.09c.34.24.63.31.84.13a.82.82,0,0,0,.21-.47,2,2,0,0,0,1.14-2.39,1.33,1.33,0,0,0,.37-.69c.08-.46-.44-.39-.79-.86a2.84,2.84,0,0,0-.52-.69,1.39,1.39,0,0,1-.17-.59c-.06-.69-.79-1-.92-.15a9.72,9.72,0,0,0-5.86-.35c-.46.11-.93.24-1.38.38-1.44.4-2.78.79-3.43.15.07-.23.47-1.24,2.48-1.93,1.45-.51,4.85-1.87,5.49-3.92.69,0,5.59.23,6.78-1.4,1.06-1.45,2-2.72.94-4a5.21,5.21,0,0,0,1.12-1.14.82.82,0,0,0,.16-.72,1,1,0,0,0-.54-.47,1.23,1.23,0,0,1,.8-.41c.41-.08.48-.29.48-.41,0-.32-.39-.67-.76-.78m-63,1.79a2.58,2.58,0,0,1,.79.12c-.25.49-.33.52-.83.28l-.48-.21a1.11,1.11,0,0,1,.52-.19M74.5,67a.85.85,0,0,1-.17-.14.38.38,0,0,1,.17,0V67m3.34,14.43a.48.48,0,0,0,0,.24,1.64,1.64,0,0,1-.05,1.26,1.83,1.83,0,0,1-1.2.82c-2,.55-4.59-.44-6-1l-.54-.21A14,14,0,0,0,67.2,82,.41.41,0,0,0,67,82c-1-.23-1.06-.5-1.06-1.18a.89.89,0,0,1,.65-.87,8.39,8.39,0,0,0,2.91-.51c.44-.13.9-.26,1.35-.37,1.63-.38,4.12-.48,5.74.48a2.22,2.22,0,0,1,1.24,1.91M66.65,82.8c0,.09,0,.75-1.9,2.17-2.25,1.71-5.68.6-7.52,0h0l-.48-.16a6.74,6.74,0,0,0-3.5,0,4.63,4.63,0,0,0-.08-1.49c-.14-.45.34-.88.64-1.1a4.71,4.71,0,0,0,1.31-.3,2.3,2.3,0,0,0,1-.2c-.15.27-.39.79-.1.88s1.27.31,1-1.07a1.65,1.65,0,0,0,1.25-.37.39.39,0,0,0,.1-.08,1.59,1.59,0,0,1,1.35-.68,2.61,2.61,0,0,0,.89-.18s0,0,0,0a14.79,14.79,0,0,1,2.66-1.06h0a2.57,2.57,0,0,0,2,.24s0,0,0,0a1.83,1.83,0,0,0,.45.35,1.79,1.79,0,0,0-.54,1.18,1.23,1.23,0,0,0,.3,1,2.56,2.56,0,0,0,1,.62.44.44,0,0,0,.08.33M48.49,87.06a.57.57,0,0,0-.33.51,2.09,2.09,0,0,0,.1.6,1.6,1.6,0,0,1-1-.82c-.77-1.42-1.83-1.81-2.51-1.71a.84.84,0,0,0-.36.11,1.52,1.52,0,0,0,.21-.62,2.45,2.45,0,0,0,1.82-.33,1,1,0,0,0,.17.1.47.47,0,0,0,.17,0,17.94,17.94,0,0,1,3.13,2c.16.15.31.33.46.49a5,5,0,0,0,.81.78,4.54,4.54,0,0,1-2.1-1,.61.61,0,0,0-.61-.08m-10,.11h0m.06-.17h0m1,.21a.53.53,0,0,0-.08-.22,6.91,6.91,0,0,0,.27-1.93.47.47,0,0,0-.25-.43.4.4,0,0,0-.43.12s.34,2.26-1.09,2.74a10.91,10.91,0,0,1-1.41.23,5.93,5.93,0,0,0-.68.22C36,86.8,38,86.46,38,85.26a3.31,3.31,0,0,0-1.16-2.06,5.85,5.85,0,0,1-1.48-2.54.09.09,0,0,0,0-.08,2.06,2.06,0,0,1-.07-.32,1.54,1.54,0,0,1,0-.43c.29-1.31,1.24-2.7,2.92-2.36a2.74,2.74,0,0,1,.85.5,1.48,1.48,0,0,1,.28.62c.08.65-.85.84-.87.83s0-1.28-.71-1.28a1.63,1.63,0,0,0-1.4,1.18,1.25,1.25,0,0,0,.94,1.53c.26.09.49.19.7.28a8.87,8.87,0,0,0,1,.38H39a.1.1,0,0,0-.09.07.42.42,0,0,0,.06.31,1.5,1.5,0,0,0,1.06.44c1.17.15,2.36.46,2.36,1.59a1.49,1.49,0,0,1-.7,1.39,3.48,3.48,0,0,0-2.25-2.19c-2-.69-2.72-1.35-3-2.69,0,0,0,0,0-.06a.64.64,0,0,0-.55,0c-.11.09-.15.24-.11.48A3.55,3.55,0,0,0,37.51,83l.79.35a4.31,4.31,0,0,1,2.33,1.58.57.57,0,0,0-.31.41l-.38,2.59a.87.87,0,0,1-.42-.71m-7.66-1a.61.61,0,0,1-.07-.1.58.58,0,0,0-.17-.18,2.14,2.14,0,0,0-2.28-.07l-.32.18L29,86l0-.06a2.27,2.27,0,0,0-1.86-.9h-.12a.72.72,0,0,0-.21-.76,4.56,4.56,0,0,1-.59-.81c-.55-.9.32-2.26.61-2.71a5.21,5.21,0,0,1,3.45-1.41,17.46,17.46,0,0,1,4.42,1.14,5.91,5.91,0,0,0,1.72,3.23,3.67,3.67,0,0,1,.31.31c-.86.47-2.15,1.28-2.33,1.39a2.3,2.3,0,0,1-1.19.3,1.81,1.81,0,0,0-1,.22.57.57,0,0,0-.27.32s0,0,0,0M19.5,83.56c-1.8.52-4.35-.57-4.38-.59a.61.61,0,0,0-.54,0,.57.57,0,0,0-.27.46c0,.19-.05.53-.32.62s-.79-.07-1.28-.65c-.26-.3-.39-.57-.35-.72s.21-.3.82-.52a.94.94,0,0,0,.66-.64,1.12,1.12,0,0,0-.44-1,.74.74,0,0,1-.12-.13,1.5,1.5,0,0,1,.33-.35.55.55,0,0,0,.18-.64,1.23,1.23,0,0,1-.1-.61c.83-.15,1.85-1.4,1.87-1.41a.67.67,0,0,0,.1-.52c-.18-.84-3-2.54-3-2.56a4.92,4.92,0,0,1-1.33-1.16,8.65,8.65,0,0,0-.6-.64,5.45,5.45,0,0,1-.19-2.82,1.77,1.77,0,0,1,.63-1.27,2.38,2.38,0,0,1,1.77-.07,1.09,1.09,0,0,0,.49,0l.2,0a.85.85,0,0,1,.21-.06h0a.88.88,0,0,1,.18.35,3.34,3.34,0,0,0,.22.48c.15.27.54.77,1,1.34.32.41.65.84.85,1.13a30.72,30.72,0,0,1,1.63,3.09,5.15,5.15,0,0,1-.2,2,.47.47,0,0,0,0,.31c-.12.35-.24.84-.06,1s.53.06.83-.63a.51.51,0,0,0,.25-.19h0s.18-.16,1.58.11h.06a4.69,4.69,0,0,1,1.76.75l.62.6a23.13,23.13,0,0,0,2,1.82,3.68,3.68,0,0,0,1.25.59,3.71,3.71,0,0,0-.5,1.9,6,6,0,0,0-2.51.41,8.6,8.6,0,0,1-3.08.22l-.2,0m-7.91-16a1.89,1.89,0,0,0-.81.29,1.63,1.63,0,0,0-.34.3c-.33-.28-.6-.53-.83-.75l0,0a2.34,2.34,0,0,1,1.51-.63c.17,0,.39.36.52.83m2.79-.69c1.4-1.3,1.87-1.29,2-1.17s0,.28-.47,1A2.25,2.25,0,0,0,15.46,68c-.36.13-.66.26-.87.35a1.82,1.82,0,0,0-.22-.37.67.67,0,0,0-.29-.23.84.84,0,0,1,.3-.78m11,2.45.11-.14c.2-.26.54-.69.7-.71a.51.51,0,0,1,.2.12,5.13,5.13,0,0,1,.72.75,3.38,3.38,0,0,0,1.64,1.26c.1,0,.62.23,1.25,1.64a.92.92,0,0,0,.62.53.72.72,0,0,0,.29.48,3.35,3.35,0,0,0,2,.73,1.75,1.75,0,0,1,1.14.39,7.12,7.12,0,0,0,2.34,1.63,4.89,4.89,0,0,1,1.12.74,3.37,3.37,0,0,0-2.81,2.9.64.64,0,0,0,0,.07c-.48-.18-1.16-.41-1.87-.61a1.24,1.24,0,0,0-.15-.63c-.21-.5-1-1.09-.8-.58a1.63,1.63,0,0,1,0,.57.7.7,0,0,0,.07.41,10.29,10.29,0,0,0-1.5-.26.77.77,0,0,0-.17-.4c-.29-.37-.38-.31-.41-.13a.8.8,0,0,0,0,.53,6.25,6.25,0,0,0-1.92.5,1.42,1.42,0,0,0-.06-.69c-.09-.32-.14-.67-.27-.43a1,1,0,0,0-.27.77c0,.29.13.46.26.51a3.87,3.87,0,0,0-1.42,1.05l0,0a2.9,2.9,0,0,1-1.2-.52,16.29,16.29,0,0,1-1.44-1.28c.07-.31.17-.89,0-1s-.45,0-.6.48c-.24-.24-.45-.44-.58-.55a2.08,2.08,0,0,0-.31-.23c0-.25,0-.65-.12-.7s-.31.22-.36.45a5.91,5.91,0,0,0-1.29-.43l-.07,0-.2,0c.09-.26.21-.66.08-.64a1.51,1.51,0,0,0-.64.55,2.25,2.25,0,0,0-1.26.1,7.27,7.27,0,0,0,.18-1.7l.08-.05c.91-.69,3.9-2.93,4.49-3.41l.65-.48a9.81,9.81,0,0,0,1.8-1.56m6,3.09a.09.09,0,0,0,.05-.08v0A5.53,5.53,0,0,1,32.76,71a1.1,1.1,0,0,1,.36-.2l.08.07a.92.92,0,0,0,.74.29.85.85,0,0,0,.48-.22,1.48,1.48,0,0,1,1.34-.23.59.59,0,0,0,.22,0c1.07,0,1.43.55,2.07,1.51.13.19.26.39.42.61a8.42,8.42,0,0,0,3.62,2.2l0,0s-.24.16,0,.47.89,1.12,1,.91a2.35,2.35,0,0,0-.26-1.15l.43.16.82.3a4.43,4.43,0,0,0,4.46-.15c1.13-.7,1.6-.39,1.9,0a3.84,3.84,0,0,0,1.64,1,7.91,7.91,0,0,1,.89.41c.3.17.36.3.36.32h0a.15.15,0,0,0,0,.07s-.32,1-.72,2.43c-.22.75-.7.83-.92.83a4.79,4.79,0,0,0-5.17,1,2.74,2.74,0,0,1-1,.61.8.8,0,0,1-.53-.17L44.76,82l-.28-.38c-.06-.1-.12-.22-.19-.36a6.66,6.66,0,0,0-.66-1.1c-.67-.9-2.87-2.11-4.1-2.74a2,2,0,0,0-.93-.56,7.76,7.76,0,0,0-2-1.44A6.78,6.78,0,0,1,34.49,74a2,2,0,0,0-.88-.47c-.06-.37-.18-.94-.38-.94s-.42.55-.5.81a2.41,2.41,0,0,1-1.38-.55.11.11,0,0,1-.06-.11.49.49,0,0,1,.06-.22Zm27.76-.33h0l.11,0c-.07.18-.18.52.23.5s1-.34.46-.94l.56-.85a.57.57,0,0,0,.09-.33.45.45,0,0,1,0-.17.83.83,0,0,1,.31.06.63.63,0,0,0,.63-.11.76.76,0,0,1,.33-.22.57.57,0,0,1,.17.21.58.58,0,0,0,.53.36h.07a3.36,3.36,0,0,1-.11.71,2.58,2.58,0,0,0-.1.94,3.44,3.44,0,0,1-1,.41.54.54,0,0,0-.42.45.55.55,0,0,0,.23.55,3.33,3.33,0,0,1-.16.55,2.31,2.31,0,0,0-.16,1.78c.05.12.05.12-.31.38a3.69,3.69,0,0,0-1.19,1.29,6.57,6.57,0,0,1-3.09,1.52,3,3,0,0,0-1.84,1.91.59.59,0,0,0,0,.37c-.56.17-1.87.48-2.14-.31a1.69,1.69,0,0,0,.81-1.11c.38-1.31.69-2.33.72-2.41a.57.57,0,0,0,0-.35,5.18,5.18,0,0,0,.62-1.84c.27-1.2,1.09-1.7,2.33-2.45l.52-.32c1.19-.73,1.72-.61,1.72-.61M40,78.55a.37.37,0,0,0,0-.11,11.81,11.81,0,0,1,3.1,2.13,0,0,0,0,0,0,0,2.68,2.68,0,0,0-1.44.07,3.92,3.92,0,0,1-3.35-.13c-.21-.09-.45-.19-.73-.29s-.62-.43-.53-.77.51-.7.67-.68.43.19.24.95c-.07.3,1,.31,1.5,0a1.3,1.3,0,0,0,.54-1.2m-23.4-7.3c-.21-.31-.54-.74-.86-1.16s-.72-.94-.88-1.19c1.3-.59,2.63-.9,3-.7h0c.43.23.73.41.76.66s-.12.91-2,2.5a.47.47,0,0,0-.07-.12m25.26,10a1.67,1.67,0,0,1,2,.71,2.41,2.41,0,0,0,.45.62,2.19,2.19,0,0,0,1.49,1.08,1.27,1.27,0,0,1,.53.14s0,.07,0,.16l0,.07s0,.07,0,.1a2.84,2.84,0,0,1-2.42.12h-.08s-.25.17-.12.68a.39.39,0,0,1,0,.31c-.09.13-.37.16-.67.18l-.38.05A2.39,2.39,0,0,0,43.1,84c0-1.57-1-2.16-2.67-2.36a7.78,7.78,0,0,0,1.43-.31M18.17,74.2c-.37-.75-.8-1.62-1.15-2.26a12.67,12.67,0,0,0,1.73-1.74,1.34,1.34,0,0,0,1.38-.73c.07-.14.13-.3.2-.46a6.2,6.2,0,0,1,1,1.62,1.65,1.65,0,0,0,.61.74c-1,.8-3,2.27-3.75,2.83m1.34-5a.53.53,0,0,1-.36.32,1.47,1.47,0,0,0,.15-.73c-.06-.6-.64-.91-1.1-1.16h0a3,3,0,0,0-2,.09,5.9,5.9,0,0,1,.34-.64l.18-.29.29-.11c1.6-.59,2-.25,2.68.42.39.36.34,1-.16,2.11M44.06,86.13a.5.5,0,0,0,0,.13.76.76,0,0,0,.44.83l0,0c-.16,0-.85.2-1.46-.75a1.83,1.83,0,0,0,1-.23m6.69.37h0l-.31-.07a10.48,10.48,0,0,0-1.81-1.26.89.89,0,0,0,0-.57c-.11-.23-.62,0-.83.07L47,84.27v0s0,0,0-.06a.75.75,0,0,0,0-.7,1.4,1.4,0,0,0-1-.43.92.92,0,0,1-.28-.09,3.54,3.54,0,0,0,1.2-.7c1.06-.8,2.36-1.78,4.6-.85h0a1.52,1.52,0,0,0,.32,0,1.29,1.29,0,0,0,1.2.8,1.45,1.45,0,0,0-.36,1.35,14.07,14.07,0,0,1,.07,1.6c-1.21,1.5-2,1.36-2,1.35m14.52-7.82a2.7,2.7,0,0,1-1.61-.18c.31-3.38.66-3.8,1.06-4.29a4.29,4.29,0,0,0,.76-1.27c.67-1.6,2-1.9,3.93-2.35l.21,0a2.7,2.7,0,0,1,2.43.4,1.88,1.88,0,0,0-.28,1.53,1.66,1.66,0,0,0,1.2,1c-.67,1.07-2.41,2.15-4.83,3-2.12.74-2.71,1.82-2.87,2.28m8-5.86c-.47-.13-.76-.32-.85-.57a1.29,1.29,0,0,1,.22-1C74.45,71.68,76,70,77,68.92c.21-.24.39-.43.53-.57,1-.94,1.92-1.59,3.15-.62s.83,1.7-.55,3.6c-.72,1-4.1,1.25-6.26,1.11a.57.57,0,0,0-.58.38m1.55-4.56a2,2,0,0,1,1.63-.91,2.62,2.62,0,0,1,0,.86.8.8,0,0,0,0,.31L76,69c-1-.31-1.22-.51-1.25-.61a.25.25,0,0,1,.06-.13m6.26-1a2.75,2.75,0,0,0-1-.55,4,4,0,0,1,.1-1.33,10.33,10.33,0,0,0,1,.34,4.72,4.72,0,0,1,1,.39.8.8,0,0,1-.08.14,4.38,4.38,0,0,1-1,1l0,0m.82-2.76a3.66,3.66,0,0,1-.22-.57.54.54,0,0,1,.33.16,1.89,1.89,0,0,0,.65.36h0a1.68,1.68,0,0,0-.68.35c0-.14-.1-.25-.12-.31M9.64,65.77a.29.29,0,0,1,.18-.07.27.27,0,0,1,.18.07.25.25,0,0,1-.18.42.28.28,0,0,1-.18-.06.27.27,0,0,1,0-.36"/><path class="cls-1" d="M24.26,72c-.36.09-1,1-.53,1.07a4.36,4.36,0,0,0,1-.75c.15-.26-.15-.4-.51-.32"/><path class="cls-1" d="M25,73.29c.39.12.59-.17.8-.52s0-.84-.32-.43c0,0-.87.84-.48,1"/><path class="cls-1" d="M26.56,73.84a1.46,1.46,0,0,0,.38-1.15c-.08-.35-.29-.17-.29-.17s-.72.77-.66,1,.3.64.57.29"/><path class="cls-1" d="M28.38,74.19c.39-.09.24-.55.12-1s-.21-.69-.39-.52a1.19,1.19,0,0,0-.24.7c0,.4.12.86.51.78"/><path class="cls-1" d="M37.14,23.9a.53.53,0,0,0-.35.61c.07.5.18.81.85.73s.2-1.24.07-1.36-.57,0-.57,0m.2.88a1,1,0,0,1-.07-.32c0-.1,0-.11,0-.12l.11,0a1.35,1.35,0,0,1,.12.47h-.18"/><path class="cls-1" d="M37.09,25.51a.66.66,0,0,0-.19.55c0,.35,0,.7.55.68s.62-.39.56-.82a.63.63,0,0,0-.92-.41m.45.75a.23.23,0,0,1-.11,0h0s0-.1,0-.14,0-.08,0-.13a.18.18,0,0,1,0-.11.15.15,0,0,1,.09,0c.05,0,.05,0,.05.06a.88.88,0,0,1,0,.28"/><path class="cls-1" d="M37.11,27s-.62.68-.19.89.79.31,1-.29-.26-1-.79-.6m.33.46a.27.27,0,0,1,0,.12l-.08,0a1.07,1.07,0,0,1,.13-.19s0,0,0,0a.34.34,0,0,1,0,.13"/><path class="cls-1" d="M38.14,23.24a.35.35,0,0,0-.28.47c.1.41.3,1,.83.84s.43-.55.23-1.1-.51-.34-.78-.21m.4.87h0a1,1,0,0,1-.19-.45l.07,0,.06,0h0a2,2,0,0,1,.13.48l-.06,0"/><path class="cls-1" d="M38.18,25.2s-.19.9.32.9.83-.1.8-.74c0-.85-1-1-1.12-.16m.62.41a.83.83,0,0,1-.18,0,1.38,1.38,0,0,1,0-.34v0a.2.2,0,0,1,.05-.13l0,0s.08.08.09.24a.56.56,0,0,1,0,.23"/><path class="cls-1" d="M38.66,26.31s-.44.13-.44.47-.21,1,.32.91,1-.2.89-1-.4-.53-.77-.43m.29.77a.61.61,0,0,1-.29.12s0-.08,0-.11a2.64,2.64,0,0,0,0-.28l.1-.06.14,0a.58.58,0,0,0,0,.1.44.44,0,0,1,0,.26"/><path class="cls-1" d="M39.26,22.12A.8.8,0,0,0,39,23c.17.64.57.68.83.54s.45-.29.25-.93-.55-.87-.83-.52m.27.39h0m.16.6-.09.05h0a.53.53,0,0,1-.12-.24.42.42,0,0,1,.06-.41,1.42,1.42,0,0,1,.1.26.91.91,0,0,1,.06.34"/><path class="cls-1" d="M39.41,24.41c.13.45,0,1,.55.77s.6-.49.47-1.06c-.16-.78-1.15-.16-1,.29m.6.19a.22.22,0,0,1-.07.06,1.77,1.77,0,0,0,0-.32s0-.06.08-.09a.92.92,0,0,1,0,.35"/><path class="cls-1" d="M39.6,26c0,.56,0,1.05.54.93s.69-.4.59-1.08c-.12-.88-1.15-.41-1.13.15m.52.45c0-.14,0-.33,0-.47a.17.17,0,0,1,.06-.08.22.22,0,0,1,.1-.06l0,.08c.06.39,0,.48-.14.53"/><path class="cls-1" d="M54,28.78c-.14,0-.29.11-.52.33l-.18.18A6.7,6.7,0,0,1,52,30.39a.09.09,0,0,0-.08.09.1.1,0,0,0,.1.1h3.11a.1.1,0,0,0,.09-.06.12.12,0,0,0,0-.1c-.25-.33-.92-1.23-1-1.43a.28.28,0,0,0-.2-.21m-.4,1.14.18-.18.07-.06.17.24Z"/><path class="cls-1" d="M12.56,58.32c1.89,6,3.22,7.08,2.75,3.67s-1.09-6.06-.71-6.61.14-1.42,0-2.3.33-1-.38-3.21.09-1.61.05-2.71-.43-1-.29-2.39.19-3.26.19-3.26-1.19,0-1.33.74a83.21,83.21,0,0,0,.48,13c.61,3.22-1.1.09-1.33-3.86s-.1-8.45-.1-8.45.19-1-1.14-1.33c0,0,0,10.7,1.86,16.67"/><path class="cls-1" d="M18,55.66c0-2.21-.86-3.22-.48-4.55s.62-1.84-.09-2.94-.43-1-.24-2.39-.19-3.4-.05-4.5c0,0-.66-.51-.76.09A103.52,103.52,0,0,0,17,52.44c.43,3-.38,1.75-.67-.78-.19-1.73-.66-10-.66-10s-.86-.64-1,0c0,0-.2,10,1.75,13.83S18,57.86,18,55.66"/><path class="cls-1" d="M20.62,53.27a5.18,5.18,0,0,1-.24-2.48c.1-1-.37-1.89-.56-3.31a58.53,58.53,0,0,1-.29-6.75s-.29-.32-.81.05c0,0,.05,5,.29,6.84s-.76-.14-.81-3.31,0-3.81-.61-3.21c0,0-.19,9.69,2.6,12.72,0,0,.77.64.43-.55"/><path class="cls-1" d="M20.15,40.09s-.33,8.9,2.18,11.34.62.14.62-2.71c0-3.3-.71-2.57-.76-3.4,0,0-.14-3.35-.29-4.36s-.9-1.47-.66.14.71,5.83.09,5.87-.52-2.66-.56-4.26.19-2.53-.62-2.62"/><path class="cls-1" d="M23.71,39.76s-.43-.36-.29,1.2.48,3.07-.09,3-.34-2-.43-2.76-.24-1.74-.57-1.14c0,0,.09,6,1.8,8.5s1.71.59.91-.88a9.89,9.89,0,0,1-.95-4.64,22.27,22.27,0,0,0-.38-3.31"/><path class="cls-1" d="M25.37,45.64c1.09,1.48.76.24.52-1.28a30.34,30.34,0,0,1-.19-5,.44.44,0,0,0-.61,0s.33,2.71,0,2.67-.38-1-.48-2-.18-.69-.47-.5c0,0,.1,4.64,1.19,6.1"/><path class="cls-1" d="M11.41,32.33A44.4,44.4,0,0,0,11,37.05c-.12,2.83.08,3.27,1.19,3.33,1.46.08,1.73-.9,2-3.14.25-2.42.28-3.68.32-4s-.79-1.33-.95.15-.08,6.1-1,5.91-.71-2.51-.51-4.11.71-3.51.07-3.66-.63.8-.63.8"/><path class="cls-1" d="M15,33.24s-1.22,6.83,0,6.88c1.91.07,1.61-1.88,1.81-4s.39-2.74-.08-2.74-.59,2.06-.67,3.16,0,2.55-.55,2.48-.5-1.65-.31-3c.43-3.05.23-3.43-.24-2.78"/><path class="cls-1" d="M17.87,34s-.15-.3-.39-.26c0,0-.22,2.38-.3,3.79s.18,2,1.13,2,.86-1.64.9-3,.4-2.52,0-2.64-.43.88-.47,1.76-.12,2.82-.51,2.82-.63-.46-.55-1.87.19-2.67.19-2.67"/><path class="cls-1" d="M44.15,39.7c.33-.08.27-.28.54,0s.31.33.65.26a1.18,1.18,0,0,1,.94.31c.19.2.48.16.44.35s-.36.38.4.52,1,.24,1.25,0,.55-.26-.08-.61A4.33,4.33,0,0,1,47,39.73c-.5-.49-.44-.49-.77-.62A1.91,1.91,0,0,0,44.94,39a4.76,4.76,0,0,1-1.15.15s-.23.16-.06.34.08.34.42.26"/><path class="cls-1" d="M47.49,41.55c-.25,0-.39-.21-.62-.21,0,0-.38,0-.17.29s.4.36.62.3.42-.36.17-.38"/><path class="cls-1" d="M49.29,41.77a2.42,2.42,0,0,0,.78-.16c.27-.14.48,0,.73.1a.48.48,0,0,0,.6-.24c.17-.29,0-.47-.25-.67a.69.69,0,0,0-.79-.06c-.25.12-.19.2-.44.24s-.94.71-.63.79"/><path class="cls-1" d="M52.3,42c.11,0,.42.06.55,0s.34,0,.12-.36-.12-.43-.52-.37-.34.21-.34.21.09.5.19.48"/><path class="cls-1" d="M53.83,46.39c.06.06.25.2.32,0s.06-.63-.49-.49c0,0-.18.14-.06.26a2,2,0,0,1,.23.27"/><path class="cls-1" d="M24.48,35.42c-.58,4.15,1.11,2.67,1.11,2.67.08-1,.26-2.45.26-2.45-.15-.22-.34-.11-.38.41s-.07,1.74-.49,1.63-.08-2.26-.27-2.33-.23.07-.23.07"/><path class="cls-1" d="M22.42,34.94s-.31,2-.31,2.66a1,1,0,0,0,1.19,1c.84-.08.64-1.15.72-2s.15-1.4.15-1.4c-.42-.15-.38,0-.53,1.11S23.53,37.94,23,38s-.27-2.14-.19-2.66-.34-.37-.34-.37"/><path class="cls-1" d="M20.05,34.42A25,25,0,0,0,19.7,38c0,1.56,1.83,1.11,1.91,0s.42-3.19.42-3.19c-.61-.44-.65.75-.76,1.78s-.15,1.67-.73,1.56-.19-2.93-.15-3.41-.34-.26-.34-.26"/><path class="cls-1" d="M19.21,71.19c-.29.5-.14.66.17.7s.41-.86.41-.86c-.1-.37-.31-.35-.58.16"/><path class="cls-1" d="M20.45,70.94s-.42-.06-.34.56.42.7.58.58.1-.68.1-.81-.15-.53-.34-.33"/><path class="cls-1" d="M21.32,70.8a1.3,1.3,0,0,0,.16.84c.24.33.69.5.54-.2s-.3-.9-.7-.64"/><path class="cls-1" d="M14.57,69.67c-.16-.08-.32-.14-.44.12,0,0-.14.38.27.38a.27.27,0,0,0,.17-.5"/><path class="cls-1" d="M12.88,70.64v0s0,.31.21.31.24-.09.26-.25-.35-.33-.47-.1"/><path class="cls-1" d="M13.44,72.73a.28.28,0,0,0,.07.45c.3.19.38.13.3-.24s-.2-.35-.37-.21"/><path class="cls-1" d="M15.34,72.67s.24.14.28,0-.06-.24-.06-.24-.38-.09-.22.2"/><path class="cls-1" d="M15.66,74.23s-.12.37.19.41a.23.23,0,0,0,.21-.39c-.11-.12-.4-.1-.4,0"/><path class="cls-1" d="M17.31,74.7s.28.06.28,0,.05-.2-.05-.28-.37,0-.23.28"/><path class="cls-1" d="M17,80.43s.59-1.33-.24-1.08a.89.89,0,0,0-.3.92s-.42-.16-.14.39.48,1,1,.54-.35-.77-.35-.77"/><path class="cls-1" d="M19,81.34s-.48.37-.34.54.77.26.83,0-.27-.75-.49-.57"/><path class="cls-1" d="M21.14,81.71s-.55.15-.28.43a.9.9,0,0,0,.8.25c0-.06.28-.84-.52-.68"/><path class="cls-1" d="M19.53,79.37s-.61.33-.36.57.68-.2.68-.2.12-.44-.32-.37"/><path class="cls-1" d="M21.42,78.75a.51.51,0,0,0,.62-.18s-.3-.74-.68-.46c0,0-.36.48.06.64"/><path class="cls-1" d="M24,81.4a.63.63,0,0,0,.64,0s.28-.43-.82-.64a.42.42,0,0,0,.18.62"/><path class="cls-1" d="M30,81.16c0-.4-.48-.25-.48-.25s-.28.08-.3.25.36.24.36.24.42.17.42-.24"/><path class="cls-1" d="M30.06,83.52c-.23-.11-.49.16-.49.16a.38.38,0,0,0,.39.52c.54,0,.5-.35.5-.35s0-.09-.4-.33"/><path class="cls-1" d="M31.66,82.73a.53.53,0,0,0-.58-.46s-.53,0-.63.48.73.42.73.42.5-.14.48-.44"/><path class="cls-1" d="M31,84.36a.43.43,0,0,0,.48.39c.46,0,.42-.29.42-.29s-.78-.43-.9-.1"/><path class="cls-1" d="M33.83,82.84c.53,0,.39-.39.39-.39a.64.64,0,0,0-.5-.2c-.35,0-.41,0-.43.28,0,0,0,.33.54.31"/><path class="cls-1" d="M29.91,74.37c.31,0,.07-1,.07-1s-.22-.56-.39-.53c0,0-.47,0-.29.72s.31.81.61.78"/><path class="cls-1" d="M29.87,74c.2.28.37.32.63.17S30,72.91,30,72.91s-.69-.37-.63,0a5.38,5.38,0,0,0,.48,1"/><path class="cls-1" d="M22,73.73c-.22,0-1,.52-.71.65A.71.71,0,0,0,22,74.2c.28-.29.26-.45,0-.47"/><path class="cls-1" d="M23.26,74.3s-.91.85-.56,1,.64-.31.78-.67,0-.53-.22-.36"/><path class="cls-1" d="M24.14,75.64c.1.26.36.64.61,0s.13-.74-.07-.54c0,0-.64.31-.54.57"/><path class="cls-1" d="M26.39,75.94c.15-.82,0-.74-.2-.55,0,0-.58.46-.43.68s.48.69.63-.13"/><path class="cls-1" d="M28,77.07c.45,0,.31-.66.2-1.15s-.26-.5-.39-.5-.27-.06-.26.53,0,1.09.45,1.12"/><path class="cls-1" d="M29.62,75.72s-.46,1,.16,1.33.39-.31.26-.73-.28-.86-.42-.6"/><path class="cls-1" d="M30.22,75.58s-.34-.06-.22.45.29,1,.81.87-.26-1.12-.59-1.32"/><path class="cls-1" d="M33,76.81c.28-.51-1.08-1.5-1.3-1.36,0,0-.4.19,0,.62s1,1.24,1.3.74"/><path class="cls-1" d="M34.67,76.52c.33-.19-.5-1-.5-1s-.61-.65-.75-.49c0,0-.34.37.14.84s.79.8,1.11.6"/><path class="cls-1" d="M26.68,77.94s-.88,1.19-.34,1.4.59-.85.57-1.29-.23-.11-.23-.11"/><path class="cls-1" d="M33.64,77.66a6.14,6.14,0,0,1,.37.85c.07.24.32.67.6.28s.1-.53-.17-.87-1-.61-.8-.26"/><path class="cls-1" d="M16.66,29.74a1.06,1.06,0,0,0-1.22.74c-.33.94-.1,1.31.1,1.26s.31-.94.55-.84-.27.88.07,1,.46-.89.72-.8-.26.89.12,1,.92-2-.34-2.31"/><path class="cls-1" d="M19.2,30.58a1,1,0,0,0-1.09.71c-.27.86-.05,1.2.13,1.15s.25-.87.47-.79-.21.81.1.88.39-.83.63-.75-.21.81.14.89.77-1.82-.38-2.09"/><path class="cls-1" d="M14.17,31c.48.16,1.36-2.27-.23-2.8a1.4,1.4,0,0,0-1.63.79c-.51,1.09-.25,1.55,0,1.52s.47-1.1.78-1-.43,1,0,1.16.67-1,1-.89-.42,1,.07,1.19"/><path class="cls-1" d="M21.53,31.42a.84.84,0,0,0-1,.59c-.27.74-.09,1,.08,1s.24-.74.43-.67-.21.7.06.77.36-.71.57-.64-.21.71.1.79.73-1.57-.27-1.84"/><path class="cls-1" d="M23.8,33.66c.25.07.6-1.29-.22-1.51a.7.7,0,0,0-.8.48c-.22.62-.07.86.06.83s.2-.62.36-.56-.18.58,0,.64.31-.59.48-.53-.17.58.08.65"/><path class="cls-1" d="M25.81,34.12c.26,0,.41-1.36-.44-1.47a.69.69,0,0,0-.72.59c-.13.63.06.85.18.81s.11-.64.28-.6-.1.59.13.62.22-.62.39-.58-.08.6.18.63"/><path class="cls-1" d="M12.77,32.8c-.14.8-.8,5.48-.37,5.56s.37-2,.48-3.1.32-2.73.32-2.73-.29-.53-.43.27"/><path class="cls-1" d="M15.78,33.79c-.11.63-.61,4.32-.29,4.38s.29-1.6.37-2.45.24-2.15.24-2.15-.22-.41-.32.22"/><path class="cls-1" d="M18.24,34.43c-.08.51-.4,3.44-.07,3.48s.2-1.29.25-2,.13-1.7.13-1.7-.23-.31-.31.18"/><path class="cls-1" d="M20.77,34.75c-.09.38-.45,2.61-.13,2.63s.23-1,.28-1.48.16-1.3.16-1.3-.23-.23-.31.15"/><path class="cls-1" d="M23.42,35.18s-.22-.17-.28.13-.31,2.06,0,2.06.17-.77.2-1.17.1-1,.1-1"/><path class="cls-1" d="M25.33,35.45s-.18-.15-.23.11-.27,1.75,0,1.75.14-.66.17-1,.08-.86.08-.86"/><path class="cls-1" d="M63.36,33.53V35s.76-.06.76-.24.31.09.31.09a1.94,1.94,0,0,0-1.07-1.32"/><path class="cls-1" d="M64.5,37.67c-.29,0-.54.09-.51-.62s.13-1.22-.57-1v2.26s1,.71,1.64,0A4.66,4.66,0,0,0,64.88,36s-.1-.1-.35.14c0,0,.25,1.51,0,1.51"/><path class="cls-1" d="M63.42,39.35a7.35,7.35,0,0,0,0,1.69c.13,0,.66,0,.63-1.08s-.41-.91-.63-.61"/><path class="cls-1" d="M64.69,39.11s-.23,0-.23.67-.19,1.2,0,1.2.41-.62.56-1.23-.06-.8-.37-.64"/><path class="cls-1" d="M63.58,42.57c.41,0,1,0,1.11-.68s-.7-.49-1.3.06c0,0-.22.59.19.62"/><path class="cls-1" d="M63.39,43.39a8.6,8.6,0,0,0,0,1.84,9,9,0,0,0,.89-1.75c.15-.46-.76-.43-.92-.09"/><path class="cls-1" d="M63.08,55.76c.28,1.13.07,1.06-.2,1.06s-.55-1.59-1-.53c-.24.61-.62,1.52.14,1.46s2.66.06,2-1.39-1.3-1.73-1-.6"/><path class="cls-1" d="M64.79,60.39a.61.61,0,0,0,.15-.61c-.11-.4-1.36-.14-1.36-.14l-2.8.14s-.33.58-.23.68,4,.07,4.24-.07"/><path class="cls-1" d="M62.26,62.73c0-1.06-.23-2-1.1-1.93,0,0-1.19-.06-1.23.71s-.12,1.88.23,1.88.09-1.36.37-1.38.32.54.32.92.51.54.47,0-.29-1,0-1,.4.14.34.69.6,1.16.58.1"/><path class="cls-1" d="M63.42,61.87c.27,0,.29.5.29.86s.48.49.44,0-.27-.95,0-.87.36.12.3.63.56,1.07.54.09-.21-1.82-1-1.78c0,0-1.09-.06-1.12.65s-.12,1.74.21,1.74.07-1.26.34-1.28"/><path class="cls-1" d="M35,74.11c.45,0,.23-2-.27-1.66a.93.93,0,0,0-.27.67c0,.47.1,1,.54,1"/><path class="cls-1" d="M36.68,73.93c-.12-.79-.49-1.15-.52-.86a2.05,2.05,0,0,0,0,1c.12.53.67.64.54-.14"/><path class="cls-1" d="M38.43,74.14c.12-.12-.54-1.33-.81-1,0,0-.32.14.05.62s.64.48.76.36"/><path class="cls-1" d="M40.21,76.55c-.05-.17-.38-.43-.5-.4s-.35.16-.05.45.59.12.55,0"/><path class="cls-1" d="M41.71,76.65c.39-.2-.4-.89-.89-.86,0,0-.27,0,0,.4s.49.65.89.46"/><path class="cls-1" d="M43.53,79c.47.39.82.39.57-.09s-.5-.82-.69-.6c0,0-.35.31.12.69"/><path class="cls-1" d="M45.77,78.63c.13-.31-.66-1.34-1-1.32,0,0-.42,0,0,.7s.91.93,1,.62"/><path class="cls-1" d="M47,78.24c0-.3-.6-1.45-.67-1.1a1.45,1.45,0,0,0,.12,1.15c.35.4.57.27.55-.05"/><path class="cls-1" d="M48.56,77.79c-.08-.45-.47-1.14-.64-1,0,0-.37.17-.05.69s.76.76.69.31"/><path class="cls-1" d="M49.67,77.19c.78,0-.17-.59-.25-.71s-.42-.19-.39,0a.57.57,0,0,0,.64.71"/><path class="cls-1" d="M49.67,79.67a.49.49,0,0,0-.45-.42s-.51,0-.17.35.66.34.62.07"/><path class="cls-1" d="M51.07,79.46c-.27-.71-.51-1.07-.79-.9,0,0-.22.3.13.78s.93.84.66.12"/><path class="cls-1" d="M52,78.51c-.09-.57-1.1-2-1.1-1.46a1.2,1.2,0,0,0,.24.91c.34.45,1,1.12.86.55"/><path class="cls-1" d="M48.86,81.58c-.15.24-.35.91.09.71,0,0,.74-.4.62-.61s-.57-.33-.71-.1"/><path class="cls-1" d="M50.26,83c-.4.09-.76.45-.55.69,0,0,.23.41.72,0s.22-.79-.17-.69"/><path class="cls-1" d="M56.57,83.76s-.89.69-.15.74.86-.2.64-.53-.25-.36-.49-.21"/><path class="cls-1" d="M61.4,84.37c-.2,0-.92.39-.62.69,0,0,.59.25.89-.16s-.08-.53-.27-.53"/><path class="cls-1" d="M63.3,83c-.35.14-.55.43,0,.66a.58.58,0,0,0,.59-.28c.22-.36-.25-.52-.59-.38"/><path class="cls-1" d="M60.14,82.66s-.74.9,0,1,.38-.62.38-.62-.28-.52-.4-.33"/><path class="cls-1" d="M60.16,81.16c-.36-.31-.56-.15-.74.07,0,0-.48.83.11.81s1-.58.63-.88"/><path class="cls-1" d="M63,81c-.1-.31-.2-.43-.47-.29,0,0-.59.43-.23.57s.79,0,.7-.28"/><path class="cls-1" d="M54.42,79a.28.28,0,0,0,.25.43c.44.05.47-.24.44-.38a.44.44,0,0,0-.69,0"/><path class="cls-1" d="M55.11,76.27s-.12.55.35.69.32-.32.27-.44-.64-.54-.62-.25"/><path class="cls-1" d="M57.53,77.39s-.42.42-.15.52.84-.38.15-.52"/><path class="cls-1" d="M59.3,76.22c.4,0,.67-.41.1-.5,0,0-.49.45-.1.5"/><path class="cls-1" d="M57.11,76.07s-.54.05-.25.34.42.28.54-.07.06-.34-.29-.27"/><path class="cls-1" d="M58.05,74.24a.46.46,0,0,0,.19.55c.32.19.32,0,.35-.19s-.54-.65-.54-.36"/><path class="cls-1" d="M57.43,73.43a.57.57,0,0,0,.49-.08c.23-.16-.56-.36-.49.08"/><path class="cls-1" d="M61.87,71.26c.24-.22-.3-.46-.45-.15,0,0,.2.36.45.15"/><path class="cls-1" d="M76.16,83.09c.58-.17,1-1.12,0-.87,0,0-.48.46-.48.59s0,.44.52.28"/><path class="cls-1" d="M72.48,81.56s-.17.58.06.55.73-.18.43-.47-.41-.22-.49-.08"/><path class="cls-1" d="M70.75,80.81s-.51.19-.53.38,0,.55.46.24.76-.91.07-.62"/><path class="cls-1" d="M68.8,80.15s-.61.17-.42.4.66.62.77.19,0-.78-.35-.59"/><path class="cls-1" d="M73,79.39s-.48.19-.4.37a.36.36,0,0,0,.6.13c.23-.25.25-.71-.2-.5"/><path class="cls-1" d="M74.52,81.27c.38-.1.9-1,.11-.87a.82.82,0,0,0-.43.39c-.13.3,0,.58.32.48"/><path class="cls-1" d="M65.66,73.82s0,.59.44.48a.33.33,0,0,0,.23-.48s-.81-.45-.67,0"/><path class="cls-1" d="M65.6,76.54c-.37-.19-.39-.25-.51-.09,0,0-.31.57,0,.59s.85-.31.47-.5"/><path class="cls-1" d="M67.29,74.83c.06-.25-1.27.3-.74.53,0,0,.43.21.64.1s0-.38.1-.63"/><path class="cls-1" d="M68.55,72.34c.36,0,.34-.34.22-.53s-.71-.21-.67.17c0,0,.1.38.45.36"/><path class="cls-1" d="M68.71,73.4c.77.44.51-.76.14-.55,0,0-.49.35-.14.55"/><path class="cls-1" d="M69.91,72.51c.82,0,.37-.8.06-.65a3,3,0,0,0-.41.36c0,.08-.31.29.35.29"/><path class="cls-1" d="M69,74.72c0,.17.2.27.53.17s.34-.53-.08-.44c0,0-.43.1-.45.27"/><path class="cls-1" d="M70.81,74.22c.18-.06.12-.4.14-.64s-.1-.37-.4-.15c0,0-.19,0-.17.28s.25.57.43.51"/><path class="cls-1" d="M77.7,70.17c.29-.24.5-.68,0-.74a.32.32,0,0,0-.33.36c0,.36.09.63.36.38"/><path class="cls-1" d="M78.55,70.53a1.41,1.41,0,0,0,.61.13c.24,0,.12-.4-.06-.49s-.86.31-.55.36"/><path class="cls-1" d="M79.93,69.05c.61.11.73-.61.45-.55,0,0-1.06.44-.45.55"/><path class="cls-1" d="M78.67,68.88c.31,0,.53-.12.34-.27s-.5-.46-.5-.28c0,0-.15.56.16.55"/><path class="cls-1" d="M76.52,31.1c0-.62-.19-.76-.24-.69s-.14,1.7,0,1.75.26-.44.21-1.06"/><path class="cls-1" d="M67.89,34.94c-.36.05-.48-.48-.5-.83s-.33-.55-.5-.11c0,0,.07,1.46.79,1.4.9-.07,1.14-.5.78-1.65a.31.31,0,0,0-.48-.1c-.28.23.27,1.25-.09,1.29"/><path class="cls-1" d="M69,33.36s-.14,1.58.57,1.61c.89,0,1.19-.4,1-1.68,0,0-.14-.38-.46-.16s.08,1.37-.28,1.38-.39-.58-.36-1-.25-.64-.48-.19"/><path class="cls-1" d="M71.13,32.9s-.16,1.63.49,1.65c.82,0,1.11-.44,1-1.75,0,0-.13-.39-.42-.16s0,1.41-.28,1.43-.35-.6-.32-1-.22-.65-.43-.18"/><path class="cls-1" d="M73.12,32l0,1.4a.86.86,0,0,0,.92,1c1,0,.79-1.29.79-1.84s-.07-1.39-.33-1.34-.34.35-.32.94.15,1.32-.18,1.29-.31-.46-.31-1.06-.48-1-.55-.36"/><path class="cls-1" d="M76,30.62s-.62-.53-.62.27-.24,3.11,1.14,3.18,1.17-1.66,1.17-2.74.21-2.23-.24-1.93-.5.61-.55,1.4.17,2.05-.24,2.12-.67-.08-.61-1.22a2.65,2.65,0,0,0,0-1.08"/><path class="cls-1" d="M79,31.43c-.08-1.28,0-2.2-.27-2.2,0,0-.47,0-.5.6S78,33,78.83,33.4s2.09.16,2.11-.78,0-3,0-3.59-.57-.83-.69-.05.35,3.82-.38,3.77-.84-.06-.9-1.32"/><path class="cls-1" d="M79.54,29.44s-.26,2.26.07,2.4.17-1.54.19-2.05-.21-.76-.26-.35"/><path class="cls-1" d="M76.1,65c.58.06,2.36-3.85,2.8-6.36A14.33,14.33,0,0,1,80,54.37a32.77,32.77,0,0,0,1.21-8c0-2.31.14-4.43,0-4.79s-.27-.49-.68-.2-.9.14-.83,1.18.13,7.53-.24,8.57-.74,2.64-1,3.71-.68,2.28-.44.07.71-2.28.74-3.62.37-2.93.3-4.85.1-4.37.1-4.37-1-1.3-1-.13.07,7.23,0,8a13.85,13.85,0,0,0-.27,2.86c.1.82-.3,1.08-.37,2.41S77,61.6,76.3,63s-.77,1.92-.2,2"/><path class="cls-1" d="M75.19,58.86c.44-.26,2.16-4.2,2.26-10.2s.34-6.64.07-7.09-.84-.59-.74.64-.24,9.87-.68,9.91c-.37.29.31-7.37.14-10.34l0-.07s-.55-1.39-.58-.32-.07,5.81-.2,6.16a11,11,0,0,0-.51,3.82,33.51,33.51,0,0,1,.11,6c-.21.94-.27,1.72.16,1.46"/><path class="cls-1" d="M74.79,45.37a43.16,43.16,0,0,0,.34-4.45.58.58,0,0,0-.79.55c0,.46-.06,2.47-.16,3.16s-.1,3.64-.53,3.61-.2-1.46-.07-2.74a12.93,12.93,0,0,0,.27-4.37s-.62-.65-.65-.07a9.6,9.6,0,0,1-.13,2.39,4,4,0,0,0-.33,2c0,1,.2,2.48-.17,3.06a5.77,5.77,0,0,0-.37,2.12,10.75,10.75,0,0,1-1,3.66c-.71,1.1.8,1.4,2.32-2.78s1.21-4.92,1.31-6.19"/><path class="cls-1" d="M70.76,41.11c0,.65-.08,4.85-.41,5.57s-.44,2.18-.64,2.57-1,2.25-1.35,2.83-.3,1.31.37.82a10.56,10.56,0,0,0,3.07-5.38c.3-2.27.67-3.75.77-4.36a6.78,6.78,0,0,0,.09-2.41c-.21-.13-.61-.26-.61.36a17.59,17.59,0,0,1-.53,3.81c-.33,1-.36,1.43-.4.13s.25-3.87.08-4.49c0,0-.44-.1-.44.55"/><path class="cls-1" d="M68.53,40.42s-.07.59-.07,2.41c0,2.28-1.21,4.56-1.88,6s.23,1,.77.58a14.43,14.43,0,0,0,2.05-3.19c.51-1,1-5.73,1-5.73a.47.47,0,0,0-.71,0c-.17.26-.37.36-.51.06s-.64-.1-.64-.1"/><path class="cls-1" d="M67.65,44.86a25.93,25.93,0,0,0,.41-4.28c0-.55-.27-.91-.33.07s-.39.54-.55-.3-.49,1.63-.35,2.48-.75,3.13-1.09,4.59,1.61-1.78,1.91-2.56"/><path class="cls-1" d="M68.06,36.49c-.14,1.11.06,1.57-.33,1.43s0-1.83-.3-1.83-.25.67-.3,1.14S67,39,67.71,39c1.2,0,.93-2.2.93-2.6s-.44-1.06-.58.05"/><path class="cls-1" d="M70.47,35.77c-.3,0-.43.09-.41.72s.11,1.27-.22,1.2-.22-.8-.19-1.38-.21-.56-.21-.56-.31-.08-.31.53S69,38.93,69.65,39s1-.51,1.07-1.86.06-1.36-.25-1.36"/><path class="cls-1" d="M71.84,39.44c1.13.1.91-1.84.94-2.31s.13-1.59-.14-1.62-.25.29-.25.82,0,1.78-.38,1.8-.41-.6-.33-1.51.08-1-.08-1.06c0,0-.42,0-.42.72s-.46,3,.66,3.16"/><path class="cls-1" d="M75,35.33c-.33-.09-.55,0-.55.63s.08,2.6-.3,2.6S73.68,38,73.68,37s.27-1.59.08-1.65c0,0-.55-.29-.58.69s-.19,3.63.63,3.76,1.35-.87,1.26-2.09.28-2.3,0-2.38"/><path class="cls-1" d="M76.11,35.09s-.43-.06-.49.74.06,2.28.06,3,.08,1.36.79,1.44,1.24-1,1.24-2.23S78,35,77.54,34.9s-.36.34-.33.8,0,3.39-.55,3.31-.63-1.32-.46-2.62c.19-1.52-.09-1.3-.09-1.3"/><path class="cls-1" d="M76.66,35.56s-.19-.13-.19.64-.19,2,.11,2.07.08-.69.19-1.38.11-1.33-.11-1.33"/><path class="cls-1" d="M81.1,34.53c-.41-.05-.58-.13-.6.71s-.08,3.4-.08,3.4.08,1-.64,1-.7-.43-.7-1.35.24-3.4-.36-3.48c0,0-.47,0-.5.82s0,3.24,0,3.66a1.53,1.53,0,0,0,1.37,1.59c1.18.16,1.53-1.48,1.56-3.1s.33-3.21-.08-3.26"/><path class="cls-1" d="M79.78,35.41s-.3-.11-.32.6-.17,2.92.11,2.92.32-.13.3-.74c-.06-1.78.16-2.76-.09-2.78"/><path class="cls-1" d="M66.55,14.89l.38-2.63c.06-.38,0-.64-.52-.71l-.64-.08-.56,3.88.63.08c.5.07.66-.16.71-.54m-.93.2.21-1.43.38.05.05-.36-.38,0,.21-1.48.2,0c.24,0,.31.12.28.35l-.39,2.68c0,.22-.12.28-.37.25Z"/><path class="cls-1" d="M34.57,34.31a.48.48,0,0,1-.55-.49v-.49h1.07a.73.73,0,1,0,0-1.44h-2v.36s.29-.08.29.29V34a.34.34,0,0,1-.34.25v.28h1.51Zm.17-2.15a.38.38,0,1,1,0,.75H34v-.75Z"/><path class="cls-1" d="M30.37,50.67h1.54a.35.35,0,0,1,.27.34h.29V49.54H32.2a.48.48,0,0,1-.51.53h-.51V49a.74.74,0,1,0-1.48,0V51h.37s-.08-.29.3-.29M30,49.36a.39.39,0,0,1,.39-.37.38.38,0,0,1,.39.37v.7H30Z"/><path class="cls-1" d="M56.91,62.42a.26.26,0,0,1-.43.09l-1.26-.88a.36.36,0,0,1,0-.45L55,61l-1,1.31-.34.47A.81.81,0,0,0,53.78,64a.81.81,0,0,0,.84,0,.67.67,0,0,0,.28.52A.8.8,0,0,0,56,64.27l.62-.83.09-.12.18-.23.34-.46Zm-2.56.9a.39.39,0,0,1-.08-.56l.41-.55a.44.44,0,0,1,.31.1l.41.29-.48.63a.41.41,0,0,1-.57.09m1.62.51a.4.4,0,0,1-.54.09.38.38,0,0,1-.09-.53l.41-.54.63.44Z"/><path class="cls-1" d="M38.39,31.87a1.4,1.4,0,1,0,1.55,1.4,1.48,1.48,0,0,0-1.55-1.4m0,2.38c-.27,0-.64-.48-.64-1s.37-1,.64-1,.63.48.63,1-.37,1-.63,1"/><path class="cls-1" d="M42.61,34.31s-.56,0-.56-.49v-.49h.47l.8,1.24a1,1,0,0,0,.9-.32l-.12-.18s-.35.22-.51,0l-.42-.7a.75.75,0,0,0,.76-.71.77.77,0,0,0-.8-.72h-2v.36s.29-.08.29.29V34a.34.34,0,0,1-.34.25v.28h1.51Zm.17-2.15a.38.38,0,1,1,0,.75h-.73v-.75Z"/><path class="cls-1" d="M30.34,45.43h1.54a.35.35,0,0,1,.27.34h.29V44.3h-.27a.48.48,0,0,1-.5.53h-.52v-.46l1.29-.77a.93.93,0,0,0-.34-.86l-.18.12s.23.33-.05.48l-.72.41a.74.74,0,1,0-1.48,0v1.94H30s-.08-.29.3-.29m-.4-1.31a.38.38,0,0,1,.39-.37.37.37,0,0,1,.38.37v.7h-.77Z"/><path class="cls-1" d="M44.84,68.68a.48.48,0,0,1,.4.62c0,.12-.09.29-.14.47l-.45-.12-.42-1.41a1,1,0,0,0-.95.07l.07.21s.39-.13.47.18.16.6.21.78a.78.78,0,0,0-.94.49.75.75,0,0,0,.57.9l1.42.4.5.13.1-.34s-.3,0-.2-.36l.42-1.44a.38.38,0,0,1,.41-.16l.08-.26-1.46-.4Zm-1,1.56a.4.4,0,0,1,.47-.26l.69.2c-.07.27-.15.53-.21.72l-.69-.2a.36.36,0,0,1-.26-.46"/><path class="cls-1" d="M61.22,35.15s.08.29-.3.29H59.38a.35.35,0,0,1-.27-.33h-.29v1.46h.27a.48.48,0,0,1,.51-.53h.51v.46l-1.29.76a.94.94,0,0,0,.34.88l.19-.13s-.24-.33,0-.48l.71-.41a.74.74,0,1,0,1.48,0V35.15Zm.1,1.6a.39.39,0,0,1-.78,0v-.7h.78Z"/><polygon class="cls-1" points="50.06 34.36 49.68 34.36 50.71 32.87 52.21 34.57 53.52 33.22 54.31 34.36 53.83 34.36 53.83 34.58 55.74 34.58 55.74 34.36 55.48 34.36 54.2 32.51 54.21 32.5 54.21 31.95 53.59 31.95 53.59 32.35 52.53 33.44 51.29 31.95 49.94 31.95 49.94 32.38 50.29 32.38 50.29 32.39 48.92 34.36 48.65 34.36 48.65 34.58 50.06 34.58 50.06 34.36"/><polygon class="cls-1" points="58.15 34.16 57.93 34.16 57.93 32.37 58.15 32.37 58.15 31.96 56.86 31.96 56.86 32.37 57.08 32.37 57.08 34.16 56.86 34.16 56.86 34.57 58.15 34.57 58.15 34.16"/><polygon class="cls-1" points="30.12 41.95 31.97 41.95 31.97 42.16 32.39 42.16 32.39 40.91 31.97 40.91 31.97 41.12 30.12 41.12 30.12 40.91 29.69 40.91 29.69 42.16 30.12 42.16 30.12 41.95"/><polygon class="cls-1" points="30.11 36.91 32.49 35.44 30.11 33.64 30.11 33.16 29.72 33.16 29.72 34.47 30.11 34.47 30.11 34.08 31.44 35.09 30.11 35.91 30.11 35.82 29.72 35.82 29.72 37.28 30.11 37.28 30.11 36.91"/><polygon class="cls-1" points="29.96 40.32 30.51 40.32 30.51 40.08 30.25 40.08 30.25 39.35 31.99 39.35 31.99 39.81 32.39 39.81 32.39 38.04 31.99 38.04 31.99 38.5 30.25 38.5 30.25 37.77 30.51 37.77 30.51 37.53 30.25 37.53 29.7 37.53 29.7 40.32 29.96 40.32"/><polygon class="cls-1" points="30.12 47.67 31.97 47.67 31.97 47.88 32.39 47.88 32.39 46.63 31.97 46.63 31.97 46.85 30.12 46.85 30.12 46.63 29.69 46.63 29.69 47.88 30.12 47.88 30.12 47.67"/><path class="cls-1" d="M54.16,65.69s-.14-.08-.18-.13L52.84,64.4c-.05-.05-.06-.08-.05-.11a2,2,0,0,1,.22-.22l-.23-.24L50.72,65.7l.34.68.25-.23a1.45,1.45,0,0,1,0-.41.19.19,0,0,1,.08-.14l.84-.77,1.2,1.23s.14.15.13.17a6.09,6.09,0,0,1-.45.45l.25.25,1.3-1.18-.25-.26a2.25,2.25,0,0,1-.24.2"/><path class="cls-1" d="M34.85,62.49l1.4-.86s.09,0,.12,0a2.48,2.48,0,0,1,.18.25l.29-.17-1.51-2.32-.75.2.19.28c.12,0,.39.07.41.07s.09,0,.13.1l.62.95-1.48.9a.48.48,0,0,1-.2.09s-.25-.35-.36-.51l-.31.19,1,1.45.31-.18a2.4,2.4,0,0,1-.15-.27s.1-.12.16-.15"/><path class="cls-1" d="M36.33,62.39l.25.31.23-.1a.31.31,0,0,1,.12,0s.19.15.23.2l.51.61-.71.54-.66-.79-.31.23.67.81-.55.43-.58-.69,0,0a.12.12,0,0,1,0-.1l.05-.08.14-.17-.24-.29-.47.59,1.52,1.82.25-.2-.12-.15a.28.28,0,0,1,0-.09.23.23,0,0,1,.07-.08L38.08,64c.05,0,.08-.05.11,0a2.06,2.06,0,0,1,.19.2l.25-.2-1.57-1.89Z"/><path class="cls-1" d="M31.88,57.11l1.72-.56q.09,0,.12,0a.88.88,0,0,1,.11.25l.31-.1-.8-2.3-.79.05.12.36h.38a1,1,0,0,1,.14.27l.26.75-.86.27-.33-1-.38.12.34,1-.68.22-.29-.84v-.05s0,0,0-.08,0,0,.08-.06l.19-.12-.12-.36-.65.4.77,2.22.31-.1a1.18,1.18,0,0,1-.06-.18c0-.06,0-.09,0-.11a.19.19,0,0,1,.09,0"/><path class="cls-1" d="M31,54.3c.33,0,.57-.32.71-.88.05-.18.08-.36.12-.54a2.1,2.1,0,0,1,.16-.49.41.41,0,0,1,.23-.11c.07,0,.13,0,.17.12a.86.86,0,0,1,.1.32,1.39,1.39,0,0,1,0,.6,1.27,1.27,0,0,1-.54.39l.18.48a4,4,0,0,1,.77-.3,3.42,3.42,0,0,0,.07-1,1.78,1.78,0,0,0-.4-1.11.72.72,0,0,0-.64-.35.66.66,0,0,0-.49.29,2.61,2.61,0,0,0-.24.72c0,.06,0,.18-.12.53a2.29,2.29,0,0,1-.16.49.12.12,0,0,1-.09.08c-.11,0-.26-.12-.29-.38a6.13,6.13,0,0,1,0-.95A1.42,1.42,0,0,1,31,51.9l-.14-.42a6.28,6.28,0,0,1-.76.26,3.13,3.13,0,0,0-.06,1,2.77,2.77,0,0,0,.31,1.12.7.7,0,0,0,.65.43"/><path class="cls-1" d="M60.81,43.29c.14,0,.06,0,.09.05a.42.42,0,0,1,.13.08s0,.07,0,.16v1l-2-1.67s-.28-.34-.28.22v2.6l.75.21v-.5c-.21-.07-.14-.12-.18-.17s-.06-.1-.06-.21v-.81l2,1.63s.27.18.27-.25V43l-.76-.19Z"/><path class="cls-1" d="M59.31,38.63a1.17,1.17,0,0,1,0-.24h-.47v1.1h.47v-.22h0l.46.23v1.16l-.47.26s0-.45,0-.47h-.47v1.77h.47a1.14,1.14,0,0,1,0-.25.28.28,0,0,1,.11-.11l2.15-1.25v-.76l-2.2-1.13a.18.18,0,0,1-.07-.08m.84,1.16.6.29-.6.34Z"/><path class="cls-1" d="M59.28,46.6s0-.1,0-.24H58.8v1.1h.47v-.22h0l.47.23v1.17l-.48.25s0-.46,0-.48H58.8v1.78h.47a1.07,1.07,0,0,1,0-.25.21.21,0,0,1,.12-.1l2.15-1.26v-.76l-2.21-1.13a.13.13,0,0,1-.07-.08m.84,1.16.6.29-.6.34Z"/><path class="cls-1" d="M50.44,66.6l-.25-.38-.95.58.24.38.2-.11h0l0,.51-1,.62a4.37,4.37,0,0,1-.47-.26l.41-.24-.24-.38-1.56.94.26.39a.82.82,0,0,1,.22-.12.22.22,0,0,1,.16,0l2.24,1.09.66-.4-.18-2.41a.13.13,0,0,1,0-.1l.2-.14m-1.31,1.78.55-.34.07.65Z"/><path class="cls-1" d="M42.31,67l-.27.37.19.13h0l-.46.23-1-.68c0-.43.06-.52.06-.52l.4.28.26-.37-1.49-1-.27.37A1.16,1.16,0,0,1,40,66a.28.28,0,0,1,0,.15l-.21,2.42.64.45,2.24-1.07a.15.15,0,0,1,.11,0l.2.13.27-.37ZM40.7,68.22l.07-.68.53.37Z"/><path class="cls-1" d="M57.38,57.44l.09-.22L57,57l-.46,1,.43.19a1,1,0,0,0,.09-.2h0l.33.39L57,59.47l-.54,0,.2-.42-.43-.19-.74,1.62.43.18a1,1,0,0,1,.12-.22.28.28,0,0,1,.15,0l2.49-.29.32-.7-1.53-1.9a.16.16,0,0,1,0-.1m.71,1.89-.69.07.27-.58Z"/><path class="cls-1" d="M60.55,53.67c0,.06,0,.09,0,.1a1.06,1.06,0,0,1-.2,0l-1.62-.42c-.06,0-.09,0-.1-.06a1.19,1.19,0,0,1,.06-.28l-.33-.08-.37,1.32.34.08c0-.09,0-.14,0-.16s0-.07,0-.08h.1l.67.18-.31,1.16-.68-.17c-.06,0-.09,0-.1-.06s0-.1.05-.23l-.33-.09-.36,1.32.33.09.06-.19a.13.13,0,0,1,.05-.09s0,0,.1,0l1.61.42a.54.54,0,0,1,.21.08,1.65,1.65,0,0,1-.07.27l.37.1.36-1.32-.36-.1a.75.75,0,0,1,0,.16s0,.08,0,.08a.74.74,0,0,1-.19,0l-.55-.14.32-1.16.54.13c.06,0,.19.07.19.09a.81.81,0,0,1,0,.23l.36.09L61,53.58l-.36-.09a1.7,1.7,0,0,1-.06.18"/><path class="cls-1" d="M62.75,109.32v-15h4.69l2.81,10.23L73,94.32h4.7v15H74.82V97.51l-3.08,11.81h-3L65.66,97.51v11.81Zm-8-5.93-2.14-5.57-2.09,5.57Zm5.76,5.93h-3.4l-1.35-3.4h-6.2l-1.28,3.4H45l6-15h3.31Zm-30.19,0v-15h3.05l6.34,10v-10h2.91v15H39.5l-6.25-9.78v9.78ZM14,94.32h3.13v8.13a15.69,15.69,0,0,0,.12,2.5,2.37,2.37,0,0,0,1,1.48,3.35,3.35,0,0,0,2.07.56,3.21,3.21,0,0,0,2-.53,2.05,2.05,0,0,0,.81-1.29,16.46,16.46,0,0,0,.14-2.55v-8.3h3.13v7.88a19.5,19.5,0,0,1-.26,3.82,4.22,4.22,0,0,1-.93,1.88,4.91,4.91,0,0,1-1.83,1.23,8.23,8.23,0,0,1-3,.45,8.69,8.69,0,0,1-3.37-.5,4.78,4.78,0,0,1-1.81-1.29,4,4,0,0,1-.88-1.66,17.92,17.92,0,0,1-.31-3.81Z"/><path class="cls-1" d="M178.57,109.32l7.37-13.62h.56l7.39,13.62H190l-.77-1.61h-6.13l-.75,1.61ZM188,105l-1.74-3.56h-.19L184.37,105l-.22.37h4.09Zm-11.94-2.52c0,3.91-2.77,6.81-7.46,6.81h-5.85V95.7h5.85c4.69,0,7.46,2.9,7.46,6.81m-7.72-4h-2.18v7.95h2.18c2.44,0,4.2-1.34,4.2-4s-1.76-4-4.2-4M157.58,95.7h-3.4v13.62h3.4Zm-20.74,13.62V95.7h6.64c3.57,0,5.85,1.75,5.85,4.74a4.35,4.35,0,0,1-2.35,4.07v.29l3.17,4.3v.22h-3.88l-2.76-4h-3.27v4Zm9-8.74c0-1.34-.87-2-2.47-2h-3.1v4.08h3.13c1.59,0,2.44-.68,2.44-2m-15,.64H124.6V98.54h7.79V95.7H121.2v13.62h11.19v-2.83H124.6v-2.68h6.19Zm-.72-9.47v-.5h-3.83l-.66,3.08v.5h2.16Zm-17.46,17.57H116V95.7h-.89l-6.5,5.83-6.4-5.83h-.92v13.62h3.38v-7.17l3.71,3.5H109l3.66-3.48Z"/><path class="cls-1" d="M180,64.85a3.31,3.31,0,0,0,.77.5,5.25,5.25,0,0,0,2.41.49c2.31,0,3.31-1,3.31-2.37s-.7-2-3-2.6c-1.89-.51-2.44-.87-2.44-1.54,0-.87.94-1.33,2.18-1.33a5,5,0,0,1,1.87.35,3.61,3.61,0,0,1,.65.34l.54-.81a2.75,2.75,0,0,0-.73-.4,6.53,6.53,0,0,0-2.33-.4c-2,0-3.2.81-3.2,2.25,0,1.28.89,1.87,3,2.46,1.9.53,2.43.89,2.43,1.69s-.68,1.44-2.3,1.44a4.54,4.54,0,0,1-2-.41,3.31,3.31,0,0,1-.66-.4Zm-2.45-3.79H172.8V58.17h5.35v-.91h-6.36v8.39h6.36v-.91H172.8V62h4.71Zm-15.37,4.59V57.26h3.54c2.18,0,3.46,1,3.46,2.8a2.59,2.59,0,0,1-2,2.62v0l2.28,2.68v.24h-1.1l-2.38-2.79h-2.76v2.79Zm6-5.57c0-1.3-.95-1.91-2.44-1.91h-2.51V62h2.64c1.34,0,2.31-.59,2.31-1.88m-12.8,5.76a4.38,4.38,0,1,1,4.49-4.37,4.26,4.26,0,0,1-4.49,4.37m0-.93a3.46,3.46,0,1,0-3.45-3.44,3.33,3.33,0,0,0,3.45,3.44m-6.94-7.65h-1v8.39h1Zm-10.67,8.39V57.26h3.54c2.18,0,3.46,1,3.46,2.8a2.58,2.58,0,0,1-2,2.62v0l2.28,2.68v.24h-1.1l-2.38-2.79H138.7v2.79Zm6-5.57c0-1.3-1-1.91-2.44-1.91H138.7V62h2.64c1.35,0,2.31-.59,2.31-1.88m-9,1h-4.71V58.17h5.34v-.91h-6.35v8.39h6.35v-.91h-5.34V62h4.71Zm-15,4.59V57.26h3.55c2.15,0,3.45,1,3.45,2.8s-1.37,2.9-3.51,2.9h-2.48v2.69Zm6-5.57c0-1.3-1-1.91-2.46-1.91h-2.51v3.88h2.51c1.51,0,2.46-.57,2.46-2m-12.57,5.76a3.41,3.41,0,0,0,3.63-3.7V57.26h-1v4.88a2.63,2.63,0,1,1-5.25,0V57.26h-1v4.88a3.43,3.43,0,0,0,3.64,3.7m-13-1.13a4.67,4.67,0,0,0,.94.56,6.67,6.67,0,0,0,2.79.56c2.38,0,3.48-1.27,3.48-2.78s-1.11-2.13-3.15-2.65c-1.1-.27-1.5-.43-1.5-.86s.24-.62,1.07-.62a4.32,4.32,0,0,1,1.61.35,3.83,3.83,0,0,1,.64.35L107.1,58a3.19,3.19,0,0,0-.78-.44,6.78,6.78,0,0,0-2.6-.45c-2.37,0-3.48,1.07-3.48,2.6s1.08,2.08,3,2.58c1.32.35,1.61.59,1.61,1s-.27.7-1.08.7a4.55,4.55,0,0,1-1.75-.41,5.74,5.74,0,0,1-.78-.4Zm60.69-14.42a3.31,3.31,0,0,0,.77.5,5.25,5.25,0,0,0,2.41.49c2.31,0,3.3-1,3.3-2.37s-.69-2-3-2.6c-1.89-.51-2.44-.87-2.44-1.54,0-.87.94-1.33,2.18-1.33a4.94,4.94,0,0,1,1.86.35,3,3,0,0,1,.65.34l.55-.81a2.92,2.92,0,0,0-.73-.4,6.57,6.57,0,0,0-2.33-.4c-2,0-3.21.81-3.21,2.25,0,1.29.9,1.87,3,2.46,1.89.53,2.43.89,2.43,1.69s-.68,1.44-2.3,1.44A4.71,4.71,0,0,1,162,50a3.89,3.89,0,0,1-.66-.41Zm-6.36,1a4.38,4.38,0,1,1,4.49-4.37,4.26,4.26,0,0,1-4.49,4.37m0-.93A3.46,3.46,0,1,0,151,46.91a3.33,3.33,0,0,0,3.45,3.44m-6.94-7.65h-1v8.39h1Zm-3.39,4.19c0,2.58-1.89,4.2-4.62,4.2h-3V42.7h3c2.73,0,4.62,1.62,4.62,4.19m-4.68-3.28h-1.94v6.57h1.94c2.06,0,3.65-1.22,3.65-3.29s-1.59-3.28-3.65-3.28m-9.54,7.67a3.42,3.42,0,0,0,3.64-3.7V42.7h-1v4.88a2.63,2.63,0,1,1-5.26,0V42.7h-1v4.88a3.43,3.43,0,0,0,3.64,3.7m-12.66-7.67h3v7.48h1V43.61h3V42.7h-7.09Zm-7.89,6.68a3.45,3.45,0,0,0,.76.5,5.25,5.25,0,0,0,2.41.49c2.31,0,3.31-1,3.31-2.37s-.69-2-3-2.6c-1.9-.51-2.44-.87-2.44-1.54,0-.87.93-1.33,2.18-1.33a5,5,0,0,1,1.86.35,3.61,3.61,0,0,1,.65.34l.55-.81a3,3,0,0,0-.74-.4,6.46,6.46,0,0,0-2.32-.4c-2,0-3.21.81-3.21,2.25,0,1.29.9,1.87,3,2.46,1.89.53,2.42.89,2.42,1.69s-.67,1.44-2.29,1.44a4.67,4.67,0,0,1-2-.4,3.62,3.62,0,0,1-.67-.41Zm-2.73-4.19h-3.81V44.45h4.79V42.7h-6.88v8.39h6.88V49.34h-4.79V47.69h3.81Zm81.33-13h-3.53V30.92h4v-.68h-4.76v6.29h4.76v-.68h-4V33.77h3.53Zm-6.22.29c0,1.93-1.42,3.15-3.46,3.15H176V30.24h2.26c2,0,3.46,1.21,3.46,3.14m-3.51-2.46h-1.45v4.93h1.45a2.48,2.48,0,1,0,0-4.93m-7.11,5.61v-.91H166V28.14h-1v8.39Zm-16.68,0,4.25-8.39h.23l4.27,8.39H162l-.77-1.46h-4.92l-.77,1.46ZM160.67,34l-1.85-3.88h-.11L156.87,34l-.07.13h3.94Zm-8.14-5.87h-1v6.3l-6.25-6.3H145v8.39h1V30.2l6.26,6.33h.3Zm-14.41,8.58a4.38,4.38,0,1,1,4.49-4.37,4.26,4.26,0,0,1-4.49,4.37m0-.93a3.46,3.46,0,1,0-3.45-3.44,3.33,3.33,0,0,0,3.45,3.44m-6.94-7.65h-1v8.39h1Zm-3.82,6.75a2.54,2.54,0,0,1-.65.46,3.63,3.63,0,0,1-1.76.45,3.46,3.46,0,1,1,0-6.92,3.74,3.74,0,0,1,1.76.46,3.12,3.12,0,0,1,.65.45l.58-.75a3.29,3.29,0,0,0-.74-.54,4.8,4.8,0,0,0-2.27-.54,4.38,4.38,0,1,0,0,8.76,4.7,4.7,0,0,0,2.27-.53,2.77,2.77,0,0,0,.74-.54Zm-16.93,1.64,4.24-8.39h.23l4.28,8.39H118l-.76-1.46h-4.93l-.76,1.46ZM116.69,34l-1.84-3.88h-.12L112.9,34l-.08.13h4Zm-7.85-5.86h-2.08v4.44l-5.6-4.45h-.47v8.39h2.07V31.9l5.61,4.63h.47ZM153.09,22l4.24-8.39h.24L161.84,22h-1.16l-.76-1.46H155L154.23,22Zm6.27-2.52-1.85-3.88h-.12l-1.83,3.88-.07.13h3.94ZM152.28,22v-.91h-5.05V13.58h-1V22Zm-9.1-4.59h-4.71V14.49h5.34v-.91h-6.35V22h6.35v-.91h-5.34V18.29h4.71Zm-12.31,4.78a3.41,3.41,0,0,0,3.63-3.7V13.58h-1v4.88a2.63,2.63,0,1,1-5.25,0V13.58h-1v4.88a3.43,3.43,0,0,0,3.64,3.7m-6.33-1.83a2.49,2.49,0,0,1-.64.46,3.67,3.67,0,0,1-1.77.45,3.46,3.46,0,1,1,0-6.92,3.78,3.78,0,0,1,1.77.46,3,3,0,0,1,.64.45l.58-.75a3.22,3.22,0,0,0-.73-.54,4.87,4.87,0,0,0-2.27-.54,4.38,4.38,0,1,0,0,8.76,4.76,4.76,0,0,0,2.27-.53,2.72,2.72,0,0,0,.73-.54Zm-15.22.84a3.45,3.45,0,0,0,.76.5,5.25,5.25,0,0,0,2.41.49c2.31,0,3.31-1,3.31-2.37s-.69-2-3-2.6c-1.9-.51-2.44-.87-2.44-1.54,0-.87.93-1.33,2.18-1.33a5,5,0,0,1,1.86.35,3.61,3.61,0,0,1,.65.34l.55-.81a2.69,2.69,0,0,0-.74-.39,6.22,6.22,0,0,0-2.32-.41c-2,0-3.21.81-3.21,2.25s.9,1.87,3,2.46c1.89.53,2.42.89,2.42,1.69s-.67,1.44-2.29,1.44a4.52,4.52,0,0,1-2-.4,3.62,3.62,0,0,1-.67-.41ZM106.59,17h-3.81V15.33h4.79V13.58h-6.88V22h6.88V20.22h-4.79V18.57h3.81Z"/><rect class="cls-1" x="99.73" y="72.05" width="96.27" height="15.14"/><path class="cls-2" d="M151.57,79.62c0,2.15-1.57,3.5-3.85,3.5h-2.5v-7h2.5c2.28,0,3.85,1.35,3.85,3.49m-3.9-2.73h-1.61v5.47h1.61a2.75,2.75,0,1,0,0-5.47m-12,6.23,3.53-7h.2l3.56,7h-1l-.64-1.21h-4.11l-.63,1.21ZM140.9,81l-1.54-3.24h-.1L137.73,81l-.06.11H141Zm-6.75-1.4c0,2.15-1.58,3.5-3.85,3.5h-2.51v-7h2.51c2.27,0,3.85,1.35,3.85,3.49m-3.9-2.73h-1.61v5.47h1.61a2.75,2.75,0,1,0,0-5.47m-5.73-.76h-.84v7h.84Zm-4.11,0h-.85v5.25l-5.21-5.25h-.25v7h.84V77.84l5.21,5.28h.26ZM107.9,83.28a2.85,2.85,0,0,0,3-3.09V76.13h-.85v4.06a2.19,2.19,0,1,1-4.38,0V76.13h-.84v4.06a2.86,2.86,0,0,0,3,3.09"/></svg>