<svg id="Capa_1" data-name="Capa 1" xmlns="http://www.w3.org/2000/svg" viewBox="0 0 209 118"><defs><style>.cls-1{fill:#1a1f43;}</style></defs><title>enes-morelia</title><path class="cls-1" d="M81.86,56.26a.41.41,0,0,0,0,.11C81.49,70,73.23,81.71,61.73,84.77,50.23,81.71,42,70,41.62,56.37c0,0,0-.07,0-.11V37.16H81.86Zm.85.12V36.49a.11.11,0,0,0-.12-.11H40.88a.11.11,0,0,0-.12.11V56.38a.07.07,0,0,0,0,0A33.29,33.29,0,0,0,47,75.2,26.63,26.63,0,0,0,61.7,85.57a.06.06,0,0,0,.06,0A26.65,26.65,0,0,0,76.5,75.2a33.28,33.28,0,0,0,6.19-18.77.08.08,0,0,0,0,0"/><path class="cls-1" d="M76.56,56c0,.06,0,.13,0,.23,0,.44,0,.87-.06,1.3-.45-.39-1.15-.66-1.57-1.09a4.81,4.81,0,0,0-1.37-.94,1.15,1.15,0,0,0-1-.22c-.66.11-1.19,0-1.31-.6s-.06-1.2-.71-1.53a11,11,0,0,1-1.55-1c-.48-.33-.95-.94-1.13-1a12,12,0,0,0-1.43,0,2.22,2.22,0,0,0-1.79-.38s-.65-.93-1.36-.43-1.32.81-1.73.32-1.13-.27-1.61-.21-.89-.72-1-1.05,0-.82-.18-.82-.89.22-1.37-.11-.23-.66-.05-.93A3.2,3.2,0,0,0,57.59,46l-.54-.05s-.65-.12-.77.33a1.46,1.46,0,0,1-1.6.7,1.81,1.81,0,0,1-1.37-1.15,1.73,1.73,0,0,1-.07-1.31c.13-.33-.4-.92-.58-1.08s-.19.1-.55-.45a3.19,3.19,0,0,0-.66-.7H76.56V56M61.73,79.25c-8.45-3.06-14.53-12.52-14.81-23,0-.11,0-.17,0-.23V42.59a3.71,3.71,0,0,0,.27.47c.24.33.77,1.25.77,1.25s0,.43-.12.49.24.29.36.45.41.66.65.71.3-.22.12-.49-.51-1-.51-1a3.84,3.84,0,0,0-.26-.77c-.18-.39-.36-.88-.36-.88s1,.23,1.11.72a18.06,18.06,0,0,0,.68,2.23,4.63,4.63,0,0,0,.77,1.15,3.76,3.76,0,0,0,1.84,1.21c.84.22,1.79-.27,2.21,0a8.9,8.9,0,0,0,1.72,1.15c.54.17,2,.44,2.27,1s1,.6,1.36.65,1.55.5,1.55,1.49l-1,1.8a3.2,3.2,0,0,0-.83,1.38c-.12.65-.48,1,.23,2a6.58,6.58,0,0,1,1.26,3.07c.05.87,1,1,1.54,1.37s0,.76-.36,1.59-.18,2.51-.54,3.61-.77,1.48-.77,2.36a6.26,6.26,0,0,1-.29,2.57,5.91,5.91,0,0,0-.18,2.3A3.66,3.66,0,0,0,61.22,77c.6.71,2,1,1.79,0a4,4,0,0,1,.77-3.23l.71-.71a1.68,1.68,0,0,1,.6-1.49c.72-.43,1.19-.76.78-.93s0-.54.41-.54.6.16,1.55-.88A6.15,6.15,0,0,1,70,67.44c1-.49,1.31-1.48,1.9-2a5.41,5.41,0,0,1,2.33-1.15,1.33,1.33,0,0,0,1-1.43c0-.71-.24-1.2.3-2s.21-.91.69-1.3c-1.32,9.12-7,17-14.53,19.69m0,.82a.11.11,0,0,0,.08,0C70.69,77,77.12,67.21,77.4,56.24c0-.09,0-.16,0-.2V41.58a.12.12,0,0,0-.11-.11H46.16a.12.12,0,0,0-.11.11V56a1.35,1.35,0,0,1,0,.22c.29,11,6.71,20.76,15.63,23.83"/><path class="cls-1" d="M51.81,26.37a.61.61,0,0,1,0,.12,1.8,1.8,0,0,0-1.61.41c-.83.57-.59,1.89-.3,3.09a3.54,3.54,0,0,1-.07,2.33.19.19,0,0,1-.13,0,.53.53,0,0,1-.37-.09c-.2-.19-.2-.83-.2-1.41v-.09c0-1.29-.31-1.89-1.19-2.32l-.21-.11a2.92,2.92,0,0,1,.32-.8c.64-1.27-.41-2.49-.77-2.86-.09-.25-.29-.82-.78-2-.11-.29-.13-.5,0-.61a1.93,1.93,0,0,1,1.23-.29,1,1,0,0,0,.17,0,1.54,1.54,0,0,0,.8-.55,1.22,1.22,0,0,1,1.15,0c.63.28.78.54.77.66,0,.6.1.76.58,1.17l.19.16A10.12,10.12,0,0,1,53,25.4a.08.08,0,0,1,0,.09.19.19,0,0,1-.14,0,1,1,0,0,0-1,.15.63.63,0,0,0-.08.73m-1.63-5.75a1.86,1.86,0,0,0-2,.17,1.07,1.07,0,0,1-.38.31,2.52,2.52,0,0,0-1.85.56,1.17,1.17,0,0,0-.06,1.24,22.39,22.39,0,0,1,.79,2.1.06.06,0,0,0,0,.06s1.28,1.14.74,2.2-.48,1.46.22,1.79.8.59.8,1.73v.09c0,.8,0,1.5.41,1.89a1.27,1.27,0,0,0,.89.28.88.88,0,0,0,.7-.31c.57-.66.39-2.17.21-2.89s-.5-2,0-2.4.81-.47,1.11-.17a.19.19,0,0,0,.1,0c.26,0,.75-.2.72-.7a1.51,1.51,0,0,0-.12-.48h0a1.72,1.72,0,0,1,.21,0,.9.9,0,0,0,.88-.24.73.73,0,0,0,.09-.8,11.23,11.23,0,0,0-1.76-2.39l-.19-.16c-.38-.32-.38-.32-.35-.63,0-.49-.38-1-1.19-1.31"/><path class="cls-1" d="M48.7,23.1a.59.59,0,1,0,.63.59.62.62,0,0,0-.63-.59"/><path class="cls-1" d="M40.09,26.3a1,1,0,0,1-.16-.58c0-.61.68-1.06,1.32-1.34a3.64,3.64,0,0,0,0,.93c-.08.06-.23.13-.27.17a1.67,1.67,0,0,0-.88.82m2-2.93c-.12,0-2.85.69-2.85,2.35S41,27.46,41,27.47a.12.12,0,0,0,.1-.07.08.08,0,0,0,0-.11c-.25-.3-.36-.54-.32-.72s.3-.36.58-.52.69-.38.62-.76a4.47,4.47,0,0,1,.23-1.77.11.11,0,0,0,0-.11.12.12,0,0,0-.11,0"/><path class="cls-1" d="M44.7,25.81c-.08-.56-.77-.77-1-.82H43.1a2.16,2.16,0,0,1,1.51-1.83c.23.49.67,1.37,1.27,2.44l0,.06c.28.38.57.91.38,1.3a1,1,0,0,1-.68.48,17.49,17.49,0,0,1-2.23-.32l.49-.25c.22-.11.91-.44.83-1.05m-1.18.46c-1.14.56-1.89,1-1.89,1a.1.1,0,0,0-.06.1.12.12,0,0,0,.09.09,27.48,27.48,0,0,0,4.08.63A1.72,1.72,0,0,0,47,27.22a2,2,0,0,0-.44-1.94c-.92-1.65-1.47-2.86-1.47-2.87a.12.12,0,0,0-.13-.07S42,23,42.4,25.56a.13.13,0,0,0,.12.09h1c.16,0,.39.14.41.25s0,.16-.45.37"/><path class="cls-1" d="M46.1,35.13a.88.88,0,0,1-.41.06l-.87-.1,2.49-1.66.08-.06.09-.07.23.12c-.53.56-1.41,1.52-1.61,1.71m2.46-1.94a.34.34,0,0,0-.21-.22l-.69-.33s0,0,0,0a.91.91,0,0,0-.76.27L43.75,35c-.09.06-.35.27-.29.47s.08.15.28.19c.46.07,1.84.22,1.9.23a1.6,1.6,0,0,0,1-.27c.26-.26,1.69-1.8,1.75-1.86s.25-.32.18-.55"/><path class="cls-1" d="M48.56,35.42c-.05,0-.32,0-.63-.06.36-.41,1-1.09,1.21-1.39l.25.06-.7,1.23a.48.48,0,0,1-.13.16M47.27,36c.48.06,1.17.11,1.23.12a.82.82,0,0,0,.83-.51l.84-1.46a.51.51,0,0,0,.1-.43c0-.08-.11-.18-.33-.23l-.6-.14s-.5-.16-.74.19-1.53,1.76-1.54,1.77-.24.28-.15.49a.41.41,0,0,0,.36.2"/><path class="cls-1" d="M51.32,35.45h-.91c.14-.29.44-.91.57-1.22h.34Zm-.89.68h1a.64.64,0,0,0,.64-.68V33.86a.14.14,0,0,0,0-.06.71.71,0,0,0-.63-.25,4,4,0,0,1-.6,0,.51.51,0,0,0-.49.37c-.11.29-.66,1.4-.66,1.41a.55.55,0,0,0,0,.52.88.88,0,0,0,.76.27"/><path class="cls-1" d="M54.32,33.38c.25.49.74,1.41,1,1.92l-.36,0h0c-.12-.36-.48-1.44-.66-1.92ZM55,36l.89-.07a.31.31,0,0,0,.25-.12c.09-.11.08-.26,0-.47-.21-.45-1.28-2.47-1.33-2.55v0s-.22-.26-.46-.18h0l-.59.32a.41.41,0,0,0-.2.57c.16.39.75,2.14.76,2.16h0c0,.14.21.41.73.36"/><path class="cls-1" d="M52.9,35.45c0-.55-.06-1.17-.07-1.46h0l.52,1.44Zm-.3.68,1.24,0a.41.41,0,0,0,.31-.14.37.37,0,0,0,0-.4l-.74-2v0a.45.45,0,0,0-.54-.23,5.55,5.55,0,0,1-.6.17h0s-.16.11-.16.38.08,1.82.08,1.88.12.45.42.43"/><path class="cls-1" d="M55.54,32.58l.22-.18c.41.6,1.43,2.09,1.76,2.68l-.63.09-1.35-2.59m1.33,3.27,1-.13a.63.63,0,0,0,.45-.22c.11-.17.08-.4-.08-.7-.43-.74-2-2.94-2-3.08a.4.4,0,0,0-.26-.19.39.39,0,0,0-.34.12l-.57.49a.53.53,0,0,0-.15.67l1.42,2.7h0a.6.6,0,0,0,.62.35"/><path class="cls-1" d="M37.89,59.66c-1.58-.68-3.07-.12-3.07,1.17,0,3,6.65,2.53,5.56-2.62-.63-3-2.58-6.76-3.07-12.32s2.76-7.36,2.76-7.36V37.12C35,39.41,36,49.52,37.49,54.23s.4,5.43.4,5.43"/><path class="cls-1" d="M88.73,60.82c0-1.28-1.48-1.84-3.06-1.16,0,0-1.14-.72.4-5.43s2.53-14.82-2.58-17.11v1.41s3.23,1.81,2.75,7.36-2.43,9.36-3.06,12.32c-1.09,5.15,5.55,5.6,5.55,2.61"/><path class="cls-1" d="M35.88,63.88l-3.13,2.34c-3.62-2.58-5.22.47-5.22.47a5.45,5.45,0,0,1,2.43.12c-2.81.7-2.11,2.34-2.11,2.34s2.87-1.58,4.07.24a3.21,3.21,0,0,1-.37,4.16c4.77,0,3.18-5.86,3.18-5.86l4.2-3.81Z"/><path class="cls-1" d="M95.35,66.69s-1.6-3-5.23-.47L87,63.88H83.94l4.21,3.81s-1.59,5.86,3.18,5.86A3.22,3.22,0,0,1,91,69.39c1.21-1.82,4.08-.24,4.08-.24s.7-1.64-2.1-2.34a5.4,5.4,0,0,1,2.42-.12"/><path class="cls-1" d="M40,41.87,40,39.54a1.69,1.69,0,0,1-1,1c-.45.25-.22.55-.22.55a1,1,0,0,1,1.13.74"/><path class="cls-1" d="M39.43,47.92c.18,1.58.63,1,.63,1s-.13-2.62-.18-3.13-1.73-.23-1.76.3a26.22,26.22,0,0,0,.31,2.79l.5-.08-.09-2s.41-.5.59,1.08"/><path class="cls-1" d="M39.79,53.38c.43.52.48-2.09.35-2.59,0,0-1.28-.35-1.15.26a5.41,5.41,0,0,0,.8,2.33"/><path class="cls-1" d="M38.17,43.27c0,.52,1.71.32,1.71.32v-.84s-1.71-.25-1.71.52"/><path class="cls-1" d="M39.88,44.88v-.83s-1.71-.26-1.71.52c0,.51,1.71.31,1.71.31"/><path class="cls-1" d="M44.57,73.63a.53.53,0,1,0-.53.48.51.51,0,0,0,.53-.48"/><path class="cls-1" d="M84.87,68.33a.49.49,0,1,0,.53.48.5.5,0,0,0-.53-.48"/><path class="cls-1" d="M83.63,69a.53.53,0,1,0-.52.49.51.51,0,0,0,.52-.49"/><path class="cls-1" d="M82,69.28a.53.53,0,0,0-1.06,0,.53.53,0,0,0,1.06,0"/><path class="cls-1" d="M39.15,77.83l.27-2.91s-.27-.59-1.2-.16L38.05,77s-.54.83-1.69-.09l.16-2.27a.91.91,0,0,0-1.12-.15l-.19,3a2.92,2.92,0,0,0,3.94.38"/><path class="cls-1" d="M37.27,76.64a.31.31,0,0,0,.34-.28l.06-1a.3.3,0,0,0-.31-.32.31.31,0,0,0-.34.29l-.06.94a.3.3,0,0,0,.31.32"/><path class="cls-1" d="M43.59,78.43l.26-2.78s-.26-.55-1.15-.14l-.16,2.11s-.52.8-1.62-.1l.16-2.16A.88.88,0,0,0,40,75.22l-.18,2.86a2.79,2.79,0,0,0,3.76.35"/><path class="cls-1" d="M41.79,77.31a.32.32,0,0,0,.33-.28l.06-.91a.3.3,0,0,0-.3-.3.31.31,0,0,0-.33.27l-.06.91a.32.32,0,0,0,.3.31"/><path class="cls-1" d="M47.55,78.73l.1-1.45s-.14-.75-.9-.23l-.11.65s-.42.51-.35-.39l.07-.91s-.25-.28-.49.1l0,1.16s-.21.2-.6,0L45.38,76s-.25-.67-1-.16l-.14,2.56s1.09,1.77,3.3.35"/><path class="cls-1" d="M37.3,72.56a.53.53,0,1,0-.52.49.5.5,0,0,0,.52-.49"/><path class="cls-1" d="M39.9,72.92a.53.53,0,0,0-1,0,.53.53,0,0,0,1,0"/><path class="cls-1" d="M42,73.24a.53.53,0,1,0-.52.49.5.5,0,0,0,.52-.49"/><path class="cls-1" d="M39.41,64.84l0,1.71,1.2.94s.63-2.13-1.23-2.65"/><path class="cls-1" d="M41.16,69.3c-.14.16-.38.48-.52-.1s-.67-.52-1-.52-.66,1.07-.91.33-.38-1.14-1.37-1v1.78l4.87,1s0-1.2-.2-1.39-.78-.29-.92-.13"/><path class="cls-1" d="M42.46,71.59a33.28,33.28,0,0,0-5-1l0,.71,5.09,1.1s.18-.17-.11-.78"/><path class="cls-1" d="M87.94,77.45l-.2-3a.91.91,0,0,0-1.12.15l.17,2.27c-1.15.92-1.7.09-1.7.09l-.16-2.21c-.93-.43-1.21.16-1.21.16L84,77.83a2.92,2.92,0,0,0,3.94-.38"/><path class="cls-1" d="M85.53,76.36a.31.31,0,0,0,.35.28.3.3,0,0,0,.31-.32l-.06-.94a.32.32,0,0,0-.35-.29.31.31,0,0,0-.31.32Z"/><path class="cls-1" d="M83.32,78.08l-.19-2.86a.86.86,0,0,0-1.06.14l.15,2.16c-1.09.9-1.61.1-1.61.1l-.17-2.11c-.88-.41-1.14.14-1.14.14l.26,2.78a2.79,2.79,0,0,0,3.76-.35"/><path class="cls-1" d="M81.26,75.82a.31.31,0,0,0-.3.3L81,77a.31.31,0,0,0,.62,0l-.06-.91a.3.3,0,0,0-.33-.27"/><path class="cls-1" d="M76.51,77.7l-.11-.65c-.77-.52-.91.23-.91.23l.11,1.45c2.21,1.42,3.29-.35,3.29-.35l-.14-2.56c-.73-.51-1,.16-1,.16l.14,1.65c-.39.23-.6,0-.6,0l0-1.16c-.24-.39-.49-.1-.49-.1l.07.91c.07.9-.35.39-.35.39"/><path class="cls-1" d="M23.13,21.22c.36-.13.69-.41.48-.88L22,16.64l-.42.15,1.53,3.58c.14.3.08.44-.14.52s-.36,0-.5-.29L21,17l-.43.16,1.59,3.7a.73.73,0,0,0,1,.34"/><polygon class="cls-1" points="24.96 20.59 23.7 16.66 23.71 16.66 25.53 20.43 26.15 20.26 24.73 15.85 24.34 15.96 25.56 19.73 25.55 19.74 23.79 16.11 23.15 16.29 24.58 20.7 24.96 20.59"/><polygon class="cls-1" points="27.38 19.98 26.15 15.52 25.71 15.62 26.94 20.08 27.38 19.98"/><polygon class="cls-1" points="29.13 19.59 28.6 14.99 28.16 15.09 28.71 19.25 28.7 19.25 27.26 15.27 26.82 15.36 28.48 19.73 29.13 19.59"/><polygon class="cls-1" points="31.42 19.16 31.35 18.81 30.61 18.95 30.22 17.13 30.92 17 30.85 16.65 30.14 16.78 29.79 15.14 30.53 15 30.45 14.65 29.27 14.87 30.23 19.38 31.42 19.16"/><path class="cls-1" d="M31.8,14.79l.26,0c.23,0,.39,0,.44.24l.19,1c.05.27-.06.35-.28.38l-.29.05ZM32.59,19l-.41-2.18.3-.05c.21,0,.37,0,.41.22l.36,1.9.45-.07-.37-1.94c-.06-.31-.27-.37-.59-.33v0c.34-.08.47-.21.39-.57l-.21-1.14c-.08-.45-.36-.48-.79-.41l-.84.13L32.15,19Z"/><path class="cls-1" d="M33.91,15.31a1,1,0,0,0,.28.55l.85,1a.86.86,0,0,1,.2.42l.1.63c0,.21,0,.36-.22.38s-.31-.08-.34-.3l-.1-.6-.45.06.1.63c.08.46.36.63.85.57a.64.64,0,0,0,.62-.77l-.12-.73a1.15,1.15,0,0,0-.26-.53l-.91-1a.86.86,0,0,1-.17-.39l-.08-.48c0-.17,0-.31.21-.35s.28.1.31.28l.09.55.46-.06-.1-.58c-.07-.42-.31-.61-.81-.54s-.68.32-.61.77Z"/><polygon class="cls-1" points="35.94 13.82 36.63 18.38 37.08 18.32 36.39 13.77 35.94 13.82"/><path class="cls-1" d="M38.09,13.92c.3,0,.4,0,.44.31L39,17.38c0,.26-.05.36-.35.4l-.24,0L37.85,14Zm.65,4.2c.62-.07.74-.38.67-.83L39,14.21c-.06-.45-.25-.73-.87-.65l-.78.08L38,18.21Z"/><path class="cls-1" d="M40.6,13.61h0l.66,2.6-.7.07Zm0,3,.8-.08.34,1.24.45,0-1.28-4.5-.62.07L40.08,18l.45,0Z"/><path class="cls-1" d="M43.05,13.42c.31,0,.41.05.44.32l.32,3.15c0,.27-.05.37-.36.39l-.24,0-.4-3.88Zm.52,4.21c.62-.05.74-.36.7-.81L44,13.73c-.05-.45-.23-.73-.85-.68l-.78.07.48,4.58Z"/><polygon class="cls-1" points="46.73 17.38 46.4 13.31 46.42 13.31 47.31 17.34 47.97 17.3 47.59 12.71 47.2 12.74 47.52 16.66 47.5 16.66 46.62 12.78 45.96 12.83 46.33 17.41 46.73 17.38"/><path class="cls-1" d="M49.32,12.93h0l.52,2.62-.7,0Zm-.2,3,.8,0,.28,1.26.45,0-1-4.55-.62,0-.44,4.63.46,0Z"/><path class="cls-1" d="M51.92,17.12c.47,0,.7-.28.68-.67l0-.65-.45,0,0,.65c0,.19-.06.29-.24.3s-.26-.09-.27-.28l-.18-3.38c0-.19.06-.3.24-.3s.26.09.26.28l0,.59.46,0,0-.61c0-.38-.27-.62-.74-.6s-.7.28-.68.67l.18,3.4c0,.39.27.62.75.6"/><rect class="cls-1" x="53.19" y="12.42" width="0.46" height="4.6" transform="translate(-0.59 2.35) rotate(-2.5)"/><path class="cls-1" d="M55.28,12.68c.3,0,.35.17.37.42l.1,3.1c0,.25,0,.43-.33.44s-.35-.17-.36-.43L55,13.12c0-.26,0-.43.33-.44M55.43,17c.62,0,.79-.35.78-.8l-.11-3.12c0-.46-.21-.78-.83-.76s-.79.35-.77.8l.1,3.12c0,.45.21.77.83.76"/><polygon class="cls-1" points="57.48 16.91 57.4 12.81 57.41 12.81 58.07 16.89 58.72 16.89 58.62 12.29 58.23 12.29 58.3 16.23 58.29 16.23 57.65 12.3 56.99 12.32 57.08 16.91 57.48 16.91"/><path class="cls-1" d="M60.33,12.59h0l.37,2.65H60Zm-.38,3h.8L61,16.87h.45l-.76-4.59H60l-.7,4.61h.46Z"/><polygon class="cls-1" points="63.25 16.52 62.5 16.52 62.52 12.27 62.06 12.27 62.03 16.87 63.25 16.87 63.25 16.52"/><path class="cls-1" d="M65.84,12.63h0l.29,2.65h-.71Zm-.46,3h.8l.16,1.28h.46l-.64-4.61h-.62l-.83,4.59h.46Z"/><path class="cls-1" d="M68.14,17c.39,0,.82-.12.83-.63l.14-4h-.46l-.13,3.84c0,.33-.12.43-.36.42s-.34-.11-.33-.44L68,12.36l-.45,0-.15,4c0,.51.4.67.78.68"/><polygon class="cls-1" points="70.13 17.03 70.59 17.05 70.79 12.81 71.3 12.83 71.32 12.47 69.84 12.41 69.82 12.77 70.33 12.79 70.13 17.03"/><path class="cls-1" d="M72.27,16.37l.18-3.09c0-.26.09-.43.37-.42s.34.2.33.45L73,16.41c0,.25-.08.43-.37.41s-.34-.2-.32-.45m.3.81a.71.71,0,0,0,.85-.74l.18-3.11c0-.46-.14-.79-.76-.82s-.82.28-.84.74l-.19,3.11c0,.45.14.78.76.82"/><polygon class="cls-1" points="74.91 13.17 74.92 13.17 75.19 17.29 75.84 17.33 76.18 12.74 75.78 12.71 75.49 16.64 75.48 16.64 75.2 12.68 74.54 12.64 74.2 17.23 74.6 17.25 74.91 13.17"/><path class="cls-1" d="M77.19,16.67l.27-3.09c0-.25.09-.42.38-.4s.33.2.31.45l-.27,3.08c0,.26-.09.44-.38.41s-.33-.2-.31-.45m.27.81a.71.71,0,0,0,.88-.71l.27-3.11a.68.68,0,0,0-.73-.84c-.62,0-.83.27-.87.72l-.28,3.11c0,.45.12.79.73.83"/><polygon class="cls-1" points="79.94 13.38 79.95 13.38 80.03 17.65 80.6 17.7 81.56 13.53 81.57 13.53 81.13 17.75 81.53 17.79 82.01 13.21 81.31 13.15 80.37 17.2 80.35 17.2 80.28 13.05 79.58 12.99 79.09 17.57 79.49 17.61 79.94 13.38"/><path class="cls-1" d="M83.66,13.7h0v2.67L83,16.3Zm-.76,2.95.79.08,0,1.28.45.06L84,13.42l-.62-.07-1.3,4.49.45.06Z"/><polygon class="cls-1" points="90.56 14.63 90.58 14.63 90.3 18.89 90.86 18.98 92.17 14.88 92.18 14.88 91.39 19.06 91.78 19.13 92.65 14.6 91.95 14.49 90.67 18.45 90.66 18.45 90.93 14.32 90.23 14.21 89.37 18.74 89.77 18.81 90.56 14.63"/><polygon class="cls-1" points="93.77 19.5 93.85 19.15 93.11 19.01 93.51 17.2 94.22 17.33 94.29 16.98 93.58 16.84 93.95 15.2 94.69 15.34 94.77 14.99 93.58 14.77 92.58 19.28 93.77 19.5"/><polygon class="cls-1" points="94.19 19.58 94.64 19.67 95.55 17.88 95.56 17.89 95.51 19.86 95.96 19.96 95.9 17.57 97.04 15.47 96.59 15.37 95.75 17.11 95.74 17.11 95.81 15.2 95.37 15.11 95.39 17.46 94.19 19.58"/><polygon class="cls-1" points="96.94 20.2 98.21 15.75 97.77 15.64 96.49 20.09 96.94 20.2"/><path class="cls-1" d="M98.41,20.63a.64.64,0,0,0,.88-.42l.22-.62-.44-.13-.2.62c-.07.19-.17.26-.34.2s-.22-.15-.15-.34l1.08-3.23c.06-.19.16-.26.34-.21s.21.16.15.35l-.19.57.43.12.19-.58c.13-.37,0-.67-.47-.8a.65.65,0,0,0-.89.42l-1.08,3.25c-.13.37,0,.67.47.8"/><path class="cls-1" d="M100.39,20.42l1.27-2.87c.1-.24.22-.38.49-.28s.25.28.15.52L101,20.66c-.1.23-.22.38-.49.28s-.25-.29-.15-.52m0,.85a.74.74,0,0,0,1.06-.44l1.28-2.9a.65.65,0,0,0-.43-1,.74.74,0,0,0-1.06.44L100,20.27a.65.65,0,0,0,.43,1"/><path class="cls-1" d="M18.65,30.62a3.61,3.61,0,0,1-.39-2.79,6.73,6.73,0,0,1,1.62-.23,2.51,2.51,0,0,1-1.23,3m15.19-2.45A17.85,17.85,0,0,0,28.39,28c-.74.08-1.5.2-2.25.35-.66-.17-1.29-.36-1.91-.54A11.91,11.91,0,0,0,19,27c1.8-1.15,6-.73,7.89-.54,4.57.45,6.58-1.45,7-1.88l.3-.16a0,0,0,0,0,0,0A8.17,8.17,0,0,1,37.4,25.6c-.19,1-1.49,2-3.56,2.57m3.45-3.43c-3.38-1.88-8.08-1.06-11.55-.45a22.48,22.48,0,0,1-3.36.44,4.35,4.35,0,0,1-1.45-.19.33.33,0,0,1-.09-.16c0-.06.06-.18.23-.33,1.2-1.11,5.77-2.47,12.84-3.56a14.12,14.12,0,0,1,3.38,4.25m66.85,3a6.65,6.65,0,0,1,1.61.23,3.62,3.62,0,0,1-.39,2.79,2.49,2.49,0,0,1-1.22-3M89.86,24.55l.29.16c.39.42,2.4,2.33,7,1.87,1.9-.19,6.09-.6,7.89.54a12.12,12.12,0,0,0-5.22.77l-1,.29a14,14,0,0,0-9.54-.2,6.24,6.24,0,0,1-1.93-1.13,2.34,2.34,0,0,1-.59-.76,5.63,5.63,0,0,1,3.06-1.67.11.11,0,0,0,.06.13m6.35-.45c-1.3-.21-2.67-.42-3.86-.5a7.46,7.46,0,0,0-5.73,1.63c.24-1.36,2.24-3.48,3.51-4.63,6.69,1.06,11,2.37,12.18,3.45.17.15.23.27.23.33a.3.3,0,0,1-.05.14c-1.47.33-4-.06-6.28-.42M19.5,16.23l0,0C28.09,13,44.14,11,61.41,11c21.18,0,36.67,3.18,43.51,5.89.69.28,1.12.59,1.23.9.16.46-.3,1.18-.84,2a8.17,8.17,0,0,0-1.52,3.51,1.22,1.22,0,0,1-.5.89l0,0a1.38,1.38,0,0,0-.42-.65c-2.9-2.66-20.5-5.64-41.14-5.64a187.25,187.25,0,0,0-29.34,2.15,58.6,58.6,0,0,0-8.91,2.05c-1.78.61-2.86,1.23-3.21,1.82a3,3,0,0,1-.14-1.26v-.28c0-1.12-.3-1.52-1.19-2.71l-.83-1.13a1.13,1.13,0,0,1-.25-1.09c.24-.66,1.32-1.13,1.68-1.25m-1.2,3.85c.84,1.12,1.06,1.41,1.06,2.33v.28a2.51,2.51,0,0,0,.57,2,3.56,3.56,0,0,0,2.45.66,23.88,23.88,0,0,0,3.5-.45,30,30,0,0,1,7.28-.65c-.56.52-2.41,1.87-6.19,1.5s-7.72-.51-9.1,1.29c-.75,1-.63,2.44.37,4.33a.13.13,0,0,0,.15.06,3.31,3.31,0,0,0,2.24-3.85A16.78,16.78,0,0,1,24,28.4l.74.23c-2.33.6-4.2,1.5-4.2,2.45,0,.58.71.8,2.39,1.5s3.42,1.31,4.94,2c4.32,2,7.46,3.67,7.92,3.26.62-.56-9.72-4.34-7.28-7.6,1.37-1.83,3.63.6,1.77,1s2.68,4.62,8,6.06A7.84,7.84,0,0,1,40,36s.8-.56-.38-.83-8.49-2.36-5.48-4.93c.9-.76,1-1.3.59-1.66a7.45,7.45,0,0,0,2.52-1.41,2.55,2.55,0,0,0,.93-1.82c0-1.76-2.38-4.18-3.27-5a190.91,190.91,0,0,1,26.81-1.74,188.88,188.88,0,0,1,27.47,1.84c-.86.81-3.3,3.27-3.3,5a2.52,2.52,0,0,0,.93,1.82,6.34,6.34,0,0,0,1.65,1.06c-.76.42-1.19.88-1.19,1.25a2.15,2.15,0,0,0,1.47,2c.19,1.75-4.3,3.6-5.53,4.07a10.16,10.16,0,0,1,1.54.74,10.09,10.09,0,0,0,6.33-4.26c1-1.16-1.52-.55-1.52-1.7s3.7-2,2.95,1.15c-.67,2.85-5.11,4.64-7,5.29a5.72,5.72,0,0,1,.75.66c.11.16.36.51.54.46s.06-.68.42-.61.63.21.8-.12.13-.67.44-.48.35.37.65.26-.25-.87.42-.68.78-.16.63-.47.29-.14.71.11.49-.25.26-.57.06-.56.46-.21,1.11.25.59-.26.08-.94.64-.54.52.16.2-.34-.07-.66.64-.24,1.2.26.43-.3-.46-1,.33-.52,1.77.6.88-.11-1.15-1.22-.1-.72,1.89.4.3-.5.83-.08,1.41.36.66-.26-.43-.82-.44-.74,1-.07,1.45.05.25-.36-1.68-1.21-.21-.53,3,.78,1.47.06a7.28,7.28,0,0,1-1.36-.76c.43-.14,1,0,2,.64,2,1.27.09,2.63-1.6,3.22-2.46.86-3.46,1.77-6.11,3.5a10.67,10.67,0,0,1-5,1.44,4.15,4.15,0,0,1,.36.8,15.65,15.65,0,0,0,6.53-1.7,37.12,37.12,0,0,1,8.4-3.69c2.07-.44,4-1.44.87-3.5a20.88,20.88,0,0,0-3.19-1.72l.18,0a16.11,16.11,0,0,1,3.38-.78,3.31,3.31,0,0,0,2.24,3.86.13.13,0,0,0,.14-.06c1-1.9,1.12-3.35.38-4.33-1.39-1.8-5.38-1.67-9.11-1.3-4.19.42-6-1.28-6.32-1.63a9.1,9.1,0,0,1,1.58,0c1.15.08,2.5.29,3.79.5,3.06.47,6.22,1,7.65,0a1.85,1.85,0,0,0,.78-1.36,7.59,7.59,0,0,1,1.42-3.22c.63-1,1.17-1.82.9-2.58-.17-.5-.71-.93-1.63-1.29a83.37,83.37,0,0,0-17.67-4.17,185.48,185.48,0,0,0-26.13-1.79c-17.36,0-33.51,2-42.15,5.28-.07,0-1.72.55-2.14,1.66a1.75,1.75,0,0,0,.34,1.67c.33.47.61.85.84,1.15"/><path class="cls-1" d="M71,31.84a1.62,1.62,0,0,0,.69.12,6.74,6.74,0,0,0,.2,1.08.76.76,0,0,0-.19.12s-2.27,2.1-4.6,2.1a2.07,2.07,0,0,1-2-.93c4,.11,5.39-1.56,5.87-2.49m-.09-3a.54.54,0,0,0,.16-.39,2.88,2.88,0,0,0,1-.67,5.81,5.81,0,0,0,.19.61,11.57,11.57,0,0,1-1.72,2.19.79.79,0,0,0-.26.08c-1.93,1.08-3.4,1.42-4.26,1a1.66,1.66,0,0,1-.75-.88,7.09,7.09,0,0,0,5.61-1.94m3.88-.22a4.22,4.22,0,0,1-.13-1.76.12.12,0,0,0-.07-.12.14.14,0,0,0-.14,0,11.39,11.39,0,0,1-1.34,1.11,2,2,0,0,1-.22-1.15s0-.05,0-.08c1.16-.25,1.57-.59,1.71-.8a8.06,8.06,0,0,0,1.3,1,5.88,5.88,0,0,0-.32,1.43,3.1,3.1,0,0,1-.83.34M74.91,33a7.84,7.84,0,0,0,.5,1.24.54.54,0,0,0-.07.13c-.17.51-.4.81-.59.83-.35.05-1-.5-1.55-1.16a4,4,0,0,0,1.71-1m-.07-9a2.21,2.21,0,0,0,1.54,0,1.57,1.57,0,0,0,.9-1.21h.12l0,.17v0s.26,1-.4,1.32a4.37,4.37,0,0,0-1.67,1.28L75,25.26a.62.62,0,0,0-.67-.17.57.57,0,0,0-.38.39,1.9,1.9,0,0,1-1,.43c.07-.41.42-1.09,1.77-1.88,0,0,0,0,0,0m.72,7.78a.92.92,0,0,1-.84-.14c-.42-.42-.19-1.53,0-2.24a4.14,4.14,0,0,0,.76-.24c0,.48,0,1,0,1.65a5.86,5.86,0,0,0,.08,1m-2.81-2.74h0a3.53,3.53,0,0,0,1.17-.67A2.54,2.54,0,0,0,74,29c-1,1.61-1.91,2.23-2.41,2.27a7.26,7.26,0,0,1,1.17-2.18m.1,4.31c-.17-.06-.44-.35-.35-1.64a4,4,0,0,0,1.13-1,1.63,1.63,0,0,0,.44,1.45,1.51,1.51,0,0,0,.26.18c-.45.51-1.12,1.11-1.48,1m4.77-8.29-.31.21a3.7,3.7,0,0,0-1.06.94L75.94,26a3.53,3.53,0,0,1,1.44-1.12,1.57,1.57,0,0,0,.85-1.64,4.27,4.27,0,0,0,.53.24,4.27,4.27,0,0,1-1.14,1.58M74.79,22.2l.47.48a.61.61,0,0,0,.45.18l.81-.05a.87.87,0,0,1-.41.53,1.41,1.41,0,0,1-1.07,0l-.06-.1a1.46,1.46,0,0,1-.19-1.05M79.6,34.64a2.05,2.05,0,0,1-1.15.5,3,3,0,0,1-2-1,.55.55,0,0,0-.34-.19,5,5,0,0,1-.48-1.39l.2,0A3,3,0,0,0,76.92,34a4.48,4.48,0,0,0,2.68.65m3.53-8.75a.94.94,0,0,0-.24-.25c-.7-.55-1.85-.55-3.49,0a.58.58,0,0,0-.4.5.56.56,0,0,0,.34.53,3.75,3.75,0,0,0,.94.24,4,4,0,0,1-1.38.19,4.88,4.88,0,0,1-2-.54,2.81,2.81,0,0,1,.86-.75l.33-.23a5,5,0,0,0,1.4-1.9l.2.05c1,.19,3.31.63,3.6,1.44a.91.91,0,0,1-.13.7m-7.25-5.05a6.2,6.2,0,0,0,.88,1.26l-1,.09-.64-.67a3,3,0,0,1,.76-.68m-5.25,5.44a.52.52,0,0,0,.08-.59.6.6,0,0,0-.54-.32,3.39,3.39,0,0,1-2.5-.76,1.22,1.22,0,0,1-.24-.43c2.94.61,4.24,0,4.38-.08a.56.56,0,0,0,.29-.38.53.53,0,0,0-.11-.45,2.4,2.4,0,0,1-.67-2.09,5,5,0,0,0,1,1,.65.65,0,0,0,.76,0,.53.53,0,0,0,.18-.68A2.12,2.12,0,0,1,73,20.34l1.23,1.27a2.48,2.48,0,0,0-.13.35,2.06,2.06,0,0,0,.21,1.56c-2,1.22-2.1,2.34-2,2.85A4.06,4.06,0,0,1,69.81,28a3.39,3.39,0,0,1-2.89-.82c2.64.33,3.67-.81,3.71-.86M64.29,33.6a.14.14,0,0,0-.09,0,.08.08,0,0,0,0,.09,2.62,2.62,0,0,0,2.92,2.21,8.5,8.5,0,0,0,5-2.2c.33.49,1.61,2.25,2.74,2.13.49,0,.86-.43,1.14-1.12a3.54,3.54,0,0,0,2.52,1.07,3.61,3.61,0,0,0,2.68-1.89.09.09,0,0,0,0-.12.12.12,0,0,0-.13,0s-2.28.64-3.69-.31a2.94,2.94,0,0,1-1.14-2.63,11.82,11.82,0,0,1,.36-3.63,5.48,5.48,0,0,0,2.32.6c2.52.05,3-1.36,3-1.42a.08.08,0,0,0,0-.1.12.12,0,0,0-.11,0,4.73,4.73,0,0,1-1.8,0c1.16-.36,2-.38,2.44,0a1.15,1.15,0,0,1,.32,1.05.12.12,0,0,0,.07.11.11.11,0,0,0,.14,0c.9-.92,1.22-1.67,1-2.3-.38-1.1-2.34-1.55-4.14-1.9A5.16,5.16,0,0,1,76.26,20a.12.12,0,0,0-.07-.07.11.11,0,0,0-.1,0A4.63,4.63,0,0,0,74.62,21l-1.75-1.8a.09.09,0,0,0-.08,0,.18.18,0,0,0-.1,0,2.33,2.33,0,0,0-.3,2.14,2.54,2.54,0,0,1-.83-1.5.1.1,0,0,0-.07-.1.13.13,0,0,0-.13,0s-1.79,1.54,0,3.79c-.39.15-1.77.5-4.49-.21a.1.1,0,0,0-.09,0s0,0-.06.06A1.87,1.87,0,0,0,67.09,25a3.8,3.8,0,0,0,2.77,1c-.45.3-1.67.85-4.09.21a.11.11,0,0,0-.12,0,.1.1,0,0,0,0,.1s.74,2.71,4.47,2.26a6.28,6.28,0,0,1-5.56,1.32.18.18,0,0,0-.1,0,.12.12,0,0,0-.05.09,2.63,2.63,0,0,0,1.3,2.18q1.6.81,4.73-.86c-.29.71-1.5,2.65-6.12,2.23"/><path class="cls-1" d="M21.88,77l-.14,0,.13-.07s0,.06,0,.09m2.56-1c.07-.31.08-.69-.14-.78s-.42.16-.49.24v0a1.41,1.41,0,0,1-1.34.56,2.15,2.15,0,0,0-1.69.74.92.92,0,0,0-.13,1c.27.57.74.88,1,.8.05,0,.21-.08.15-.35l0-.12a1.89,1.89,0,0,1-.07-.32.63.63,0,0,1,.19.07,1,1,0,0,0,.93.06.42.42,0,0,0,.11-.49,1.59,1.59,0,0,0-.14-.34c0-.06-.09-.15-.08-.17s.07-.06.46-.09c.91-.07,1.15-.11,1.28-.79"/><path class="cls-1" d="M17.35,77.43a.34.34,0,0,1,.44,0,.25.25,0,0,1,.09.2.3.3,0,0,1-.31.29.35.35,0,0,1-.22-.08.3.3,0,0,1-.1-.21.26.26,0,0,1,.1-.2m89.1-1.53a2.79,2.79,0,0,1-.26-.67.7.7,0,0,1,.4.18,2.21,2.21,0,0,0,.81.42l0,0a2.2,2.2,0,0,0-.84.41,2,2,0,0,0-.15-.36m-1,3.23a3.75,3.75,0,0,0-1.26-.64,4.44,4.44,0,0,1,.14-1.56,12.23,12.23,0,0,0,1.26.4,5.85,5.85,0,0,1,1.27.45.55.55,0,0,1-.1.17,4.94,4.94,0,0,1-1.27,1.21l0,0m-7.73,1.21a2.53,2.53,0,0,1,2-1.07,3.09,3.09,0,0,1,0,1,1.34,1.34,0,0,0,0,.35c-.17.18-.35.37-.55.56-1.22-.36-1.49-.59-1.54-.71a.41.41,0,0,1,.08-.15m-1.91,5.35c-.59-.16-.94-.37-1-.66A1.5,1.5,0,0,1,95,83.9c2.26.45,4.11-1.49,5.35-2.78.27-.28.49-.51.67-.67,1.27-1.11,2.35-1.87,3.87-.73s1,2-.67,4.22c-.89,1.16-5,1.46-7.72,1.31a.7.7,0,0,0-.72.44M86,92.57a3.53,3.53,0,0,1-2-.22c.38-4,.8-4.46,1.29-5a5,5,0,0,0,1-1.49C87,84,88.65,83.6,91.07,83.07l.27-.06a3.44,3.44,0,0,1,3,.48A2.1,2.1,0,0,0,94,85.28a2,2,0,0,0,1.49,1.11c-.84,1.26-3,2.53-6,3.51-2.62.86-3.35,2.13-3.55,2.67m-17.9,9.17h0l-.06,0-.38-.08a13.8,13.8,0,0,0-2.24-1.47,1,1,0,0,0-.06-.67c-.14-.26-.76,0-1,.08l-.92-.46s0,0,0,0a.14.14,0,0,0,0-.07.88.88,0,0,0,0-.82,1.71,1.71,0,0,0-1.28-.51,1.31,1.31,0,0,1-.34-.09,4.71,4.71,0,0,0,1.48-.84c1.3-.93,2.92-2.08,5.68-1h0a1.54,1.54,0,0,0,.4,0,1.6,1.6,0,0,0,1.48.94,1.63,1.63,0,0,0-.44,1.58,16.51,16.51,0,0,1,.08,1.87c-1.49,1.76-2.4,1.59-2.41,1.59m-8.26-.43a.66.66,0,0,0,0,.15.88.88,0,0,0,.55,1l0,0c-.19.06-1,.22-1.79-.89a2.28,2.28,0,0,0,1.25-.26M29.53,81.46a.7.7,0,0,1-.45.37,1.59,1.59,0,0,0,.18-.86c-.07-.69-.78-1.06-1.36-1.35l0,0a3.94,3.94,0,0,0-2.47.11,6.7,6.7,0,0,1,.42-.75,4,4,0,0,0,.22-.34l.35-.13c2-.69,2.43-.3,3.32.49.48.42.42,1.21-.19,2.48m-1.66,5.86c-.45-.89-1-1.9-1.43-2.66a12.84,12.84,0,0,0,2.13-2,1.63,1.63,0,0,0,1.71-.84c.09-.18.17-.36.25-.55a7.3,7.3,0,0,1,1.21,1.9,1.87,1.87,0,0,0,.75.87c-1.28.94-3.69,2.66-4.62,3.33m29.22,8.3a2.08,2.08,0,0,1,2.52.83,3.09,3.09,0,0,0,.56.72A2.7,2.7,0,0,0,62,98.44a1.48,1.48,0,0,1,.66.17.73.73,0,0,1,0,.18l0,.09,0,.11a3.64,3.64,0,0,1-3,.15.12.12,0,0,0-.1,0s-.32.2-.15.8c0,.17,0,.29,0,.36s-.47.19-.83.22l-.47,0a2.66,2.66,0,0,0,.62-1.83c0-1.83-1.27-2.53-3.3-2.76a10.26,10.26,0,0,0,1.77-.36M25.93,83.85c-.26-.36-.67-.87-1.06-1.36s-.9-1.1-1.09-1.4c1.61-.69,3.24-1,3.69-.83l0,0c.53.27.91.49.93.77S28.28,82.13,26,84l-.09-.13M54.8,92.41s0-.08,0-.13a14.46,14.46,0,0,1,3.82,2.51,0,0,0,0,1,0,0,3.24,3.24,0,0,0-1.78.08,5,5,0,0,1-4.13-.15c-.26-.11-.56-.23-.9-.35-.53-.19-.76-.5-.65-.89s.63-.83.82-.81c0,0,.54.22.3,1.11-.1.37,1.29.37,1.85,0a1.54,1.54,0,0,0,.67-1.41m23.59-7.53h0l.13,0c-.09.2-.23.61.28.58.66,0,1.19-.4.58-1.1l.68-1a.61.61,0,0,0,.11-.39,1.29,1.29,0,0,1,0-.2,1,1,0,0,1,.38.08.83.83,0,0,0,.78-.13.85.85,0,0,1,.41-.25.57.57,0,0,1,.2.24.75.75,0,0,0,.66.42h.09a3,3,0,0,1-.14.83,3,3,0,0,0-.12,1.1,4.1,4.1,0,0,1-1.23.49.67.67,0,0,0-.53.53.61.61,0,0,0,.3.63,3.28,3.28,0,0,1-.21.65,2.62,2.62,0,0,0-.18,2.1c.05.13.05.13-.39.44a4.37,4.37,0,0,0-1.47,1.52,8.26,8.26,0,0,1-3.82,1.77,3.54,3.54,0,0,0-2.26,2.25.63.63,0,0,0,0,.43c-.68.2-2.29.56-2.63-.36a2,2,0,0,0,1-1.3c.47-1.54.86-2.74.89-2.84A.72.72,0,0,0,72,91a5.82,5.82,0,0,0,.77-2.16c.32-1.4,1.33-2,2.86-2.86l.66-.38c1.45-.87,2.11-.72,2.11-.72m-34.24.39a.11.11,0,0,0,.06-.1v0a6.78,6.78,0,0,1,1.65-1.59,1.93,1.93,0,0,1,.45-.23l.1.08a1.15,1.15,0,0,0,.91.34,1,1,0,0,0,.59-.26,1.86,1.86,0,0,1,1.65-.26.92.92,0,0,0,.28,0c1.32,0,1.76.66,2.55,1.78l.52.7c.84,1.11,2.71,1.94,4.46,2.59l0,0s-.31.2,0,.56,1.09,1.32,1.21,1.06-.16-1-.32-1.35l.54.19c.34.12.7.24,1,.36,2,.74,3.54.95,5.52-.19,1.39-.81,2-.44,2.34,0a4.75,4.75,0,0,0,2,1.23c.36.15.73.3,1.09.48s.44.35.44.38h0l0,.08s-.39,1.23-.89,2.86a1.17,1.17,0,0,1-1.11,1,6.16,6.16,0,0,0-6.39,1.13,3.37,3.37,0,0,1-1.29.71.92.92,0,0,1-.65-.2l-.14-.18c-.1-.14-.22-.3-.34-.44l-.23-.42a9.38,9.38,0,0,0-.82-1.29c-.83-1.06-3.54-2.48-5.06-3.22a2.46,2.46,0,0,0-1.15-.66,9.58,9.58,0,0,0-2.45-1.69A8.35,8.35,0,0,1,48,87a2.28,2.28,0,0,0-1.09-.56c-.08-.44-.22-1.1-.47-1.1s-.51.64-.61.95a3.12,3.12,0,0,1-1.7-.65c-.08-.06-.09-.08-.08-.14a.64.64,0,0,1,.07-.24Zm-7.38-3.63.14-.16c.25-.3.66-.81.86-.83a.58.58,0,0,1,.26.14,9,9,0,0,1,.88.87,4.25,4.25,0,0,0,2,1.5c.12,0,.77.26,1.54,1.91a1.16,1.16,0,0,0,.76.63.94.94,0,0,0,.36.56,4.35,4.35,0,0,0,2.42.85,2.35,2.35,0,0,1,1.41.45,9,9,0,0,0,2.89,1.92,6.34,6.34,0,0,1,1.37.86,4.09,4.09,0,0,0-3.46,3.4.29.29,0,0,0,0,.09c-.6-.21-1.43-.47-2.31-.72,0-.14-.06-.39-.19-.73-.25-.59-1.17-1.28-1-.69a2.11,2.11,0,0,1,0,.68.79.79,0,0,0,.07.48,12.52,12.52,0,0,0-1.84-.3.76.76,0,0,0-.22-.47c-.35-.45-.46-.36-.5-.16a.92.92,0,0,0,0,.63,7.37,7.37,0,0,0-2.37.59,1.56,1.56,0,0,0-.08-.81c-.1-.39-.17-.79-.33-.52a1.16,1.16,0,0,0-.33.91c0,.34.16.54.31.6a4.73,4.73,0,0,0-1.75,1.23l0,.06A4.07,4.07,0,0,1,36.22,94a19.77,19.77,0,0,1-1.78-1.5c.09-.37.21-1,.05-1.21s-.56,0-.74.56L33,91.21a2.84,2.84,0,0,0-.38-.27c0-.3,0-.77-.15-.82s-.39.25-.46.52a8,8,0,0,0-1.58-.51h-.08l-.25-.05c.11-.3.26-.77.09-.74a1.77,1.77,0,0,0-.78.64,2.93,2.93,0,0,0-1.56.12,8.44,8.44,0,0,0,.23-2l.09-.06c1.12-.8,4.82-3.44,5.54-4l.8-.57a11.9,11.9,0,0,0,2.22-1.83M23.19,78.77c1.72-1.53,2.31-1.52,2.5-1.37,0,.07,0,.33-.57,1.18a2.66,2.66,0,0,0-.6,1.41c-.43.15-.8.29-1.07.4a2,2,0,0,0-.27-.43.88.88,0,0,0-.36-.27.94.94,0,0,1,.37-.92m-3.44.81a2.58,2.58,0,0,0-1,.34,2.74,2.74,0,0,0-.41.34c-.4-.32-.74-.61-1-.86l-.07-.06a3.06,3.06,0,0,1,1.87-.74c.2,0,.48.43.64,1M29.51,98.3c-2.22.6-5.37-.68-5.4-.7a.75.75,0,0,0-.67.05.64.64,0,0,0-.34.53c0,.23-.06.63-.38.73a1.77,1.77,0,0,1-1.6-.76c-.31-.36-.47-.67-.41-.84s.24-.37,1-.62a1.14,1.14,0,0,0,.83-.74c.13-.53-.28-.92-.55-1.18l-.15-.16a1.77,1.77,0,0,1,.41-.42.61.61,0,0,0,.22-.75,1.45,1.45,0,0,1-.12-.71,5.58,5.58,0,0,0,2.3-1.65.72.72,0,0,0,.13-.6c-.22-1-3.7-3-3.73-3a5.9,5.9,0,0,1-1.63-1.36c-.23-.24-.46-.49-.74-.75s-.42-1.86-.24-3.3a2,2,0,0,1,.78-1.5,3.2,3.2,0,0,1,2.19-.08,1.41,1.41,0,0,0,.59.06,1.83,1.83,0,0,0,.25-.06,1,1,0,0,1,.26-.07h0a1,1,0,0,1,.23.4,3.41,3.41,0,0,0,.26.56A19.61,19.61,0,0,0,24.2,83c.38.48.79,1,1,1.33a34.47,34.47,0,0,1,2,3.62A5.94,5.94,0,0,1,27,90.23a.53.53,0,0,0,0,.37c-.15.41-.3,1-.08,1.11s.66.07,1-.73a.87.87,0,0,0,.31-.22h0s.23-.21,1.95.11l.08,0a6.07,6.07,0,0,1,2.17.88c.16.13.44.39.77.7a26.85,26.85,0,0,0,2.47,2.14,4.65,4.65,0,0,0,1.55.68,4.17,4.17,0,0,0-.62,2.23,7.63,7.63,0,0,0-3.09.49,11.22,11.22,0,0,1-3.8.26,1.07,1.07,0,0,0-.25,0m15.24,3.15a.83.83,0,0,1-.08-.12.84.84,0,0,0-.21-.21,2.76,2.76,0,0,0-2.82-.09,4.41,4.41,0,0,1-.39.21.54.54,0,0,1-.09-.12l0-.07A2.83,2.83,0,0,0,38.82,100h0l-.12,0a.82.82,0,0,0-.25-.9,4.61,4.61,0,0,1-.73-.94c-.68-1.06.39-2.66.75-3.18a6.58,6.58,0,0,1,4.25-1.65,22.62,22.62,0,0,1,5.46,1.33c.13,1.93,2,3.7,2.11,3.78s.18.16.39.38c-1.06.54-2.66,1.49-2.88,1.62a3,3,0,0,1-1.47.36,2.4,2.4,0,0,0-1.2.25.68.68,0,0,0-.33.38l0,0m9.45,1.12a.62.62,0,0,0-.09-.26,8.21,8.21,0,0,0,.34-2.26c0-.27-.14-.44-.32-.5a.54.54,0,0,0-.54.13s.42,2.65-1.34,3.22a12.46,12.46,0,0,1-1.73.27c-.41.08-.81.26-.85.25.19-1.33,2.59-1.74,2.59-3.14a3.82,3.82,0,0,0-1.42-2.41,6.73,6.73,0,0,1-1.83-3,.1.1,0,0,0,0-.1c0-.12,0-.24-.08-.37a2.22,2.22,0,0,1,.06-.51c.37-1.53,1.54-3.15,3.61-2.75a3.23,3.23,0,0,1,1,.57,1.81,1.81,0,0,1,.36.73c.09.75-1,1-1.09,1s0-1.49-.87-1.49a2,2,0,0,0-1.73,1.37c-.21.79.22,1.46,1.16,1.8.33.11.6.22.87.33a11,11,0,0,0,1.29.44h-.13a.11.11,0,0,0-.11.07.41.41,0,0,0,.07.37,1.84,1.84,0,0,0,1.3.52c1.45.18,2.93.53,2.93,1.86a1.75,1.75,0,0,1-.87,1.63,4.17,4.17,0,0,0-2.78-2.56c-2.46-.82-3.36-1.59-3.72-3.16a.09.09,0,0,0,0-.08c-.05,0-.44-.19-.68,0s-.19.28-.14.55a4.2,4.2,0,0,0,2.23,2.56c.32.15.65.28,1,.41,1.22.49,2.38,1,2.87,1.86a.64.64,0,0,0-.38.48l-.47,3a1,1,0,0,1-.52-.84M53,102.33h0m-.08.2a0,0,0,0,0,0,0,0,0,0,0,1,0,0m12.39-.13a.67.67,0,0,0-.41.6,2.3,2.3,0,0,0,.12.71,2,2,0,0,1-1.18-1c-.95-1.66-2.26-2.11-3.1-2a1.14,1.14,0,0,0-.43.12,1.71,1.71,0,0,0,.25-.71,3.15,3.15,0,0,0,2.24-.4,1.13,1.13,0,0,0,.21.12l.22,0A21.35,21.35,0,0,1,67,102.2a8.07,8.07,0,0,1,.59.58,6.26,6.26,0,0,0,1,.91,5.68,5.68,0,0,1-2.59-1.2.77.77,0,0,0-.75-.09m22.39-5c0,.11,0,.89-2.33,2.55-2.78,2-7,.7-9.27,0h0l-.6-.18a8.8,8.8,0,0,0-4.32,0A5.18,5.18,0,0,0,71,98c-.18-.52.42-1,.79-1.27a6.91,6.91,0,0,0,1.61-.35,3.2,3.2,0,0,0,1.25-.24c-.18.31-.48.93-.11,1s1.56.36,1.16-1.25a2.18,2.18,0,0,0,1.55-.45.94.94,0,0,0,.12-.09,2,2,0,0,1,1.67-.8,3.12,3.12,0,0,0,1.09-.21l.06,0A19.62,19.62,0,0,1,83.47,93h0a3.28,3.28,0,0,0,2.54.28.05.05,0,0,0,0,0,2.19,2.19,0,0,0,.55.41A2,2,0,0,0,86,95.14a1.37,1.37,0,0,0,.38,1.14,3.09,3.09,0,0,0,1.24.73.54.54,0,0,0,.09.39m13.81-1.6a.64.64,0,0,0,0,.28,2,2,0,0,1-.06,1.48,2.21,2.21,0,0,1-1.49,1c-2.43.65-5.65-.52-7.38-1.15-.23-.08-.48-.16-.67-.24a19.24,19.24,0,0,0-3.57-.71.55.55,0,0,0-.22,0c-1.19-.27-1.33-.59-1.33-1.38a1.07,1.07,0,0,1,.82-1,10.68,10.68,0,0,0,3.58-.6c.55-.15,1.12-.31,1.67-.43,2-.44,5.08-.56,7.08.56a2.56,2.56,0,0,1,1.53,2.24M97.35,78.88a1,1,0,0,1-.21-.18.53.53,0,0,1,.21,0v.21M30,77.2a2.73,2.73,0,0,1,1,.15c-.31.57-.41.6-1,.32l-.58-.24A1.19,1.19,0,0,1,30,77.2m77.67-2.1a1.45,1.45,0,0,1-.51-.28,1.57,1.57,0,0,0-1.07-.37.72.72,0,0,0-.62.24c-.19.28-.11.78.27,1.53a.92.92,0,0,1,.12.37,9.3,9.3,0,0,1-1.23-.39.76.76,0,0,0-.71,0c-.46.3-.55,1.26-.52,2.16a4.7,4.7,0,0,0-2.75,1.38,1.5,1.5,0,0,0-.27-1,1.16,1.16,0,0,0-.85-.21,3.08,3.08,0,0,0-1.3.41,2.25,2.25,0,0,0-.07-.64.61.61,0,0,0-.46-.34,1.4,1.4,0,0,0-1.22.29.52.52,0,0,0-.18.56,1.7,1.7,0,0,0,.95.91,1.56,1.56,0,0,0-.16.2.83.83,0,0,0-.2.83c.19.5.93.84,1.69,1.08a4,4,0,0,1-3.42,1.32,4.09,4.09,0,0,0-4-.86l-.27.06c-2.48.54-4.43,1-5.41,3.21a4.63,4.63,0,0,1-.83,1.31c-.6.7-1.07,1.25-1.48,5.48a20.93,20.93,0,0,0-3.39,1.3,2.21,2.21,0,0,1-.78.14,2.87,2.87,0,0,0-2.23,1,1.33,1.33,0,0,1-1.13.26,1.4,1.4,0,0,0-1.21.27,2.27,2.27,0,0,1-.9.21A2.63,2.63,0,0,1,75.14,94c1-.25,3.3-.92,4.29-2.08a0,0,0,0,1,0,0,3.59,3.59,0,0,1,1.27-1.32c.51-.36,1-.67.65-1.34a2.06,2.06,0,0,1,.2-1.55c.2-.51.41-1,.08-1.39.42-.12,1.31-.4,1.57-.83a.44.44,0,0,0,.07-.38,2.23,2.23,0,0,1,.1-.9c.14-.57.28-1.15,0-1.5a.85.85,0,0,0-.65-.25,1.21,1.21,0,0,0-.76-.65,1.39,1.39,0,0,0-1.11.4,1.45,1.45,0,0,0-1.14,0,.89.89,0,0,0-.33.85l-.77,1.11a4,4,0,0,0-2.76.81l-.65.37c-1.58.92-2.84,1.64-3.24,3.36a9.82,9.82,0,0,1-.46,1.59,2.33,2.33,0,0,0-.35-.22c-.38-.19-.78-.35-1.15-.51a4.24,4.24,0,0,1-1.71-1q-1.22-1.48-3.44-.21c-1.68,1-3,.79-4.76.13l-1-.36c-1.92-.67-4.54-1.59-5.46-2.81-.18-.24-.35-.47-.5-.69-.82-1.16-1.47-2.07-3.21-2.12a2.8,2.8,0,0,0-2.5.38l0,0a.14.14,0,0,1-.11.06.41.41,0,0,1-.25-.12c-.41-.38-.78-.47-1.62.08a7,7,0,0,0-2,2,.35.35,0,0,1-.16-.16c-.63-1.36-1.35-2.18-2.08-2.36a3.54,3.54,0,0,1-1.6-1.23,8.25,8.25,0,0,0-1-1,1.21,1.21,0,0,0-.88-.32c-.55.06-1,.58-1.44,1.13l-.13.16a11.53,11.53,0,0,1-2.06,1.68c-.3.21-.59.41-.83.6l-.06,0a1.39,1.39,0,0,1-.63-.63,9.34,9.34,0,0,0-1.72-2.56,2,2,0,0,0-.35-1.72c.51,0,.89-.28,1.23-.91a.68.68,0,0,0,0-.71c-.21-.33-.78-.5-1.74-.53a2.83,2.83,0,0,0-1.84.93,5.29,5.29,0,0,0-1.66.28.76.76,0,0,0-.26-.83c-1.08-.84-2.79.67-3.62,1.4A1.69,1.69,0,0,0,22,79.74h0l-.14,0-.24,0a7,7,0,0,0-1-.16c-.15-.63-.57-1.76-1.51-1.73a2,2,0,0,0-.41,0,1.15,1.15,0,0,0,0-.26,1,1,0,0,0-.33-.74,1.2,1.2,0,0,0-.81-.31,1.11,1.11,0,0,0-1.15,1,1,1,0,0,0,.34.75,1.13,1.13,0,0,0,.21.15,1.34,1.34,0,0,0-.51.56.71.71,0,0,0,.27.86c.32.28.71.61,1.17,1a3.81,3.81,0,0,0-.29,1,.35.35,0,0,0,0,.06c-.21.07-.61.26-.61.59s.3.54.53.7a7.72,7.72,0,0,0,.1,1.52c-.15.2-.29.47-.09.63a1.9,1.9,0,0,0,.38.22,1.28,1.28,0,0,0,.17.22c.26.23.48.48.7.71l.14.15c-.07.32-.13.83.23.92a3,3,0,0,0,.8,0,6.31,6.31,0,0,0,.66.43c.3.16.61.35.92.55,0,.32,0,.83.37.76l.6-.1c.83.6,1.47,1.15,1.46,1.31C23.68,91,22.61,92,22.15,92a.59.59,0,0,0-.48.23,1.61,1.61,0,0,0,0,1.42c-.23.18-.9.76-.65,1.22a1.6,1.6,0,0,0,.37.42c.18.18.37.37.34.5s-.12.14-.3.19c-.56.2-1.33.52-1.51,1.14-.14.44.06,1,.57,1.52l.05.06-.3.32s-1,.23-.69,1,1.68.76,1.43-.36l.3-.31a2.09,2.09,0,0,0,1.71.34,1.38,1.38,0,0,0,.94-1.28,12.59,12.59,0,0,0,4.57.86,1.07,1.07,0,0,0,.93.29.74.74,0,0,0,.51-.46,20.26,20.26,0,0,0,2.39,0,.79.79,0,0,0,.74.32c.38,0,.44-.26.41-.48a1.64,1.64,0,0,0,.53-.19,7.73,7.73,0,0,1,2.85-.37,1.27,1.27,0,0,0,.13.22,5.73,5.73,0,0,0,.83,1.09c.08.07.08.07,0,.23a.67.67,0,0,0,0,.6,1.1,1.1,0,0,0,.79.31h0c.79.1,1.31.17,1.69.72l.05.07c.19.27.32.47.55.52s.52,0,1.07-.37a1.83,1.83,0,0,1,1.87,0c.09.13.49.72.94.67.28,0,.5-.27.66-.73a1.44,1.44,0,0,1,.76-.14,3.79,3.79,0,0,0,1.88-.45s1.86-1.12,3-1.67a2.42,2.42,0,0,1,.29.87c.16.89-3.88,2.61-2.32,4.87.2.29.4.2.4.2a1.23,1.23,0,0,1,.19-1.28c.44-.44,2.6.15,3.73-1.11a2.1,2.1,0,0,0,1.87,1.41c.06,0,.12,0,.12-.09l.53-3.36a1.76,1.76,0,0,0,.84.93,1.61,1.61,0,0,0,1.06.14,2.47,2.47,0,0,0,2.84,1.16c.69,0,1-.11,1.11-.34s.11-.39-1.07-1c-.14-.06-.17-.14-.16-.16s.1-.11.25-.13c.45-.06,1.44.21,2.24,1.61a3.07,3.07,0,0,0,3.38,1.37.11.11,0,0,0,.09-.11.11.11,0,0,0-.08-.1,1.2,1.2,0,0,1-.73-1,5.36,5.36,0,0,0,3.67,1.22,2.94,2.94,0,0,0,1.88-.95.09.09,0,0,0,0-.12.11.11,0,0,0-.13,0,2.4,2.4,0,0,1-2.7-.85,4.91,4.91,0,0,0,2.8-2,8,8,0,0,1,3.93,0l.62.19c2.25.69,6.92,2.13,10-.12,2.08-1.5,2.59-2.47,2.65-3a1,1,0,0,0,0-.31c.38.07.66.08.69.09h0a14.12,14.12,0,0,1,2.41.54l.56.2c-.17.22-.52.74,0,1s2.07-.56,2.07.21.71.65,1.92.17c0,0,.58-.13.64.17a.76.76,0,0,0,.84.58c.23,0,.54-.37.87-.66a8.26,8.26,0,0,0,1.22-.11c.41.28.77.36,1,.16A.84.84,0,0,0,101,99a2.6,2.6,0,0,0,1.22-1.08,2.47,2.47,0,0,0,.19-1.72,1.55,1.55,0,0,0,.47-.82c.09-.52-.55-.45-1-1a3.07,3.07,0,0,0-.64-.81,1.41,1.41,0,0,1-.2-.69c-.08-.81-1-1.12-1.15-.18a12.46,12.46,0,0,0-7.22-.4c-.58.12-1.16.28-1.72.43-1.76.48-3.42.94-4.22.18.08-.26.58-1.45,3.06-2.27,1.78-.58,6-2.19,6.77-4.59.85,0,6.9.28,8.36-1.64,1.3-1.7,2.45-3.2,1.16-4.67a5.71,5.71,0,0,0,1.38-1.34.87.87,0,0,0,.2-.84A1.18,1.18,0,0,0,107,77a1.54,1.54,0,0,1,1-.47c.5-.1.58-.35.59-.48,0-.38-.49-.8-1-.92"/><path class="cls-1" d="M33.91,84.69c-.44.1-1.25,1.15-.66,1.25a5.33,5.33,0,0,0,1.28-.87c.19-.32-.18-.48-.62-.38"/><path class="cls-1" d="M34.83,86.24c.48.14.74-.2,1-.6s0-1-.41-.51c0,0-1.07,1-.59,1.11"/><path class="cls-1" d="M36.75,86.89a1.77,1.77,0,0,0,.47-1.36c-.11-.4-.37-.2-.37-.2s-.88.91-.81,1.22.37.75.71.34"/><path class="cls-1" d="M39,87.3c.48-.1.3-.65.15-1.12s-.26-.81-.48-.61a1.34,1.34,0,0,0-.3.81c0,.48.15,1,.63.92"/><path class="cls-1" d="M51.51,29.33a1.07,1.07,0,0,1-.08-.37c0-.11,0-.13,0-.14l.14,0a1.6,1.6,0,0,1,.13.56,1,1,0,0,1-.22,0m-.25-1a.63.63,0,0,0-.42.73c.08.58.21.94,1,.84s.23-1.45.08-1.6-.71,0-.71,0"/><path class="cls-1" d="M51.76,31.07s-.06,0-.13,0h0a.81.81,0,0,1,0-.15.88.88,0,0,1,0-.16.17.17,0,0,1,0-.13.26.26,0,0,1,.11,0,.15.15,0,0,1,.06.07,1.24,1.24,0,0,1,0,.33m-.55-.87a.73.73,0,0,0-.24.64c.06.41,0,.82.68.79s.76-.45.68-1a.76.76,0,0,0-1.12-.47"/><path class="cls-1" d="M51.64,32.49a.31.31,0,0,1-.06.13l-.11,0a1.13,1.13,0,0,1,.17-.23l0,0a.49.49,0,0,1,0,.15M51.23,32s-.76.8-.24,1,1,.36,1.22-.33-.32-1.17-1-.71"/><path class="cls-1" d="M53,28.55h0a1.3,1.3,0,0,1-.23-.54l.09,0,.06,0h0a2.55,2.55,0,0,1,.17.58l-.07,0m-.51-1a.41.41,0,0,0-.34.55c.13.49.37,1.19,1,1s.52-.65.29-1.29-.63-.4-1-.25"/><path class="cls-1" d="M53.32,30.3a.5.5,0,0,1-.22,0,1.47,1.47,0,0,1,0-.41v0c0-.1,0-.15.07-.16s0,0,0,0a.33.33,0,0,1,.11.27.68.68,0,0,1,0,.27m-.78-.48s-.24,1.07.4,1.07,1-.12,1-.87c0-1-1.26-1.14-1.4-.2"/><path class="cls-1" d="M53.5,32a.85.85,0,0,1-.35.13c0-.05,0-.09,0-.13a1.82,1.82,0,0,0,0-.32l.13-.07.17,0s0,.08,0,.13a.47.47,0,0,1,0,.31m-.35-.91s-.55.14-.55.56-.27,1.16.4,1.06,1.25-.24,1.1-1.12-.51-.62-1-.5"/><path class="cls-1" d="M54.41,27.37s0,0-.11.07h0a.52.52,0,0,1-.14-.29c-.09-.29,0-.43.07-.47a2,2,0,0,1,.12.3.88.88,0,0,1,.07.39m-.2-.7h0m-.32-.46a.9.9,0,0,0-.32,1.06c.21.76.71.8,1,.63s.55-.33.31-1.08-.68-1-1-.61"/><path class="cls-1" d="M54.81,29.13l-.09.06a2.58,2.58,0,0,0-.06-.37.24.24,0,0,1,.1-.1,1.12,1.12,0,0,1,.05.41m-.74-.23c.16.54,0,1.21.68.9s.73-.57.58-1.23c-.21-.93-1.42-.2-1.26.33"/><path class="cls-1" d="M54.94,31.27a5.09,5.09,0,0,1,0-.55s0,0,.07-.1a.25.25,0,0,1,.12-.07.84.84,0,0,0,0,.1c.07.46,0,.56-.17.62m-.63-.52c0,.64,0,1.23.66,1.08s.85-.46.73-1.26c-.16-1-1.42-.48-1.39.18"/><path class="cls-1" d="M71.61,35.37l.23-.22.07-.07.22.29Zm.5-1.34c-.19,0-.37.12-.65.38l-.22.2a7.32,7.32,0,0,1-1.59,1.3.11.11,0,1,0,0,.22h3.84a.11.11,0,0,0,.1-.06.11.11,0,0,0,0-.12,20.1,20.1,0,0,1-1.24-1.68.38.38,0,0,0-.25-.24"/><path class="cls-1" d="M19.47,68.68c2.34,7,4,8.31,3.39,4.31s-1.34-7.11-.88-7.75.18-1.68-.05-2.7.41-1.24-.47-3.77.11-1.89.06-3.18-.53-1.24-.35-2.8S21.4,49,21.4,49s-1.46-.05-1.64.86-.18,11.54.58,15.31-1.34.11-1.63-4.53-.12-9.91-.12-9.91.24-1.24-1.41-1.57c0,0-.06,12.56,2.29,19.56"/><path class="cls-1" d="M26.14,65.56c0-2.59-1.05-3.78-.58-5.34s.76-2.15-.12-3.45-.53-1.18-.29-2.8-.24-4-.06-5.28c0,0-.82-.59-.94.11a113,113,0,0,0,.76,13c.53,3.5-.47,2-.82-.91-.24-2-.82-11.75-.82-11.75s-1.05-.75-1.29,0c0,0-.23,11.75,2.17,16.21s2,2.86,2,.28"/><path class="cls-1" d="M29.42,62.75a5.61,5.61,0,0,1-.29-2.9c.12-1.24-.47-2.22-.71-3.88a66.71,66.71,0,0,1-.35-7.92s-.35-.38-1,.05c0,0,.05,5.87.35,8s-.93-.16-1-3.88,0-4.48-.76-3.77c0,0-.24,11.37,3.21,14.92,0,0,.94.76.53-.65"/><path class="cls-1" d="M28.83,47.29s-.4,10.46,2.7,13.31.76.17.76-3.17c0-3.89-.88-3-.94-4,0,0-.17-3.93-.35-5.12s-1.11-1.72-.82.17.88,6.84.12,6.89-.64-3.12-.71-5,.24-3-.76-3.07"/><path class="cls-1" d="M33.23,46.92s-.54-.44-.36,1.4.59,3.61-.12,3.55-.41-2.32-.52-3.23-.29-2-.7-1.35c0,0,.11,7.06,2.22,10s2.11.7,1.11-1a11.17,11.17,0,0,1-1.17-5.44,25.09,25.09,0,0,0-.46-3.87"/><path class="cls-1" d="M35.27,53.81c1.35,1.73.94.27.65-1.5a33.73,33.73,0,0,1-.24-5.88.58.58,0,0,0-.76,0s.41,3.18.06,3.12-.47-1.18-.58-2.31-.24-.81-.59-.6c0,0,.12,5.45,1.46,7.17"/><path class="cls-1" d="M18.06,38.19a47.12,47.12,0,0,0-.53,5.55c-.15,3.3.09,3.83,1.47,3.89,1.79.09,2.13-1,2.41-3.67.31-2.85.35-4.32.39-4.7s-1-1.57-1.16.18-.1,7.15-1.27,6.93-.87-2.95-.63-4.83.88-4.11.1-4.29-.78.94-.78.94"/><path class="cls-1" d="M22.43,39.26s-1.5,8,.05,8.07c2.36.09,2-2.2,2.23-4.71s.49-3.23-.09-3.23-.73,2.42-.83,3.72,0,3-.68,2.91-.62-1.93-.38-3.49c.53-3.58.29-4-.3-3.27"/><path class="cls-1" d="M26,40.16s-.2-.36-.49-.31c0,0-.27,2.79-.37,4.44s.23,2.4,1.39,2.4,1.07-1.93,1.12-3.49.49-3,0-3.08-.53,1-.58,2.05-.15,3.31-.63,3.31-.78-.54-.68-2.19.24-3.13.24-3.13"/><path class="cls-1" d="M59.91,46.84c.4-.09.33-.33.66,0s.39.38.81.31a1.5,1.5,0,0,1,1.16.35c.23.25.6.2.54.41s-.44.45.49.62,1.29.28,1.55,0,.67-.31-.1-.72a5.29,5.29,0,0,1-1.65-.92c-.62-.58-.54-.58-1-.72A2.4,2.4,0,0,0,60.89,46a6.46,6.46,0,0,1-1.43.17s-.28.19-.07.4.1.4.52.31"/><path class="cls-1" d="M64,49c-.31,0-.5-.24-.78-.24,0,0-.46,0-.21.34s.49.43.78.35S64.35,49,64,49"/><path class="cls-1" d="M66.26,49.26a3,3,0,0,0,.95-.18c.34-.17.59.06.91.11a.61.61,0,0,0,.74-.28c.21-.34,0-.55-.31-.78a.88.88,0,0,0-1-.08c-.32.15-.24.24-.55.29s-1.16.83-.77.92"/><path class="cls-1" d="M70,49.48c.13,0,.52.07.67.05s.41,0,.16-.43-.16-.5-.64-.43-.42.24-.42.24.1.59.23.57"/><path class="cls-1" d="M71.85,54.68c.08.08.31.24.4,0s.07-.74-.6-.58c0,0-.23.17-.08.31s.21.24.28.31"/><path class="cls-1" d="M34.18,41.81C33.47,46.68,35.54,45,35.54,45c.1-1.23.33-2.87.33-2.87-.18-.27-.42-.13-.47.48s-.09,2-.61,1.9-.09-2.65-.33-2.73-.28.08-.28.08"/><path class="cls-1" d="M31.63,41.25s-.38,2.39-.38,3.13.43,1.3,1.46,1.21.81-1.34.9-2.38.19-1.65.19-1.65c-.52-.17-.47-.05-.66,1.29s-.15,1.92-.85,2-.33-2.51-.23-3.12-.43-.44-.43-.44"/><path class="cls-1" d="M28.7,40.65a28.55,28.55,0,0,0-.42,4.16c0,1.83,2.27,1.3,2.36,0s.52-3.73.52-3.73c-.76-.53-.8.87-.94,2.08s-.19,2-.9,1.83-.24-3.44-.19-4-.43-.3-.43-.3"/><path class="cls-1" d="M27.67,83.78c-.35.59-.17.77.22.82s.5-1,.5-1c-.12-.43-.37-.41-.72.19"/><path class="cls-1" d="M29.21,83.48s-.52-.07-.42.66.52.83.71.69.13-.8.13-1-.19-.62-.42-.39"/><path class="cls-1" d="M30.28,83.32a1.45,1.45,0,0,0,.2,1c.29.38.84.59.67-.24s-.38-1-.87-.75"/><path class="cls-1" d="M22,82c-.2-.09-.4-.16-.54.14,0,0-.18.46.32.46A.33.33,0,0,0,22,82"/><path class="cls-1" d="M19.88,83.14v0s0,.37.24.37.3-.11.33-.3-.43-.39-.57-.11"/><path class="cls-1" d="M20.57,85.59a.31.31,0,0,0,.07.52c.38.23.47.16.38-.27s-.25-.42-.45-.25"/><path class="cls-1" d="M22.9,85.51s.3.17.35,0-.07-.27-.07-.27-.48-.12-.28.22"/><path class="cls-1" d="M23.3,87.34s-.14.44.22.48.43-.32.28-.45-.5-.12-.5,0"/><path class="cls-1" d="M25.34,87.89s.34.07.34,0,.05-.22-.07-.31-.45,0-.27.31"/><path class="cls-1" d="M24.94,94.61s.72-1.55-.3-1.25a1,1,0,0,0-.37,1.07s-.52-.18-.18.46.6,1.23,1.27.64-.42-.92-.42-.92"/><path class="cls-1" d="M27.47,95.68s-.59.44-.42.65.95.29,1,0-.32-.86-.6-.67"/><path class="cls-1" d="M30.05,96.12s-.66.18-.34.5a1.17,1.17,0,0,0,1,.3c0-.07.35-1-.65-.8"/><path class="cls-1" d="M28.07,93.38s-.75.39-.45.66.85-.23.85-.23.15-.52-.4-.43"/><path class="cls-1" d="M30.4,92.65a.64.64,0,0,0,.77-.21s-.37-.87-.84-.55c0,0-.44.57.07.76"/><path class="cls-1" d="M33.53,95.76a.84.84,0,0,0,.8,0s.34-.51-1-.75a.49.49,0,0,0,.22.73"/><path class="cls-1" d="M41,95.49c0-.49-.6-.31-.6-.31s-.35.09-.37.31.44.27.44.27.53.2.53-.27"/><path class="cls-1" d="M41.05,98.25c-.26-.14-.59.18-.59.18a.45.45,0,0,0,.47.62c.67,0,.63-.41.63-.41s0-.11-.51-.39"/><path class="cls-1" d="M44.51,97.31a.64.64,0,0,0-.72-.53s-.65,0-.77.55.89.51.89.51.62-.16.6-.53"/><path class="cls-1" d="M43.74,99.23s0,.46.59.46.53-.34.53-.34-1-.51-1.12-.12"/><path class="cls-1" d="M47.19,97.45c.65,0,.47-.46.47-.46a.76.76,0,0,0-.62-.23c-.42,0-.5,0-.52.32,0,0,0,.39.67.37"/><path class="cls-1" d="M40.88,87.5c.37,0,.08-1.13.08-1.13s-.27-.66-.48-.61c0,0-.58,0-.36.84s.38.94.76.9"/><path class="cls-1" d="M42.29,87a.53.53,0,0,0,.78.19c.31-.18-.59-1.43-.59-1.43s-.85-.42-.77,0A7.72,7.72,0,0,0,42.29,87"/><path class="cls-1" d="M31.14,86.75c-.27,0-1.23.62-.87.78a.91.91,0,0,0,.83-.22c.34-.34.32-.53,0-.56"/><path class="cls-1" d="M32.67,87.43s-1.13,1-.69,1.21.79-.37,1-.79,0-.62-.27-.42"/><path class="cls-1" d="M33.75,89c.14.31.44.75.76,0s.16-.86-.09-.63c0,0-.79.37-.67.67"/><path class="cls-1" d="M36.54,89.35c.18-1,0-.87-.26-.64,0,0-.71.54-.52.79s.58.81.78-.15"/><path class="cls-1" d="M38.54,90.68c.56,0,.39-.78.25-1.35s-.32-.6-.48-.6c0,0-.34,0-.31.64s0,1.27.54,1.31"/><path class="cls-1" d="M40.52,89.1s-.56,1.11.19,1.56.48-.37.33-.87-.35-1-.52-.69"/><path class="cls-1" d="M42.73,88.92s-.42,0-.27.54.36,1.14,1,1-.33-1.32-.73-1.56"/><path class="cls-1" d="M46.17,90.37c.34-.6-1.33-1.75-1.6-1.6,0,0-.5.23,0,.73s1.28,1.47,1.6.87"/><path class="cls-1" d="M48.22,90c.4-.23-.63-1.13-.63-1.13s-.74-.75-.91-.56c0,0-.42.42.17,1s1,.94,1.37.71"/><path class="cls-1" d="M36.88,91.69s-1.08,1.41-.41,1.66.73-1,.71-1.52-.3-.14-.3-.14"/><path class="cls-1" d="M47,91.36a8.32,8.32,0,0,1,.46,1c.08.28.4.79.73.32s.13-.61-.21-1-1.21-.71-1-.31"/><path class="cls-1" d="M24.54,35.15A1.34,1.34,0,0,0,23,36c-.41,1.1-.13,1.54.12,1.48s.38-1.09.68-1-.34,1,.08,1.13.57-1,.89-.94-.32,1,.15,1.17,1.14-2.32-.41-2.72"/><path class="cls-1" d="M27.66,36.13a1.21,1.21,0,0,0-1.34.84c-.33,1-.06,1.41.17,1.35s.3-1,.58-.93-.27,1,.11,1,.48-1,.78-.88-.26,1,.18,1.06.95-2.15-.48-2.47"/><path class="cls-1" d="M21.46,36.67c.6.19,1.68-2.67-.28-3.29a1.77,1.77,0,0,0-2,.92c-.64,1.28-.31,1.83,0,1.78s.59-1.28,1-1.13-.53,1.2,0,1.36.83-1.19,1.23-1-.51,1.22.09,1.4"/><path class="cls-1" d="M30.53,37.12a1.05,1.05,0,0,0-1.19.7c-.33.87-.1,1.21.09,1.17s.3-.87.54-.79-.27.82.07.91.45-.84.71-.75-.26.83.11.93.91-1.85-.33-2.17"/><path class="cls-1" d="M33.33,39.76c.32.08.75-1.52-.26-1.78a.88.88,0,0,0-1,.56c-.27.73-.08,1,.07,1s.26-.72.45-.65-.22.67,0,.73.37-.67.59-.61-.22.69.09.77"/><path class="cls-1" d="M35.81,40.29c.33,0,.51-1.59-.53-1.73a.86.86,0,0,0-.89.7c-.16.74.07,1,.22,1s.14-.75.35-.7-.13.69.16.72.27-.72.48-.68-.1.71.21.74"/><path class="cls-1" d="M19.73,38.75c-.17.94-1,6.43-.45,6.52s.45-2.39.6-3.65.38-3.2.38-3.2-.35-.61-.53.33"/><path class="cls-1" d="M23.45,39.91c-.14.74-.75,5.06-.35,5.14s.35-1.89.45-2.88.29-2.52.29-2.52-.26-.48-.39.26"/><path class="cls-1" d="M26.48,40.66c-.09.59-.49,4-.09,4.08s.25-1.51.31-2.3.17-2,.17-2-.29-.37-.39.22"/><path class="cls-1" d="M29.59,41c-.1.44-.55,3.07-.14,3.09s.27-1.14.34-1.74.2-1.52.2-1.52-.29-.28-.4.17"/><path class="cls-1" d="M32.87,41.53s-.27-.2-.35.16-.38,2.41,0,2.41.2-.9.24-1.37.12-1.2.12-1.2"/><path class="cls-1" d="M35.23,41.84s-.22-.16-.3.14-.32,2.05,0,2.05.18-.76.21-1.17.1-1,.1-1"/><path class="cls-1" d="M83.61,39.6v1.73s.93-.07.93-.29.4.11.4.11a2.33,2.33,0,0,0-1.33-1.55"/><path class="cls-1" d="M85,44.45c-.35,0-.66.11-.62-.71s.15-1.44-.71-1.16v2.66s1.29.83,2,0a5.17,5.17,0,0,0-.23-2.73s-.12-.11-.43.18c0,0,.31,1.76,0,1.76"/><path class="cls-1" d="M83.68,46.43a8.65,8.65,0,0,0,0,2c.16,0,.82,0,.78-1.25s-.5-1.08-.78-.72"/><path class="cls-1" d="M85.25,46.14s-.28,0-.28.79-.24,1.4,0,1.4.5-.72.7-1.43-.08-.94-.46-.76"/><path class="cls-1" d="M83.88,50.2c.51,0,1.25,0,1.37-.79s-.86-.58-1.6.07c0,0-.28.68.23.72"/><path class="cls-1" d="M83.65,51.17a10.19,10.19,0,0,0,0,2.15,10.3,10.3,0,0,0,1.1-2c.19-.53-.94-.49-1.13-.1"/><path class="cls-1" d="M83.27,65.68c.34,1.32.08,1.24-.26,1.24s-.67-1.86-1.18-.62c-.29.72-.76,1.79.17,1.71s3.3.08,2.53-1.63-1.6-2-1.26-.7"/><path class="cls-1" d="M85.38,71.12a.72.72,0,0,0,.17-.73c-.12-.47-1.66-.17-1.66-.17l-3.45.17s-.42.69-.3.8,5,.08,5.24-.07"/><path class="cls-1" d="M82.25,73.85c0-1.24-.28-2.31-1.36-2.26,0,0-1.46-.07-1.51.83s-.15,2.21.28,2.21.11-1.6.46-1.62.39.64.39,1.08.64.64.59,0-.36-1.2,0-1.1.48.16.4.8.75,1.36.72.11"/><path class="cls-1" d="M83.68,72.85c.34,0,.36.59.36,1s.59.59.54,0-.33-1.1,0-1,.45.16.37.74.69,1.26.66.11-.25-2.13-1.25-2.08c0,0-1.34-.07-1.39.76s-.15,2,.26,2,.1-1.48.42-1.5"/><path class="cls-1" d="M48.57,87.21c.55,0,.27-2.4-.33-2a1.06,1.06,0,0,0-.34.79c0,.56.12,1.15.67,1.17"/><path class="cls-1" d="M50.7,87c-.15-.92-.61-1.34-.64-1a2.37,2.37,0,0,0,0,1.17c.15.61.82.75.67-.17"/><path class="cls-1" d="M52.86,87.24c.15-.14-.67-1.57-1-1.15,0,0-.4.17.06.73s.79.56.94.42"/><path class="cls-1" d="M55.05,90.07c-.06-.2-.46-.5-.61-.47a.28.28,0,0,0-.06.52c.36.34.72.14.67-.05"/><path class="cls-1" d="M56.9,90.18c.49-.23-.49-1-1.09-1,0,0-.34,0,0,.48s.6.76,1.09.53"/><path class="cls-1" d="M59.15,93c.58.45,1,.45.7-.11s-.61-1-.85-.7c0,0-.43.37.15.81"/><path class="cls-1" d="M61.92,92.5c.15-.36-.82-1.56-1.22-1.53,0,0-.52,0-.06.8s1.12,1.1,1.28.73"/><path class="cls-1" d="M63.38,92.06c0-.37-.73-1.71-.82-1.29a1.63,1.63,0,0,0,.14,1.34c.43.48.71.31.68,0"/><path class="cls-1" d="M65.35,91.52c-.09-.53-.58-1.34-.79-1.17,0,0-.45.2-.06.81s1,.9.85.36"/><path class="cls-1" d="M66.72,90.82c1,0-.21-.7-.31-.84s-.51-.22-.48,0c0,0-.18.84.79.84"/><path class="cls-1" d="M66.72,93.73a.6.6,0,0,0-.55-.5s-.63-.06-.21.42.82.39.76.08"/><path class="cls-1" d="M68.46,93.48c-.34-.84-.65-1.26-1-1.06,0,0-.28.36.15.92s1.16,1,.83.14"/><path class="cls-1" d="M69.64,92.36c-.12-.67-1.37-2.32-1.37-1.7a1.33,1.33,0,0,0,.31,1.06c.42.53,1.18,1.31,1.06.64"/><path class="cls-1" d="M65.72,96c-.18.27-.43,1.07.12.85,0,0,.91-.48.75-.74s-.69-.39-.87-.11"/><path class="cls-1" d="M67.45,97.68c-.49.11-.94.53-.67.81,0,0,.27.48.88,0s.28-.92-.21-.81"/><path class="cls-1" d="M75.23,98.52s-1.09.81-.18.87,1.06-.23.79-.62-.31-.42-.61-.25"/><path class="cls-1" d="M81.19,99.25c-.25,0-1.13.45-.76.81,0,0,.73.28,1.1-.2s-.1-.61-.34-.61"/><path class="cls-1" d="M83.53,97.6c-.42.17-.67.5,0,.78a.75.75,0,0,0,.73-.34c.27-.42-.3-.62-.73-.44"/><path class="cls-1" d="M79.64,97.23s-.91,1.07,0,1.12.45-.73.45-.73-.33-.61-.48-.39"/><path class="cls-1" d="M79.67,95.47c-.45-.36-.7-.17-.91.08,0,0-.61,1,.12,1s1.24-.67.79-1"/><path class="cls-1" d="M83.13,95.27c-.12-.36-.24-.5-.57-.33,0,0-.73.5-.28.67s1,0,.85-.34"/><path class="cls-1" d="M72.59,93s-.25.45.3.5.58-.28.55-.45a.56.56,0,0,0-.85,0"/><path class="cls-1" d="M73.44,89.73s-.16.65.42.81.4-.36.34-.5-.8-.65-.76-.31"/><path class="cls-1" d="M76.42,91.05s-.52.5-.19.61,1-.44.19-.61"/><path class="cls-1" d="M78.6,89.67c.5.06.82-.47.13-.58,0,0-.61.53-.13.58"/><path class="cls-1" d="M75.9,89.51s-.67.06-.3.39.51.34.67-.09.06-.38-.37-.3"/><path class="cls-1" d="M77.05,87.35a.54.54,0,0,0,.25.65c.39.22.39,0,.42-.23s-.67-.75-.67-.42"/><path class="cls-1" d="M76.3,86.4a.73.73,0,0,0,.6-.08c.27-.2-.69-.42-.6.08"/><path class="cls-1" d="M81.77,83.85c.3-.25-.37-.53-.55-.16,0,0,.24.42.55.16"/><path class="cls-1" d="M99.41,97.73c.71-.19,1.19-1.3-.07-1,0,0-.58.53-.58.69s-.06.52.65.32"/><path class="cls-1" d="M94.86,96s-.22.67.07.63.91-.21.53-.53-.5-.27-.6-.1"/><path class="cls-1" d="M92.72,95.07s-.62.22-.64.44,0,.65.56.29.94-1.09.08-.73"/><path class="cls-1" d="M90.32,94.29s-.75.2-.52.47.82.73,1,.22,0-.92-.44-.69"/><path class="cls-1" d="M95.54,93.39s-.58.23-.47.44a.45.45,0,0,0,.73.16c.29-.29.3-.83-.26-.6"/><path class="cls-1" d="M97.38,95.61c.46-.12,1.11-1.18.12-1a1,1,0,0,0-.52.47c-.16.34-.06.67.4.56"/><path class="cls-1" d="M86.45,86.87s0,.69.53.55a.37.37,0,0,0,.29-.55s-1-.54-.82,0"/><path class="cls-1" d="M86.38,90.05c-.46-.22-.49-.28-.63-.1,0,0-.4.66,0,.69s1-.36.59-.59"/><path class="cls-1" d="M88.46,88.05c.07-.29-1.57.36-.92.63,0,0,.53.24.8.1s0-.44.12-.73"/><path class="cls-1" d="M90,85.13c.44,0,.42-.41.27-.63s-.87-.24-.83.21a.59.59,0,0,0,.56.42"/><path class="cls-1" d="M90.21,86.38c.94.51.63-.9.16-.65,0,0-.59.42-.16.65"/><path class="cls-1" d="M91.68,85.33c1,0,.47-.94.08-.76a3.82,3.82,0,0,0-.51.42c0,.09-.38.34.43.34"/><path class="cls-1" d="M90.52,87.92c0,.2.24.3.65.2s.42-.63-.09-.51c0,0-.53.1-.56.31"/><path class="cls-1" d="M92.8,87.33c.22-.06.14-.46.17-.75s-.12-.43-.49-.18a.3.3,0,0,0-.22.33c0,.3.32.67.54.6"/><path class="cls-1" d="M101.31,82.58c.33-.28.6-.8,0-.87a.39.39,0,0,0-.41.43c0,.42.12.73.46.44"/><path class="cls-1" d="M102.35,83a1.85,1.85,0,0,0,.75.16c.29,0,.15-.48-.07-.59s-1.07.36-.68.43"/><path class="cls-1" d="M104.05,81.27c.75.14.9-.72.56-.65,0,0-1.31.52-.56.65"/><path class="cls-1" d="M102.49,81.07c.39,0,.66-.14.42-.32s-.61-.53-.61-.33c0,0-.19.67.19.65"/><path class="cls-1" d="M99.84,36.75c0-.73-.23-.9-.29-.81s-.18,2,0,2.05.32-.51.26-1.24"/><path class="cls-1" d="M89.2,41.26c-.45.05-.59-.57-.62-1s-.41-.65-.62-.14c0,0,.09,1.71,1,1.65,1.11-.08,1.4-.59,1-1.94a.39.39,0,0,0-.59-.12c-.35.28.33,1.47-.11,1.52"/><path class="cls-1" d="M90.57,39.41s-.18,1.85.7,1.88c1.1,0,1.47-.47,1.24-2a.36.36,0,0,0-.56-.18c-.39.25.1,1.61-.34,1.61s-.49-.68-.46-1.12-.3-.74-.58-.21"/><path class="cls-1" d="M93.19,38.86s-.2,1.91.61,1.94c1,0,1.37-.51,1.18-2.06,0,0-.15-.45-.51-.19s.06,1.66-.35,1.68-.44-.7-.4-1.16-.27-.76-.53-.21"/><path class="cls-1" d="M95.65,37.8l0,1.65s-.15,1.11,1.14,1.13,1-1.51,1-2.16-.09-1.62-.41-1.57-.41.41-.38,1.11.18,1.54-.23,1.51-.39-.53-.39-1.24-.58-1.21-.67-.43"/><path class="cls-1" d="M99.14,36.18s-.76-.62-.76.33-.3,3.64,1.41,3.72,1.43-1.94,1.43-3.21.27-2.62-.29-2.27-.62.73-.68,1.65.21,2.41-.29,2.48-.84-.08-.76-1.43a3.39,3.39,0,0,0-.06-1.27"/><path class="cls-1" d="M102.89,37.12c-.09-1.48,0-2.56-.32-2.56,0,0-.59-.05-.62.71s-.35,3.72.74,4.18,2.58.19,2.61-.92,0-3.56,0-4.21-.7-1-.85,0,.44,4.47-.47,4.42-1-.08-1.12-1.57"/><path class="cls-1" d="M103.57,34.81s-.33,2.64.08,2.8.21-1.81.24-2.4-.26-.89-.32-.4"/><path class="cls-1" d="M99.32,76.47c.71.07,2.91-4.51,3.46-7.46a16.27,16.27,0,0,1,1.37-5c.62-1.33,1.49-6.72,1.49-9.44a55.91,55.91,0,0,0,0-5.61c-.16-.43-.33-.58-.83-.24s-1.12.16-1,1.39.17,8.82-.29,10-.92,3.09-1.29,4.35-.82,2.68-.54.08.88-2.68.91-4.25.46-3.43.38-5.69.12-5.12.12-5.12-1.24-1.53-1.28-.16.08,8.49,0,9.44a14.87,14.87,0,0,0-.33,3.37c.12,1-.38,1.27-.46,2.83s-.55,7.49-1.37,9.09-1,2.26-.26,2.34"/><path class="cls-1" d="M98.2,69.32c.55-.31,2.67-4.93,2.79-12s.42-7.8.08-8.34-1-.68-.92.77-.28,11.58-.82,11.62c-.46.34.37-8.65.16-12.13l0-.08s-.66-1.64-.7-.38-.09,6.82-.25,7.24a11.94,11.94,0,0,0-.62,4.47A37.79,37.79,0,0,1,98,67.6c-.25,1.11-.33,2,.2,1.72"/><path class="cls-1" d="M97.71,53.49a50.05,50.05,0,0,0,.42-5.22.72.72,0,0,0-1,.65c0,.53-.07,2.9-.19,3.69s-.13,4.29-.66,4.25-.25-1.72-.09-3.21.75-3,.34-5.14c0,0-.76-.76-.8-.07s.09,2.49-.16,2.8a4.67,4.67,0,0,0-.41,2.41c0,1.11.24,2.9-.21,3.59s-.29,1.57-.46,2.49A11.9,11.9,0,0,1,93.23,64c-.88,1.3,1,1.64,2.86-3.25s1.49-5.77,1.62-7.27"/><path class="cls-1" d="M92.73,48.49c0,.77-.09,5.69-.5,6.54s-.54,2.56-.79,3-1.21,2.64-1.66,3.33-.37,1.53.45,1A12.26,12.26,0,0,0,94,56c.37-2.67.83-4.4,1-5.12s.36-2.67.11-2.83-.75-.3-.75.42A20.19,20.19,0,0,1,93.68,53c-.41,1.22-.45,1.69-.5.15s.31-4.54.1-5.26c0,0-.55-.12-.55.64"/><path class="cls-1" d="M90,47.69a26.57,26.57,0,0,0-.09,2.82c0,2.68-1.49,5.36-2.32,7s.29,1.22,1,.68a16.82,16.82,0,0,0,2.54-3.74c.62-1.19,1.21-6.73,1.21-6.73-.08-.18-.67-.34-.88,0s-.45.43-.62.09-.79-.12-.79-.12"/><path class="cls-1" d="M88.91,52.89a30.07,30.07,0,0,0,.5-5c0-.65-.33-1.07-.41.08s-.48.64-.69-.36-.59,1.93-.43,2.92S87,54.18,86.54,55.9s2-2.1,2.37-3"/><path class="cls-1" d="M89.41,43.07c-.17,1.31.07,1.84-.41,1.69s0-2.15-.36-2.15-.31.78-.38,1.33-.17,2.12.72,2.12c1.48,0,1.14-2.58,1.14-3.05s-.54-1.25-.71.06"/><path class="cls-1" d="M92.38,42.24c-.37,0-.54.09-.5.83s.13,1.5-.27,1.41-.27-.94-.24-1.63-.27-.65-.27-.65-.37-.09-.37.63-.17,3.11.64,3.17,1.25-.59,1.32-2.18.06-1.58-.31-1.58"/><path class="cls-1" d="M94.07,46.53c1.39.12,1.12-2.15,1.15-2.71s.17-1.86-.17-1.9-.3.35-.3,1S94.68,45,94.27,45s-.5-.71-.4-1.77S94,42,93.77,42c0,0-.51,0-.51.84s-.57,3.57.81,3.7"/><path class="cls-1" d="M98,41.7c-.41-.09-.68,0-.68.76s.11,3-.37,3-.61-.65-.61-1.84.34-1.86.11-1.92c0,0-.68-.34-.71.81s-.24,4.25.77,4.41,1.66-1,1.56-2.46.34-2.7-.07-2.8"/><path class="cls-1" d="M99.34,41.43s-.54-.07-.6.87.06,2.67.06,3.51.11,1.59,1,1.68,1.51-1.21,1.51-2.61.38-3.58-.2-3.67-.44.4-.4.93,0,4-.68,3.89-.78-1.55-.58-3.08c.24-1.77-.1-1.52-.1-1.52"/><path class="cls-1" d="M100,42s-.23-.16-.23.74-.24,2.4.13,2.42.1-.8.24-1.61S100.29,42,100,42"/><path class="cls-1" d="M105.49,40.77c-.51-.06-.71-.15-.74.84s-.1,4-.1,4,.1,1.18-.78,1.18-.88-.49-.88-1.58.31-4-.44-4.07c0,0-.58,0-.61,1s0,3.79,0,4.29a1.83,1.83,0,0,0,1.69,1.87c1.46.18,1.9-1.74,1.93-3.64s.41-3.77-.1-3.83"/><path class="cls-1" d="M103.87,41.8s-.37-.13-.4.71-.21,3.43.13,3.43.39-.16.37-.88c-.07-2.08.21-3.23-.1-3.26"/><path class="cls-1" d="M86.4,18l.25-1.68.48.06.06-.43-.47-.05L87,14.13l.24,0c.3,0,.39.14.35.4l-.48,3.14c0,.27-.15.34-.45.3Zm1.15-.24L88,14.66c.08-.45,0-.76-.65-.84l-.77-.1-.7,4.55.77.1c.62.08.82-.19.89-.64"/><path class="cls-1" d="M48.31,38a.46.46,0,0,1,.47.44.45.45,0,0,1-.47.44h-.89V38Zm-.21,2.53s-.68,0-.68-.58v-.58h1.32a.85.85,0,1,0,0-1.68H46.27v.42s.37-.09.37.34v1.75a.44.44,0,0,1-.43.31v.32h1.86Z"/><path class="cls-1" d="M42.43,58.17a.45.45,0,0,1,.47-.43.46.46,0,0,1,.48.43V59h-1Zm.49,1.54h1.9a.43.43,0,0,1,.33.39h.35V58.39l-.33,0a.57.57,0,0,1-.62.63h-.63V57.78a.92.92,0,0,0-1.83,0v2.27h.45s-.1-.34.38-.34"/><path class="cls-1" d="M74.49,75.15a.51.51,0,0,1-.67.1.43.43,0,0,1-.11-.62l.52-.64.77.52Zm-2-.6a.44.44,0,0,1-.1-.66l.51-.65a.64.64,0,0,1,.37.12l.51.34-.59.75a.53.53,0,0,1-.7.1m3.16-1a.35.35,0,0,1-.55.1l-1.54-1a.43.43,0,0,1,0-.54l-.28-.19-1.21,1.55-.44.55a.92.92,0,0,0,.14,1.35,1,1,0,0,0,1,0,.81.81,0,0,0,.36.61,1,1,0,0,0,1.33-.26l.77-1,.11-.15.22-.27.41-.53Z"/><path class="cls-1" d="M52.8,40.44c-.32,0-.78-.56-.78-1.15s.46-1.16.78-1.16.79.57.79,1.16-.46,1.15-.79,1.15m0-2.79a1.66,1.66,0,1,0,1.92,1.64,1.8,1.8,0,0,0-1.92-1.64"/><path class="cls-1" d="M58.23,38a.45.45,0,0,1,.46.44.45.45,0,0,1-.46.44h-.9V38ZM58,40.52s-.68,0-.68-.58v-.58h.58l1,1.46A1.26,1.26,0,0,0,60,40.44l-.15-.21s-.43.27-.62,0l-.53-.82a.91.91,0,0,0,.94-.84.92.92,0,0,0-1-.84H56.18v.42s.37-.09.37.34v1.75a.44.44,0,0,1-.43.31v.32H58Z"/><path class="cls-1" d="M42.39,52a.46.46,0,0,1,.48-.43.47.47,0,0,1,.48.43v.83h-1Zm.49,1.54h1.9a.42.42,0,0,1,.33.39h.36V52.24l-.34,0a.57.57,0,0,1-.62.63h-.63v-.54l1.59-.9a1.07,1.07,0,0,0-.42-1l-.23.14s.29.39-.06.57l-.88.48a.92.92,0,0,0-1.83.05V53.9h.46s-.1-.34.37-.34"/><path class="cls-1" d="M59.49,82.67a.47.47,0,0,1,.58-.3l.86.22c-.1.32-.19.63-.26.84l-.86-.22a.43.43,0,0,1-.32-.54m1.28-1.83s.67.12.49.72c0,.14-.11.34-.18.56L60.52,82,60,80.32a1.3,1.3,0,0,0-1.17.08l.08.25s.49-.15.58.21.2.71.26.91a1,1,0,0,0-1.15.57.86.86,0,0,0,.7,1.06l1.75.47.62.16.13-.41s-.39,0-.26-.42.52-1.68.52-1.68a.46.46,0,0,1,.51-.19l.1-.31-1.8-.47Z"/><path class="cls-1" d="M81.09,43.39a.45.45,0,0,1-.48.42.46.46,0,0,1-.48-.42v-.83h1ZM81,41.51s.1.33-.37.33H78.7a.42.42,0,0,1-.33-.39H78v1.72l.32,0a.58.58,0,0,1,.63-.63h.62v.53L78,44a1.05,1.05,0,0,0,.4,1l.24-.15s-.29-.39.06-.57.68-.37.88-.48a.91.91,0,0,0,.92.87.92.92,0,0,0,.91-.91V41.51Z"/><polygon class="cls-1" points="67.21 40.57 66.73 40.57 68.01 38.82 69.86 40.81 71.47 39.23 72.45 40.57 71.85 40.57 71.85 40.83 74.2 40.83 74.2 40.57 73.88 40.57 72.31 38.41 72.32 38.4 72.32 37.74 71.56 37.74 71.56 38.21 70.25 39.49 68.72 37.74 67.06 37.74 67.06 38.25 67.48 38.25 67.49 38.26 65.8 40.57 65.46 40.57 65.46 40.83 67.21 40.83 67.21 40.57"/><polygon class="cls-1" points="77.19 40.34 76.91 40.34 76.91 38.24 77.19 38.24 77.19 37.76 75.59 37.76 75.59 38.24 75.86 38.24 75.86 40.34 75.59 40.34 75.59 40.83 77.19 40.83 77.19 40.34"/><polygon class="cls-1" points="42.6 49.47 44.89 49.47 44.89 49.72 45.41 49.72 45.41 48.26 44.89 48.26 44.89 48.51 42.6 48.51 42.6 48.26 42.09 48.26 42.09 49.72 42.6 49.72 42.6 49.47"/><polygon class="cls-1" points="42.6 43.56 45.53 41.84 42.6 39.74 42.6 39.16 42.11 39.16 42.11 40.69 42.6 40.69 42.6 40.25 44.23 41.42 42.6 42.39 42.6 42.28 42.11 42.28 42.11 44.01 42.6 44.01 42.6 43.56"/><polygon class="cls-1" points="42.41 47.56 43.09 47.56 43.09 47.28 42.76 47.28 42.76 46.42 44.91 46.42 44.91 46.97 45.41 46.97 45.41 44.88 44.91 44.88 44.91 45.42 42.76 45.42 42.76 44.57 43.09 44.57 43.09 44.29 42.76 44.29 42.09 44.29 42.09 47.56 42.41 47.56"/><polygon class="cls-1" points="42.6 56.19 44.89 56.19 44.89 56.44 45.41 56.44 45.41 54.97 44.89 54.97 44.89 55.22 42.6 55.22 42.6 54.97 42.09 54.97 42.09 56.44 42.6 56.44 42.6 56.19"/><path class="cls-1" d="M72.26,77.33c-.05,0-.17-.09-.23-.15l-1.4-1.37c0-.06-.07-.09-.06-.12a2,2,0,0,1,.27-.27l-.28-.28L68,77.35l.43.78.31-.27c-.07-.13,0-.45,0-.47a.21.21,0,0,1,.09-.17l1-.9,1.48,1.44c.06.06.17.18.16.2a5.39,5.39,0,0,1-.56.52l.31.31,1.6-1.39-.31-.3a2.31,2.31,0,0,1-.29.23"/><path class="cls-1" d="M48.44,73.57l1.73-1c.07,0,.11,0,.14,0a1.6,1.6,0,0,1,.23.3l.35-.21L49,69.91l-.92.23.23.34a1.22,1.22,0,0,1,.51.09.21.21,0,0,1,.16.1l.76,1.12L48,72.85a1.19,1.19,0,0,1-.25.11s-.31-.43-.44-.61l-.38.22,1.17,1.71.38-.22-.19-.31s.13-.13.2-.18"/><path class="cls-1" d="M50.27,73.46l.31.35.27-.11.15,0s.25.19.29.23l.63.72-.87.65-.82-.94-.38.28.82.94L50,76l-.7-.81,0,0a.09.09,0,0,1,0-.11s0,0,.06-.09l.16-.21-.29-.34-.57.69,1.87,2.13.3-.23-.14-.17c0-.06-.06-.09,0-.11s0,0,.08-.1l1.74-1.29c.07,0,.11,0,.14,0a1,1,0,0,1,.23.24l.32-.23-2-2.23Z"/><path class="cls-1" d="M44.78,67.26l2.12-.66c.07,0,.13,0,.15,0a1.37,1.37,0,0,1,.13.3l.38-.11-1-2.72-1,.07.15.43h.3a.4.4,0,0,1,.16,0c.05,0,.16.24.18.31l.31.87-1.06.32-.41-1.14-.46.14.42,1.15-.83.25-.36-1s0,0,0,0a.14.14,0,0,1,0-.11l.1-.06.23-.15-.15-.41-.79.47.94,2.6.38-.12a1.18,1.18,0,0,1-.07-.21c0-.07,0-.1,0-.12a.26.26,0,0,1,.12-.06"/><path class="cls-1" d="M43.72,64c.41,0,.69-.38.87-1,.06-.21.1-.42.15-.64a2.7,2.7,0,0,1,.2-.56.52.52,0,0,1,.28-.13.23.23,0,0,1,.22.13.85.85,0,0,1,.11.38,1.75,1.75,0,0,1,0,.71,1.88,1.88,0,0,1-.68.46l.23.56a5.53,5.53,0,0,1,1-.36,3.94,3.94,0,0,0,.08-1.22,2.17,2.17,0,0,0-.49-1.3.88.88,0,0,0-.8-.4.72.72,0,0,0-.59.33,3.13,3.13,0,0,0-.31.85c0,.06,0,.2-.15.62a2,2,0,0,1-.19.57.17.17,0,0,1-.12.1c-.13,0-.31-.14-.35-.45a6,6,0,0,1,0-1.11,2,2,0,0,1,.63-.33l-.17-.48a7.52,7.52,0,0,1-.94.3,3.67,3.67,0,0,0-.06,1.19,3,3,0,0,0,.38,1.31.86.86,0,0,0,.8.51"/><path class="cls-1" d="M80.47,51.05c.17,0,.08.05.1.06a.43.43,0,0,1,.17.09.31.31,0,0,1,0,.18v1.15l-2.41-2s-.34-.39-.34.25v3.06l.91.25v-.6c-.26-.07-.16-.14-.22-.18a.35.35,0,0,1-.08-.26v-1l2.43,1.92s.33.21.33-.29V50.7l-.93-.23Z"/><path class="cls-1" d="M79.65,46.93l.74.35-.74.4Zm-1-1.34a1.65,1.65,0,0,1,0-.28H78v1.28h.57v-.27l.57.27V48l-.58.3s0-.54,0-.56H78v2.09h.57a.88.88,0,0,1,0-.3s.05-.08.13-.12l2.66-1.47V47L78.7,45.67a.18.18,0,0,1-.09-.08"/><path class="cls-1" d="M79.62,56.28l.74.35-.74.4Zm-1-1.35a1.5,1.5,0,0,1,0-.27H78v1.28h.58v-.26h0l.57.27v1.37c-.48.25-.59.29-.59.29s0-.53,0-.55H78v2.08h.58a.91.91,0,0,1,0-.29.35.35,0,0,1,.14-.13l2.65-1.46v-.89L78.67,55a.13.13,0,0,1-.09-.09"/><path class="cls-1" d="M66.06,80.48l.68-.4.08.77Zm1.62-2.08L67.36,78l-1.17.68.3.46.24-.15h0l.06.59-1.26.73L65,80l.51-.28-.3-.46-1.92,1.11.31.45a1.68,1.68,0,0,1,.28-.14.33.33,0,0,1,.19,0L66.79,82l.83-.48-.23-2.83a.16.16,0,0,1,0-.11,1.38,1.38,0,0,1,.26-.16"/><path class="cls-1" d="M55.66,80.29l.08-.79.66.43Zm2-1.37-.33.43.22.15s0,0,0,0l-.57.27L55.77,79c.06-.5.08-.6.08-.6l.48.32.34-.43-1.84-1.21-.34.43a1.14,1.14,0,0,1,.25.19.36.36,0,0,1,0,.18l-.26,2.84.79.52L58.06,80c.06,0,.1,0,.13,0a1.46,1.46,0,0,1,.25.14l.34-.43Z"/><path class="cls-1" d="M77.11,69.87l-.85.08.33-.68Zm-.87-2.22a1.4,1.4,0,0,1,.1-.26l-.52-.22-.57,1.17.53.22c.07-.13.1-.21.12-.23h0l.41.46L75.7,70l-.66,0,.25-.5-.53-.22-.92,1.91.53.21a1.36,1.36,0,0,1,.15-.26.32.32,0,0,1,.19-.06l3.07-.34.39-.82-1.89-2.24a.11.11,0,0,1,0-.11"/><path class="cls-1" d="M80.15,63.23c0,.06,0,.1-.06.11a1,1,0,0,1-.26,0l-2-.48c-.08,0-.12,0-.12-.08a.93.93,0,0,1,.07-.32l-.41-.1-.45,1.55.41.1.06-.19a.31.31,0,0,1,0-.09.28.28,0,0,1,.12,0l.84.21L78,65.27l-.84-.21c-.07,0-.11,0-.11-.06a1,1,0,0,1,.05-.28l-.41-.09-.44,1.54.41.1.06-.21c0-.06.05-.1.07-.11s.06,0,.13,0l2,.48a1.4,1.4,0,0,1,.25.1,1.47,1.47,0,0,1-.08.33l.45.11L80,65.43l-.45-.11c0,.11,0,.16-.06.19a.13.13,0,0,1,0,.09l-.24,0-.67-.17L78.92,64l.67.16c.07,0,.23.06.24.09a2,2,0,0,1-.06.27l.45.11.44-1.55-.44-.1-.07.21"/><rect class="cls-1" x="145.24" y="87.96" width="7.91" height="6.27"/><rect class="cls-1" x="163.15" y="87.96" width="7.91" height="6.27"/><path class="cls-1" d="M166.44,75.47a11.69,11.69,0,0,0-3.66-2.06h-9.64a10.1,10.1,0,0,0-3.45,2.09,8.72,8.72,0,0,0-2.8,6.46v9.66h4.92V82c0-2.68,2.29-4.33,6.16-4.47,5,.19,6.71,2.9,6.71,4.15v10h4.92v-10a8.37,8.37,0,0,0-3.16-6.17"/><rect class="cls-1" x="163.24" y="87.96" width="7.91" height="6.27"/><rect class="cls-1" x="127.56" y="87.96" width="7.91" height="6.27"/><rect class="cls-1" x="145.47" y="87.96" width="7.91" height="6.27"/><path class="cls-1" d="M148.75,75.47a11.63,11.63,0,0,0-3.65-2.06h-9.64A10.14,10.14,0,0,0,132,75.5,8.76,8.76,0,0,0,129.2,82v9.66h4.93V82c0-2.68,2.29-4.33,6.15-4.47,5,.19,6.71,2.9,6.71,4.15v10h4.93v-10a8.35,8.35,0,0,0-3.17-6.17"/><rect class="cls-1" x="145.39" y="87.96" width="7.91" height="6.27"/><rect class="cls-1" x="181.22" y="87.96" width="7.91" height="6.27"/><path class="cls-1" d="M184.27,75.47a11.69,11.69,0,0,0-3.66-2.06H171a10.1,10.1,0,0,0-3.45,2.09,8.72,8.72,0,0,0-2.8,6.46v9.66h4.92V82c0-2.68,2.29-4.33,6.16-4.47,5,.19,6.71,2.9,6.71,4.15v10h4.93v-10a8.38,8.38,0,0,0-3.17-6.17"/><path class="cls-1" d="M189.18,73.41a10.24,10.24,0,0,0-3.46,2.09A8.75,8.75,0,0,0,182.93,82v9.66h4.92V82c0-2.63,2.22-4.27,6-4.46V73.41Z"/><path class="cls-1" d="M130.77,75.47a11.58,11.58,0,0,0-3.66-2.06h-4v4.14c4.34.45,5.85,2.91,5.85,4.09v10h4.93v-10a8.38,8.38,0,0,0-3.17-6.17"/><rect class="cls-1" x="122.94" y="73.04" width="71.03" height="4.48"/><polygon class="cls-1" points="128.36 19.06 124.42 19.06 124.42 22.71 128.81 22.71 128.81 23.8 123.11 23.8 123.11 13.68 128.58 13.68 128.58 14.77 124.42 14.77 124.42 17.97 128.36 17.97 128.36 19.06"/><path class="cls-1" d="M133.1,22.21a4.68,4.68,0,0,0,2.35.66c1.33,0,2.12-.7,2.12-1.73s-.54-1.48-1.91-2C134,18.55,133,17.69,133,16.26c0-1.58,1.31-2.75,3.28-2.75a4.54,4.54,0,0,1,2.24.5l-.36,1.06a4.06,4.06,0,0,0-1.93-.48c-1.38,0-1.9.83-1.9,1.52,0,.95.61,1.41,2,1.95,1.71.66,2.58,1.49,2.58,3S137.75,24,135.36,24a5.25,5.25,0,0,1-2.59-.64Z"/><path class="cls-1" d="M150.55,23.47a6.53,6.53,0,0,1-2.68.48,4.73,4.73,0,0,1-5-5.12,5,5,0,0,1,5.29-5.32,5.4,5.4,0,0,1,2.4.45L150.25,15a4.82,4.82,0,0,0-2.05-.42c-2.37,0-3.95,1.52-3.95,4.18,0,2.47,1.43,4.07,3.89,4.07a5.36,5.36,0,0,0,2.14-.42Z"/><path class="cls-1" d="M156.27,13.68v6c0,2.27,1,3.23,2.36,3.23,1.5,0,2.46-1,2.46-3.23v-6h1.33v5.9c0,3.11-1.64,4.39-3.83,4.39S155,22.78,155,19.64v-6Z"/><polygon class="cls-1" points="172.71 19.06 168.77 19.06 168.77 22.71 173.16 22.71 173.16 23.8 167.47 23.8 167.47 13.68 172.93 13.68 172.93 14.77 168.77 14.77 168.77 17.97 172.71 17.97 172.71 19.06"/><polygon class="cls-1" points="177.64 13.68 178.94 13.68 178.94 22.71 183.27 22.71 183.27 23.8 177.64 23.8 177.64 13.68"/><path class="cls-1" d="M192.46,19.6l-1-2.92c-.22-.66-.37-1.26-.52-1.85h0c-.15.61-.32,1.22-.51,1.84l-1,2.93Zm-3.32,1-1,3.18h-1.35l3.44-10.12h1.58l3.45,10.12h-1.39l-1.09-3.18Z"/><path class="cls-1" d="M123.11,38.47V28.35h1.43l3.25,5.12a29.42,29.42,0,0,1,1.81,3.29h0c-.12-1.35-.15-2.59-.15-4.16V28.35h1.24V38.47h-1.33l-3.21-5.13A32.25,32.25,0,0,1,124.29,30h-.05c.08,1.28.11,2.5.11,4.18v4.32Z"/><path class="cls-1" d="M138.78,34.27l-1-2.92c-.22-.66-.37-1.26-.52-1.84h0c-.15.6-.32,1.21-.52,1.83l-1,2.93Zm-3.32,1-1.05,3.18h-1.35l3.44-10.12h1.58l3.45,10.12h-1.4l-1.08-3.18Z"/><path class="cls-1" d="M150.7,38.14a6.53,6.53,0,0,1-2.68.48,4.73,4.73,0,0,1-5-5.12,5,5,0,0,1,5.29-5.32,5.4,5.4,0,0,1,2.4.45l-.31,1.07a4.82,4.82,0,0,0-2.05-.42c-2.37,0-3.95,1.52-3.95,4.18,0,2.48,1.43,4.07,3.89,4.07a5.36,5.36,0,0,0,2.14-.42Z"/><rect class="cls-1" x="153.16" y="28.35" width="1.31" height="10.12"/><path class="cls-1" d="M158.38,33.47c0,2.16,1.17,4.1,3.23,4.1s3.24-1.9,3.24-4.2c0-2-1-4.12-3.23-4.12s-3.24,2-3.24,4.22m7.85-.16c0,3.48-2.12,5.33-4.7,5.33S157,36.57,157,33.5s2-5.32,4.7-5.32,4.55,2.12,4.55,5.13"/><path class="cls-1" d="M168.76,38.47V28.35h1.42l3.25,5.12a29.62,29.62,0,0,1,1.82,3.29h0c-.12-1.35-.15-2.59-.15-4.16V28.35h1.23V38.47H175l-3.22-5.13A34.17,34.17,0,0,1,169.93,30h-.05c.08,1.28.11,2.5.11,4.18v4.32Z"/><path class="cls-1" d="M184.43,34.27l-1-2.92c-.22-.66-.37-1.26-.52-1.84h0q-.23.9-.51,1.83l-1,2.93Zm-3.32,1-1.05,3.18H178.7l3.44-10.12h1.58l3.46,10.12h-1.4l-1.08-3.18Z"/><polygon class="cls-1" points="189.49 28.35 190.8 28.35 190.8 37.38 195.12 37.38 195.12 38.48 189.49 38.48 189.49 28.35"/><path class="cls-1" d="M123.25,52.6a4.64,4.64,0,0,0,.7,0,2,2,0,0,0,2.25-2.25,1.88,1.88,0,0,0-2.14-2,3.89,3.89,0,0,0-.81.07Zm-.68-4.68a8.92,8.92,0,0,1,1.45-.11,3,3,0,0,1,2.15.66,2.43,2.43,0,0,1,.75,1.9,2.84,2.84,0,0,1-.76,2.06,3.27,3.27,0,0,1-2.35.76,10.93,10.93,0,0,1-1.24-.06Z"/><polygon class="cls-1" points="130.39 50.66 128.33 50.66 128.33 52.57 130.63 52.57 130.63 53.15 127.65 53.15 127.65 47.84 130.51 47.84 130.51 48.42 128.33 48.42 128.33 50.09 130.39 50.09 130.39 50.66"/><polygon class="cls-1" points="139.2 48.4 135.27 48.4 135.27 52.05 139.65 52.05 139.65 53.15 133.96 53.15 133.96 43.02 139.43 43.02 139.43 44.12 135.27 44.12 135.27 47.32 139.2 47.32 139.2 48.4"/><path class="cls-1" d="M141.17,51.55a4.65,4.65,0,0,0,2.35.66c1.33,0,2.11-.7,2.11-1.72s-.54-1.49-1.9-2c-1.66-.58-2.68-1.44-2.68-2.87s1.31-2.74,3.28-2.74a4.65,4.65,0,0,1,2.23.49l-.36,1.07a4,4,0,0,0-1.92-.48c-1.38,0-1.91.82-1.91,1.51,0,.95.62,1.42,2,2,1.71.66,2.58,1.48,2.58,3s-1.16,2.92-3.55,2.92a5.24,5.24,0,0,1-2.58-.65Z"/><polygon class="cls-1" points="150.68 44.13 147.6 44.13 147.6 43.02 155.1 43.02 155.1 44.13 152 44.13 152 53.15 150.68 53.15 150.68 44.13"/><path class="cls-1" d="M157.53,43v6c0,2.27,1,3.24,2.36,3.24,1.5,0,2.47-1,2.47-3.24V43h1.32v5.9c0,3.11-1.64,4.39-3.83,4.39s-3.64-1.19-3.64-4.32V43Z"/><path class="cls-1" d="M167.25,52.11a8.45,8.45,0,0,0,1.33.07c2.79,0,4.31-1.56,4.31-4.29,0-2.39-1.34-3.91-4.1-3.91a7.12,7.12,0,0,0-1.54.14Zm-1.3-9a18.66,18.66,0,0,1,2.78-.21,5.8,5.8,0,0,1,4.1,1.26,4.65,4.65,0,0,1,1.42,3.63,5.39,5.39,0,0,1-1.45,3.94,6.23,6.23,0,0,1-4.48,1.46,22.32,22.32,0,0,1-2.37-.12Z"/><rect class="cls-1" x="175.95" y="43.02" width="1.31" height="10.12"/><path class="cls-1" d="M180.34,48.14c0,2.17,1.17,4.1,3.23,4.1s3.24-1.9,3.24-4.2c0-2-1.05-4.12-3.23-4.12s-3.24,2-3.24,4.22M188.2,48c0,3.48-2.12,5.33-4.71,5.33s-4.55-2.07-4.55-5.14,2-5.31,4.7-5.31S188.2,45,188.2,48"/><path class="cls-1" d="M189.72,51.55a4.61,4.61,0,0,0,2.34.66c1.34,0,2.12-.7,2.12-1.72s-.54-1.49-1.91-2c-1.65-.58-2.67-1.44-2.67-2.87s1.3-2.74,3.27-2.74a4.67,4.67,0,0,1,2.24.49l-.36,1.07a4.06,4.06,0,0,0-1.93-.48c-1.38,0-1.9.82-1.9,1.51,0,.95.61,1.42,2,2,1.71.66,2.58,1.48,2.58,3S194.36,53.3,192,53.3a5.28,5.28,0,0,1-2.59-.65Z"/><path class="cls-1" d="M122.93,66.22a4.58,4.58,0,0,0,2.35.67c1.33,0,2.11-.71,2.11-1.73s-.54-1.49-1.9-2c-1.66-.59-2.68-1.45-2.68-2.87,0-1.58,1.31-2.75,3.28-2.75a4.7,4.7,0,0,1,2.24.49L128,59.09a4.06,4.06,0,0,0-1.93-.48c-1.38,0-1.91.83-1.91,1.52,0,.94.62,1.41,2,1.95,1.71.66,2.58,1.49,2.58,3S127.57,68,125.19,68a5.25,5.25,0,0,1-2.59-.65Z"/><path class="cls-1" d="M131.45,57.69v6c0,2.26,1,3.23,2.36,3.23,1.5,0,2.46-1,2.46-3.23v-6h1.33V63.6c0,3.11-1.64,4.38-3.83,4.38s-3.64-1.18-3.64-4.32v-6Z"/><path class="cls-1" d="M140.8,62.69a4.07,4.07,0,0,0,1.08.11c1.58,0,2.54-.77,2.54-2.16s-.95-2-2.39-2a5.37,5.37,0,0,0-1.23.11Zm-1.31-4.88a15.86,15.86,0,0,1,2.51-.19,4.17,4.17,0,0,1,2.84.84,2.74,2.74,0,0,1,.88,2.12,3,3,0,0,1-.78,2.16,4.16,4.16,0,0,1-3.09,1.11,4.24,4.24,0,0,1-1-.09v4.06h-1.31Z"/><polygon class="cls-1" points="152.35 63.07 148.41 63.07 148.41 66.72 152.8 66.72 152.8 67.82 147.11 67.82 147.11 57.69 152.57 57.69 152.57 58.79 148.41 58.79 148.41 61.99 152.35 61.99 152.35 63.07"/><path class="cls-1" d="M155.43,62.44h1.34c1.39,0,2.28-.77,2.28-1.92,0-1.31-1-1.88-2.33-1.9a5.37,5.37,0,0,0-1.29.12Zm-1.31-4.61a13.23,13.23,0,0,1,2.51-.21,4.14,4.14,0,0,1,2.93.82,2.54,2.54,0,0,1,.8,1.93A2.66,2.66,0,0,1,158.45,63v0a2.52,2.52,0,0,1,1.49,2,16.2,16.2,0,0,0,.78,2.78h-1.35a13.18,13.18,0,0,1-.68-2.42c-.3-1.4-.84-1.92-2-2h-1.23v4.39h-1.31Z"/><rect class="cls-1" x="161.83" y="57.69" width="1.31" height="10.12"/><path class="cls-1" d="M165.84,62.82c0,2.16,1.17,4.1,3.23,4.1s3.25-1.91,3.25-4.21c0-2-1-4.12-3.23-4.12s-3.25,2-3.25,4.23m7.86-.17c0,3.49-2.12,5.33-4.7,5.33s-4.56-2.07-4.56-5.14,2-5.31,4.71-5.31,4.55,2.12,4.55,5.12"/><path class="cls-1" d="M176.33,62.44h1.34c1.39,0,2.28-.77,2.28-1.92,0-1.31-.95-1.88-2.33-1.9a5.37,5.37,0,0,0-1.29.12ZM175,57.83a13.23,13.23,0,0,1,2.51-.21,4.14,4.14,0,0,1,2.93.82,2.54,2.54,0,0,1,.8,1.93A2.66,2.66,0,0,1,179.35,63v0a2.54,2.54,0,0,1,1.49,2,16.2,16.2,0,0,0,.78,2.78h-1.36a13.49,13.49,0,0,1-.67-2.42c-.3-1.4-.84-1.92-2-2h-1.23v4.39H175Z"/><polygon class="cls-1" points="187.97 63.07 184.04 63.07 184.04 66.72 188.42 66.72 188.42 67.82 182.73 67.82 182.73 57.69 188.2 57.69 188.2 58.79 184.04 58.79 184.04 61.99 187.97 61.99 187.97 63.07"/><path class="cls-1" d="M189.57,66.22a4.52,4.52,0,0,0,2.34.67c1.34,0,2.12-.71,2.12-1.73s-.54-1.49-1.91-2c-1.65-.59-2.67-1.45-2.67-2.87,0-1.58,1.3-2.75,3.27-2.75A4.67,4.67,0,0,1,195,58l-.36,1.07a4.06,4.06,0,0,0-1.93-.48c-1.38,0-1.9.83-1.9,1.52,0,.94.61,1.41,2,1.95,1.71.66,2.58,1.49,2.58,3S194.21,68,191.82,68a5.21,5.21,0,0,1-2.58-.65Z"/><path class="cls-1" d="M124.18,98.66v3.06c0,.91.35,1.37,1,1.37s1-.44,1-1.37V98.66h1.2v3c0,1.63-.83,2.41-2.21,2.41s-2.12-.74-2.12-2.43v-3Z"/><path class="cls-1" d="M129.05,104v-5.3h1.4l1.1,2a14.35,14.35,0,0,1,.87,1.81h0a19.32,19.32,0,0,1-.1-2.21V98.66h1.1V104h-1.26l-1.13-2c-.31-.57-.66-1.25-.92-1.87h0c0,.7,0,1.44,0,2.31V104Z"/><rect class="cls-1" x="135.19" y="98.66" width="1.2" height="5.3"/><path class="cls-1" d="M139.34,103.06a2.49,2.49,0,0,0,.41,0,1.64,1.64,0,0,0,1.8-1.85,1.53,1.53,0,0,0-1.67-1.69,2.61,2.61,0,0,0-.54,0Zm-1.21-4.33a10.85,10.85,0,0,1,1.62-.11,3.37,3.37,0,0,1,2.17.57,2.35,2.35,0,0,1,.9,2,2.68,2.68,0,0,1-.88,2.14,3.78,3.78,0,0,1-2.45.69,10.23,10.23,0,0,1-1.36-.08Z"/><path class="cls-1" d="M146.77,101.71l-.33-1.13c-.1-.31-.19-.71-.27-1h0c-.08.31-.15.72-.24,1l-.32,1.13Zm-1.35.89L145,104H143.8l1.62-5.3H147l1.65,5.3h-1.29l-.41-1.36Z"/><path class="cls-1" d="M151.25,103.06a2.68,2.68,0,0,0,.42,0,1.64,1.64,0,0,0,1.79-1.85,1.52,1.52,0,0,0-1.66-1.69,2.83,2.83,0,0,0-.55,0Zm-1.2-4.33a10.76,10.76,0,0,1,1.62-.11,3.37,3.37,0,0,1,2.17.57,2.35,2.35,0,0,1,.9,2,2.68,2.68,0,0,1-.88,2.14,3.78,3.78,0,0,1-2.45.69,10.23,10.23,0,0,1-1.36-.08Z"/><path class="cls-1" d="M163,101.93c0-.63,0-1.4,0-2.17h0c-.17.67-.39,1.43-.59,2l-.65,2.07h-.93l-.57-2.06c-.17-.62-.35-1.37-.48-2.06h0c0,.71,0,1.53-.09,2.19l-.09,2h-1.11l.34-5.3h1.59l.52,1.77c.17.62.33,1.28.45,1.9h0c.15-.61.33-1.32.51-1.9l.56-1.77H164l.29,5.3h-1.17Z"/><path class="cls-1" d="M166.91,101.33c0,1,.48,1.77,1.29,1.77s1.27-.77,1.27-1.8-.46-1.77-1.28-1.77-1.28.77-1.28,1.8m3.83-.07a2.53,2.53,0,0,1-2.61,2.79,2.47,2.47,0,0,1-2.49-2.7,2.56,2.56,0,0,1,2.58-2.77,2.47,2.47,0,0,1,2.52,2.68"/><path class="cls-1" d="M173.42,101h.47c.59,0,1-.3,1-.77s-.33-.73-.88-.74a3.52,3.52,0,0,0-.54,0Zm-1.19-2.29a10.85,10.85,0,0,1,1.59-.11,2.71,2.71,0,0,1,1.72.42,1.36,1.36,0,0,1,.49,1.11,1.39,1.39,0,0,1-.94,1.3v0a1.35,1.35,0,0,1,.71,1,14.5,14.5,0,0,0,.43,1.49H175a7.47,7.47,0,0,1-.37-1.23c-.14-.66-.37-.84-.85-.85h-.36V104h-1.19Z"/><polygon class="cls-1" points="180.75 101.72 178.8 101.72 178.8 102.98 180.98 102.98 180.98 103.96 177.6 103.96 177.6 98.66 180.87 98.66 180.87 99.65 178.8 99.65 178.8 100.75 180.75 100.75 180.75 101.72"/><polygon class="cls-1" points="182.5 98.66 183.71 98.66 183.71 102.96 185.81 102.96 185.81 103.96 182.5 103.96 182.5 98.66"/><rect class="cls-1" x="187.23" y="98.66" width="1.2" height="5.3"/><path class="cls-1" d="M192.76,101.71l-.34-1.13c-.09-.31-.18-.71-.26-1h0c-.08.31-.16.72-.24,1l-.32,1.13Zm-1.35.89L191,104h-1.24l1.62-5.3H193l1.65,5.3h-1.29l-.41-1.36Z"/></svg>