<svg id="Capa_1" data-name="Capa 1" xmlns="http://www.w3.org/2000/svg" viewBox="0 0 253 118"><defs><style>.cls-1,.cls-2{fill:#1a1f43;}.cls-1{fill-rule:evenodd;}</style></defs><title>u-zaragoza</title><path class="cls-1" d="M89.23,40.71V53.6c0,6.59,3,9.52,8.29,9.52,5.42,0,8.66-3,8.66-9.46V40.71h-4.69V53.94c0,3.7-1.35,5.42-3.82,5.42s-3.76-1.81-3.76-5.42V40.71Z"/><path class="cls-1" d="M109.23,62.78h4.68V54.1a3.24,3.24,0,0,1,.16-1.18,2.55,2.55,0,0,1,2.4-1.75c1.69,0,2.37,1.32,2.37,3.27v8.34h4.68v-8.9c0-4.44-2.31-6.5-5.39-6.5a5.43,5.43,0,0,0-4.65,2.43h-.09l-.22-2.09h-4.06c.06,1.35.12,2.93.12,4.8Z"/><path class="cls-1" d="M128.8,40.71a2.33,2.33,0,0,0-2.5,2.34,2.3,2.3,0,0,0,2.43,2.34,2.35,2.35,0,1,0,.07-4.68Z"/><rect class="cls-2" x="126.42" y="47.72" width="4.68" height="15.06"/><path class="cls-1" d="M132.4,47.72l5.49,15.06h4.68l5.61-15.06h-4.94l-1.93,7c-.34,1.3-.59,2.44-.83,3.67h-.1c-.25-1.2-.49-2.37-.86-3.67l-2-7Z"/><path class="cls-1" d="M162.32,56.75a11.46,11.46,0,0,0,.15-1.85c0-3.73-1.84-7.52-6.71-7.52-5.24,0-7.61,4.22-7.61,8,0,4.71,2.93,7.67,8,7.67a14.34,14.34,0,0,0,5.45-1L161,59a12.44,12.44,0,0,1-4.16.65c-2.19,0-4.13-.92-4.25-2.86Zm-9.74-3.21c.13-1.23.93-3,2.9-3,2.16,0,2.65,1.91,2.65,3Z"/><path class="cls-1" d="M164.42,62.78h4.69V55.14a5.56,5.56,0,0,1,.08-1,3,3,0,0,1,3.21-2.38,7.09,7.09,0,0,1,1.26.13V47.44a4.74,4.74,0,0,0-1-.09,4.39,4.39,0,0,0-4.07,3.14h-.13l-.18-2.77h-4c.09,1.29.12,2.74.12,5Z"/><path class="cls-1" d="M174.41,62a10.56,10.56,0,0,0,4.86,1.08c4.32,0,6.5-2.06,6.5-4.9,0-2.18-1.2-3.66-4.06-4.65-1.85-.65-2.44-1-2.44-1.75s.65-1.21,1.79-1.21a7.51,7.51,0,0,1,3.27.87l.79-3.24a9.89,9.89,0,0,0-4.21-.89c-3.73,0-6.13,2.13-6.13,5,0,1.79,1.16,3.48,4.31,4.53,1.72.58,2.18.95,2.18,1.75s-.58,1.24-2,1.24a9.15,9.15,0,0,1-4-1.11Z"/><path class="cls-1" d="M190.15,40.71a2.35,2.35,0,1,0,2.47,2.34A2.32,2.32,0,0,0,190.15,40.71Z"/><rect class="cls-2" x="187.78" y="47.72" width="4.68" height="15.06"/><path class="cls-1" d="M205.28,40.88V49h-.06a4.65,4.65,0,0,0-4-1.69c-3.61,0-6.78,3-6.75,8,0,4.68,2.87,7.73,6.44,7.73a5.24,5.24,0,0,0,4.71-2.53h.09l.19,2.19h4.16c-.06-1-.13-2.8-.13-4.49V40.88Zm0,15.19a6.3,6.3,0,0,1-.09,1.08,2.78,2.78,0,0,1-2.74,2.24c-1.94,0-3.21-1.6-3.21-4.15,0-2.38,1.09-4.29,3.24-4.29a2.81,2.81,0,0,1,2.74,2.28,4.39,4.39,0,0,1,.06.87Z"/><path class="cls-1" d="M225.4,53.88c0-3.57-1.57-6.53-6.59-6.53A12.45,12.45,0,0,0,213,48.7l.86,3A8.56,8.56,0,0,1,218,50.58c2.31,0,2.74,1.14,2.74,2v.19c-5.33,0-8.84,1.85-8.84,5.76a4.62,4.62,0,0,0,4.87,4.62,5.44,5.44,0,0,0,4.31-1.85h.09l.28,1.51h4.22a19,19,0,0,1-.25-3.63Zm-4.52,3.42a3,3,0,0,1-.1.8,2.58,2.58,0,0,1-2.43,1.73A1.69,1.69,0,0,1,216.5,58c0-1.79,1.91-2.37,4.38-2.37Z"/><path class="cls-1" d="M238.19,40.88V49h-.06a4.64,4.64,0,0,0-4-1.69c-3.61,0-6.78,3-6.75,8,0,4.68,2.87,7.73,6.44,7.73a5.24,5.24,0,0,0,4.71-2.53h.09l.19,2.19H243c-.06-1-.12-2.8-.12-4.49V40.88Zm0,15.19a6.3,6.3,0,0,1-.09,1.08,2.78,2.78,0,0,1-2.74,2.24c-1.94,0-3.2-1.6-3.2-4.15,0-2.38,1.07-4.29,3.23-4.29a2.82,2.82,0,0,1,2.74,2.28,4.39,4.39,0,0,1,.06.87Z"/><path class="cls-1" d="M146,80.79a2.47,2.47,0,0,1-.1.67,3,3,0,0,1-2.88,2,1.86,1.86,0,0,1-2-2c0-2.27,2.63-2.68,5-2.63v2m2.05-3.24c0-2.33-.87-4.77-4.45-4.77a7.49,7.49,0,0,0-3.86,1l.48,1.42a5.69,5.69,0,0,1,3.07-.87A2.41,2.41,0,0,1,146,77v.24c-4.52,0-7,1.52-7,4.35A3.34,3.34,0,0,0,142.49,85a4.35,4.35,0,0,0,3.58-1.74h.07l.17,1.48h1.91a19.81,19.81,0,0,1-.17-2.81Z"/><path class="cls-2" d="M152.16,84.73h2.12V78.49a6,6,0,0,1,.08-1,3,3,0,0,1,2.85-2.71,3.31,3.31,0,0,1,.73,0v-2a5.44,5.44,0,0,0-.58,0,3.55,3.55,0,0,0-3.27,2.57H154l-.1-2.32h-1.86c.07,1.08.1,2.27.1,3.64v8.06"/><path class="cls-1" d="M166.78,80.79a2.47,2.47,0,0,1-.1.67,3,3,0,0,1-2.88,2,1.86,1.86,0,0,1-2-2c0-2.27,2.63-2.68,5-2.63v2m2.05-3.24c0-2.33-.87-4.77-4.45-4.77a7.49,7.49,0,0,0-3.86,1l.48,1.42a5.69,5.69,0,0,1,3.07-.87A2.41,2.41,0,0,1,166.73,77v.24c-4.52,0-7,1.52-7,4.35A3.33,3.33,0,0,0,163.27,85a4.35,4.35,0,0,0,3.58-1.74h.07l.17,1.48H169a19.81,19.81,0,0,1-.17-2.81Z"/><path class="cls-1" d="M180.82,79.74a3.71,3.71,0,0,1-.17,1.14,3.07,3.07,0,0,1-3,2.18c-2.27,0-3.46-1.91-3.46-4.21,0-2.71,1.45-4.43,3.48-4.43a3,3,0,0,1,3,2.28,3,3,0,0,1,.12.94v2.1M183,76.22c0-1.4,0-2.37.09-3.19h-1.88l-.08,1.76h0a3.91,3.91,0,0,0-3.65-2c-2.71,0-5.3,2.23-5.3,6.19,0,3.24,2.08,5.71,5,5.71a4.13,4.13,0,0,0,3.72-2h.06V84c0,3-1.6,4.11-3.78,4.11a6.42,6.42,0,0,1-3.43-.94l-.53,1.64a7.5,7.5,0,0,0,3.89,1,6.38,6.38,0,0,0,4.28-1.4c1.11-1,1.67-2.66,1.67-5.36Z"/><path class="cls-1" d="M192,74.38c2.51,0,3.5,2.49,3.5,4.47,0,2.64-1.52,4.55-3.55,4.55s-3.53-1.94-3.53-4.5c0-2.2,1.09-4.52,3.58-4.52m.05-1.6c-3.22,0-5.81,2.3-5.81,6.19,0,3.7,2.48,6,5.62,6,2.8,0,5.82-1.89,5.82-6.21C197.71,75.22,195.44,72.78,192.08,72.78Z"/><path class="cls-2" d="M199.57,84.73H209V83h-6.81v0c.53-.58,1-1.18,1.49-1.83l4.55-6.8V73h-8.89v1.69h6.33v0c-.53.62-.34,1.18-.87,1.83l-5.27,6.9v1.23"/><path class="cls-1" d="M218.08,80.79a2.14,2.14,0,0,1-.1.67,2.94,2.94,0,0,1-2.87,2,1.87,1.87,0,0,1-2-2c0-2.27,2.64-2.68,5-2.63v2m2.06-3.24c0-2.33-.87-4.77-4.45-4.77a7.52,7.52,0,0,0-3.87,1l.48,1.42a5.7,5.7,0,0,1,3.08-.87A2.4,2.4,0,0,1,218,77v.24c-4.52,0-7,1.52-7,4.35A3.33,3.33,0,0,0,214.58,85a4.35,4.35,0,0,0,3.57-1.74h.07l.17,1.48h1.91a19.92,19.92,0,0,1-.16-2.81Z"/><polyline class="cls-2" points="123.52 84.73 136.81 84.73 136.81 82.96 126.3 82.96 126.3 82.89 136.73 69.72 136.73 68.43 123.52 68.43 123.52 70.2 133.97 70.2 133.97 70.27 123.52 83.5 123.52 84.73"/><polygon class="cls-1" points="32.22 108.08 34.05 108.08 34.05 100.02 32.5 100.02 30.35 101.01 30.66 102.43 32.2 101.69 32.22 101.69 32.22 108.08"/><path class="cls-1" d="M45.06,100H40.62l-.52,4.21a6.74,6.74,0,0,1,1.08-.07c1.61,0,2.27.51,2.27,1.36s-.83,1.23-1.61,1.23a4.54,4.54,0,0,1-1.81-.4l-.35,1.41a5.19,5.19,0,0,0,2.24.46c2.18,0,3.47-1.33,3.47-2.83a2.34,2.34,0,0,0-1-2,3.75,3.75,0,0,0-2.12-.58l-.53,0,.18-1.23h3.12Z"/><path class="cls-1" d="M54.67,108.08v-1.92h.95v-1.42h-.95V100H52.35l-3,4.91v1.23h3.57v1.92Zm-3.61-3.34v0L52.14,103c.27-.5.5-1,.76-1.5h0c0,.53,0,1,0,1.5v1.79Z"/><path class="cls-1" d="M65.14,108.08v-1.55h-3v0l.74-.63c1.18-1,2.15-2.11,2.15-3.47s-1-2.53-2.83-2.53a4.5,4.5,0,0,0-2.63.83l.54,1.34a3,3,0,0,1,1.72-.65c.93,0,1.31.52,1.31,1.17,0,.94-.86,1.85-2.64,3.43l-1,.94v1.14Z"/><path class="cls-2" d="M52,47.71a.78.78,0,1,0-.78-.78A.77.77,0,0,0,52,47.71Zm.79-.05a.78.78,0,0,0,.78.78.78.78,0,0,0,0-1.56A.78.78,0,0,0,52.8,47.66Zm-2.31-2.39a.78.78,0,1,0,0,1.56.78.78,0,0,0,0-1.56Zm4,3a.51.51,0,1,0,1,0,.51.51,0,0,0-1,0Zm3.12-21.5V22.9a2.17,2.17,0,1,0-4.34,0v3.87a.37.37,0,0,0,.39.39h3.56A.38.38,0,0,0,57.63,26.77ZM47.5,45.45a1.08,1.08,0,0,0,2.16,0,1.08,1.08,0,1,0-2.16,0Zm-2.36.71a.78.78,0,1,0,.78.77A.78.78,0,0,0,45.14,46.16Zm1.54.67a.78.78,0,1,0-.78-.78A.78.78,0,0,0,46.68,46.83Zm-2.33-8.92v7.55l4.26-2,4.48,2.18V37.91a4.37,4.37,0,0,0-8.74,0Zm0-15a2.17,2.17,0,0,0-4.34,0v3.87a.37.37,0,0,0,.39.39H44a.38.38,0,0,0,.39-.39Zm33.39-6.37,3.63-3.62H16.74L19,16.53ZM72.6,12l3-1.62H21.56L23.48,12Zm-29,34.88a.78.78,0,1,0,.78.78A.78.78,0,0,0,43.55,46.88Zm16.57-9V45.7a.76.76,0,0,0,.78.79h7.17a.76.76,0,0,0,.79-.79V37.91a4.37,4.37,0,0,0-8.74,0ZM50.47,27.16a.37.37,0,0,0,.39-.39V22.9a2.17,2.17,0,0,0-4.34,0v3.87a.38.38,0,0,0,.39.39ZM41.71,48.27a.51.51,0,0,0,.51.52.51.51,0,0,0,.51-.52.5.5,0,0,0-.51-.5A.5.5,0,0,0,41.71,48.27Zm18.32,5L48.61,47.1,37,53.18ZM47.42,48.92h2.34a.24.24,0,0,1,.25.26V51a1.43,1.43,0,0,1-2.85,0V49.18A.25.25,0,0,1,47.42,48.92ZM15.28,87.68v4H82v-4ZM37,57.78a1.15,1.15,0,1,0-1.14,1.14A1.14,1.14,0,0,0,37,57.78Zm-8.7-19.87V45.7a.77.77,0,0,0,.79.79h7.17A.77.77,0,0,0,37,45.7V37.91a4.38,4.38,0,0,0-8.75,0Zm7.24-17.18a2.17,2.17,0,0,0-2.17,2.17v3.87a.38.38,0,0,0,.39.39h3.57a.38.38,0,0,0,.39-.39V22.9A2.17,2.17,0,0,0,35.52,20.73ZM30.61,57.78a1.15,1.15,0,1,0-1.15,1.14A1.14,1.14,0,0,0,30.61,57.78ZM29,20.73a2.17,2.17,0,0,0-2.17,2.17v3.87a.38.38,0,0,0,.39.39h3.56a.37.37,0,0,0,.39-.39V22.9A2.17,2.17,0,0,0,29,20.73Zm-.72,57.35a.77.77,0,0,0,.79.79h7.17a.77.77,0,0,0,.79-.79V64.84a4.38,4.38,0,0,0-8.75,0Zm-8.61,8.23h58V83.06h-58Zm51-59.15a.37.37,0,0,0,.39-.39V22.9a2.17,2.17,0,0,0-4.34,0v3.87a.38.38,0,0,0,.39.39ZM24,81.81H73.35V79.69H24ZM61.15,58.92A1.15,1.15,0,1,0,60,57.78,1.14,1.14,0,0,0,61.15,58.92Zm7.52-1.14a1.15,1.15,0,1,0-1.15,1.14A1.14,1.14,0,0,0,68.67,57.78Zm-7.81,21H68a.76.76,0,0,0,.79-.79V64.4a4.37,4.37,0,1,0-8.74,0V78A.76.76,0,0,0,60.86,78.78Zm1.12-58a2.17,2.17,0,0,0-2.17,2.17v3.87a.37.37,0,0,0,.39.39h3.56a.38.38,0,0,0,.39-.39V22.9A2.17,2.17,0,0,0,62,20.73ZM43.4,78.87H53.46a1.06,1.06,0,0,0,1.1-1.11V63.71a6.14,6.14,0,0,0-12.27,0V77.76A1.06,1.06,0,0,0,43.4,78.87ZM43.28,57a1.15,1.15,0,1,0-1.15-1.15A1.15,1.15,0,0,0,43.28,57Zm11.13-1.15a1.15,1.15,0,1,0-2.3,0,1.15,1.15,0,1,0,2.3,0Z"/></svg>